<svg width="800" height="450" xmlns="http://www.w3.org/2000/svg">
    <style>
        .orbit { fill: none; stroke: #30363d; stroke-width: 1; opacity: 0.5; }
        .planet { filter: drop-shadow(0 0 5px rgba(255,255,255,0.3)); }
        .text { font-family: 'Courier New', monospace; fill: #8b949e; font-size: 10px; }
        .title { font-family: sans-serif; fill: white; font-weight: bold; font-size: 24px; letter-spacing: 4px; }
        .hud-line { stroke: #00ffff; stroke-width: 1; opacity: 0.3; }
        
        /* ANIMATIONS */
        @keyframes pulse { 0% { r: 25; opacity: 0.8; } 50% { r: 30; opacity: 0.4; } 100% { r: 25; opacity: 0.8; } }
        .sun { animation: pulse 4s infinite; }
    </style>
    
    <rect width="100%" height="100%" fill="#0d1117" />
    
    <line x1="50" y1="50" x2="50" y2="400" class="hud-line" />
    <line x1="50" y1="400" x2="750" y2="400" class="hud-line" />
    <text x="60" y="390" class="text">SYS_TIME: 2026.05.11 :: 0208</text>
    <text x="60" y="375" class="text">SECTOR: N_BHARATH_PRIME</text>
    
    <circle cx="400" cy="225" r="25" fill="url(#grad1)" class="sun" />
    <defs>
        <radialGradient id="grad1" cx="50%" cy="50%" r="50%" fx="50%" fy="50%">
            <stop offset="0%" style="stop-color:white;stop-opacity:1" />
            <stop offset="100%" style="stop-color:#00ffff;stop-opacity:1" />
        </radialGradient>
    </defs>
    <circle cx="400" cy="225" r="150.0" class="orbit" />
<circle cx="484.2730770600418" cy="100.91112667594952" r="50" fill="#e34c26" class="planet" />
<text x="499.2730770600418" y="105.91112667594952" class="text" fill="white">CIRCLE13</text>
<circle cx="400" cy="225" r="240.0" class="orbit" />
<circle cx="635.3850450718137" cy="271.83887868576915" r="50" fill="#f1e05a" class="planet" />
<text x="650.3850450718137" y="276.83887868576915" class="text" fill="white">REDSHIFT</text>
<circle cx="400" cy="225" r="330.0" class="orbit" />
<circle cx="70.0027421928516" cy="223.65469714842317" r="50" fill="#e34c26" class="planet" />
<text x="85.0027421928516" y="228.65469714842317" class="text" fill="white">ALVRYN-AI</text>
<circle cx="400" cy="225" r="415.422" class="orbit" />
<circle cx="65.42339451230214" cy="471.23958484437344" r="46.948" fill="#f1e05a" class="planet" />
<text x="80.42339451230214" y="476.23958484437344" class="text" fill="white">DRIFT-CIRCLE13</text>
<circle cx="400" cy="225" r="461.8095" class="orbit" />
<circle cx="-53.31595362947019" cy="136.8373067831178" r="20.925" fill="#2b7489" class="planet" />
<text x="-38.31595362947019" y="141.8373067831178" class="text" fill="white">DSATM-EXAM-SYSTEM-</text>
<circle cx="400" cy="225" r="504.9285" class="orbit" />
<circle cx="395.6855486186536" cy="729.91006686491" r="18.746" fill="#8b949e" class="planet" />
<text x="410.6855486186536" y="734.91006686491" class="text" fill="white">NBHARATH1306</text>
<circle cx="400" cy="225" r="547.161" class="orbit" />
<circle cx="946.3964026255541" cy="253.91593192088723" r="18.155" fill="#e34c26" class="planet" />
<text x="961.3964026255541" y="258.91593192088726" class="text" fill="white">WEBSITE-EQUDATOR-TRADING-PLATFORM</text>
<circle cx="400" cy="225" r="577.9934999999999" class="orbit" />
<circle cx="-172.86886673730646" cy="301.7967939784219" r="10.555" fill="#8b949e" class="planet" />
<text x="-157.86886673730646" y="306.7967939784219" class="text" fill="white">FLASK</text>
<circle cx="400" cy="225" r="608.2665" class="orbit" />
<circle cx="802.637228047646" cy="-230.92915854588398" r="10.182" fill="#8b949e" class="planet" />
<text x="817.637228047646" y="-225.92915854588398" class="text" fill="white">HCF-INTERNSHIP</text>
<circle cx="400" cy="225" r="637.1355" class="orbit" />
<circle cx="-231.91781332789128" cy="143.62726157277035" r="9.246" fill="#8b949e" class="planet" />

    <text x="400" y="40" text-anchor="middle" class="title">SYSTEM SINGULARITY</text>
    </svg>