<svg width="800" height="450" xmlns="http://www.w3.org/2000/svg">
    <style>
        .orbit { fill: none; stroke: #30363d; stroke-width: 1; opacity: 0.5; }
        .planet { filter: drop-shadow(0 0 5px rgba(255,255,255,0.3)); }
        .text { font-family: 'Courier New', monospace; fill: #8b949e; font-size: 10px; }
        .title { font-family: sans-serif; fill: white; font-weight: bold; font-size: 24px; letter-spacing: 4px; }
        .hud-line { stroke: #00ffff; stroke-width: 1; opacity: 0.3; }
        
        /* ANIMATIONS */
        @keyframes pulse { 0% { r: 25; opacity: 0.8; } 50% { r: 30; opacity: 0.4; } 100% { r: 25; opacity: 0.8; } }
        .sun { animation: pulse 4s infinite; }
    </style>
    
    <rect width="100%" height="100%" fill="#0d1117" />
    
    <line x1="50" y1="50" x2="50" y2="400" class="hud-line" />
    <line x1="50" y1="400" x2="750" y2="400" class="hud-line" />
    <text x="60" y="390" class="text">SYS_TIME: 2026.05.01 :: 0204</text>
    <text x="60" y="375" class="text">SECTOR: N_BHARATH_PRIME</text>
    
    <circle cx="400" cy="225" r="25" fill="url(#grad1)" class="sun" />
    <defs>
        <radialGradient id="grad1" cx="50%" cy="50%" r="50%" fx="50%" fy="50%">
            <stop offset="0%" style="stop-color:white;stop-opacity:1" />
            <stop offset="100%" style="stop-color:#00ffff;stop-opacity:1" />
        </radialGradient>
    </defs>
    <circle cx="400" cy="225" r="150.0" class="orbit" />
<circle cx="529.4309879502774" cy="149.18694467167853" r="50" fill="#e34c26" class="planet" />
<text x="544.4309879502774" y="154.18694467167853" class="text" fill="white">CIRCLE13</text>
<circle cx="400" cy="225" r="240.0" class="orbit" />
<circle cx="463.55300525903067" cy="456.43252909335285" r="50" fill="#f1e05a" class="planet" />
<text x="478.55300525903067" y="461.43252909335285" class="text" fill="white">REDSHIFT</text>
<circle cx="400" cy="225" r="330.0" class="orbit" />
<circle cx="542.3895790931471" cy="-72.6998618838719" r="50" fill="#e34c26" class="planet" />
<text x="557.3895790931471" y="-67.6998618838719" class="text" fill="white">ALVRYN-AI</text>
<circle cx="400" cy="225" r="415.422" class="orbit" />
<circle cx="35.0099600866381" cy="423.38777393791815" r="46.948" fill="#f1e05a" class="planet" />
<text x="50.0099600866381" y="428.38777393791815" class="text" fill="white">DRIFT-CIRCLE13</text>
<circle cx="400" cy="225" r="461.8095" class="orbit" />
<circle cx="520.8615808754525" cy="-220.71346463679606" r="20.925" fill="#2b7489" class="planet" />
<text x="535.8615808754525" y="-215.71346463679606" class="text" fill="white">DSATM-EXAM-SYSTEM-</text>
<circle cx="400" cy="225" r="504.909" class="orbit" />
<circle cx="-65.90467912091407" cy="30.40830373770291" r="18.733" fill="#8b949e" class="planet" />
<text x="-50.90467912091407" y="35.40830373770291" class="text" fill="white">NBHARATH1306</text>
<circle cx="400" cy="225" r="547.1415" class="orbit" />
<circle cx="916.6000803844996" cy="405.2447723762841" r="18.155" fill="#e34c26" class="planet" />
<text x="931.6000803844996" y="410.2447723762841" class="text" fill="white">WEBSITE-EQUDATOR-TRADING-PLATFORM</text>
<circle cx="400" cy="225" r="577.9739999999999" class="orbit" />
<circle cx="64.92090683283783" cy="-245.9309354865872" r="10.555" fill="#8b949e" class="planet" />
<text x="79.92090683283783" y="-240.9309354865872" class="text" fill="white">FLASK</text>
<circle cx="400" cy="225" r="608.247" class="orbit" />
<circle cx="421.6380213206513" cy="832.8619983535136" r="10.182" fill="#8b949e" class="planet" />
<text x="436.6380213206513" y="837.8619983535136" class="text" fill="white">HCF-INTERNSHIP</text>
<circle cx="400" cy="225" r="637.116" class="orbit" />
<circle cx="219.70905264710208" cy="836.0744404396198" r="9.246" fill="#8b949e" class="planet" />

    <text x="400" y="40" text-anchor="middle" class="title">SYSTEM SINGULARITY</text>
    </svg>