<svg width="800" height="450" xmlns="http://www.w3.org/2000/svg">
    <style>
        .orbit { fill: none; stroke: #30363d; stroke-width: 1; opacity: 0.5; }
        .planet { filter: drop-shadow(0 0 5px rgba(255,255,255,0.3)); }
        .text { font-family: 'Courier New', monospace; fill: #8b949e; font-size: 10px; }
        .title { font-family: sans-serif; fill: white; font-weight: bold; font-size: 24px; letter-spacing: 4px; }
        .hud-line { stroke: #00ffff; stroke-width: 1; opacity: 0.3; }
        
        /* ANIMATIONS */
        @keyframes pulse { 0% { r: 25; opacity: 0.8; } 50% { r: 30; opacity: 0.4; } 100% { r: 25; opacity: 0.8; } }
        .sun { animation: pulse 4s infinite; }
    </style>
    
    <rect width="100%" height="100%" fill="#0d1117" />
    
    <line x1="50" y1="50" x2="50" y2="400" class="hud-line" />
    <line x1="50" y1="400" x2="750" y2="400" class="hud-line" />
    <text x="60" y="390" class="text">SYS_TIME: 2026.02.11 :: 0123</text>
    <text x="60" y="375" class="text">SECTOR: N_BHARATH_PRIME</text>
    
    <circle cx="400" cy="225" r="25" fill="url(#grad1)" class="sun" />
    <defs>
        <radialGradient id="grad1" cx="50%" cy="50%" r="50%" fx="50%" fy="50%">
            <stop offset="0%" style="stop-color:white;stop-opacity:1" />
            <stop offset="100%" style="stop-color:#00ffff;stop-opacity:1" />
        </radialGradient>
    </defs>
    <circle cx="400" cy="225" r="150.0" class="orbit" />
<circle cx="277.5728391887879" cy="138.3305688509172" r="50" fill="#e34c26" class="planet" />
<text x="292.5728391887879" y="143.3305688509172" class="text" fill="white">CIRCLE-13</text>
<circle cx="400" cy="225" r="240.0" class="orbit" />
<circle cx="590.2761599546868" cy="371.27023946414533" r="50" fill="#f1e05a" class="planet" />
<text x="605.2761599546868" y="376.27023946414533" class="text" fill="white">REDSHIFT</text>
<circle cx="400" cy="225" r="330.0" class="orbit" />
<circle cx="421.2866927301395" cy="554.3127339059524" r="50" fill="#e34c26" class="planet" />
<text x="436.2866927301395" y="559.3127339059524" class="text" fill="white">ALVRYN-AI</text>
<circle cx="400" cy="225" r="415.422" class="orbit" />
<circle cx="285.42500014748515" cy="-174.3094132283839" r="46.948" fill="#f1e05a" class="planet" />
<text x="300.42500014748515" y="-169.3094132283839" class="text" fill="white">DRIFT-CIRCLE13</text>
<circle cx="400" cy="225" r="461.8095" class="orbit" />
<circle cx="856.0652629628062" cy="152.38808493837632" r="20.925" fill="#2b7489" class="planet" />
<text x="871.0652629628062" y="157.38808493837632" class="text" fill="white">DSATM-EXAM-SYSTEM-</text>
<circle cx="400" cy="225" r="504.79650000000004" class="orbit" />
<circle cx="869.4560277014199" cy="410.5546940043656" r="18.658" fill="#8b949e" class="planet" />
<text x="884.4560277014199" y="415.5546940043656" class="text" fill="white">NBHARATH1306</text>
<circle cx="400" cy="225" r="547.029" class="orbit" />
<circle cx="-28.046696652858714" cy="565.612319691428" r="18.155" fill="#e34c26" class="planet" />
<text x="-13.046696652858714" y="570.612319691428" class="text" fill="white">WEBSITE-EQUDATOR-TRADING-PLATFORM</text>
<circle cx="400" cy="225" r="577.8615" class="orbit" />
<circle cx="-98.25184073028947" cy="517.6926995863207" r="10.555" fill="#8b949e" class="planet" />
<text x="-83.25184073028947" y="522.6926995863207" class="text" fill="white">FLASK</text>
<circle cx="400" cy="225" r="608.1345" class="orbit" />
<circle cx="678.2687209984042" cy="-315.7347677042436" r="10.182" fill="#8b949e" class="planet" />
<text x="693.2687209984042" y="-310.7347677042436" class="text" fill="white">HCF-INTERNSHIP</text>
<circle cx="400" cy="225" r="637.0035" class="orbit" />
<circle cx="-217.39746360753475" cy="68.17579605420315" r="9.246" fill="#8b949e" class="planet" />

    <text x="400" y="40" text-anchor="middle" class="title">SYSTEM SINGULARITY</text>
    </svg>