<svg width="800" height="450" xmlns="http://www.w3.org/2000/svg">
    <style>
        .orbit { fill: none; stroke: #30363d; stroke-width: 1; opacity: 0.5; }
        .planet { filter: drop-shadow(0 0 5px rgba(255,255,255,0.3)); }
        .text { font-family: 'Courier New', monospace; fill: #8b949e; font-size: 10px; }
        .title { font-family: sans-serif; fill: white; font-weight: bold; font-size: 24px; letter-spacing: 4px; }
        .hud-line { stroke: #00ffff; stroke-width: 1; opacity: 0.3; }
        
        /* ANIMATIONS */
        @keyframes pulse { 0% { r: 25; opacity: 0.8; } 50% { r: 30; opacity: 0.4; } 100% { r: 25; opacity: 0.8; } }
        .sun { animation: pulse 4s infinite; }
    </style>
    
    <rect width="100%" height="100%" fill="#0d1117" />
    
    <line x1="50" y1="50" x2="50" y2="400" class="hud-line" />
    <line x1="50" y1="400" x2="750" y2="400" class="hud-line" />
    <text x="60" y="390" class="text">SYS_TIME: 2026.05.25 :: 0232</text>
    <text x="60" y="375" class="text">SECTOR: N_BHARATH_PRIME</text>
    
    <circle cx="400" cy="225" r="25" fill="url(#grad1)" class="sun" />
    <defs>
        <radialGradient id="grad1" cx="50%" cy="50%" r="50%" fx="50%" fy="50%">
            <stop offset="0%" style="stop-color:white;stop-opacity:1" />
            <stop offset="100%" style="stop-color:#00ffff;stop-opacity:1" />
        </radialGradient>
    </defs>
    <circle cx="400" cy="225" r="150.0" class="orbit" />
<circle cx="515.961500518041" cy="129.85311146650992" r="50" fill="#e34c26" class="planet" />
<text x="530.961500518041" y="134.85311146650992" class="text" fill="white">CIRCLE13</text>
<circle cx="400" cy="225" r="240.0" class="orbit" />
<circle cx="503.91188282323924" cy="441.3384399687892" r="50" fill="#f1e05a" class="planet" />
<text x="518.9118828232392" y="446.3384399687892" class="text" fill="white">REDSHIFT</text>
<circle cx="400" cy="225" r="330.0" class="orbit" />
<circle cx="374.88506706326723" cy="-104.04291535236467" r="50" fill="#e34c26" class="planet" />
<text x="389.88506706326723" y="-99.04291535236467" class="text" fill="white">ALVRYN-AI</text>
<circle cx="400" cy="225" r="415.422" class="orbit" />
<circle cx="784.710072693101" cy="381.75968248395026" r="46.948" fill="#f1e05a" class="planet" />
<text x="799.710072693101" y="386.75968248395026" class="text" fill="white">DRIFT-CIRCLE13</text>
<circle cx="400" cy="225" r="461.8095" class="orbit" />
<circle cx="527.1370091800723" cy="668.964182324426" r="20.925" fill="#2b7489" class="planet" />
<text x="542.1370091800723" y="673.964182324426" class="text" fill="white">DSATM-EXAM-SYSTEM-</text>
<circle cx="400" cy="225" r="504.91200000000003" class="orbit" />
<circle cx="738.0558174880563" cy="600.0391872944506" r="18.735" fill="#8b949e" class="planet" />
<text x="753.0558174880563" y="605.0391872944506" class="text" fill="white">NBHARATH1306</text>
<circle cx="400" cy="225" r="547.1445" class="orbit" />
<circle cx="901.6385166146206" cy="443.46258839657884" r="18.155" fill="#e34c26" class="planet" />
<text x="916.6385166146206" y="448.46258839657884" class="text" fill="white">WEBSITE-EQUDATOR-TRADING-PLATFORM</text>
<circle cx="400" cy="225" r="577.977" class="orbit" />
<circle cx="775.9351336943137" cy="664.0104643208845" r="10.555" fill="#8b949e" class="planet" />
<text x="790.9351336943137" y="669.0104643208845" class="text" fill="white">FLASK</text>
<circle cx="400" cy="225" r="608.25" class="orbit" />
<circle cx="176.4437851457419" cy="790.6771882443527" r="10.182" fill="#8b949e" class="planet" />
<text x="191.4437851457419" y="795.6771882443527" class="text" fill="white">HCF-INTERNSHIP</text>
<circle cx="400" cy="225" r="637.119" class="orbit" />
<circle cx="856.1884716487173" cy="-219.7613950151333" r="9.246" fill="#8b949e" class="planet" />

    <text x="400" y="40" text-anchor="middle" class="title">SYSTEM SINGULARITY</text>
    </svg>