<svg width="800" height="450" xmlns="http://www.w3.org/2000/svg">
    <style>
        .orbit { fill: none; stroke: #30363d; stroke-width: 1; opacity: 0.5; }
        .planet { filter: drop-shadow(0 0 5px rgba(255,255,255,0.3)); }
        .text { font-family: 'Courier New', monospace; fill: #8b949e; font-size: 10px; }
        .title { font-family: sans-serif; fill: white; font-weight: bold; font-size: 24px; letter-spacing: 4px; }
        .hud-line { stroke: #00ffff; stroke-width: 1; opacity: 0.3; }
        
        /* ANIMATIONS */
        @keyframes pulse { 0% { r: 25; opacity: 0.8; } 50% { r: 30; opacity: 0.4; } 100% { r: 25; opacity: 0.8; } }
        .sun { animation: pulse 4s infinite; }
    </style>
    
    <rect width="100%" height="100%" fill="#0d1117" />
    
    <line x1="50" y1="50" x2="50" y2="400" class="hud-line" />
    <line x1="50" y1="400" x2="750" y2="400" class="hud-line" />
    <text x="60" y="390" class="text">SYS_TIME: 2026.03.13 :: 0112</text>
    <text x="60" y="375" class="text">SECTOR: N_BHARATH_PRIME</text>
    
    <circle cx="400" cy="225" r="25" fill="url(#grad1)" class="sun" />
    <defs>
        <radialGradient id="grad1" cx="50%" cy="50%" r="50%" fx="50%" fy="50%">
            <stop offset="0%" style="stop-color:white;stop-opacity:1" />
            <stop offset="100%" style="stop-color:#00ffff;stop-opacity:1" />
        </radialGradient>
    </defs>
    <circle cx="400" cy="225" r="150.0" class="orbit" />
<circle cx="250.3937728970803" cy="214.1382868740876" r="50" fill="#f1e05a" class="planet" />
<text x="265.39377289708034" y="219.1382868740876" class="text" fill="white">REDSHIFT</text>
<circle cx="400" cy="225" r="240.0" class="orbit" />
<circle cx="531.9595587415067" cy="425.46614391648984" r="50" fill="#e34c26" class="planet" />
<text x="546.9595587415067" y="430.46614391648984" class="text" fill="white">CIRCLE-13</text>
<circle cx="400" cy="225" r="330.0" class="orbit" />
<circle cx="666.7278477664951" cy="419.30968896545903" r="50" fill="#e34c26" class="planet" />
<text x="681.7278477664951" y="424.30968896545903" class="text" fill="white">ALVRYN-AI</text>
<circle cx="400" cy="225" r="415.422" class="orbit" />
<circle cx="70.2820704157694" cy="477.7083793519487" r="46.948" fill="#f1e05a" class="planet" />
<text x="85.2820704157694" y="482.7083793519487" class="text" fill="white">DRIFT-CIRCLE13</text>
<circle cx="400" cy="225" r="461.8095" class="orbit" />
<circle cx="10.629947507805923" cy="473.3122560657771" r="20.925" fill="#2b7489" class="planet" />
<text x="25.629947507805923" y="478.3122560657771" class="text" fill="white">DSATM-EXAM-SYSTEM-</text>
<circle cx="400" cy="225" r="504.8565" class="orbit" />
<circle cx="-96.37218833840404" cy="132.83310661417573" r="18.698" fill="#8b949e" class="planet" />
<text x="-81.37218833840404" y="137.83310661417573" class="text" fill="white">NBHARATH1306</text>
<circle cx="400" cy="225" r="547.0889999999999" class="orbit" />
<circle cx="146.64540812161147" cy="709.8894974065072" r="18.155" fill="#e34c26" class="planet" />
<text x="161.64540812161147" y="714.8894974065072" class="text" fill="white">WEBSITE-EQUDATOR-TRADING-PLATFORM</text>
<circle cx="400" cy="225" r="577.9214999999999" class="orbit" />
<circle cx="829.9440489094487" cy="-161.1882636352372" r="10.555" fill="#8b949e" class="planet" />
<text x="844.9440489094487" y="-156.1882636352372" class="text" fill="white">FLASK</text>
<circle cx="400" cy="225" r="608.1945" class="orbit" />
<circle cx="642.97957041166" cy="-332.549529811312" r="10.182" fill="#8b949e" class="planet" />
<text x="657.97957041166" y="-327.549529811312" class="text" fill="white">HCF-INTERNSHIP</text>
<circle cx="400" cy="225" r="637.0635" class="orbit" />
<circle cx="837.9386218303191" cy="-237.66582599281168" r="9.246" fill="#8b949e" class="planet" />

    <text x="400" y="40" text-anchor="middle" class="title">SYSTEM SINGULARITY</text>
    </svg>