<svg width="800" height="450" xmlns="http://www.w3.org/2000/svg">
    <style>
        .orbit { fill: none; stroke: #30363d; stroke-width: 1; opacity: 0.5; }
        .planet { filter: drop-shadow(0 0 5px rgba(255,255,255,0.3)); }
        .text { font-family: 'Courier New', monospace; fill: #8b949e; font-size: 10px; }
        .title { font-family: sans-serif; fill: white; font-weight: bold; font-size: 24px; letter-spacing: 4px; }
        .hud-line { stroke: #00ffff; stroke-width: 1; opacity: 0.3; }
        
        /* ANIMATIONS */
        @keyframes pulse { 0% { r: 25; opacity: 0.8; } 50% { r: 30; opacity: 0.4; } 100% { r: 25; opacity: 0.8; } }
        .sun { animation: pulse 4s infinite; }
    </style>
    
    <rect width="100%" height="100%" fill="#0d1117" />
    
    <line x1="50" y1="50" x2="50" y2="400" class="hud-line" />
    <line x1="50" y1="400" x2="750" y2="400" class="hud-line" />
    <text x="60" y="390" class="text">SYS_TIME: 2026.05.15 :: 0210</text>
    <text x="60" y="375" class="text">SECTOR: N_BHARATH_PRIME</text>
    
    <circle cx="400" cy="225" r="25" fill="url(#grad1)" class="sun" />
    <defs>
        <radialGradient id="grad1" cx="50%" cy="50%" r="50%" fx="50%" fy="50%">
            <stop offset="0%" style="stop-color:white;stop-opacity:1" />
            <stop offset="100%" style="stop-color:#00ffff;stop-opacity:1" />
        </radialGradient>
    </defs>
    <circle cx="400" cy="225" r="150.0" class="orbit" />
<circle cx="257.8855932539557" cy="177.00525658762328" r="50" fill="#e34c26" class="planet" />
<text x="272.8855932539557" y="182.00525658762328" class="text" fill="white">CIRCLE13</text>
<circle cx="400" cy="225" r="240.0" class="orbit" />
<circle cx="164.83621064644308" cy="272.93737765956655" r="50" fill="#f1e05a" class="planet" />
<text x="179.83621064644308" y="277.93737765956655" class="text" fill="white">REDSHIFT</text>
<circle cx="400" cy="225" r="330.0" class="orbit" />
<circle cx="665.7871228853426" cy="29.405507980588027" r="50" fill="#e34c26" class="planet" />
<text x="680.7871228853426" y="34.40550798058803" class="text" fill="white">ALVRYN-AI</text>
<circle cx="400" cy="225" r="415.422" class="orbit" />
<circle cx="691.9424833545794" cy="520.5419166493327" r="46.948" fill="#f1e05a" class="planet" />
<text x="706.9424833545794" y="525.5419166493327" class="text" fill="white">DRIFT-CIRCLE13</text>
<circle cx="400" cy="225" r="461.8095" class="orbit" />
<circle cx="27.552594721413016" cy="498.04018860141815" r="20.925" fill="#2b7489" class="planet" />
<text x="42.552594721413016" y="503.04018860141815" class="text" fill="white">DSATM-EXAM-SYSTEM-</text>
<circle cx="400" cy="225" r="504.9375" class="orbit" />
<circle cx="206.11520902914845" cy="-241.23016497910044" r="18.752" fill="#8b949e" class="planet" />
<text x="221.11520902914845" y="-236.23016497910044" class="text" fill="white">NBHARATH1306</text>
<circle cx="400" cy="225" r="547.17" class="orbit" />
<circle cx="58.43462990494044" cy="-202.46708276991922" r="18.155" fill="#e34c26" class="planet" />
<text x="73.43462990494044" y="-197.46708276991922" class="text" fill="white">WEBSITE-EQUDATOR-TRADING-PLATFORM</text>
<circle cx="400" cy="225" r="578.0024999999999" class="orbit" />
<circle cx="623.8886641780423" cy="757.8796825352058" r="10.555" fill="#8b949e" class="planet" />
<text x="638.8886641780423" y="762.8796825352058" class="text" fill="white">FLASK</text>
<circle cx="400" cy="225" r="608.2755" class="orbit" />
<circle cx="802.4244867859506" cy="-231.12894704821593" r="10.182" fill="#8b949e" class="planet" />
<text x="817.4244867859506" y="-226.12894704821593" class="text" fill="white">HCF-INTERNSHIP</text>
<circle cx="400" cy="225" r="637.1445" class="orbit" />
<circle cx="705.9108790148565" cy="783.9021810483547" r="9.246" fill="#8b949e" class="planet" />

    <text x="400" y="40" text-anchor="middle" class="title">SYSTEM SINGULARITY</text>
    </svg>