<svg width="800" height="450" xmlns="http://www.w3.org/2000/svg">
    <style>
        .orbit { fill: none; stroke: #30363d; stroke-width: 1; opacity: 0.5; }
        .planet { filter: drop-shadow(0 0 5px rgba(255,255,255,0.3)); }
        .text { font-family: 'Courier New', monospace; fill: #8b949e; font-size: 10px; }
        .title { font-family: sans-serif; fill: white; font-weight: bold; font-size: 24px; letter-spacing: 4px; }
        .hud-line { stroke: #00ffff; stroke-width: 1; opacity: 0.3; }
        
        /* ANIMATIONS */
        @keyframes pulse { 0% { r: 25; opacity: 0.8; } 50% { r: 30; opacity: 0.4; } 100% { r: 25; opacity: 0.8; } }
        .sun { animation: pulse 4s infinite; }
    </style>
    
    <rect width="100%" height="100%" fill="#0d1117" />
    
    <line x1="50" y1="50" x2="50" y2="400" class="hud-line" />
    <line x1="50" y1="400" x2="750" y2="400" class="hud-line" />
    <text x="60" y="390" class="text">SYS_TIME: 2026.06.19 :: 0257</text>
    <text x="60" y="375" class="text">SECTOR: N_BHARATH_PRIME</text>
    
    <circle cx="400" cy="225" r="25" fill="url(#grad1)" class="sun" />
    <defs>
        <radialGradient id="grad1" cx="50%" cy="50%" r="50%" fx="50%" fy="50%">
            <stop offset="0%" style="stop-color:white;stop-opacity:1" />
            <stop offset="100%" style="stop-color:#00ffff;stop-opacity:1" />
        </radialGradient>
    </defs>
    <circle cx="400" cy="225" r="150.0" class="orbit" />
<circle cx="490.2240539283248" cy="105.16836772897257" r="50" fill="#e34c26" class="planet" />
<text x="505.2240539283248" y="110.16836772897257" class="text" fill="white">CIRCLE13</text>
<circle cx="400" cy="225" r="240.0" class="orbit" />
<circle cx="588.2700850422385" cy="76.15654170173187" r="50" fill="#f1e05a" class="planet" />
<text x="603.2700850422385" y="81.15654170173187" class="text" fill="white">REDSHIFT</text>
<circle cx="400" cy="225" r="330.0" class="orbit" />
<circle cx="605.9007409144441" cy="482.88541038779795" r="50" fill="#e34c26" class="planet" />
<text x="620.9007409144441" y="487.88541038779795" class="text" fill="white">ALVRYN-AI</text>
<circle cx="400" cy="225" r="415.422" class="orbit" />
<circle cx="-10.860896619867788" cy="163.60975881527793" r="46.948" fill="#f1e05a" class="planet" />
<text x="4.139103380132212" y="168.60975881527793" class="text" fill="white">DRIFT-CIRCLE13</text>
<circle cx="400" cy="225" r="461.8095" class="orbit" />
<circle cx="857.4845757475514" cy="288.05455767296263" r="20.925" fill="#2b7489" class="planet" />
<text x="872.4845757475514" y="293.05455767296263" class="text" fill="white">DSATM-EXAM-SYSTEM-</text>
<circle cx="400" cy="225" r="504.9615" class="orbit" />
<circle cx="114.63791591927014" cy="-191.59884475518226" r="18.768" fill="#8b949e" class="planet" />
<text x="129.63791591927014" y="-186.59884475518226" class="text" fill="white">NBHARATH1306</text>
<circle cx="400" cy="225" r="547.194" class="orbit" />
<circle cx="-136.64259568547845" cy="331.9392263482024" r="18.155" fill="#e34c26" class="planet" />
<text x="-121.64259568547845" y="336.9392263482024" class="text" fill="white">WEBSITE-EQUDATOR-TRADING-PLATFORM</text>
<circle cx="400" cy="225" r="578.0264999999999" class="orbit" />
<circle cx="632.9411920859254" cy="-304.01137580569844" r="10.555" fill="#8b949e" class="planet" />
<text x="647.9411920859254" y="-299.01137580569844" class="text" fill="white">FLASK</text>
<circle cx="400" cy="225" r="608.2995" class="orbit" />
<circle cx="-114.70976282180754" cy="-99.19460476104251" r="10.182" fill="#8b949e" class="planet" />
<text x="-99.70976282180754" y="-94.19460476104251" class="text" fill="white">HCF-INTERNSHIP</text>
<circle cx="400" cy="225" r="637.1685" class="orbit" />
<circle cx="-233.2841727139172" cy="295.2485158725758" r="9.246" fill="#8b949e" class="planet" />

    <text x="400" y="40" text-anchor="middle" class="title">SYSTEM SINGULARITY</text>
    </svg>