<svg width="800" height="450" xmlns="http://www.w3.org/2000/svg">
    <style>
        .orbit { fill: none; stroke: #30363d; stroke-width: 1; opacity: 0.5; }
        .planet { filter: drop-shadow(0 0 5px rgba(255,255,255,0.3)); }
        .text { font-family: 'Courier New', monospace; fill: #8b949e; font-size: 10px; }
        .title { font-family: sans-serif; fill: white; font-weight: bold; font-size: 24px; letter-spacing: 4px; }
        .hud-line { stroke: #00ffff; stroke-width: 1; opacity: 0.3; }
        
        /* ANIMATIONS */
        @keyframes pulse { 0% { r: 25; opacity: 0.8; } 50% { r: 30; opacity: 0.4; } 100% { r: 25; opacity: 0.8; } }
        .sun { animation: pulse 4s infinite; }
    </style>
    
    <rect width="100%" height="100%" fill="#0d1117" />
    
    <line x1="50" y1="50" x2="50" y2="400" class="hud-line" />
    <line x1="50" y1="400" x2="750" y2="400" class="hud-line" />
    <text x="60" y="390" class="text">SYS_TIME: 2026.05.04 :: 0156</text>
    <text x="60" y="375" class="text">SECTOR: N_BHARATH_PRIME</text>
    
    <circle cx="400" cy="225" r="25" fill="url(#grad1)" class="sun" />
    <defs>
        <radialGradient id="grad1" cx="50%" cy="50%" r="50%" fx="50%" fy="50%">
            <stop offset="0%" style="stop-color:white;stop-opacity:1" />
            <stop offset="100%" style="stop-color:#00ffff;stop-opacity:1" />
        </radialGradient>
    </defs>
    <circle cx="400" cy="225" r="150.0" class="orbit" />
<circle cx="545.2609450093139" cy="187.5933447766163" r="50" fill="#e34c26" class="planet" />
<text x="560.2609450093139" y="192.5933447766163" class="text" fill="white">CIRCLE13</text>
<circle cx="400" cy="225" r="240.0" class="orbit" />
<circle cx="170.17194789860446" cy="155.8692075318226" r="50" fill="#f1e05a" class="planet" />
<text x="185.17194789860446" y="160.8692075318226" class="text" fill="white">REDSHIFT</text>
<circle cx="400" cy="225" r="330.0" class="orbit" />
<circle cx="502.8255463717284" cy="-88.57121521809927" r="50" fill="#e34c26" class="planet" />
<text x="517.8255463717285" y="-83.57121521809927" class="text" fill="white">ALVRYN-AI</text>
<circle cx="400" cy="225" r="415.422" class="orbit" />
<circle cx="319.72622895430266" cy="-182.5923941465333" r="46.948" fill="#f1e05a" class="planet" />
<text x="334.72622895430266" y="-177.5923941465333" class="text" fill="white">DRIFT-CIRCLE13</text>
<circle cx="400" cy="225" r="461.8095" class="orbit" />
<circle cx="750.3202011124215" cy="-75.90492017047939" r="20.925" fill="#2b7489" class="planet" />
<text x="765.3202011124215" y="-70.90492017047939" class="text" fill="white">DSATM-EXAM-SYSTEM-</text>
<circle cx="400" cy="225" r="504.915" class="orbit" />
<circle cx="715.4183295066355" cy="619.2720312629892" r="18.737" fill="#8b949e" class="planet" />
<text x="730.4183295066355" y="624.2720312629892" class="text" fill="white">NBHARATH1306</text>
<circle cx="400" cy="225" r="547.1475" class="orbit" />
<circle cx="-86.00289171998253" cy="-26.339563133353494" r="18.155" fill="#e34c26" class="planet" />
<text x="-71.00289171998253" y="-21.339563133353494" class="text" fill="white">WEBSITE-EQUDATOR-TRADING-PLATFORM</text>
<circle cx="400" cy="225" r="577.98" class="orbit" />
<circle cx="500.8913262990909" cy="794.106159409306" r="10.555" fill="#8b949e" class="planet" />
<text x="515.8913262990909" y="799.106159409306" class="text" fill="white">FLASK</text>
<circle cx="400" cy="225" r="608.253" class="orbit" />
<circle cx="722.8789013351045" cy="740.4812577404109" r="10.182" fill="#8b949e" class="planet" />
<text x="737.8789013351045" y="745.4812577404109" class="text" fill="white">HCF-INTERNSHIP</text>
<circle cx="400" cy="225" r="637.1220000000001" class="orbit" />
<circle cx="-95.70909008569163" cy="625.2461004062573" r="9.246" fill="#8b949e" class="planet" />

    <text x="400" y="40" text-anchor="middle" class="title">SYSTEM SINGULARITY</text>
    </svg>