<svg width="800" height="450" xmlns="http://www.w3.org/2000/svg">
    <style>
        .orbit { fill: none; stroke: #30363d; stroke-width: 1; opacity: 0.5; }
        .planet { filter: drop-shadow(0 0 5px rgba(255,255,255,0.3)); }
        .text { font-family: 'Courier New', monospace; fill: #8b949e; font-size: 10px; }
        .title { font-family: sans-serif; fill: white; font-weight: bold; font-size: 24px; letter-spacing: 4px; }
        .hud-line { stroke: #00ffff; stroke-width: 1; opacity: 0.3; }
        
        /* ANIMATIONS */
        @keyframes pulse { 0% { r: 25; opacity: 0.8; } 50% { r: 30; opacity: 0.4; } 100% { r: 25; opacity: 0.8; } }
        .sun { animation: pulse 4s infinite; }
    </style>
    
    <rect width="100%" height="100%" fill="#0d1117" />
    
    <line x1="50" y1="50" x2="50" y2="400" class="hud-line" />
    <line x1="50" y1="400" x2="750" y2="400" class="hud-line" />
    <text x="60" y="390" class="text">SYS_TIME: 2026.02.27 :: 0110</text>
    <text x="60" y="375" class="text">SECTOR: N_BHARATH_PRIME</text>
    
    <circle cx="400" cy="225" r="25" fill="url(#grad1)" class="sun" />
    <defs>
        <radialGradient id="grad1" cx="50%" cy="50%" r="50%" fx="50%" fy="50%">
            <stop offset="0%" style="stop-color:white;stop-opacity:1" />
            <stop offset="100%" style="stop-color:#00ffff;stop-opacity:1" />
        </radialGradient>
    </defs>
    <circle cx="400" cy="225" r="150.0" class="orbit" />
<circle cx="481.1589171958608" cy="98.85234778405342" r="50" fill="#f1e05a" class="planet" />
<text x="496.1589171958608" y="103.85234778405342" class="text" fill="white">REDSHIFT</text>
<circle cx="400" cy="225" r="240.0" class="orbit" />
<circle cx="215.84342923387604" cy="71.09627215800919" r="50" fill="#e34c26" class="planet" />
<text x="230.84342923387604" y="76.09627215800919" class="text" fill="white">CIRCLE-13</text>
<circle cx="400" cy="225" r="330.0" class="orbit" />
<circle cx="111.54259922445948" cy="385.28826512823446" r="50" fill="#e34c26" class="planet" />
<text x="126.54259922445948" y="390.28826512823446" class="text" fill="white">ALVRYN-AI</text>
<circle cx="400" cy="225" r="415.422" class="orbit" />
<circle cx="149.95799642977533" cy="-106.74453203419614" r="46.948" fill="#f1e05a" class="planet" />
<text x="164.95799642977533" y="-101.74453203419614" class="text" fill="white">DRIFT-CIRCLE13</text>
<circle cx="400" cy="225" r="461.8095" class="orbit" />
<circle cx="434.15710985837916" cy="685.5445756236552" r="20.925" fill="#2b7489" class="planet" />
<text x="449.15710985837916" y="690.5445756236552" class="text" fill="white">DSATM-EXAM-SYSTEM-</text>
<circle cx="400" cy="225" r="504.8295" class="orbit" />
<circle cx="883.0259078805739" cy="371.7610179386792" r="18.68" fill="#8b949e" class="planet" />
<text x="898.0259078805739" y="376.7610179386792" class="text" fill="white">NBHARATH1306</text>
<circle cx="400" cy="225" r="547.062" class="orbit" />
<circle cx="45.19007924489688" cy="641.3973486680211" r="18.155" fill="#e34c26" class="planet" />
<text x="60.19007924489688" y="646.3973486680211" class="text" fill="white">WEBSITE-EQUDATOR-TRADING-PLATFORM</text>
<circle cx="400" cy="225" r="577.8945" class="orbit" />
<circle cx="307.74375218729705" cy="795.4829864858119" r="10.555" fill="#8b949e" class="planet" />
<text x="322.74375218729705" y="800.4829864858119" class="text" fill="white">FLASK</text>
<circle cx="400" cy="225" r="608.1675" class="orbit" />
<circle cx="-8.598214771596076" cy="-225.4611048045266" r="10.182" fill="#8b949e" class="planet" />
<text x="6.401785228403924" y="-220.4611048045266" class="text" fill="white">HCF-INTERNSHIP</text>
<circle cx="400" cy="225" r="637.0365" class="orbit" />
<circle cx="835.1084325373226" cy="-240.29147237743808" r="9.246" fill="#8b949e" class="planet" />

    <text x="400" y="40" text-anchor="middle" class="title">SYSTEM SINGULARITY</text>
    </svg>