<svg width="800" height="450" xmlns="http://www.w3.org/2000/svg">
    <style>
        .orbit { fill: none; stroke: #30363d; stroke-width: 1; opacity: 0.5; }
        .planet { filter: drop-shadow(0 0 5px rgba(255,255,255,0.3)); }
        .text { font-family: 'Courier New', monospace; fill: #8b949e; font-size: 10px; }
        .title { font-family: sans-serif; fill: white; font-weight: bold; font-size: 24px; letter-spacing: 4px; }
        .hud-line { stroke: #00ffff; stroke-width: 1; opacity: 0.3; }
        
        /* ANIMATIONS */
        @keyframes pulse { 0% { r: 25; opacity: 0.8; } 50% { r: 30; opacity: 0.4; } 100% { r: 25; opacity: 0.8; } }
        .sun { animation: pulse 4s infinite; }
    </style>
    
    <rect width="100%" height="100%" fill="#0d1117" />
    
    <line x1="50" y1="50" x2="50" y2="400" class="hud-line" />
    <line x1="50" y1="400" x2="750" y2="400" class="hud-line" />
    <text x="60" y="390" class="text">SYS_TIME: 2026.02.15 :: 0118</text>
    <text x="60" y="375" class="text">SECTOR: N_BHARATH_PRIME</text>
    
    <circle cx="400" cy="225" r="25" fill="url(#grad1)" class="sun" />
    <defs>
        <radialGradient id="grad1" cx="50%" cy="50%" r="50%" fx="50%" fy="50%">
            <stop offset="0%" style="stop-color:white;stop-opacity:1" />
            <stop offset="100%" style="stop-color:#00ffff;stop-opacity:1" />
        </radialGradient>
    </defs>
    <circle cx="400" cy="225" r="150.0" class="orbit" />
<circle cx="402.3683236710662" cy="75.01869768871498" r="50" fill="#f1e05a" class="planet" />
<text x="417.3683236710662" y="80.01869768871498" class="text" fill="white">REDSHIFT</text>
<circle cx="400" cy="225" r="240.0" class="orbit" />
<circle cx="491.0998069707215" cy="447.0378912931243" r="50" fill="#e34c26" class="planet" />
<text x="506.0998069707215" y="452.0378912931243" class="text" fill="white">CIRCLE-13</text>
<circle cx="400" cy="225" r="330.0" class="orbit" />
<circle cx="165.67682618226752" cy="457.3631860084225" r="50" fill="#e34c26" class="planet" />
<text x="180.67682618226752" y="462.3631860084225" class="text" fill="white">ALVRYN-AI</text>
<circle cx="400" cy="225" r="415.422" class="orbit" />
<circle cx="268.62360407531827" cy="619.1011046392046" r="46.948" fill="#f1e05a" class="planet" />
<text x="283.62360407531827" y="624.1011046392046" class="text" fill="white">DRIFT-CIRCLE13</text>
<circle cx="400" cy="225" r="461.8095" class="orbit" />
<circle cx="351.7850202271617" cy="684.2856736452322" r="20.925" fill="#2b7489" class="planet" />
<text x="366.7850202271617" y="689.2856736452322" class="text" fill="white">DSATM-EXAM-SYSTEM-</text>
<circle cx="400" cy="225" r="504.8055" class="orbit" />
<circle cx="642.8273403480788" cy="667.5646569821503" r="18.664" fill="#8b949e" class="planet" />
<text x="657.8273403480788" y="672.5646569821503" class="text" fill="white">NBHARATH1306</text>
<circle cx="400" cy="225" r="547.038" class="orbit" />
<circle cx="-146.6727650087629" cy="244.9865315068396" r="18.155" fill="#e34c26" class="planet" />
<text x="-131.6727650087629" y="249.9865315068396" class="text" fill="white">WEBSITE-EQUDATOR-TRADING-PLATFORM</text>
<circle cx="400" cy="225" r="577.8705" class="orbit" />
<circle cx="898.885760361555" cy="516.6287243717998" r="10.555" fill="#8b949e" class="planet" />
<text x="913.885760361555" y="521.6287243717998" class="text" fill="white">FLASK</text>
<circle cx="400" cy="225" r="608.1435" class="orbit" />
<circle cx="8.431648908025124" cy="-240.30929822577366" r="10.182" fill="#8b949e" class="planet" />
<text x="23.431648908025124" y="-235.30929822577366" class="text" fill="white">HCF-INTERNSHIP</text>
<circle cx="400" cy="225" r="637.0125" class="orbit" />
<circle cx="928.5729438644099" cy="-130.52154389117032" r="9.246" fill="#8b949e" class="planet" />

    <text x="400" y="40" text-anchor="middle" class="title">SYSTEM SINGULARITY</text>
    </svg>