<svg width="800" height="450" xmlns="http://www.w3.org/2000/svg">
    <style>
        .orbit { fill: none; stroke: #30363d; stroke-width: 1; opacity: 0.5; }
        .planet { filter: drop-shadow(0 0 5px rgba(255,255,255,0.3)); }
        .text { font-family: 'Courier New', monospace; fill: #8b949e; font-size: 10px; }
        .title { font-family: sans-serif; fill: white; font-weight: bold; font-size: 24px; letter-spacing: 4px; }
        .hud-line { stroke: #00ffff; stroke-width: 1; opacity: 0.3; }
        
        /* ANIMATIONS */
        @keyframes pulse { 0% { r: 25; opacity: 0.8; } 50% { r: 30; opacity: 0.4; } 100% { r: 25; opacity: 0.8; } }
        .sun { animation: pulse 4s infinite; }
    </style>
    
    <rect width="100%" height="100%" fill="#0d1117" />
    
    <line x1="50" y1="50" x2="50" y2="400" class="hud-line" />
    <line x1="50" y1="400" x2="750" y2="400" class="hud-line" />
    <text x="60" y="390" class="text">SYS_TIME: 2026.04.01 :: 0144</text>
    <text x="60" y="375" class="text">SECTOR: N_BHARATH_PRIME</text>
    
    <circle cx="400" cy="225" r="25" fill="url(#grad1)" class="sun" />
    <defs>
        <radialGradient id="grad1" cx="50%" cy="50%" r="50%" fx="50%" fy="50%">
            <stop offset="0%" style="stop-color:white;stop-opacity:1" />
            <stop offset="100%" style="stop-color:#00ffff;stop-opacity:1" />
        </radialGradient>
    </defs>
    <circle cx="400" cy="225" r="150.0" class="orbit" />
<circle cx="515.8514082434895" cy="129.71909316132468" r="50" fill="#f1e05a" class="planet" />
<text x="530.8514082434895" y="134.71909316132468" class="text" fill="white">REDSHIFT</text>
<circle cx="400" cy="225" r="240.0" class="orbit" />
<circle cx="352.1154309432666" cy="460.1745480409199" r="50" fill="#e34c26" class="planet" />
<text x="367.1154309432666" y="465.1745480409199" class="text" fill="white">CIRCLE-13</text>
<circle cx="400" cy="225" r="330.0" class="orbit" />
<circle cx="163.72282904721666" cy="-5.375993728837074" r="50" fill="#e34c26" class="planet" />
<text x="178.72282904721666" y="-0.3759937288370736" class="text" fill="white">ALVRYN-AI</text>
<circle cx="400" cy="225" r="415.422" class="orbit" />
<circle cx="743.352738286168" cy="-8.846819938587743" r="46.948" fill="#f1e05a" class="planet" />
<text x="758.352738286168" y="-3.8468199385877426" class="text" fill="white">DRIFT-CIRCLE13</text>
<circle cx="400" cy="225" r="461.8095" class="orbit" />
<circle cx="849.4823349650943" cy="330.98889019409893" r="20.925" fill="#2b7489" class="planet" />
<text x="864.4823349650943" y="335.98889019409893" class="text" fill="white">DSATM-EXAM-SYSTEM-</text>
<circle cx="400" cy="225" r="504.894" class="orbit" />
<circle cx="261.86879070237035" cy="-260.63125955190986" r="18.723" fill="#8b949e" class="planet" />
<text x="276.86879070237035" y="-255.63125955190986" class="text" fill="white">NBHARATH1306</text>
<circle cx="400" cy="225" r="547.1265" class="orbit" />
<circle cx="920.6333642765039" cy="56.80871900012454" r="18.155" fill="#e34c26" class="planet" />
<text x="935.6333642765039" y="61.80871900012454" class="text" fill="white">WEBSITE-EQUDATOR-TRADING-PLATFORM</text>
<circle cx="400" cy="225" r="577.959" class="orbit" />
<circle cx="918.3216069369142" cy="480.6937962941903" r="10.555" fill="#8b949e" class="planet" />
<text x="933.3216069369142" y="485.6937962941903" class="text" fill="white">FLASK</text>
<circle cx="400" cy="225" r="608.232" class="orbit" />
<circle cx="985.0234411904323" cy="391.4143596018828" r="10.182" fill="#8b949e" class="planet" />
<text x="1000.0234411904323" y="396.4143596018828" class="text" fill="white">HCF-INTERNSHIP</text>
<circle cx="400" cy="225" r="637.101" class="orbit" />
<circle cx="17.975217742406244" cy="-284.85757809611704" r="9.246" fill="#8b949e" class="planet" />

    <text x="400" y="40" text-anchor="middle" class="title">SYSTEM SINGULARITY</text>
    </svg>