<svg width="800" height="450" xmlns="http://www.w3.org/2000/svg">
    <style>
        .orbit { fill: none; stroke: #30363d; stroke-width: 1; opacity: 0.5; }
        .planet { filter: drop-shadow(0 0 5px rgba(255,255,255,0.3)); }
        .text { font-family: 'Courier New', monospace; fill: #8b949e; font-size: 10px; }
        .title { font-family: sans-serif; fill: white; font-weight: bold; font-size: 24px; letter-spacing: 4px; }
        .hud-line { stroke: #00ffff; stroke-width: 1; opacity: 0.3; }
        
        /* ANIMATIONS */
        @keyframes pulse { 0% { r: 25; opacity: 0.8; } 50% { r: 30; opacity: 0.4; } 100% { r: 25; opacity: 0.8; } }
        .sun { animation: pulse 4s infinite; }
    </style>
    
    <rect width="100%" height="100%" fill="#0d1117" />
    
    <line x1="50" y1="50" x2="50" y2="400" class="hud-line" />
    <line x1="50" y1="400" x2="750" y2="400" class="hud-line" />
    <text x="60" y="390" class="text">SYS_TIME: 2026.03.26 :: 0122</text>
    <text x="60" y="375" class="text">SECTOR: N_BHARATH_PRIME</text>
    
    <circle cx="400" cy="225" r="25" fill="url(#grad1)" class="sun" />
    <defs>
        <radialGradient id="grad1" cx="50%" cy="50%" r="50%" fx="50%" fy="50%">
            <stop offset="0%" style="stop-color:white;stop-opacity:1" />
            <stop offset="100%" style="stop-color:#00ffff;stop-opacity:1" />
        </radialGradient>
    </defs>
    <circle cx="400" cy="225" r="150.0" class="orbit" />
<circle cx="549.3393874342662" cy="239.06226726947517" r="50" fill="#f1e05a" class="planet" />
<text x="564.3393874342662" y="244.06226726947517" class="text" fill="white">REDSHIFT</text>
<circle cx="400" cy="225" r="240.0" class="orbit" />
<circle cx="556.0827164890919" cy="42.686573140139416" r="50" fill="#e34c26" class="planet" />
<text x="571.0827164890919" y="47.686573140139416" class="text" fill="white">CIRCLE-13</text>
<circle cx="400" cy="225" r="330.0" class="orbit" />
<circle cx="485.8954370962223" cy="543.6251306567781" r="50" fill="#e34c26" class="planet" />
<text x="500.8954370962223" y="548.6251306567781" class="text" fill="white">ALVRYN-AI</text>
<circle cx="400" cy="225" r="415.422" class="orbit" />
<circle cx="724.0021466077651" cy="-34.9962443527989" r="46.948" fill="#f1e05a" class="planet" />
<text x="739.0021466077651" y="-29.996244352798897" class="text" fill="white">DRIFT-CIRCLE13</text>
<circle cx="400" cy="225" r="461.8095" class="orbit" />
<circle cx="565.0242317095679" cy="656.3177682856538" r="20.925" fill="#2b7489" class="planet" />
<text x="580.0242317095679" y="661.3177682856538" class="text" fill="white">DSATM-EXAM-SYSTEM-</text>
<circle cx="400" cy="225" r="504.882" class="orbit" />
<circle cx="-104.7028949686366" cy="238.44699722158657" r="18.715" fill="#8b949e" class="planet" />
<text x="-89.7028949686366" y="243.44699722158657" class="text" fill="white">NBHARATH1306</text>
<circle cx="400" cy="225" r="547.1145" class="orbit" />
<circle cx="630.9847838220921" cy="720.9640165908323" r="18.155" fill="#e34c26" class="planet" />
<text x="645.9847838220921" y="725.9640165908323" class="text" fill="white">WEBSITE-EQUDATOR-TRADING-PLATFORM</text>
<circle cx="400" cy="225" r="577.947" class="orbit" />
<circle cx="467.0842282910234" cy="-349.0404525149755" r="10.555" fill="#8b949e" class="planet" />
<text x="482.0842282910234" y="-344.0404525149755" class="text" fill="white">FLASK</text>
<circle cx="400" cy="225" r="608.22" class="orbit" />
<circle cx="404.45720116314743" cy="833.2036679910697" r="10.182" fill="#8b949e" class="planet" />
<text x="419.45720116314743" y="838.2036679910697" class="text" fill="white">HCF-INTERNSHIP</text>
<circle cx="400" cy="225" r="637.089" class="orbit" />
<circle cx="605.0894253956228" cy="828.1755312609203" r="9.246" fill="#8b949e" class="planet" />

    <text x="400" y="40" text-anchor="middle" class="title">SYSTEM SINGULARITY</text>
    </svg>