<svg width="800" height="450" xmlns="http://www.w3.org/2000/svg">
    <style>
        .orbit { fill: none; stroke: #30363d; stroke-width: 1; opacity: 0.5; }
        .planet { filter: drop-shadow(0 0 5px rgba(255,255,255,0.3)); }
        .text { font-family: 'Courier New', monospace; fill: #8b949e; font-size: 10px; }
        .title { font-family: sans-serif; fill: white; font-weight: bold; font-size: 24px; letter-spacing: 4px; }
        .hud-line { stroke: #00ffff; stroke-width: 1; opacity: 0.3; }
        
        /* ANIMATIONS */
        @keyframes pulse { 0% { r: 25; opacity: 0.8; } 50% { r: 30; opacity: 0.4; } 100% { r: 25; opacity: 0.8; } }
        .sun { animation: pulse 4s infinite; }
    </style>
    
    <rect width="100%" height="100%" fill="#0d1117" />
    
    <line x1="50" y1="50" x2="50" y2="400" class="hud-line" />
    <line x1="50" y1="400" x2="750" y2="400" class="hud-line" />
    <text x="60" y="390" class="text">SYS_TIME: 2026.03.12 :: 0106</text>
    <text x="60" y="375" class="text">SECTOR: N_BHARATH_PRIME</text>
    
    <circle cx="400" cy="225" r="25" fill="url(#grad1)" class="sun" />
    <defs>
        <radialGradient id="grad1" cx="50%" cy="50%" r="50%" fx="50%" fy="50%">
            <stop offset="0%" style="stop-color:white;stop-opacity:1" />
            <stop offset="100%" style="stop-color:#00ffff;stop-opacity:1" />
        </radialGradient>
    </defs>
    <circle cx="400" cy="225" r="150.0" class="orbit" />
<circle cx="310.8442799334853" cy="345.6285935399285" r="50" fill="#f1e05a" class="planet" />
<text x="325.8442799334853" y="350.6285935399285" class="text" fill="white">REDSHIFT</text>
<circle cx="400" cy="225" r="240.0" class="orbit" />
<circle cx="559.1241970142098" cy="45.335062061116304" r="50" fill="#e34c26" class="planet" />
<text x="574.1241970142098" y="50.335062061116304" class="text" fill="white">CIRCLE-13</text>
<circle cx="400" cy="225" r="330.0" class="orbit" />
<circle cx="144.77537559899233" cy="15.81015536273145" r="50" fill="#e34c26" class="planet" />
<text x="159.77537559899233" y="20.81015536273145" class="text" fill="white">ALVRYN-AI</text>
<circle cx="400" cy="225" r="415.422" class="orbit" />
<circle cx="117.2618057710747" cy="529.3592476140104" r="46.948" fill="#f1e05a" class="planet" />
<text x="132.2618057710747" y="534.3592476140104" class="text" fill="white">DRIFT-CIRCLE13</text>
<circle cx="400" cy="225" r="461.8095" class="orbit" />
<circle cx="663.1137606247919" cy="604.524917838249" r="20.925" fill="#2b7489" class="planet" />
<text x="678.1137606247919" y="609.524917838249" class="text" fill="white">DSATM-EXAM-SYSTEM-</text>
<circle cx="400" cy="225" r="504.8535" class="orbit" />
<circle cx="-101.14509749548102" cy="286.07902846718184" r="18.696" fill="#8b949e" class="planet" />
<text x="-86.14509749548102" y="291.07902846718184" class="text" fill="white">NBHARATH1306</text>
<circle cx="400" cy="225" r="547.086" class="orbit" />
<circle cx="944.3205733578802" cy="279.93819086344763" r="18.155" fill="#e34c26" class="planet" />
<text x="959.3205733578802" y="284.93819086344763" class="text" fill="white">WEBSITE-EQUDATOR-TRADING-PLATFORM</text>
<circle cx="400" cy="225" r="577.9185" class="orbit" />
<circle cx="203.96881926492554" cy="768.6557447704039" r="10.555" fill="#8b949e" class="planet" />
<text x="218.96881926492554" y="773.6557447704039" class="text" fill="white">FLASK</text>
<circle cx="400" cy="225" r="608.1915" class="orbit" />
<circle cx="330.50523891767443" cy="-379.2080592431389" r="10.182" fill="#8b949e" class="planet" />
<text x="345.50523891767443" y="-374.2080592431389" class="text" fill="white">HCF-INTERNSHIP</text>
<circle cx="400" cy="225" r="637.0605" class="orbit" />
<circle cx="347.7396593926816" cy="859.9133306679402" r="9.246" fill="#8b949e" class="planet" />

    <text x="400" y="40" text-anchor="middle" class="title">SYSTEM SINGULARITY</text>
    </svg>