<svg width="800" height="450" xmlns="http://www.w3.org/2000/svg">
    <style>
        .orbit { fill: none; stroke: #30363d; stroke-width: 1; opacity: 0.5; }
        .planet { filter: drop-shadow(0 0 5px rgba(255,255,255,0.3)); }
        .text { font-family: 'Courier New', monospace; fill: #8b949e; font-size: 10px; }
        .title { font-family: sans-serif; fill: white; font-weight: bold; font-size: 24px; letter-spacing: 4px; }
        .hud-line { stroke: #00ffff; stroke-width: 1; opacity: 0.3; }
        
        /* ANIMATIONS */
        @keyframes pulse { 0% { r: 25; opacity: 0.8; } 50% { r: 30; opacity: 0.4; } 100% { r: 25; opacity: 0.8; } }
        .sun { animation: pulse 4s infinite; }
    </style>
    
    <rect width="100%" height="100%" fill="#0d1117" />
    
    <line x1="50" y1="50" x2="50" y2="400" class="hud-line" />
    <line x1="50" y1="400" x2="750" y2="400" class="hud-line" />
    <text x="60" y="390" class="text">SYS_TIME: 2026.02.09 :: 0117</text>
    <text x="60" y="375" class="text">SECTOR: N_BHARATH_PRIME</text>
    
    <circle cx="400" cy="225" r="25" fill="url(#grad1)" class="sun" />
    <defs>
        <radialGradient id="grad1" cx="50%" cy="50%" r="50%" fx="50%" fy="50%">
            <stop offset="0%" style="stop-color:white;stop-opacity:1" />
            <stop offset="100%" style="stop-color:#00ffff;stop-opacity:1" />
        </radialGradient>
    </defs>
    <circle cx="400" cy="225" r="150.0" class="orbit" />
<circle cx="254.84003906512018" cy="262.79663664116373" r="50" fill="#e34c26" class="planet" />
<text x="269.8400390651202" y="267.79663664116373" class="text" fill="white">CIRCLE-13</text>
<circle cx="400" cy="225" r="240.0" class="orbit" />
<circle cx="178.63033907936156" cy="317.7117750012455" r="50" fill="#f1e05a" class="planet" />
<text x="193.63033907936156" y="322.7117750012455" class="text" fill="white">REDSHIFT</text>
<circle cx="400" cy="225" r="330.0" class="orbit" />
<circle cx="124.26803232482604" cy="43.69395486642807" r="50" fill="#e34c26" class="planet" />
<text x="139.26803232482604" y="48.69395486642807" class="text" fill="white">ALVRYN-AI</text>
<circle cx="400" cy="225" r="415.422" class="orbit" />
<circle cx="22.653446491248587" cy="398.73835684461574" r="46.948" fill="#f1e05a" class="planet" />
<text x="37.65344649124859" y="403.73835684461574" class="text" fill="white">DRIFT-CIRCLE13</text>
<circle cx="400" cy="225" r="461.8095" class="orbit" />
<circle cx="-16.358422816956136" cy="424.784078543879" r="20.925" fill="#2b7489" class="planet" />
<text x="-1.3584228169561356" y="429.784078543879" class="text" fill="white">DSATM-EXAM-SYSTEM-</text>
<circle cx="400" cy="225" r="504.82050000000004" class="orbit" />
<circle cx="287.94472077685407" cy="717.2269310170593" r="18.674" fill="#8b949e" class="planet" />
<text x="302.94472077685407" y="722.2269310170593" class="text" fill="white">NBHARATH1306</text>
<circle cx="400" cy="225" r="547.053" class="orbit" />
<circle cx="882.0754627755548" cy="483.59279378732646" r="18.155" fill="#e34c26" class="planet" />
<text x="897.0754627755548" y="488.59279378732646" class="text" fill="white">WEBSITE-EQUDATOR-TRADING-PLATFORM</text>
<circle cx="400" cy="225" r="577.8855" class="orbit" />
<circle cx="-108.50781343621634" cy="-49.53862166290594" r="10.555" fill="#8b949e" class="planet" />
<text x="-93.50781343621634" y="-44.53862166290594" class="text" fill="white">FLASK</text>
<circle cx="400" cy="225" r="608.1585" class="orbit" />
<circle cx="-106.61665114536538" cy="561.446622667705" r="10.182" fill="#8b949e" class="planet" />
<text x="-91.61665114536538" y="566.446622667705" class="text" fill="white">HCF-INTERNSHIP</text>
<circle cx="400" cy="225" r="637.0275" class="orbit" />
<circle cx="938.6633442194681" cy="565.0674011876895" r="9.246" fill="#8b949e" class="planet" />

    <text x="400" y="40" text-anchor="middle" class="title">SYSTEM SINGULARITY</text>
    </svg>