<svg width="800" height="450" xmlns="http://www.w3.org/2000/svg">
    <style>
        .orbit { fill: none; stroke: #30363d; stroke-width: 1; opacity: 0.5; }
        .planet { filter: drop-shadow(0 0 5px rgba(255,255,255,0.3)); }
        .text { font-family: 'Courier New', monospace; fill: #8b949e; font-size: 10px; }
        .title { font-family: sans-serif; fill: white; font-weight: bold; font-size: 24px; letter-spacing: 4px; }
        .hud-line { stroke: #00ffff; stroke-width: 1; opacity: 0.3; }
        
        /* ANIMATIONS */
        @keyframes pulse { 0% { r: 25; opacity: 0.8; } 50% { r: 30; opacity: 0.4; } 100% { r: 25; opacity: 0.8; } }
        .sun { animation: pulse 4s infinite; }
    </style>
    
    <rect width="100%" height="100%" fill="#0d1117" />
    
    <line x1="50" y1="50" x2="50" y2="400" class="hud-line" />
    <line x1="50" y1="400" x2="750" y2="400" class="hud-line" />
    <text x="60" y="390" class="text">SYS_TIME: 2026.03.15 :: 0123</text>
    <text x="60" y="375" class="text">SECTOR: N_BHARATH_PRIME</text>
    
    <circle cx="400" cy="225" r="25" fill="url(#grad1)" class="sun" />
    <defs>
        <radialGradient id="grad1" cx="50%" cy="50%" r="50%" fx="50%" fy="50%">
            <stop offset="0%" style="stop-color:white;stop-opacity:1" />
            <stop offset="100%" style="stop-color:#00ffff;stop-opacity:1" />
        </radialGradient>
    </defs>
    <circle cx="400" cy="225" r="150.0" class="orbit" />
<circle cx="282.023825942687" cy="132.36295365892445" r="50" fill="#f1e05a" class="planet" />
<text x="297.023825942687" y="137.36295365892445" class="text" fill="white">REDSHIFT</text>
<circle cx="400" cy="225" r="240.0" class="orbit" />
<circle cx="226.20896361033667" cy="390.51941176371645" r="50" fill="#e34c26" class="planet" />
<text x="241.20896361033667" y="395.51941176371645" class="text" fill="white">CIRCLE-13</text>
<circle cx="400" cy="225" r="330.0" class="orbit" />
<circle cx="595.4163644628094" cy="-40.91811615634322" r="50" fill="#e34c26" class="planet" />
<text x="610.4163644628094" y="-35.91811615634322" class="text" fill="white">ALVRYN-AI</text>
<circle cx="400" cy="225" r="415.422" class="orbit" />
<circle cx="213.41220252167736" cy="596.1609245545501" r="46.948" fill="#f1e05a" class="planet" />
<text x="228.41220252167736" y="601.1609245545501" class="text" fill="white">DRIFT-CIRCLE13</text>
<circle cx="400" cy="225" r="461.8095" class="orbit" />
<circle cx="707.4712053373587" cy="-119.57143262122275" r="20.925" fill="#2b7489" class="planet" />
<text x="722.4712053373587" y="-114.57143262122275" class="text" fill="white">DSATM-EXAM-SYSTEM-</text>
<circle cx="400" cy="225" r="504.861" class="orbit" />
<circle cx="-5.95976939271975" cy="525.1354610098743" r="18.701" fill="#8b949e" class="planet" />
<text x="9.04023060728025" y="530.1354610098743" class="text" fill="white">NBHARATH1306</text>
<circle cx="400" cy="225" r="547.0935" class="orbit" />
<circle cx="926.5324194628706" cy="76.42372666934492" r="18.155" fill="#e34c26" class="planet" />
<text x="941.5324194628706" y="81.42372666934492" class="text" fill="white">WEBSITE-EQUDATOR-TRADING-PLATFORM</text>
<circle cx="400" cy="225" r="577.9259999999999" class="orbit" />
<circle cx="-177.39922553633528" cy="249.66973502168423" r="10.555" fill="#8b949e" class="planet" />
<text x="-162.39922553633528" y="254.66973502168423" class="text" fill="white">FLASK</text>
<circle cx="400" cy="225" r="608.199" class="orbit" />
<circle cx="-41.30109711105814" cy="-193.5204478751025" r="10.182" fill="#8b949e" class="planet" />
<text x="-26.30109711105814" y="-188.5204478751025" class="text" fill="white">HCF-INTERNSHIP</text>
<circle cx="400" cy="225" r="637.068" class="orbit" />
<circle cx="-69.35537898417266" cy="-205.76811028977488" r="9.246" fill="#8b949e" class="planet" />

    <text x="400" y="40" text-anchor="middle" class="title">SYSTEM SINGULARITY</text>
    </svg>