<svg width="800" height="450" xmlns="http://www.w3.org/2000/svg">
    <style>
        .orbit { fill: none; stroke: #30363d; stroke-width: 1; opacity: 0.5; }
        .planet { filter: drop-shadow(0 0 5px rgba(255,255,255,0.3)); }
        .text { font-family: 'Courier New', monospace; fill: #8b949e; font-size: 10px; }
        .title { font-family: sans-serif; fill: white; font-weight: bold; font-size: 24px; letter-spacing: 4px; }
        .hud-line { stroke: #00ffff; stroke-width: 1; opacity: 0.3; }
        
        /* ANIMATIONS */
        @keyframes pulse { 0% { r: 25; opacity: 0.8; } 50% { r: 30; opacity: 0.4; } 100% { r: 25; opacity: 0.8; } }
        .sun { animation: pulse 4s infinite; }
    </style>
    
    <rect width="100%" height="100%" fill="#0d1117" />
    
    <line x1="50" y1="50" x2="50" y2="400" class="hud-line" />
    <line x1="50" y1="400" x2="750" y2="400" class="hud-line" />
    <text x="60" y="390" class="text">SYS_TIME: 2026.03.24 :: 0111</text>
    <text x="60" y="375" class="text">SECTOR: N_BHARATH_PRIME</text>
    
    <circle cx="400" cy="225" r="25" fill="url(#grad1)" class="sun" />
    <defs>
        <radialGradient id="grad1" cx="50%" cy="50%" r="50%" fx="50%" fy="50%">
            <stop offset="0%" style="stop-color:white;stop-opacity:1" />
            <stop offset="100%" style="stop-color:#00ffff;stop-opacity:1" />
        </radialGradient>
    </defs>
    <circle cx="400" cy="225" r="150.0" class="orbit" />
<circle cx="549.4532012600548" cy="237.79611789260844" r="50" fill="#f1e05a" class="planet" />
<text x="564.4532012600548" y="242.79611789260844" class="text" fill="white">REDSHIFT</text>
<circle cx="400" cy="225" r="240.0" class="orbit" />
<circle cx="160.25252328829316" cy="213.99330156815498" r="50" fill="#e34c26" class="planet" />
<text x="175.25252328829316" y="218.99330156815498" class="text" fill="white">CIRCLE-13</text>
<circle cx="400" cy="225" r="330.0" class="orbit" />
<circle cx="87.38268624284939" cy="119.30981531256911" r="50" fill="#e34c26" class="planet" />
<text x="102.38268624284939" y="124.30981531256911" class="text" fill="white">ALVRYN-AI</text>
<circle cx="400" cy="225" r="415.422" class="orbit" />
<circle cx="-14.898296016694644" cy="245.85286662411806" r="46.948" fill="#f1e05a" class="planet" />
<text x="0.1017039833053559" y="250.85286662411806" class="text" fill="white">DRIFT-CIRCLE13</text>
<circle cx="400" cy="225" r="461.8095" class="orbit" />
<circle cx="194.36943497565943" cy="638.5022188791984" r="20.925" fill="#2b7489" class="planet" />
<text x="209.36943497565943" y="643.5022188791984" class="text" fill="white">DSATM-EXAM-SYSTEM-</text>
<circle cx="400" cy="225" r="504.8775" class="orbit" />
<circle cx="-102.74655756098235" cy="271.3377693337932" r="18.712" fill="#8b949e" class="planet" />
<text x="-87.74655756098235" y="276.3377693337932" class="text" fill="white">NBHARATH1306</text>
<circle cx="400" cy="225" r="547.11" class="orbit" />
<circle cx="-142.15540379950312" cy="298.4633938162252" r="18.155" fill="#e34c26" class="planet" />
<text x="-127.15540379950312" y="303.4633938162252" class="text" fill="white">WEBSITE-EQUDATOR-TRADING-PLATFORM</text>
<circle cx="400" cy="225" r="577.9425" class="orbit" />
<circle cx="162.5729485607032" cy="751.921178689082" r="10.555" fill="#8b949e" class="planet" />
<text x="177.5729485607032" y="756.921178689082" class="text" fill="white">FLASK</text>
<circle cx="400" cy="225" r="608.2155" class="orbit" />
<circle cx="849.3056389965536" cy="-184.9396750817719" r="10.182" fill="#8b949e" class="planet" />
<text x="864.3056389965536" y="-179.9396750817719" class="text" fill="white">HCF-INTERNSHIP</text>
<circle cx="400" cy="225" r="637.0845" class="orbit" />
<circle cx="945.7495449767067" cy="-103.68540323228171" r="9.246" fill="#8b949e" class="planet" />

    <text x="400" y="40" text-anchor="middle" class="title">SYSTEM SINGULARITY</text>
    </svg>