<svg width="800" height="450" xmlns="http://www.w3.org/2000/svg">
    <style>
        .orbit { fill: none; stroke: #30363d; stroke-width: 1; opacity: 0.5; }
        .planet { filter: drop-shadow(0 0 5px rgba(255,255,255,0.3)); }
        .text { font-family: 'Courier New', monospace; fill: #8b949e; font-size: 10px; }
        .title { font-family: sans-serif; fill: white; font-weight: bold; font-size: 24px; letter-spacing: 4px; }
        .hud-line { stroke: #00ffff; stroke-width: 1; opacity: 0.3; }
        
        /* ANIMATIONS */
        @keyframes pulse { 0% { r: 25; opacity: 0.8; } 50% { r: 30; opacity: 0.4; } 100% { r: 25; opacity: 0.8; } }
        .sun { animation: pulse 4s infinite; }
    </style>
    
    <rect width="100%" height="100%" fill="#0d1117" />
    
    <line x1="50" y1="50" x2="50" y2="400" class="hud-line" />
    <line x1="50" y1="400" x2="750" y2="400" class="hud-line" />
    <text x="60" y="390" class="text">SYS_TIME: 2026.02.28 :: 0105</text>
    <text x="60" y="375" class="text">SECTOR: N_BHARATH_PRIME</text>
    
    <circle cx="400" cy="225" r="25" fill="url(#grad1)" class="sun" />
    <defs>
        <radialGradient id="grad1" cx="50%" cy="50%" r="50%" fx="50%" fy="50%">
            <stop offset="0%" style="stop-color:white;stop-opacity:1" />
            <stop offset="100%" style="stop-color:#00ffff;stop-opacity:1" />
        </radialGradient>
    </defs>
    <circle cx="400" cy="225" r="150.0" class="orbit" />
<circle cx="376.1723226322126" cy="373.095380722211" r="50" fill="#f1e05a" class="planet" />
<text x="391.1723226322126" y="378.095380722211" class="text" fill="white">REDSHIFT</text>
<circle cx="400" cy="225" r="240.0" class="orbit" />
<circle cx="160.39928670367553" cy="238.8382870288383" r="50" fill="#e34c26" class="planet" />
<text x="175.39928670367553" y="243.8382870288383" class="text" fill="white">CIRCLE-13</text>
<circle cx="400" cy="225" r="330.0" class="orbit" />
<circle cx="428.078987296025" cy="553.8032397535487" r="50" fill="#e34c26" class="planet" />
<text x="443.078987296025" y="558.8032397535487" class="text" fill="white">ALVRYN-AI</text>
<circle cx="400" cy="225" r="415.422" class="orbit" />
<circle cx="177.29714213071603" cy="575.6834401292048" r="46.948" fill="#f1e05a" class="planet" />
<text x="192.29714213071603" y="580.6834401292048" class="text" fill="white">DRIFT-CIRCLE13</text>
<circle cx="400" cy="225" r="461.8095" class="orbit" />
<circle cx="452.48675159254566" cy="683.8171260943868" r="20.925" fill="#2b7489" class="planet" />
<text x="467.48675159254566" y="688.8171260943868" class="text" fill="white">DSATM-EXAM-SYSTEM-</text>
<circle cx="400" cy="225" r="504.8295" class="orbit" />
<circle cx="178.5374964930171" cy="-228.65976635653902" r="18.68" fill="#8b949e" class="planet" />
<text x="193.5374964930171" y="-223.65976635653902" class="text" fill="white">NBHARATH1306</text>
<circle cx="400" cy="225" r="547.062" class="orbit" />
<circle cx="-21.83408816604191" cy="573.3286291781426" r="18.155" fill="#e34c26" class="planet" />
<text x="-6.834088166041909" y="578.3286291781426" class="text" fill="white">WEBSITE-EQUDATOR-TRADING-PLATFORM</text>
<circle cx="400" cy="225" r="577.8945" class="orbit" />
<circle cx="469.5933231687441" cy="-348.68878540597314" r="10.555" fill="#8b949e" class="planet" />
<text x="484.5933231687441" y="-343.68878540597314" class="text" fill="white">FLASK</text>
<circle cx="400" cy="225" r="608.1675" class="orbit" />
<circle cx="781.7576798896516" cy="698.4224138140487" r="10.182" fill="#8b949e" class="planet" />
<text x="796.7576798896516" y="703.4224138140487" class="text" fill="white">HCF-INTERNSHIP</text>
<circle cx="400" cy="225" r="637.0365" class="orbit" />
<circle cx="523.3029037594043" cy="-399.98951691748323" r="9.246" fill="#8b949e" class="planet" />

    <text x="400" y="40" text-anchor="middle" class="title">SYSTEM SINGULARITY</text>
    </svg>