<svg width="800" height="450" xmlns="http://www.w3.org/2000/svg">
    <style>
        .orbit { fill: none; stroke: #30363d; stroke-width: 1; opacity: 0.5; }
        .planet { filter: drop-shadow(0 0 5px rgba(255,255,255,0.3)); }
        .text { font-family: 'Courier New', monospace; fill: #8b949e; font-size: 10px; }
        .title { font-family: sans-serif; fill: white; font-weight: bold; font-size: 24px; letter-spacing: 4px; }
        .hud-line { stroke: #00ffff; stroke-width: 1; opacity: 0.3; }
        
        /* ANIMATIONS */
        @keyframes pulse { 0% { r: 25; opacity: 0.8; } 50% { r: 30; opacity: 0.4; } 100% { r: 25; opacity: 0.8; } }
        .sun { animation: pulse 4s infinite; }
    </style>
    
    <rect width="100%" height="100%" fill="#0d1117" />
    
    <line x1="50" y1="50" x2="50" y2="400" class="hud-line" />
    <line x1="50" y1="400" x2="750" y2="400" class="hud-line" />
    <text x="60" y="390" class="text">SYS_TIME: 2026.03.27 :: 0122</text>
    <text x="60" y="375" class="text">SECTOR: N_BHARATH_PRIME</text>
    
    <circle cx="400" cy="225" r="25" fill="url(#grad1)" class="sun" />
    <defs>
        <radialGradient id="grad1" cx="50%" cy="50%" r="50%" fx="50%" fy="50%">
            <stop offset="0%" style="stop-color:white;stop-opacity:1" />
            <stop offset="100%" style="stop-color:#00ffff;stop-opacity:1" />
        </radialGradient>
    </defs>
    <circle cx="400" cy="225" r="150.0" class="orbit" />
<circle cx="328.74042494290705" cy="356.9927004143886" r="50" fill="#f1e05a" class="planet" />
<text x="343.74042494290705" y="361.9927004143886" class="text" fill="white">REDSHIFT</text>
<circle cx="400" cy="225" r="240.0" class="orbit" />
<circle cx="481.2065875404239" cy="-0.843950859967606" r="50" fill="#e34c26" class="planet" />
<text x="496.2065875404239" y="4.156049140032394" class="text" fill="white">CIRCLE-13</text>
<circle cx="400" cy="225" r="330.0" class="orbit" />
<circle cx="240.0399484258643" cy="513.6395362738789" r="50" fill="#e34c26" class="planet" />
<text x="255.0399484258643" y="518.6395362738789" class="text" fill="white">ALVRYN-AI</text>
<circle cx="400" cy="225" r="415.422" class="orbit" />
<circle cx="-14.445407419851733" cy="196.5317307762989" r="46.948" fill="#f1e05a" class="planet" />
<text x="0.5545925801482667" y="201.5317307762989" class="text" fill="white">DRIFT-CIRCLE13</text>
<circle cx="400" cy="225" r="461.8095" class="orbit" />
<circle cx="847.5750628544977" cy="111.2257612592266" r="20.925" fill="#2b7489" class="planet" />
<text x="862.5750628544977" y="116.2257612592266" class="text" fill="white">DSATM-EXAM-SYSTEM-</text>
<circle cx="400" cy="225" r="504.885" class="orbit" />
<circle cx="539.2610751734444" cy="-260.299099696812" r="18.717" fill="#8b949e" class="planet" />
<text x="554.2610751734444" y="-255.299099696812" class="text" fill="white">NBHARATH1306</text>
<circle cx="400" cy="225" r="547.1175" class="orbit" />
<circle cx="795.6473548796737" cy="-152.8898376285971" r="18.155" fill="#e34c26" class="planet" />
<text x="810.6473548796737" y="-147.8898376285971" class="text" fill="white">WEBSITE-EQUDATOR-TRADING-PLATFORM</text>
<circle cx="400" cy="225" r="577.9499999999999" class="orbit" />
<circle cx="917.6616748206649" cy="-32.00699002529905" r="10.555" fill="#8b949e" class="planet" />
<text x="932.6616748206649" y="-27.006990025299046" class="text" fill="white">FLASK</text>
<circle cx="400" cy="225" r="608.223" class="orbit" />
<circle cx="537.1472041143779" cy="-367.55874150383534" r="10.182" fill="#8b949e" class="planet" />
<text x="552.1472041143779" y="-362.55874150383534" class="text" fill="white">HCF-INTERNSHIP</text>
<circle cx="400" cy="225" r="637.092" class="orbit" />
<circle cx="165.14263151340947" cy="-367.22312765675895" r="9.246" fill="#8b949e" class="planet" />

    <text x="400" y="40" text-anchor="middle" class="title">SYSTEM SINGULARITY</text>
    </svg>