<svg width="800" height="450" xmlns="http://www.w3.org/2000/svg">
    <style>
        .orbit { fill: none; stroke: #30363d; stroke-width: 1; opacity: 0.5; }
        .planet { filter: drop-shadow(0 0 5px rgba(255,255,255,0.3)); }
        .text { font-family: 'Courier New', monospace; fill: #8b949e; font-size: 10px; }
        .title { font-family: sans-serif; fill: white; font-weight: bold; font-size: 24px; letter-spacing: 4px; }
        .hud-line { stroke: #00ffff; stroke-width: 1; opacity: 0.3; }
        
        /* ANIMATIONS */
        @keyframes pulse { 0% { r: 25; opacity: 0.8; } 50% { r: 30; opacity: 0.4; } 100% { r: 25; opacity: 0.8; } }
        .sun { animation: pulse 4s infinite; }
    </style>
    
    <rect width="100%" height="100%" fill="#0d1117" />
    
    <line x1="50" y1="50" x2="50" y2="400" class="hud-line" />
    <line x1="50" y1="400" x2="750" y2="400" class="hud-line" />
    <text x="60" y="390" class="text">SYS_TIME: 2026.03.17 :: 0114</text>
    <text x="60" y="375" class="text">SECTOR: N_BHARATH_PRIME</text>
    
    <circle cx="400" cy="225" r="25" fill="url(#grad1)" class="sun" />
    <defs>
        <radialGradient id="grad1" cx="50%" cy="50%" r="50%" fx="50%" fy="50%">
            <stop offset="0%" style="stop-color:white;stop-opacity:1" />
            <stop offset="100%" style="stop-color:#00ffff;stop-opacity:1" />
        </radialGradient>
    </defs>
    <circle cx="400" cy="225" r="150.0" class="orbit" />
<circle cx="541.1748673634306" cy="275.691782617282" r="50" fill="#f1e05a" class="planet" />
<text x="556.1748673634306" y="280.691782617282" class="text" fill="white">REDSHIFT</text>
<circle cx="400" cy="225" r="240.0" class="orbit" />
<circle cx="600.5937590751106" cy="356.76548797054744" r="50" fill="#e34c26" class="planet" />
<text x="615.5937590751106" y="361.76548797054744" class="text" fill="white">CIRCLE-13</text>
<circle cx="400" cy="225" r="330.0" class="orbit" />
<circle cx="379.79388874887275" cy="554.3808025190707" r="50" fill="#e34c26" class="planet" />
<text x="394.79388874887275" y="559.3808025190707" class="text" fill="white">ALVRYN-AI</text>
<circle cx="400" cy="225" r="415.422" class="orbit" />
<circle cx="55.928112419971626" cy="457.7874014226636" r="46.948" fill="#f1e05a" class="planet" />
<text x="70.92811241997163" y="462.7874014226636" class="text" fill="white">DRIFT-CIRCLE13</text>
<circle cx="400" cy="225" r="461.8095" class="orbit" />
<circle cx="119.1037340946512" cy="-141.5587293881863" r="20.925" fill="#2b7489" class="planet" />
<text x="134.1037340946512" y="-136.5587293881863" class="text" fill="white">DSATM-EXAM-SYSTEM-</text>
<circle cx="400" cy="225" r="504.86400000000003" class="orbit" />
<circle cx="10.686008765647898" cy="546.4378240425026" r="18.703" fill="#8b949e" class="planet" />
<text x="25.686008765647898" y="551.4378240425026" class="text" fill="white">NBHARATH1306</text>
<circle cx="400" cy="225" r="547.0965" class="orbit" />
<circle cx="-124.10841996127681" cy="68.07662877077917" r="18.155" fill="#e34c26" class="planet" />
<text x="-109.10841996127681" y="73.07662877077917" class="text" fill="white">WEBSITE-EQUDATOR-TRADING-PLATFORM</text>
<circle cx="400" cy="225" r="577.929" class="orbit" />
<circle cx="32.03995730734687" cy="-220.65382980809312" r="10.555" fill="#8b949e" class="planet" />
<text x="47.03995730734687" y="-215.65382980809312" class="text" fill="white">FLASK</text>
<circle cx="400" cy="225" r="608.202" class="orbit" />
<circle cx="812.4804815113831" cy="671.9558425349618" r="10.182" fill="#8b949e" class="planet" />
<text x="827.4804815113831" y="676.9558425349618" class="text" fill="white">HCF-INTERNSHIP</text>
<circle cx="400" cy="225" r="637.071" class="orbit" />
<circle cx="-231.11488333299587" cy="138.08933853330166" r="9.246" fill="#8b949e" class="planet" />

    <text x="400" y="40" text-anchor="middle" class="title">SYSTEM SINGULARITY</text>
    </svg>