<svg width="800" height="450" xmlns="http://www.w3.org/2000/svg">
    <style>
        .orbit { fill: none; stroke: #30363d; stroke-width: 1; opacity: 0.5; }
        .planet { filter: drop-shadow(0 0 5px rgba(255,255,255,0.3)); }
        .text { font-family: 'Courier New', monospace; fill: #8b949e; font-size: 10px; }
        .title { font-family: sans-serif; fill: white; font-weight: bold; font-size: 24px; letter-spacing: 4px; }
        .hud-line { stroke: #00ffff; stroke-width: 1; opacity: 0.3; }
        
        /* ANIMATIONS */
        @keyframes pulse { 0% { r: 25; opacity: 0.8; } 50% { r: 30; opacity: 0.4; } 100% { r: 25; opacity: 0.8; } }
        .sun { animation: pulse 4s infinite; }
    </style>
    
    <rect width="100%" height="100%" fill="#0d1117" />
    
    <line x1="50" y1="50" x2="50" y2="400" class="hud-line" />
    <line x1="50" y1="400" x2="750" y2="400" class="hud-line" />
    <text x="60" y="390" class="text">SYS_TIME: 2026.03.31 :: 0123</text>
    <text x="60" y="375" class="text">SECTOR: N_BHARATH_PRIME</text>
    
    <circle cx="400" cy="225" r="25" fill="url(#grad1)" class="sun" />
    <defs>
        <radialGradient id="grad1" cx="50%" cy="50%" r="50%" fx="50%" fy="50%">
            <stop offset="0%" style="stop-color:white;stop-opacity:1" />
            <stop offset="100%" style="stop-color:#00ffff;stop-opacity:1" />
        </radialGradient>
    </defs>
    <circle cx="400" cy="225" r="150.0" class="orbit" />
<circle cx="509.75439461131117" cy="122.75532843465831" r="50" fill="#f1e05a" class="planet" />
<text x="524.7543946113112" y="127.75532843465831" class="text" fill="white">REDSHIFT</text>
<circle cx="400" cy="225" r="240.0" class="orbit" />
<circle cx="169.27347197109518" cy="291.0701843778795" r="50" fill="#e34c26" class="planet" />
<text x="184.27347197109518" y="296.0701843778795" class="text" fill="white">CIRCLE-13</text>
<circle cx="400" cy="225" r="330.0" class="orbit" />
<circle cx="644.7091317567535" cy="3.601172462779658" r="50" fill="#e34c26" class="planet" />
<text x="659.7091317567535" y="8.601172462779658" class="text" fill="white">ALVRYN-AI</text>
<circle cx="400" cy="225" r="415.422" class="orbit" />
<circle cx="804.7635919804713" cy="318.4979822833979" r="46.948" fill="#f1e05a" class="planet" />
<text x="819.7635919804713" y="323.4979822833979" class="text" fill="white">DRIFT-CIRCLE13</text>
<circle cx="400" cy="225" r="461.8095" class="orbit" />
<circle cx="-20.96907505950668" cy="35.12358721053991" r="20.925" fill="#2b7489" class="planet" />
<text x="-5.969075059506679" y="40.12358721053991" class="text" fill="white">DSATM-EXAM-SYSTEM-</text>
<circle cx="400" cy="225" r="504.89250000000004" class="orbit" />
<circle cx="-72.81339234715688" cy="47.9013479062487" r="18.722" fill="#8b949e" class="planet" />
<text x="-57.81339234715688" y="52.9013479062487" class="text" fill="white">NBHARATH1306</text>
<circle cx="400" cy="225" r="547.125" class="orbit" />
<circle cx="-91.465409321734" cy="-15.431938529847741" r="18.155" fill="#e34c26" class="planet" />
<text x="-76.465409321734" y="-10.431938529847741" class="text" fill="white">WEBSITE-EQUDATOR-TRADING-PLATFORM</text>
<circle cx="400" cy="225" r="577.9575" class="orbit" />
<circle cx="977.0721070303798" cy="193.02102106433347" r="10.555" fill="#8b949e" class="planet" />
<text x="992.0721070303798" y="198.02102106433347" class="text" fill="white">FLASK</text>
<circle cx="400" cy="225" r="608.2305" class="orbit" />
<circle cx="315.41663027953797" cy="-377.3205082819127" r="10.182" fill="#8b949e" class="planet" />
<text x="330.41663027953797" y="-372.3205082819127" class="text" fill="white">HCF-INTERNSHIP</text>
<circle cx="400" cy="225" r="637.0995" class="orbit" />
<circle cx="817.8967267077655" cy="705.8930221028218" r="9.246" fill="#8b949e" class="planet" />

    <text x="400" y="40" text-anchor="middle" class="title">SYSTEM SINGULARITY</text>
    </svg>