<svg width="800" height="450" xmlns="http://www.w3.org/2000/svg">
    <style>
        .orbit { fill: none; stroke: #30363d; stroke-width: 1; opacity: 0.5; }
        .planet { filter: drop-shadow(0 0 5px rgba(255,255,255,0.3)); }
        .text { font-family: 'Courier New', monospace; fill: #8b949e; font-size: 10px; }
        .title { font-family: sans-serif; fill: white; font-weight: bold; font-size: 24px; letter-spacing: 4px; }
        .hud-line { stroke: #00ffff; stroke-width: 1; opacity: 0.3; }
        
        /* ANIMATIONS */
        @keyframes pulse { 0% { r: 25; opacity: 0.8; } 50% { r: 30; opacity: 0.4; } 100% { r: 25; opacity: 0.8; } }
        .sun { animation: pulse 4s infinite; }
    </style>
    
    <rect width="100%" height="100%" fill="#0d1117" />
    
    <line x1="50" y1="50" x2="50" y2="400" class="hud-line" />
    <line x1="50" y1="400" x2="750" y2="400" class="hud-line" />
    <text x="60" y="390" class="text">SYS_TIME: 2026.02.25 :: 0119</text>
    <text x="60" y="375" class="text">SECTOR: N_BHARATH_PRIME</text>
    
    <circle cx="400" cy="225" r="25" fill="url(#grad1)" class="sun" />
    <defs>
        <radialGradient id="grad1" cx="50%" cy="50%" r="50%" fx="50%" fy="50%">
            <stop offset="0%" style="stop-color:white;stop-opacity:1" />
            <stop offset="100%" style="stop-color:#00ffff;stop-opacity:1" />
        </radialGradient>
    </defs>
    <circle cx="400" cy="225" r="150.0" class="orbit" />
<circle cx="538.2296044073283" cy="283.2458278797161" r="50" fill="#f1e05a" class="planet" />
<text x="553.2296044073283" y="288.2458278797161" class="text" fill="white">REDSHIFT</text>
<circle cx="400" cy="225" r="240.0" class="orbit" />
<circle cx="434.6549238535996" cy="462.4848126779926" r="50" fill="#e34c26" class="planet" />
<text x="449.6549238535996" y="467.4848126779926" class="text" fill="white">CIRCLE-13</text>
<circle cx="400" cy="225" r="330.0" class="orbit" />
<circle cx="548.206061804504" cy="-69.84735583755804" r="50" fill="#e34c26" class="planet" />
<text x="563.206061804504" y="-64.84735583755804" class="text" fill="white">ALVRYN-AI</text>
<circle cx="400" cy="225" r="415.422" class="orbit" />
<circle cx="-14.477258065486694" cy="196.99927446447276" r="46.948" fill="#f1e05a" class="planet" />
<text x="0.5227419345133058" y="201.99927446447276" class="text" fill="white">DRIFT-CIRCLE13</text>
<circle cx="400" cy="225" r="461.8095" class="orbit" />
<circle cx="-38.78388412034968" cy="80.99750930449315" r="20.925" fill="#2b7489" class="planet" />
<text x="-23.783884120349683" y="85.99750930449315" class="text" fill="white">DSATM-EXAM-SYSTEM-</text>
<circle cx="400" cy="225" r="504.82500000000005" class="orbit" />
<circle cx="171.54405852258893" cy="675.1734814809395" r="18.677" fill="#8b949e" class="planet" />
<text x="186.54405852258893" y="680.1734814809395" class="text" fill="white">NBHARATH1306</text>
<circle cx="400" cy="225" r="547.0575" class="orbit" />
<circle cx="837.976706315362" cy="552.7930948500855" r="18.155" fill="#e34c26" class="planet" />
<text x="852.976706315362" y="557.7930948500855" class="text" fill="white">WEBSITE-EQUDATOR-TRADING-PLATFORM</text>
<circle cx="400" cy="225" r="577.89" class="orbit" />
<circle cx="39.26976537997734" cy="676.4759682762565" r="10.555" fill="#8b949e" class="planet" />
<text x="54.26976537997734" y="681.4759682762565" class="text" fill="white">FLASK</text>
<circle cx="400" cy="225" r="608.163" class="orbit" />
<circle cx="64.32850719641397" cy="732.135961540899" r="10.182" fill="#8b949e" class="planet" />
<text x="79.32850719641397" y="737.135961540899" class="text" fill="white">HCF-INTERNSHIP</text>
<circle cx="400" cy="225" r="637.032" class="orbit" />
<circle cx="-32.40222020359789" cy="692.80133495641" r="9.246" fill="#8b949e" class="planet" />

    <text x="400" y="40" text-anchor="middle" class="title">SYSTEM SINGULARITY</text>
    </svg>