<svg width="800" height="450" xmlns="http://www.w3.org/2000/svg">
    <style>
        .orbit { fill: none; stroke: #30363d; stroke-width: 1; opacity: 0.5; }
        .planet { filter: drop-shadow(0 0 5px rgba(255,255,255,0.3)); }
        .text { font-family: 'Courier New', monospace; fill: #8b949e; font-size: 10px; }
        .title { font-family: sans-serif; fill: white; font-weight: bold; font-size: 24px; letter-spacing: 4px; }
        .hud-line { stroke: #00ffff; stroke-width: 1; opacity: 0.3; }
        
        /* ANIMATIONS */
        @keyframes pulse { 0% { r: 25; opacity: 0.8; } 50% { r: 30; opacity: 0.4; } 100% { r: 25; opacity: 0.8; } }
        .sun { animation: pulse 4s infinite; }
    </style>
    
    <rect width="100%" height="100%" fill="#0d1117" />
    
    <line x1="50" y1="50" x2="50" y2="400" class="hud-line" />
    <line x1="50" y1="400" x2="750" y2="400" class="hud-line" />
    <text x="60" y="390" class="text">SYS_TIME: 2026.05.27 :: 0231</text>
    <text x="60" y="375" class="text">SECTOR: N_BHARATH_PRIME</text>
    
    <circle cx="400" cy="225" r="25" fill="url(#grad1)" class="sun" />
    <defs>
        <radialGradient id="grad1" cx="50%" cy="50%" r="50%" fx="50%" fy="50%">
            <stop offset="0%" style="stop-color:white;stop-opacity:1" />
            <stop offset="100%" style="stop-color:#00ffff;stop-opacity:1" />
        </radialGradient>
    </defs>
    <circle cx="400" cy="225" r="150.0" class="orbit" />
<circle cx="250.24481497076923" cy="216.4335213266561" r="50" fill="#e34c26" class="planet" />
<text x="265.2448149707692" y="221.4335213266561" class="text" fill="white">CIRCLE13</text>
<circle cx="400" cy="225" r="240.0" class="orbit" />
<circle cx="178.07339564245672" cy="316.3705766553459" r="50" fill="#f1e05a" class="planet" />
<text x="193.07339564245672" y="321.3705766553459" class="text" fill="white">REDSHIFT</text>
<circle cx="400" cy="225" r="330.0" class="orbit" />
<circle cx="569.5502674996479" cy="-58.11253379318589" r="50" fill="#e34c26" class="planet" />
<text x="584.5502674996479" y="-53.11253379318589" class="text" fill="white">ALVRYN-AI</text>
<circle cx="400" cy="225" r="415.422" class="orbit" />
<circle cx="635.7624469280661" cy="-117.04021211327017" r="46.948" fill="#f1e05a" class="planet" />
<text x="650.7624469280661" y="-112.04021211327017" class="text" fill="white">DRIFT-CIRCLE13</text>
<circle cx="400" cy="225" r="461.8095" class="orbit" />
<circle cx="229.46148228302755" cy="654.1673662630326" r="20.925" fill="#2b7489" class="planet" />
<text x="244.46148228302755" y="659.1673662630326" class="text" fill="white">DSATM-EXAM-SYSTEM-</text>
<circle cx="400" cy="225" r="504.915" class="orbit" />
<circle cx="511.32319516400815" cy="717.4899018695471" r="18.737" fill="#8b949e" class="planet" />
<text x="526.3231951640082" y="722.4899018695471" class="text" fill="white">NBHARATH1306</text>
<circle cx="400" cy="225" r="547.1475" class="orbit" />
<circle cx="409.9653227618409" cy="772.0567421195925" r="18.155" fill="#e34c26" class="planet" />
<text x="424.9653227618409" y="777.0567421195925" class="text" fill="white">WEBSITE-EQUDATOR-TRADING-PLATFORM</text>
<circle cx="400" cy="225" r="577.98" class="orbit" />
<circle cx="448.8308913231334" cy="-350.91355640633117" r="10.555" fill="#8b949e" class="planet" />
<text x="463.8308913231334" y="-345.91355640633117" class="text" fill="white">FLASK</text>
<circle cx="400" cy="225" r="608.253" class="orbit" />
<circle cx="-56.859543509413925" cy="-176.56079180289748" r="10.182" fill="#8b949e" class="planet" />
<text x="-41.859543509413925" y="-171.56079180289748" class="text" fill="white">HCF-INTERNSHIP</text>
<circle cx="400" cy="225" r="637.1220000000001" class="orbit" />
<circle cx="858.2061122852065" cy="-217.68679848000528" r="9.246" fill="#8b949e" class="planet" />

    <text x="400" y="40" text-anchor="middle" class="title">SYSTEM SINGULARITY</text>
    </svg>