<svg width="800" height="450" xmlns="http://www.w3.org/2000/svg">
    <style>
        .orbit { fill: none; stroke: #30363d; stroke-width: 1; opacity: 0.5; }
        .planet { filter: drop-shadow(0 0 5px rgba(255,255,255,0.3)); }
        .text { font-family: 'Courier New', monospace; fill: #8b949e; font-size: 10px; }
        .title { font-family: sans-serif; fill: white; font-weight: bold; font-size: 24px; letter-spacing: 4px; }
        .hud-line { stroke: #00ffff; stroke-width: 1; opacity: 0.3; }
        
        /* ANIMATIONS */
        @keyframes pulse { 0% { r: 25; opacity: 0.8; } 50% { r: 30; opacity: 0.4; } 100% { r: 25; opacity: 0.8; } }
        .sun { animation: pulse 4s infinite; }
    </style>
    
    <rect width="100%" height="100%" fill="#0d1117" />
    
    <line x1="50" y1="50" x2="50" y2="400" class="hud-line" />
    <line x1="50" y1="400" x2="750" y2="400" class="hud-line" />
    <text x="60" y="390" class="text">SYS_TIME: 2026.06.25 :: 0226</text>
    <text x="60" y="375" class="text">SECTOR: N_BHARATH_PRIME</text>
    
    <circle cx="400" cy="225" r="25" fill="url(#grad1)" class="sun" />
    <defs>
        <radialGradient id="grad1" cx="50%" cy="50%" r="50%" fx="50%" fy="50%">
            <stop offset="0%" style="stop-color:white;stop-opacity:1" />
            <stop offset="100%" style="stop-color:#00ffff;stop-opacity:1" />
        </radialGradient>
    </defs>
    <circle cx="400" cy="225" r="150.0" class="orbit" />
<circle cx="255.75149577993704" cy="183.86158692566667" r="50" fill="#e34c26" class="planet" />
<text x="270.75149577993704" y="188.86158692566667" class="text" fill="white">CIRCLE13</text>
<circle cx="400" cy="225" r="240.0" class="orbit" />
<circle cx="160.0314333494287" cy="228.88420129116864" r="50" fill="#f1e05a" class="planet" />
<text x="175.0314333494287" y="233.88420129116864" class="text" fill="white">REDSHIFT</text>
<circle cx="400" cy="225" r="330.0" class="orbit" />
<circle cx="555.3268961148575" cy="516.1589863688296" r="50" fill="#e34c26" class="planet" />
<text x="570.3268961148575" y="521.1589863688296" class="text" fill="white">ALVRYN-AI</text>
<circle cx="400" cy="225" r="415.422" class="orbit" />
<circle cx="253.71312797177237" cy="613.8130516793346" r="46.948" fill="#f1e05a" class="planet" />
<text x="268.71312797177234" y="618.8130516793346" class="text" fill="white">DRIFT-CIRCLE13</text>
<circle cx="400" cy="225" r="461.8095" class="orbit" />
<circle cx="745.8089652359439" cy="-81.07870532380355" r="20.925" fill="#2b7489" class="planet" />
<text x="760.8089652359439" y="-76.07870532380355" class="text" fill="white">DSATM-EXAM-SYSTEM-</text>
<circle cx="400" cy="225" r="504.9735" class="orbit" />
<circle cx="47.70234499237773" cy="-136.7797644678049" r="18.776" fill="#8b949e" class="planet" />
<text x="62.70234499237773" y="-131.7797644678049" class="text" fill="white">NBHARATH1306</text>
<circle cx="400" cy="225" r="547.206" class="orbit" />
<circle cx="364.8503311136183" cy="-321.0759170785485" r="18.155" fill="#e34c26" class="planet" />
<text x="379.8503311136183" y="-316.0759170785485" class="text" fill="white">WEBSITE-EQUDATOR-TRADING-PLATFORM</text>
<circle cx="400" cy="225" r="578.0385" class="orbit" />
<circle cx="346.5873246920996" cy="800.5654555293453" r="10.555" fill="#8b949e" class="planet" />
<text x="361.5873246920996" y="805.5654555293453" class="text" fill="white">FLASK</text>
<circle cx="400" cy="225" r="608.3115" class="orbit" />
<circle cx="666.5985418770115" cy="-321.77975319254585" r="10.182" fill="#8b949e" class="planet" />
<text x="681.5985418770115" y="-316.77975319254585" class="text" fill="white">HCF-INTERNSHIP</text>
<circle cx="400" cy="225" r="637.1805" class="orbit" />
<circle cx="194.70844100533049" cy="828.2034195740175" r="9.246" fill="#8b949e" class="planet" />

    <text x="400" y="40" text-anchor="middle" class="title">SYSTEM SINGULARITY</text>
    </svg>