<svg width="800" height="450" xmlns="http://www.w3.org/2000/svg">
    <style>
        .orbit { fill: none; stroke: #30363d; stroke-width: 1; opacity: 0.5; }
        .planet { filter: drop-shadow(0 0 5px rgba(255,255,255,0.3)); }
        .text { font-family: 'Courier New', monospace; fill: #8b949e; font-size: 10px; }
        .title { font-family: sans-serif; fill: white; font-weight: bold; font-size: 24px; letter-spacing: 4px; }
        .hud-line { stroke: #00ffff; stroke-width: 1; opacity: 0.3; }
        
        /* ANIMATIONS */
        @keyframes pulse { 0% { r: 25; opacity: 0.8; } 50% { r: 30; opacity: 0.4; } 100% { r: 25; opacity: 0.8; } }
        .sun { animation: pulse 4s infinite; }
    </style>
    
    <rect width="100%" height="100%" fill="#0d1117" />
    
    <line x1="50" y1="50" x2="50" y2="400" class="hud-line" />
    <line x1="50" y1="400" x2="750" y2="400" class="hud-line" />
    <text x="60" y="390" class="text">SYS_TIME: 2026.03.19 :: 0118</text>
    <text x="60" y="375" class="text">SECTOR: N_BHARATH_PRIME</text>
    
    <circle cx="400" cy="225" r="25" fill="url(#grad1)" class="sun" />
    <defs>
        <radialGradient id="grad1" cx="50%" cy="50%" r="50%" fx="50%" fy="50%">
            <stop offset="0%" style="stop-color:white;stop-opacity:1" />
            <stop offset="100%" style="stop-color:#00ffff;stop-opacity:1" />
        </radialGradient>
    </defs>
    <circle cx="400" cy="225" r="150.0" class="orbit" />
<circle cx="496.87372165844005" cy="339.5228451097993" r="50" fill="#f1e05a" class="planet" />
<text x="511.87372165844005" y="344.5228451097993" class="text" fill="white">REDSHIFT</text>
<circle cx="400" cy="225" r="240.0" class="orbit" />
<circle cx="636.8046515234362" cy="264.03276850114423" r="50" fill="#e34c26" class="planet" />
<text x="651.8046515234362" y="269.03276850114423" class="text" fill="white">CIRCLE-13</text>
<circle cx="400" cy="225" r="330.0" class="orbit" />
<circle cx="254.25979648632932" cy="521.0739655555582" r="50" fill="#e34c26" class="planet" />
<text x="269.2597964863293" y="526.0739655555582" class="text" fill="white">ALVRYN-AI</text>
<circle cx="400" cy="225" r="415.422" class="orbit" />
<circle cx="13.548335313967698" cy="377.41571095328226" r="46.948" fill="#f1e05a" class="planet" />
<text x="28.548335313967698" y="382.41571095328226" class="text" fill="white">DRIFT-CIRCLE13</text>
<circle cx="400" cy="225" r="461.8095" class="orbit" />
<circle cx="595.2205124243878" cy="-193.51758125437152" r="20.925" fill="#2b7489" class="planet" />
<text x="610.2205124243878" y="-188.51758125437152" class="text" fill="white">DSATM-EXAM-SYSTEM-</text>
<circle cx="400" cy="225" r="504.86850000000004" class="orbit" />
<circle cx="524.8998986843262" cy="714.1750377941368" r="18.706" fill="#8b949e" class="planet" />
<text x="539.8998986843262" y="719.1750377941368" class="text" fill="white">NBHARATH1306</text>
<circle cx="400" cy="225" r="547.101" class="orbit" />
<circle cx="-116.69213120752204" cy="45.14242926907755" r="18.155" fill="#e34c26" class="planet" />
<text x="-101.69213120752204" y="50.14242926907755" class="text" fill="white">WEBSITE-EQUDATOR-TRADING-PLATFORM</text>
<circle cx="400" cy="225" r="577.9335" class="orbit" />
<circle cx="810.5557597288857" cy="-181.756805198988" r="10.555" fill="#8b949e" class="planet" />
<text x="825.5557597288857" y="-176.756805198988" class="text" fill="white">FLASK</text>
<circle cx="400" cy="225" r="608.2065" class="orbit" />
<circle cx="506.3396756130302" cy="-373.8380582701516" r="10.182" fill="#8b949e" class="planet" />
<text x="521.3396756130302" y="-368.8380582701516" class="text" fill="white">HCF-INTERNSHIP</text>
<circle cx="400" cy="225" r="637.0755" class="orbit" />
<circle cx="-230.33370213170758" cy="132.5629043230711" r="9.246" fill="#8b949e" class="planet" />

    <text x="400" y="40" text-anchor="middle" class="title">SYSTEM SINGULARITY</text>
    </svg>