<svg width="800" height="450" xmlns="http://www.w3.org/2000/svg">
    <style>
        .orbit { fill: none; stroke: #30363d; stroke-width: 1; opacity: 0.5; }
        .planet { filter: drop-shadow(0 0 5px rgba(255,255,255,0.3)); }
        .text { font-family: 'Courier New', monospace; fill: #8b949e; font-size: 10px; }
        .title { font-family: sans-serif; fill: white; font-weight: bold; font-size: 24px; letter-spacing: 4px; }
        .hud-line { stroke: #00ffff; stroke-width: 1; opacity: 0.3; }
        
        /* ANIMATIONS */
        @keyframes pulse { 0% { r: 25; opacity: 0.8; } 50% { r: 30; opacity: 0.4; } 100% { r: 25; opacity: 0.8; } }
        .sun { animation: pulse 4s infinite; }
    </style>
    
    <rect width="100%" height="100%" fill="#0d1117" />
    
    <line x1="50" y1="50" x2="50" y2="400" class="hud-line" />
    <line x1="50" y1="400" x2="750" y2="400" class="hud-line" />
    <text x="60" y="390" class="text">SYS_TIME: 2026.03.18 :: 0118</text>
    <text x="60" y="375" class="text">SECTOR: N_BHARATH_PRIME</text>
    
    <circle cx="400" cy="225" r="25" fill="url(#grad1)" class="sun" />
    <defs>
        <radialGradient id="grad1" cx="50%" cy="50%" r="50%" fx="50%" fy="50%">
            <stop offset="0%" style="stop-color:white;stop-opacity:1" />
            <stop offset="100%" style="stop-color:#00ffff;stop-opacity:1" />
        </radialGradient>
    </defs>
    <circle cx="400" cy="225" r="150.0" class="orbit" />
<circle cx="310.23749906712885" cy="104.82224238122804" r="50" fill="#f1e05a" class="planet" />
<text x="325.23749906712885" y="109.82224238122804" class="text" fill="white">REDSHIFT</text>
<circle cx="400" cy="225" r="240.0" class="orbit" />
<circle cx="632.6280981166178" cy="165.9731589304895" r="50" fill="#e34c26" class="planet" />
<text x="647.6280981166178" y="170.9731589304895" class="text" fill="white">CIRCLE-13</text>
<circle cx="400" cy="225" r="330.0" class="orbit" />
<circle cx="70.51533055279964" cy="243.43509151778565" r="50" fill="#e34c26" class="planet" />
<text x="85.51533055279964" y="248.43509151778565" class="text" fill="white">ALVRYN-AI</text>
<circle cx="400" cy="225" r="415.422" class="orbit" />
<circle cx="794.0533978392814" cy="356.51941961291124" r="46.948" fill="#f1e05a" class="planet" />
<text x="809.0533978392814" y="361.51941961291124" class="text" fill="white">DRIFT-CIRCLE13</text>
<circle cx="400" cy="225" r="461.8095" class="orbit" />
<circle cx="860.7080073947241" cy="193.12295163235967" r="20.925" fill="#2b7489" class="planet" />
<text x="875.7080073947241" y="198.12295163235967" class="text" fill="white">DSATM-EXAM-SYSTEM-</text>
<circle cx="400" cy="225" r="504.8655" class="orbit" />
<circle cx="93.98570343870438" cy="-176.55251635414442" r="18.704" fill="#8b949e" class="planet" />
<text x="108.98570343870438" y="-171.55251635414442" class="text" fill="white">NBHARATH1306</text>
<circle cx="400" cy="225" r="547.098" class="orbit" />
<circle cx="714.3212223873903" cy="672.7927989158566" r="18.155" fill="#e34c26" class="planet" />
<text x="729.3212223873903" y="677.7927989158566" class="text" fill="white">WEBSITE-EQUDATOR-TRADING-PLATFORM</text>
<circle cx="400" cy="225" r="577.9304999999999" class="orbit" />
<circle cx="659.8333040230164" cy="741.2270013770421" r="10.555" fill="#8b949e" class="planet" />
<text x="674.8333040230164" y="746.2270013770421" class="text" fill="white">FLASK</text>
<circle cx="400" cy="225" r="608.2035" class="orbit" />
<circle cx="463.2088014189703" cy="829.9100303643734" r="10.182" fill="#8b949e" class="planet" />
<text x="478.2088014189703" y="834.9100303643734" class="text" fill="white">HCF-INTERNSHIP</text>
<circle cx="400" cy="225" r="637.0725" class="orbit" />
<circle cx="-202.1359714230532" cy="433.07124302667603" r="9.246" fill="#8b949e" class="planet" />

    <text x="400" y="40" text-anchor="middle" class="title">SYSTEM SINGULARITY</text>
    </svg>