<svg width="800" height="450" xmlns="http://www.w3.org/2000/svg">
    <style>
        .orbit { fill: none; stroke: #30363d; stroke-width: 1; opacity: 0.5; }
        .planet { filter: drop-shadow(0 0 5px rgba(255,255,255,0.3)); }
        .text { font-family: 'Courier New', monospace; fill: #8b949e; font-size: 10px; }
        .title { font-family: sans-serif; fill: white; font-weight: bold; font-size: 24px; letter-spacing: 4px; }
        .hud-line { stroke: #00ffff; stroke-width: 1; opacity: 0.3; }
        
        /* ANIMATIONS */
        @keyframes pulse { 0% { r: 25; opacity: 0.8; } 50% { r: 30; opacity: 0.4; } 100% { r: 25; opacity: 0.8; } }
        .sun { animation: pulse 4s infinite; }
    </style>
    
    <rect width="100%" height="100%" fill="#0d1117" />
    
    <line x1="50" y1="50" x2="50" y2="400" class="hud-line" />
    <line x1="50" y1="400" x2="750" y2="400" class="hud-line" />
    <text x="60" y="390" class="text">SYS_TIME: 2026.04.03 :: 0122</text>
    <text x="60" y="375" class="text">SECTOR: N_BHARATH_PRIME</text>
    
    <circle cx="400" cy="225" r="25" fill="url(#grad1)" class="sun" />
    <defs>
        <radialGradient id="grad1" cx="50%" cy="50%" r="50%" fx="50%" fy="50%">
            <stop offset="0%" style="stop-color:white;stop-opacity:1" />
            <stop offset="100%" style="stop-color:#00ffff;stop-opacity:1" />
        </radialGradient>
    </defs>
    <circle cx="400" cy="225" r="150.0" class="orbit" />
<circle cx="501.95067081930074" cy="114.97245472385299" r="50" fill="#f1e05a" class="planet" />
<text x="516.9506708193007" y="119.97245472385299" class="text" fill="white">REDSHIFT</text>
<circle cx="400" cy="225" r="240.0" class="orbit" />
<circle cx="167.50758670401413" cy="284.55902752571177" r="50" fill="#e34c26" class="planet" />
<text x="182.50758670401413" y="289.55902752571177" class="text" fill="white">CIRCLE-13</text>
<circle cx="400" cy="225" r="330.0" class="orbit" />
<circle cx="723.6557039334776" cy="289.3970908607296" r="50" fill="#e34c26" class="planet" />
<text x="738.6557039334776" y="294.3970908607296" class="text" fill="white">ALVRYN-AI</text>
<circle cx="400" cy="225" r="415.422" class="orbit" />
<circle cx="799.2417667104338" cy="339.8104951558504" r="46.948" fill="#f1e05a" class="planet" />
<text x="814.2417667104338" y="344.8104951558504" class="text" fill="white">DRIFT-CIRCLE13</text>
<circle cx="400" cy="225" r="461.8095" class="orbit" />
<circle cx="105.67704913238543" cy="580.8679739493705" r="20.925" fill="#2b7489" class="planet" />
<text x="120.67704913238543" y="585.8679739493705" class="text" fill="white">DSATM-EXAM-SYSTEM-</text>
<circle cx="400" cy="225" r="504.8535" class="orbit" />
<circle cx="786.9386673485151" cy="-99.27692513159985" r="18.696" fill="#8b949e" class="planet" />
<text x="801.9386673485151" y="-94.27692513159985" class="text" fill="white">NBHARATH1306</text>
<circle cx="400" cy="225" r="547.086" class="orbit" />
<circle cx="899.0989351709125" cy="449.0610280866829" r="18.155" fill="#e34c26" class="planet" />
<text x="914.0989351709125" y="454.0610280866829" class="text" fill="white">WEBSITE-EQUDATOR-TRADING-PLATFORM</text>
<circle cx="400" cy="225" r="577.9185" class="orbit" />
<circle cx="-177.9154217148996" cy="226.8862625320362" r="10.555" fill="#8b949e" class="planet" />
<text x="-162.9154217148996" y="231.8862625320362" class="text" fill="white">FLASK</text>
<circle cx="400" cy="225" r="608.1915" class="orbit" />
<circle cx="-11.418864203192413" cy="-222.91898692732946" r="10.182" fill="#8b949e" class="planet" />
<text x="3.5811357968075868" y="-217.91898692732946" class="text" fill="white">HCF-INTERNSHIP</text>
<circle cx="400" cy="225" r="637.0605" class="orbit" />
<circle cx="936.3422966896189" cy="-118.77757553679209" r="9.246" fill="#8b949e" class="planet" />

    <text x="400" y="40" text-anchor="middle" class="title">SYSTEM SINGULARITY</text>
    </svg>