<svg width="800" height="450" xmlns="http://www.w3.org/2000/svg">
    <style>
        .orbit { fill: none; stroke: #30363d; stroke-width: 1; opacity: 0.5; }
        .planet { filter: drop-shadow(0 0 5px rgba(255,255,255,0.3)); }
        .text { font-family: 'Courier New', monospace; fill: #8b949e; font-size: 10px; }
        .title { font-family: sans-serif; fill: white; font-weight: bold; font-size: 24px; letter-spacing: 4px; }
        .hud-line { stroke: #00ffff; stroke-width: 1; opacity: 0.3; }
        
        /* ANIMATIONS */
        @keyframes pulse { 0% { r: 25; opacity: 0.8; } 50% { r: 30; opacity: 0.4; } 100% { r: 25; opacity: 0.8; } }
        .sun { animation: pulse 4s infinite; }
    </style>
    
    <rect width="100%" height="100%" fill="#0d1117" />
    
    <line x1="50" y1="50" x2="50" y2="400" class="hud-line" />
    <line x1="50" y1="400" x2="750" y2="400" class="hud-line" />
    <text x="60" y="390" class="text">SYS_TIME: 2026.02.26 :: 0112</text>
    <text x="60" y="375" class="text">SECTOR: N_BHARATH_PRIME</text>
    
    <circle cx="400" cy="225" r="25" fill="url(#grad1)" class="sun" />
    <defs>
        <radialGradient id="grad1" cx="50%" cy="50%" r="50%" fx="50%" fy="50%">
            <stop offset="0%" style="stop-color:white;stop-opacity:1" />
            <stop offset="100%" style="stop-color:#00ffff;stop-opacity:1" />
        </radialGradient>
    </defs>
    <circle cx="400" cy="225" r="150.0" class="orbit" />
<circle cx="275.4928660105212" cy="141.34610836472717" r="50" fill="#f1e05a" class="planet" />
<text x="290.4928660105212" y="146.34610836472717" class="text" fill="white">REDSHIFT</text>
<circle cx="400" cy="225" r="240.0" class="orbit" />
<circle cx="161.54882036198998" cy="252.22195674894587" r="50" fill="#e34c26" class="planet" />
<text x="176.54882036198998" y="257.2219567489459" class="text" fill="white">CIRCLE-13</text>
<circle cx="400" cy="225" r="330.0" class="orbit" />
<circle cx="686.6165429313107" cy="61.44280108138281" r="50" fill="#e34c26" class="planet" />
<text x="701.6165429313107" y="66.44280108138281" class="text" fill="white">ALVRYN-AI</text>
<circle cx="400" cy="225" r="415.422" class="orbit" />
<circle cx="-2.1824457149567706" cy="329.04190714676406" r="46.948" fill="#f1e05a" class="planet" />
<text x="12.81755428504323" y="334.04190714676406" class="text" fill="white">DRIFT-CIRCLE13</text>
<circle cx="400" cy="225" r="461.8095" class="orbit" />
<circle cx="232.6261072569892" cy="655.4114244746544" r="20.925" fill="#2b7489" class="planet" />
<text x="247.6261072569892" y="660.4114244746544" class="text" fill="white">DSATM-EXAM-SYSTEM-</text>
<circle cx="400" cy="225" r="504.8265" class="orbit" />
<circle cx="787.2749904368877" cy="548.8331003531889" r="18.678" fill="#8b949e" class="planet" />
<text x="802.2749904368877" y="553.8331003531889" class="text" fill="white">NBHARATH1306</text>
<circle cx="400" cy="225" r="547.059" class="orbit" />
<circle cx="438.13170028545187" cy="770.7284333020779" r="18.155" fill="#e34c26" class="planet" />
<text x="453.13170028545187" y="775.7284333020779" class="text" fill="white">WEBSITE-EQUDATOR-TRADING-PLATFORM</text>
<circle cx="400" cy="225" r="577.8915" class="orbit" />
<circle cx="604.2883728512152" cy="-315.5782519580795" r="10.555" fill="#8b949e" class="planet" />
<text x="619.2883728512152" y="-310.5782519580795" class="text" fill="white">FLASK</text>
<circle cx="400" cy="225" r="608.1645" class="orbit" />
<circle cx="369.8053391032677" cy="832.4144725914763" r="10.182" fill="#8b949e" class="planet" />
<text x="384.8053391032677" y="837.4144725914763" class="text" fill="white">HCF-INTERNSHIP</text>
<circle cx="400" cy="225" r="637.0335" class="orbit" />
<circle cx="438.45167047801635" cy="860.8719597212163" r="9.246" fill="#8b949e" class="planet" />

    <text x="400" y="40" text-anchor="middle" class="title">SYSTEM SINGULARITY</text>
    </svg>