<svg width="800" height="450" xmlns="http://www.w3.org/2000/svg">
    <style>
        .orbit { fill: none; stroke: #30363d; stroke-width: 1; opacity: 0.5; }
        .planet { filter: drop-shadow(0 0 5px rgba(255,255,255,0.3)); }
        .text { font-family: 'Courier New', monospace; fill: #8b949e; font-size: 10px; }
        .title { font-family: sans-serif; fill: white; font-weight: bold; font-size: 24px; letter-spacing: 4px; }
        .hud-line { stroke: #00ffff; stroke-width: 1; opacity: 0.3; }
        
        /* ANIMATIONS */
        @keyframes pulse { 0% { r: 25; opacity: 0.8; } 50% { r: 30; opacity: 0.4; } 100% { r: 25; opacity: 0.8; } }
        .sun { animation: pulse 4s infinite; }
    </style>
    
    <rect width="100%" height="100%" fill="#0d1117" />
    
    <line x1="50" y1="50" x2="50" y2="400" class="hud-line" />
    <line x1="50" y1="400" x2="750" y2="400" class="hud-line" />
    <text x="60" y="390" class="text">SYS_TIME: 2026.04.17 :: 0129</text>
    <text x="60" y="375" class="text">SECTOR: N_BHARATH_PRIME</text>
    
    <circle cx="400" cy="225" r="25" fill="url(#grad1)" class="sun" />
    <defs>
        <radialGradient id="grad1" cx="50%" cy="50%" r="50%" fx="50%" fy="50%">
            <stop offset="0%" style="stop-color:white;stop-opacity:1" />
            <stop offset="100%" style="stop-color:#00ffff;stop-opacity:1" />
        </radialGradient>
    </defs>
    <circle cx="400" cy="225" r="150.0" class="orbit" />
<circle cx="447.5254330401356" cy="367.2720394678715" r="50" fill="#e34c26" class="planet" />
<text x="462.5254330401356" y="372.2720394678715" class="text" fill="white">CIRCLE13</text>
<circle cx="400" cy="225" r="240.0" class="orbit" />
<circle cx="293.97208371582565" cy="440.3092681898206" r="50" fill="#f1e05a" class="planet" />
<text x="308.97208371582565" y="445.3092681898206" class="text" fill="white">REDSHIFT</text>
<circle cx="400" cy="225" r="330.0" class="orbit" />
<circle cx="251.8372642118969" cy="-69.86912982505436" r="50" fill="#e34c26" class="planet" />
<text x="266.8372642118969" y="-64.86912982505436" class="text" fill="white">ALVRYN-AI</text>
<circle cx="400" cy="225" r="415.422" class="orbit" />
<circle cx="756.5976111886703" cy="438.1046263658628" r="46.948" fill="#f1e05a" class="planet" />
<text x="771.5976111886703" y="443.1046263658628" class="text" fill="white">DRIFT-CIRCLE13</text>
<circle cx="400" cy="225" r="461.8095" class="orbit" />
<circle cx="843.9876973980593" cy="352.0548655086432" r="20.925" fill="#2b7489" class="planet" />
<text x="858.9876973980593" y="357.0548655086432" class="text" fill="white">DSATM-EXAM-SYSTEM-</text>
<circle cx="400" cy="225" r="504.8805" class="orbit" />
<circle cx="-46.15218585458814" cy="-11.331433240318262" r="18.714" fill="#8b949e" class="planet" />
<text x="-31.15218585458814" y="-6.331433240318262" class="text" fill="white">NBHARATH1306</text>
<circle cx="400" cy="225" r="547.1129999999999" class="orbit" />
<circle cx="820.8434555886295" cy="574.6046633802546" r="18.155" fill="#e34c26" class="planet" />
<text x="835.8434555886295" y="579.6046633802546" class="text" fill="white">WEBSITE-EQUDATOR-TRADING-PLATFORM</text>
<circle cx="400" cy="225" r="577.9454999999999" class="orbit" />
<circle cx="286.92790990126946" cy="791.7765903872129" r="10.555" fill="#8b949e" class="planet" />
<text x="301.92790990126946" y="796.7765903872129" class="text" fill="white">FLASK</text>
<circle cx="400" cy="225" r="608.2185" class="orbit" />
<circle cx="-145.24768609407113" cy="-44.50826434696069" r="10.182" fill="#8b949e" class="planet" />
<text x="-130.24768609407113" y="-39.50826434696069" class="text" fill="white">HCF-INTERNSHIP</text>
<circle cx="400" cy="225" r="637.0875" class="orbit" />
<circle cx="180.36472333646415" cy="823.0307917667635" r="9.246" fill="#8b949e" class="planet" />

    <text x="400" y="40" text-anchor="middle" class="title">SYSTEM SINGULARITY</text>
    </svg>