<svg width="800" height="450" xmlns="http://www.w3.org/2000/svg">
    <style>
        .orbit { fill: none; stroke: #30363d; stroke-width: 1; opacity: 0.5; }
        .planet { filter: drop-shadow(0 0 5px rgba(255,255,255,0.3)); }
        .text { font-family: 'Courier New', monospace; fill: #8b949e; font-size: 10px; }
        .title { font-family: sans-serif; fill: white; font-weight: bold; font-size: 24px; letter-spacing: 4px; }
        .hud-line { stroke: #00ffff; stroke-width: 1; opacity: 0.3; }
        
        /* ANIMATIONS */
        @keyframes pulse { 0% { r: 25; opacity: 0.8; } 50% { r: 30; opacity: 0.4; } 100% { r: 25; opacity: 0.8; } }
        .sun { animation: pulse 4s infinite; }
    </style>
    
    <rect width="100%" height="100%" fill="#0d1117" />
    
    <line x1="50" y1="50" x2="50" y2="400" class="hud-line" />
    <line x1="50" y1="400" x2="750" y2="400" class="hud-line" />
    <text x="60" y="390" class="text">SYS_TIME: 2026.04.27 :: 0152</text>
    <text x="60" y="375" class="text">SECTOR: N_BHARATH_PRIME</text>
    
    <circle cx="400" cy="225" r="25" fill="url(#grad1)" class="sun" />
    <defs>
        <radialGradient id="grad1" cx="50%" cy="50%" r="50%" fx="50%" fy="50%">
            <stop offset="0%" style="stop-color:white;stop-opacity:1" />
            <stop offset="100%" style="stop-color:#00ffff;stop-opacity:1" />
        </radialGradient>
    </defs>
    <circle cx="400" cy="225" r="150.0" class="orbit" />
<circle cx="325.7324340878328" cy="94.67606262285543" r="50" fill="#e34c26" class="planet" />
<text x="340.7324340878328" y="99.67606262285543" class="text" fill="white">CIRCLE13</text>
<circle cx="400" cy="225" r="240.0" class="orbit" />
<circle cx="161.14027438014628" cy="248.36731642290567" r="50" fill="#f1e05a" class="planet" />
<text x="176.14027438014628" y="253.36731642290567" class="text" fill="white">REDSHIFT</text>
<circle cx="400" cy="225" r="330.0" class="orbit" />
<circle cx="106.59237427962631" cy="376.03630414285533" r="50" fill="#e34c26" class="planet" />
<text x="121.59237427962631" y="381.03630414285533" class="text" fill="white">ALVRYN-AI</text>
<circle cx="400" cy="225" r="415.422" class="orbit" />
<circle cx="-3.289384378793443" cy="125.3350084965949" r="46.948" fill="#f1e05a" class="planet" />
<text x="11.710615621206557" y="130.3350084965949" class="text" fill="white">DRIFT-CIRCLE13</text>
<circle cx="400" cy="225" r="461.8095" class="orbit" />
<circle cx="427.69697322412264" cy="685.9781903349358" r="20.925" fill="#2b7489" class="planet" />
<text x="442.69697322412264" y="690.9781903349358" class="text" fill="white">DSATM-EXAM-SYSTEM-</text>
<circle cx="400" cy="225" r="504.9015" class="orbit" />
<circle cx="365.4402106233801" cy="728.7173271394321" r="18.728" fill="#8b949e" class="planet" />
<text x="380.4402106233801" y="733.7173271394321" class="text" fill="white">NBHARATH1306</text>
<circle cx="400" cy="225" r="547.134" class="orbit" />
<circle cx="933.7453780181951" cy="104.70251290981174" r="18.155" fill="#e34c26" class="planet" />
<text x="948.7453780181951" y="109.70251290981174" class="text" fill="white">WEBSITE-EQUDATOR-TRADING-PLATFORM</text>
<circle cx="400" cy="225" r="577.9665" class="orbit" />
<circle cx="-73.19475591907866" cy="-106.86141398622044" r="10.555" fill="#8b949e" class="planet" />
<text x="-58.19475591907866" y="-101.86141398622044" class="text" fill="white">FLASK</text>
<circle cx="400" cy="225" r="608.2395" class="orbit" />
<circle cx="-204.08137265691983" cy="295.99989133218185" r="10.182" fill="#8b949e" class="planet" />
<text x="-189.08137265691983" y="300.99989133218185" class="text" fill="white">HCF-INTERNSHIP</text>
<circle cx="400" cy="225" r="637.1085" class="orbit" />
<circle cx="-189.34762175426795" cy="467.02607608445487" r="9.246" fill="#8b949e" class="planet" />

    <text x="400" y="40" text-anchor="middle" class="title">SYSTEM SINGULARITY</text>
    </svg>