<svg width="800" height="450" xmlns="http://www.w3.org/2000/svg">
    <style>
        .orbit { fill: none; stroke: #30363d; stroke-width: 1; opacity: 0.5; }
        .planet { filter: drop-shadow(0 0 5px rgba(255,255,255,0.3)); }
        .text { font-family: 'Courier New', monospace; fill: #8b949e; font-size: 10px; }
        .title { font-family: sans-serif; fill: white; font-weight: bold; font-size: 24px; letter-spacing: 4px; }
        .hud-line { stroke: #00ffff; stroke-width: 1; opacity: 0.3; }
        
        /* ANIMATIONS */
        @keyframes pulse { 0% { r: 25; opacity: 0.8; } 50% { r: 30; opacity: 0.4; } 100% { r: 25; opacity: 0.8; } }
        .sun { animation: pulse 4s infinite; }
    </style>
    
    <rect width="100%" height="100%" fill="#0d1117" />
    
    <line x1="50" y1="50" x2="50" y2="400" class="hud-line" />
    <line x1="50" y1="400" x2="750" y2="400" class="hud-line" />
    <text x="60" y="390" class="text">SYS_TIME: 2026.02.05 :: 0111</text>
    <text x="60" y="375" class="text">SECTOR: N_BHARATH_PRIME</text>
    
    <circle cx="400" cy="225" r="25" fill="url(#grad1)" class="sun" />
    <defs>
        <radialGradient id="grad1" cx="50%" cy="50%" r="50%" fx="50%" fy="50%">
            <stop offset="0%" style="stop-color:white;stop-opacity:1" />
            <stop offset="100%" style="stop-color:#00ffff;stop-opacity:1" />
        </radialGradient>
    </defs>
    <circle cx="400" cy="225" r="150.0" class="orbit" />
<circle cx="407.49711050480397" cy="374.81252729354367" r="50" fill="#e34c26" class="planet" />
<text x="422.49711050480397" y="379.81252729354367" class="text" fill="white">CIRCLE-13</text>
<circle cx="400" cy="225" r="240.0" class="orbit" />
<circle cx="639.873077321663" cy="232.80427935401315" r="50" fill="#f1e05a" class="planet" />
<text x="654.873077321663" y="237.80427935401315" class="text" fill="white">REDSHIFT</text>
<circle cx="400" cy="225" r="330.0" class="orbit" />
<circle cx="668.6237593812574" cy="33.319860455287795" r="50" fill="#e34c26" class="planet" />
<text x="683.6237593812574" y="38.319860455287795" class="text" fill="white">ALVRYN-AI</text>
<circle cx="400" cy="225" r="415.422" class="orbit" />
<circle cx="34.956625264151114" cy="26.710381901969953" r="46.948" fill="#f1e05a" class="planet" />
<text x="49.956625264151114" y="31.710381901969953" class="text" fill="white">DRIFT-CIRCLE13</text>
<circle cx="400" cy="225" r="461.8095" class="orbit" />
<circle cx="845.2687630450791" cy="102.5102332986337" r="20.925" fill="#2b7489" class="planet" />
<text x="860.2687630450791" y="107.5102332986337" class="text" fill="white">DSATM-EXAM-SYSTEM-</text>
<circle cx="400" cy="225" r="504.8115" class="orbit" />
<circle cx="-30.458873033950738" cy="488.70401809337505" r="18.668" fill="#8b949e" class="planet" />
<text x="-15.458873033950738" y="493.70401809337505" class="text" fill="white">NBHARATH1306</text>
<circle cx="400" cy="225" r="547.044" class="orbit" />
<circle cx="453.7221887678476" cy="-319.39972848082107" r="18.155" fill="#e34c26" class="planet" />
<text x="468.7221887678476" y="-314.39972848082107" class="text" fill="white">WEBSITE-EQUDATOR-TRADING-PLATFORM</text>
<circle cx="400" cy="225" r="577.8765" class="orbit" />
<circle cx="-128.56519646250206" cy="458.5809973880721" r="10.555" fill="#8b949e" class="planet" />
<text x="-113.56519646250206" y="463.5809973880721" class="text" fill="white">FLASK</text>
<circle cx="400" cy="225" r="608.1495" class="orbit" />
<circle cx="540.4602158419442" cy="-366.70663517987055" r="10.182" fill="#8b949e" class="planet" />
<text x="555.4602158419442" y="-361.70663517987055" class="text" fill="white">HCF-INTERNSHIP</text>
<circle cx="400" cy="225" r="637.0185" class="orbit" />
<circle cx="987.3678731294901" cy="-21.559426827670194" r="9.246" fill="#8b949e" class="planet" />

    <text x="400" y="40" text-anchor="middle" class="title">SYSTEM SINGULARITY</text>
    </svg>