<svg width="800" height="450" xmlns="http://www.w3.org/2000/svg">
    <style>
        .orbit { fill: none; stroke: #30363d; stroke-width: 1; opacity: 0.5; }
        .planet { filter: drop-shadow(0 0 5px rgba(255,255,255,0.3)); }
        .text { font-family: 'Courier New', monospace; fill: #8b949e; font-size: 10px; }
        .title { font-family: sans-serif; fill: white; font-weight: bold; font-size: 24px; letter-spacing: 4px; }
        .hud-line { stroke: #00ffff; stroke-width: 1; opacity: 0.3; }
        
        /* ANIMATIONS */
        @keyframes pulse { 0% { r: 25; opacity: 0.8; } 50% { r: 30; opacity: 0.4; } 100% { r: 25; opacity: 0.8; } }
        .sun { animation: pulse 4s infinite; }
    </style>
    
    <rect width="100%" height="100%" fill="#0d1117" />
    
    <line x1="50" y1="50" x2="50" y2="400" class="hud-line" />
    <line x1="50" y1="400" x2="750" y2="400" class="hud-line" />
    <text x="60" y="390" class="text">SYS_TIME: 2026.04.08 :: 0125</text>
    <text x="60" y="375" class="text">SECTOR: N_BHARATH_PRIME</text>
    
    <circle cx="400" cy="225" r="25" fill="url(#grad1)" class="sun" />
    <defs>
        <radialGradient id="grad1" cx="50%" cy="50%" r="50%" fx="50%" fy="50%">
            <stop offset="0%" style="stop-color:white;stop-opacity:1" />
            <stop offset="100%" style="stop-color:#00ffff;stop-opacity:1" />
        </radialGradient>
    </defs>
    <circle cx="400" cy="225" r="150.0" class="orbit" />
<circle cx="443.4448075456139" cy="81.42929025276581" r="50" fill="#e34c26" class="planet" />
<text x="458.4448075456139" y="86.42929025276581" class="text" fill="white">CIRCLE13</text>
<circle cx="400" cy="225" r="240.0" class="orbit" />
<circle cx="462.2412124320609" cy="456.78876477298695" r="50" fill="#f1e05a" class="planet" />
<text x="477.2412124320609" y="461.78876477298695" class="text" fill="white">REDSHIFT</text>
<circle cx="400" cy="225" r="330.0" class="orbit" />
<circle cx="564.6533331958835" cy="-60.9882512752672" r="50" fill="#e34c26" class="planet" />
<text x="579.6533331958835" y="-55.9882512752672" class="text" fill="white">ALVRYN-AI</text>
<circle cx="400" cy="225" r="415.422" class="orbit" />
<circle cx="761.7460073013681" cy="20.756850089119183" r="46.948" fill="#f1e05a" class="planet" />
<text x="776.7460073013681" y="25.756850089119183" class="text" fill="white">DRIFT-CIRCLE13</text>
<circle cx="400" cy="225" r="461.8095" class="orbit" />
<circle cx="764.6554367674942" cy="508.3627123073149" r="20.925" fill="#2b7489" class="planet" />
<text x="779.6554367674942" y="513.362712307315" class="text" fill="white">DSATM-EXAM-SYSTEM-</text>
<circle cx="400" cy="225" r="504.8625" class="orbit" />
<circle cx="-43.29480176487135" cy="466.61097374600644" r="18.702" fill="#8b949e" class="planet" />
<text x="-28.29480176487135" y="471.61097374600644" class="text" fill="white">NBHARATH1306</text>
<circle cx="400" cy="225" r="547.095" class="orbit" />
<circle cx="940.2026361223741" cy="311.56818671681805" r="18.155" fill="#e34c26" class="planet" />
<text x="955.2026361223741" y="316.56818671681805" class="text" fill="white">WEBSITE-EQUDATOR-TRADING-PLATFORM</text>
<circle cx="400" cy="225" r="577.9275" class="orbit" />
<circle cx="386.1945851813107" cy="-352.76258599699406" r="10.555" fill="#8b949e" class="planet" />
<text x="401.1945851813107" y="-347.76258599699406" class="text" fill="white">FLASK</text>
<circle cx="400" cy="225" r="608.2005" class="orbit" />
<circle cx="396.79759683531034" cy="-383.19206901621203" r="10.182" fill="#8b949e" class="planet" />
<text x="411.79759683531034" y="-378.19206901621203" class="text" fill="white">HCF-INTERNSHIP</text>
<circle cx="400" cy="225" r="637.0695000000001" class="orbit" />
<circle cx="-227.83540107822307" cy="333.07523760416564" r="9.246" fill="#8b949e" class="planet" />

    <text x="400" y="40" text-anchor="middle" class="title">SYSTEM SINGULARITY</text>
    </svg>