<svg width="800" height="450" xmlns="http://www.w3.org/2000/svg">
    <style>
        .orbit { fill: none; stroke: #30363d; stroke-width: 1; opacity: 0.5; }
        .planet { filter: drop-shadow(0 0 5px rgba(255,255,255,0.3)); }
        .text { font-family: 'Courier New', monospace; fill: #8b949e; font-size: 10px; }
        .title { font-family: sans-serif; fill: white; font-weight: bold; font-size: 24px; letter-spacing: 4px; }
        .hud-line { stroke: #00ffff; stroke-width: 1; opacity: 0.3; }
        
        /* ANIMATIONS */
        @keyframes pulse { 0% { r: 25; opacity: 0.8; } 50% { r: 30; opacity: 0.4; } 100% { r: 25; opacity: 0.8; } }
        .sun { animation: pulse 4s infinite; }
    </style>
    
    <rect width="100%" height="100%" fill="#0d1117" />
    
    <line x1="50" y1="50" x2="50" y2="400" class="hud-line" />
    <line x1="50" y1="400" x2="750" y2="400" class="hud-line" />
    <text x="60" y="390" class="text">SYS_TIME: 2026.03.11 :: 0109</text>
    <text x="60" y="375" class="text">SECTOR: N_BHARATH_PRIME</text>
    
    <circle cx="400" cy="225" r="25" fill="url(#grad1)" class="sun" />
    <defs>
        <radialGradient id="grad1" cx="50%" cy="50%" r="50%" fx="50%" fy="50%">
            <stop offset="0%" style="stop-color:white;stop-opacity:1" />
            <stop offset="100%" style="stop-color:#00ffff;stop-opacity:1" />
        </radialGradient>
    </defs>
    <circle cx="400" cy="225" r="150.0" class="orbit" />
<circle cx="515.0944278824536" cy="321.1939326070552" r="50" fill="#f1e05a" class="planet" />
<text x="530.0944278824536" y="326.1939326070552" class="text" fill="white">REDSHIFT</text>
<circle cx="400" cy="225" r="240.0" class="orbit" />
<circle cx="612.2606665259584" cy="337.00629199270844" r="50" fill="#e34c26" class="planet" />
<text x="627.2606665259584" y="342.00629199270844" class="text" fill="white">CIRCLE-13</text>
<circle cx="400" cy="225" r="330.0" class="orbit" />
<circle cx="574.7461206075373" cy="504.93533777037874" r="50" fill="#e34c26" class="planet" />
<text x="589.7461206075373" y="509.93533777037874" class="text" fill="white">ALVRYN-AI</text>
<circle cx="400" cy="225" r="415.422" class="orbit" />
<circle cx="369.5755689168698" cy="-189.30639878870795" r="46.948" fill="#f1e05a" class="planet" />
<text x="384.5755689168698" y="-184.30639878870795" class="text" fill="white">DRIFT-CIRCLE13</text>
<circle cx="400" cy="225" r="461.8095" class="orbit" />
<circle cx="456.4299138418078" cy="-233.34886180076433" r="20.925" fill="#2b7489" class="planet" />
<text x="471.4299138418078" y="-228.34886180076433" class="text" fill="white">DSATM-EXAM-SYSTEM-</text>
<circle cx="400" cy="225" r="504.85200000000003" class="orbit" />
<circle cx="424.12721179037476" cy="-279.27514271003133" r="18.695" fill="#8b949e" class="planet" />
<text x="439.12721179037476" y="-274.27514271003133" class="text" fill="white">NBHARATH1306</text>
<circle cx="400" cy="225" r="547.0845" class="orbit" />
<circle cx="-136.56638056126258" cy="118.23872709808869" r="18.155" fill="#e34c26" class="planet" />
<text x="-121.56638056126258" y="123.23872709808869" class="text" fill="white">WEBSITE-EQUDATOR-TRADING-PLATFORM</text>
<circle cx="400" cy="225" r="577.917" class="orbit" />
<circle cx="925.187536426149" cy="466.17651310115684" r="10.555" fill="#8b949e" class="planet" />
<text x="940.187536426149" y="471.17651310115684" class="text" fill="white">FLASK</text>
<circle cx="400" cy="225" r="608.19" class="orbit" />
<circle cx="789.3461423092183" cy="692.2308397023147" r="10.182" fill="#8b949e" class="planet" />
<text x="804.3461423092183" y="697.2308397023147" class="text" fill="white">HCF-INTERNSHIP</text>
<circle cx="400" cy="225" r="637.0590000000001" class="orbit" />
<circle cx="455.3922655449587" cy="-409.6462529620709" r="9.246" fill="#8b949e" class="planet" />

    <text x="400" y="40" text-anchor="middle" class="title">SYSTEM SINGULARITY</text>
    </svg>