<svg width="800" height="450" xmlns="http://www.w3.org/2000/svg">
    <style>
        .orbit { fill: none; stroke: #30363d; stroke-width: 1; opacity: 0.5; }
        .planet { filter: drop-shadow(0 0 5px rgba(255,255,255,0.3)); }
        .text { font-family: 'Courier New', monospace; fill: #8b949e; font-size: 10px; }
        .title { font-family: sans-serif; fill: white; font-weight: bold; font-size: 24px; letter-spacing: 4px; }
        .hud-line { stroke: #00ffff; stroke-width: 1; opacity: 0.3; }
        
        /* ANIMATIONS */
        @keyframes pulse { 0% { r: 25; opacity: 0.8; } 50% { r: 30; opacity: 0.4; } 100% { r: 25; opacity: 0.8; } }
        .sun { animation: pulse 4s infinite; }
    </style>
    
    <rect width="100%" height="100%" fill="#0d1117" />
    
    <line x1="50" y1="50" x2="50" y2="400" class="hud-line" />
    <line x1="50" y1="400" x2="750" y2="400" class="hud-line" />
    <text x="60" y="390" class="text">SYS_TIME: 2026.05.24 :: 0213</text>
    <text x="60" y="375" class="text">SECTOR: N_BHARATH_PRIME</text>
    
    <circle cx="400" cy="225" r="25" fill="url(#grad1)" class="sun" />
    <defs>
        <radialGradient id="grad1" cx="50%" cy="50%" r="50%" fx="50%" fy="50%">
            <stop offset="0%" style="stop-color:white;stop-opacity:1" />
            <stop offset="100%" style="stop-color:#00ffff;stop-opacity:1" />
        </radialGradient>
    </defs>
    <circle cx="400" cy="225" r="150.0" class="orbit" />
<circle cx="549.8720116997051" cy="218.80483179538655" r="50" fill="#e34c26" class="planet" />
<text x="564.8720116997051" y="223.80483179538655" class="text" fill="white">CIRCLE13</text>
<circle cx="400" cy="225" r="240.0" class="orbit" />
<circle cx="553.7788853347032" cy="409.2608325858108" r="50" fill="#f1e05a" class="planet" />
<text x="568.7788853347032" y="414.2608325858108" class="text" fill="white">REDSHIFT</text>
<circle cx="400" cy="225" r="330.0" class="orbit" />
<circle cx="634.7498973190446" cy="456.93207132412283" r="50" fill="#e34c26" class="planet" />
<text x="649.7498973190446" y="461.93207132412283" class="text" fill="white">ALVRYN-AI</text>
<circle cx="400" cy="225" r="415.422" class="orbit" />
<circle cx="297.14488697766814" cy="-177.48759460281923" r="46.948" fill="#f1e05a" class="planet" />
<text x="312.14488697766814" y="-172.48759460281923" class="text" fill="white">DRIFT-CIRCLE13</text>
<circle cx="400" cy="225" r="461.8095" class="orbit" />
<circle cx="731.6391090737823" cy="546.3775281860851" r="20.925" fill="#2b7489" class="planet" />
<text x="746.6391090737823" y="551.3775281860851" class="text" fill="white">DSATM-EXAM-SYSTEM-</text>
<circle cx="400" cy="225" r="504.9105" class="orbit" />
<circle cx="-99.97338957982606" cy="154.56405234321406" r="18.734" fill="#8b949e" class="planet" />
<text x="-84.97338957982606" y="159.56405234321406" class="text" fill="white">NBHARATH1306</text>
<circle cx="400" cy="225" r="547.143" class="orbit" />
<circle cx="510.3505460856319" cy="760.8994489898295" r="18.155" fill="#e34c26" class="planet" />
<text x="525.3505460856319" y="765.8994489898295" class="text" fill="white">WEBSITE-EQUDATOR-TRADING-PLATFORM</text>
<circle cx="400" cy="225" r="577.9755" class="orbit" />
<circle cx="901.1918394271634" cy="-62.85833094052782" r="10.555" fill="#8b949e" class="planet" />
<text x="916.1918394271634" y="-57.85833094052782" class="text" fill="white">FLASK</text>
<circle cx="400" cy="225" r="608.2485" class="orbit" />
<circle cx="175.91754670331073" cy="790.4673216701273" r="10.182" fill="#8b949e" class="planet" />
<text x="190.91754670331073" y="795.4673216701273" class="text" fill="white">HCF-INTERNSHIP</text>
<circle cx="400" cy="225" r="637.1175000000001" class="orbit" />
<circle cx="764.6134094139117" cy="-297.47083218282467" r="9.246" fill="#8b949e" class="planet" />

    <text x="400" y="40" text-anchor="middle" class="title">SYSTEM SINGULARITY</text>
    </svg>