<svg width="800" height="450" xmlns="http://www.w3.org/2000/svg">
    <style>
        .orbit { fill: none; stroke: #30363d; stroke-width: 1; opacity: 0.5; }
        .planet { filter: drop-shadow(0 0 5px rgba(255,255,255,0.3)); }
        .text { font-family: 'Courier New', monospace; fill: #8b949e; font-size: 10px; }
        .title { font-family: sans-serif; fill: white; font-weight: bold; font-size: 24px; letter-spacing: 4px; }
        .hud-line { stroke: #00ffff; stroke-width: 1; opacity: 0.3; }
        
        /* ANIMATIONS */
        @keyframes pulse { 0% { r: 25; opacity: 0.8; } 50% { r: 30; opacity: 0.4; } 100% { r: 25; opacity: 0.8; } }
        .sun { animation: pulse 4s infinite; }
    </style>
    
    <rect width="100%" height="100%" fill="#0d1117" />
    
    <line x1="50" y1="50" x2="50" y2="400" class="hud-line" />
    <line x1="50" y1="400" x2="750" y2="400" class="hud-line" />
    <text x="60" y="390" class="text">SYS_TIME: 2026.06.21 :: 0244</text>
    <text x="60" y="375" class="text">SECTOR: N_BHARATH_PRIME</text>
    
    <circle cx="400" cy="225" r="25" fill="url(#grad1)" class="sun" />
    <defs>
        <radialGradient id="grad1" cx="50%" cy="50%" r="50%" fx="50%" fy="50%">
            <stop offset="0%" style="stop-color:white;stop-opacity:1" />
            <stop offset="100%" style="stop-color:#00ffff;stop-opacity:1" />
        </radialGradient>
    </defs>
    <circle cx="400" cy="225" r="150.0" class="orbit" />
<circle cx="251.47644665622508" cy="204.00585552734188" r="50" fill="#e34c26" class="planet" />
<text x="266.4764466562251" y="209.00585552734188" class="text" fill="white">CIRCLE13</text>
<circle cx="400" cy="225" r="240.0" class="orbit" />
<circle cx="625.5803266829768" cy="306.9360495362174" r="50" fill="#f1e05a" class="planet" />
<text x="640.5803266829768" y="311.9360495362174" class="text" fill="white">REDSHIFT</text>
<circle cx="400" cy="225" r="330.0" class="orbit" />
<circle cx="655.6261553938347" cy="16.301009397344956" r="50" fill="#e34c26" class="planet" />
<text x="670.6261553938347" y="21.301009397344956" class="text" fill="white">ALVRYN-AI</text>
<circle cx="400" cy="225" r="415.422" class="orbit" />
<circle cx="56.823693619141125" cy="459.105661663256" r="46.948" fill="#f1e05a" class="planet" />
<text x="71.82369361914112" y="464.105661663256" class="text" fill="white">DRIFT-CIRCLE13</text>
<circle cx="400" cy="225" r="461.8095" class="orbit" />
<circle cx="314.12887733127684" cy="678.755622093945" r="20.925" fill="#2b7489" class="planet" />
<text x="329.12887733127684" y="683.755622093945" class="text" fill="white">DSATM-EXAM-SYSTEM-</text>
<circle cx="400" cy="225" r="504.966" class="orbit" />
<circle cx="195.17883413276627" cy="686.5614272973719" r="18.771" fill="#8b949e" class="planet" />
<text x="210.17883413276627" y="691.5614272973719" class="text" fill="white">NBHARATH1306</text>
<circle cx="400" cy="225" r="547.1985" class="orbit" />
<circle cx="905.2685844798348" cy="14.928926455844532" r="18.155" fill="#e34c26" class="planet" />
<text x="920.2685844798348" y="19.928926455844532" class="text" fill="white">WEBSITE-EQUDATOR-TRADING-PLATFORM</text>
<circle cx="400" cy="225" r="578.031" class="orbit" />
<circle cx="-132.73448794767467" cy="449.3073835434955" r="10.555" fill="#8b949e" class="planet" />
<text x="-117.73448794767467" y="454.3073835434955" class="text" fill="white">FLASK</text>
<circle cx="400" cy="225" r="608.304" class="orbit" />
<circle cx="964.3533233694035" cy="-2.0222077637106963" r="10.182" fill="#8b949e" class="planet" />
<text x="979.3533233694035" y="2.9777922362893037" class="text" fill="white">HCF-INTERNSHIP</text>
<circle cx="400" cy="225" r="637.173" class="orbit" />
<circle cx="765.1361453819443" cy="747.1733689730028" r="9.246" fill="#8b949e" class="planet" />

    <text x="400" y="40" text-anchor="middle" class="title">SYSTEM SINGULARITY</text>
    </svg>