<svg width="800" height="450" xmlns="http://www.w3.org/2000/svg">
    <style>
        .orbit { fill: none; stroke: #30363d; stroke-width: 1; opacity: 0.5; }
        .planet { filter: drop-shadow(0 0 5px rgba(255,255,255,0.3)); }
        .text { font-family: 'Courier New', monospace; fill: #8b949e; font-size: 10px; }
        .title { font-family: sans-serif; fill: white; font-weight: bold; font-size: 24px; letter-spacing: 4px; }
        .hud-line { stroke: #00ffff; stroke-width: 1; opacity: 0.3; }
        
        /* ANIMATIONS */
        @keyframes pulse { 0% { r: 25; opacity: 0.8; } 50% { r: 30; opacity: 0.4; } 100% { r: 25; opacity: 0.8; } }
        .sun { animation: pulse 4s infinite; }
    </style>
    
    <rect width="100%" height="100%" fill="#0d1117" />
    
    <line x1="50" y1="50" x2="50" y2="400" class="hud-line" />
    <line x1="50" y1="400" x2="750" y2="400" class="hud-line" />
    <text x="60" y="390" class="text">SYS_TIME: 2026.02.18 :: 0117</text>
    <text x="60" y="375" class="text">SECTOR: N_BHARATH_PRIME</text>
    
    <circle cx="400" cy="225" r="25" fill="url(#grad1)" class="sun" />
    <defs>
        <radialGradient id="grad1" cx="50%" cy="50%" r="50%" fx="50%" fy="50%">
            <stop offset="0%" style="stop-color:white;stop-opacity:1" />
            <stop offset="100%" style="stop-color:#00ffff;stop-opacity:1" />
        </radialGradient>
    </defs>
    <circle cx="400" cy="225" r="150.0" class="orbit" />
<circle cx="524.2093013527327" cy="140.90452177752945" r="50" fill="#f1e05a" class="planet" />
<text x="539.2093013527327" y="145.90452177752945" class="text" fill="white">REDSHIFT</text>
<circle cx="400" cy="225" r="240.0" class="orbit" />
<circle cx="228.76389475110568" cy="56.83877896735649" r="50" fill="#e34c26" class="planet" />
<text x="243.76389475110568" y="61.83877896735649" class="text" fill="white">CIRCLE-13</text>
<circle cx="400" cy="225" r="330.0" class="orbit" />
<circle cx="499.63152131690157" cy="539.6006356638203" r="50" fill="#e34c26" class="planet" />
<text x="514.6315213169016" y="544.6006356638203" class="text" fill="white">ALVRYN-AI</text>
<circle cx="400" cy="225" r="415.422" class="orbit" />
<circle cx="810.1441518143278" cy="158.9908126356211" r="46.948" fill="#f1e05a" class="planet" />
<text x="825.1441518143278" y="163.9908126356211" class="text" fill="white">DRIFT-CIRCLE13</text>
<circle cx="400" cy="225" r="461.8095" class="orbit" />
<circle cx="71.6103665706479" cy="549.6971865390672" r="20.925" fill="#2b7489" class="planet" />
<text x="86.6103665706479" y="554.6971865390672" class="text" fill="white">DSATM-EXAM-SYSTEM-</text>
<circle cx="400" cy="225" r="504.81" class="orbit" />
<circle cx="850.648181091969" cy="452.484841205958" r="18.667" fill="#8b949e" class="planet" />
<text x="865.648181091969" y="457.484841205958" class="text" fill="white">NBHARATH1306</text>
<circle cx="400" cy="225" r="547.0425" class="orbit" />
<circle cx="358.8636812081284" cy="770.4936297359517" r="18.155" fill="#e34c26" class="planet" />
<text x="373.8636812081284" y="775.4936297359517" class="text" fill="white">WEBSITE-EQUDATOR-TRADING-PLATFORM</text>
<circle cx="400" cy="225" r="577.875" class="orbit" />
<circle cx="889.7180157141061" cy="531.7829537474963" r="10.555" fill="#8b949e" class="planet" />
<text x="904.7180157141061" y="536.7829537474963" class="text" fill="white">FLASK</text>
<circle cx="400" cy="225" r="608.148" class="orbit" />
<circle cx="-205.82411542529633" cy="171.88567920835968" r="10.182" fill="#8b949e" class="planet" />
<text x="-190.82411542529633" y="176.88567920835968" class="text" fill="white">HCF-INTERNSHIP</text>
<circle cx="400" cy="225" r="637.017" class="orbit" />
<circle cx="-236.80769607816376" cy="208.671604346385" r="9.246" fill="#8b949e" class="planet" />

    <text x="400" y="40" text-anchor="middle" class="title">SYSTEM SINGULARITY</text>
    </svg>