<svg width="800" height="450" xmlns="http://www.w3.org/2000/svg">
    <style>
        .orbit { fill: none; stroke: #30363d; stroke-width: 1; opacity: 0.5; }
        .planet { filter: drop-shadow(0 0 5px rgba(255,255,255,0.3)); }
        .text { font-family: 'Courier New', monospace; fill: #8b949e; font-size: 10px; }
        .title { font-family: sans-serif; fill: white; font-weight: bold; font-size: 24px; letter-spacing: 4px; }
        .hud-line { stroke: #00ffff; stroke-width: 1; opacity: 0.3; }
        
        /* ANIMATIONS */
        @keyframes pulse { 0% { r: 25; opacity: 0.8; } 50% { r: 30; opacity: 0.4; } 100% { r: 25; opacity: 0.8; } }
        .sun { animation: pulse 4s infinite; }
    </style>
    
    <rect width="100%" height="100%" fill="#0d1117" />
    
    <line x1="50" y1="50" x2="50" y2="400" class="hud-line" />
    <line x1="50" y1="400" x2="750" y2="400" class="hud-line" />
    <text x="60" y="390" class="text">SYS_TIME: 2026.06.15 :: 0245</text>
    <text x="60" y="375" class="text">SECTOR: N_BHARATH_PRIME</text>
    
    <circle cx="400" cy="225" r="25" fill="url(#grad1)" class="sun" />
    <defs>
        <radialGradient id="grad1" cx="50%" cy="50%" r="50%" fx="50%" fy="50%">
            <stop offset="0%" style="stop-color:white;stop-opacity:1" />
            <stop offset="100%" style="stop-color:#00ffff;stop-opacity:1" />
        </radialGradient>
    </defs>
    <circle cx="400" cy="225" r="150.0" class="orbit" />
<circle cx="515.3576735955538" cy="320.87808478803515" r="50" fill="#e34c26" class="planet" />
<text x="530.3576735955538" y="325.87808478803515" class="text" fill="white">CIRCLE13</text>
<circle cx="400" cy="225" r="240.0" class="orbit" />
<circle cx="606.9171820693225" cy="103.40526424021954" r="50" fill="#f1e05a" class="planet" />
<text x="621.9171820693225" y="108.40526424021954" class="text" fill="white">REDSHIFT</text>
<circle cx="400" cy="225" r="330.0" class="orbit" />
<circle cx="550.9952065830612" cy="518.4287777109441" r="50" fill="#e34c26" class="planet" />
<text x="565.9952065830612" y="523.4287777109441" class="text" fill="white">ALVRYN-AI</text>
<circle cx="400" cy="225" r="415.422" class="orbit" />
<circle cx="289.8972772346147" cy="625.5656357248444" r="46.948" fill="#f1e05a" class="planet" />
<text x="304.8972772346147" y="630.5656357248444" class="text" fill="white">DRIFT-CIRCLE13</text>
<circle cx="400" cy="225" r="461.8095" class="orbit" />
<circle cx="408.2144808522014" cy="-236.7364362865236" r="20.925" fill="#2b7489" class="planet" />
<text x="423.2144808522014" y="-231.7364362865236" class="text" fill="white">DSATM-EXAM-SYSTEM-</text>
<circle cx="400" cy="225" r="504.954" class="orbit" />
<circle cx="546.2011272009224" cy="708.3257416289554" r="18.763" fill="#8b949e" class="planet" />
<text x="561.2011272009224" y="713.3257416289554" class="text" fill="white">NBHARATH1306</text>
<circle cx="400" cy="225" r="547.1865" class="orbit" />
<circle cx="77.33993809295538" cy="666.9316126194099" r="18.155" fill="#e34c26" class="planet" />
<text x="92.33993809295538" y="671.9316126194099" class="text" fill="white">WEBSITE-EQUDATOR-TRADING-PLATFORM</text>
<circle cx="400" cy="225" r="578.019" class="orbit" />
<circle cx="654.7308415759799" cy="743.8623735741426" r="10.555" fill="#8b949e" class="planet" />
<text x="669.7308415759799" y="748.8623735741426" class="text" fill="white">FLASK</text>
<circle cx="400" cy="225" r="608.292" class="orbit" />
<circle cx="156.71637277364982" cy="782.5233035376999" r="10.182" fill="#8b949e" class="planet" />
<text x="171.71637277364982" y="787.5233035376999" class="text" fill="white">HCF-INTERNSHIP</text>
<circle cx="400" cy="225" r="637.1610000000001" class="orbit" />
<circle cx="432.5422936981934" cy="861.3294265094619" r="9.246" fill="#8b949e" class="planet" />

    <text x="400" y="40" text-anchor="middle" class="title">SYSTEM SINGULARITY</text>
    </svg>