<svg width="800" height="450" xmlns="http://www.w3.org/2000/svg">
    <style>
        .orbit { fill: none; stroke: #30363d; stroke-width: 1; opacity: 0.5; }
        .planet { filter: drop-shadow(0 0 5px rgba(255,255,255,0.3)); }
        .text { font-family: 'Courier New', monospace; fill: #8b949e; font-size: 10px; }
        .title { font-family: sans-serif; fill: white; font-weight: bold; font-size: 24px; letter-spacing: 4px; }
        .hud-line { stroke: #00ffff; stroke-width: 1; opacity: 0.3; }
        
        /* ANIMATIONS */
        @keyframes pulse { 0% { r: 25; opacity: 0.8; } 50% { r: 30; opacity: 0.4; } 100% { r: 25; opacity: 0.8; } }
        .sun { animation: pulse 4s infinite; }
    </style>
    
    <rect width="100%" height="100%" fill="#0d1117" />
    
    <line x1="50" y1="50" x2="50" y2="400" class="hud-line" />
    <line x1="50" y1="400" x2="750" y2="400" class="hud-line" />
    <text x="60" y="390" class="text">SYS_TIME: 2026.04.29 :: 0201</text>
    <text x="60" y="375" class="text">SECTOR: N_BHARATH_PRIME</text>
    
    <circle cx="400" cy="225" r="25" fill="url(#grad1)" class="sun" />
    <defs>
        <radialGradient id="grad1" cx="50%" cy="50%" r="50%" fx="50%" fy="50%">
            <stop offset="0%" style="stop-color:white;stop-opacity:1" />
            <stop offset="100%" style="stop-color:#00ffff;stop-opacity:1" />
        </radialGradient>
    </defs>
    <circle cx="400" cy="225" r="150.0" class="orbit" />
<circle cx="321.2537778791138" cy="97.33233572400546" r="50" fill="#e34c26" class="planet" />
<text x="336.2537778791138" y="102.33233572400546" class="text" fill="white">CIRCLE13</text>
<circle cx="400" cy="225" r="240.0" class="orbit" />
<circle cx="169.30505696817636" cy="291.1803842504986" r="50" fill="#f1e05a" class="planet" />
<text x="184.30505696817636" y="296.1803842504986" class="text" fill="white">REDSHIFT</text>
<circle cx="400" cy="225" r="330.0" class="orbit" />
<circle cx="443.88252014683826" cy="552.0692960605785" r="50" fill="#e34c26" class="planet" />
<text x="458.88252014683826" y="557.0692960605785" class="text" fill="white">ALVRYN-AI</text>
<circle cx="400" cy="225" r="415.422" class="orbit" />
<circle cx="104.32940974939123" cy="516.812165861632" r="46.948" fill="#f1e05a" class="planet" />
<text x="119.32940974939123" y="521.812165861632" class="text" fill="white">DRIFT-CIRCLE13</text>
<circle cx="400" cy="225" r="461.8095" class="orbit" />
<circle cx="211.54132800756418" cy="646.6056726860984" r="20.925" fill="#2b7489" class="planet" />
<text x="226.54132800756418" y="651.6056726860984" class="text" fill="white">DSATM-EXAM-SYSTEM-</text>
<circle cx="400" cy="225" r="504.9045" class="orbit" />
<circle cx="-97.5715997418776" cy="310.73830678616594" r="18.73" fill="#8b949e" class="planet" />
<text x="-82.5715997418776" y="315.73830678616594" class="text" fill="white">NBHARATH1306</text>
<circle cx="400" cy="225" r="547.137" class="orbit" />
<circle cx="896.2242358405954" cy="455.47864225002945" r="18.155" fill="#e34c26" class="planet" />
<text x="911.2242358405954" y="460.47864225002945" class="text" fill="white">WEBSITE-EQUDATOR-TRADING-PLATFORM</text>
<circle cx="400" cy="225" r="577.9694999999999" class="orbit" />
<circle cx="281.7808357601947" cy="-340.7499201384759" r="10.555" fill="#8b949e" class="planet" />
<text x="296.7808357601947" y="-335.7499201384759" class="text" fill="white">FLASK</text>
<circle cx="400" cy="225" r="608.2425" class="orbit" />
<circle cx="-207.3588096371459" cy="257.77522177498025" r="10.182" fill="#8b949e" class="planet" />
<text x="-192.3588096371459" y="262.77522177498025" class="text" fill="white">HCF-INTERNSHIP</text>
<circle cx="400" cy="225" r="637.1115" class="orbit" />
<circle cx="884.0841477929408" cy="639.2144387727596" r="9.246" fill="#8b949e" class="planet" />

    <text x="400" y="40" text-anchor="middle" class="title">SYSTEM SINGULARITY</text>
    </svg>