<svg width="800" height="450" xmlns="http://www.w3.org/2000/svg">
    <style>
        .orbit { fill: none; stroke: #30363d; stroke-width: 1; opacity: 0.5; }
        .planet { filter: drop-shadow(0 0 5px rgba(255,255,255,0.3)); }
        .text { font-family: 'Courier New', monospace; fill: #8b949e; font-size: 10px; }
        .title { font-family: sans-serif; fill: white; font-weight: bold; font-size: 24px; letter-spacing: 4px; }
        .hud-line { stroke: #00ffff; stroke-width: 1; opacity: 0.3; }
        
        /* ANIMATIONS */
        @keyframes pulse { 0% { r: 25; opacity: 0.8; } 50% { r: 30; opacity: 0.4; } 100% { r: 25; opacity: 0.8; } }
        .sun { animation: pulse 4s infinite; }
    </style>
    
    <rect width="100%" height="100%" fill="#0d1117" />
    
    <line x1="50" y1="50" x2="50" y2="400" class="hud-line" />
    <line x1="50" y1="400" x2="750" y2="400" class="hud-line" />
    <text x="60" y="390" class="text">SYS_TIME: 2026.06.20 :: 0229</text>
    <text x="60" y="375" class="text">SECTOR: N_BHARATH_PRIME</text>
    
    <circle cx="400" cy="225" r="25" fill="url(#grad1)" class="sun" />
    <defs>
        <radialGradient id="grad1" cx="50%" cy="50%" r="50%" fx="50%" fy="50%">
            <stop offset="0%" style="stop-color:white;stop-opacity:1" />
            <stop offset="100%" style="stop-color:#00ffff;stop-opacity:1" />
        </radialGradient>
    </defs>
    <circle cx="400" cy="225" r="150.0" class="orbit" />
<circle cx="256.2270805039615" cy="182.22912650429475" r="50" fill="#e34c26" class="planet" />
<text x="271.2270805039615" y="187.22912650429475" class="text" fill="white">CIRCLE13</text>
<circle cx="400" cy="225" r="240.0" class="orbit" />
<circle cx="533.175888222019" cy="25.33983172330963" r="50" fill="#f1e05a" class="planet" />
<text x="548.175888222019" y="30.33983172330963" class="text" fill="white">REDSHIFT</text>
<circle cx="400" cy="225" r="330.0" class="orbit" />
<circle cx="683.4248898133608" cy="394.0276067223466" r="50" fill="#e34c26" class="planet" />
<text x="698.4248898133608" y="399.0276067223466" class="text" fill="white">ALVRYN-AI</text>
<circle cx="400" cy="225" r="415.422" class="orbit" />
<circle cx="6.204277654494831" cy="92.7110467711615" r="46.948" fill="#f1e05a" class="planet" />
<text x="21.20427765449483" y="97.7110467711615" class="text" fill="white">DRIFT-CIRCLE13</text>
<circle cx="400" cy="225" r="461.8095" class="orbit" />
<circle cx="332.78760486060094" cy="-231.8922282441181" r="20.925" fill="#2b7489" class="planet" />
<text x="347.78760486060094" y="-226.8922282441181" class="text" fill="white">DSATM-EXAM-SYSTEM-</text>
<circle cx="400" cy="225" r="504.963" class="orbit" />
<circle cx="332.1281968355605" cy="725.3809046158813" r="18.769" fill="#8b949e" class="planet" />
<text x="347.1281968355605" y="730.3809046158813" class="text" fill="white">NBHARATH1306</text>
<circle cx="400" cy="225" r="547.1955" class="orbit" />
<circle cx="329.67495420561556" cy="767.6576297761488" r="18.155" fill="#e34c26" class="planet" />
<text x="344.67495420561556" y="772.6576297761488" class="text" fill="white">WEBSITE-EQUDATOR-TRADING-PLATFORM</text>
<circle cx="400" cy="225" r="578.028" class="orbit" />
<circle cx="766.9631683052224" cy="-221.60318168525515" r="10.555" fill="#8b949e" class="planet" />
<text x="781.9631683052224" y="-216.60318168525515" class="text" fill="white">FLASK</text>
<circle cx="400" cy="225" r="608.301" class="orbit" />
<circle cx="587.7173444210727" cy="803.6123963453431" r="10.182" fill="#8b949e" class="planet" />
<text x="602.7173444210727" y="808.6123963453431" class="text" fill="white">HCF-INTERNSHIP</text>
<circle cx="400" cy="225" r="637.1700000000001" class="orbit" />
<circle cx="952.7938593965848" cy="-91.86678259708594" r="9.246" fill="#8b949e" class="planet" />

    <text x="400" y="40" text-anchor="middle" class="title">SYSTEM SINGULARITY</text>
    </svg>