<svg width="800" height="450" xmlns="http://www.w3.org/2000/svg">
    <style>
        .orbit { fill: none; stroke: #30363d; stroke-width: 1; opacity: 0.5; }
        .planet { filter: drop-shadow(0 0 5px rgba(255,255,255,0.3)); }
        .text { font-family: 'Courier New', monospace; fill: #8b949e; font-size: 10px; }
        .title { font-family: sans-serif; fill: white; font-weight: bold; font-size: 24px; letter-spacing: 4px; }
        .hud-line { stroke: #00ffff; stroke-width: 1; opacity: 0.3; }
        
        /* ANIMATIONS */
        @keyframes pulse { 0% { r: 25; opacity: 0.8; } 50% { r: 30; opacity: 0.4; } 100% { r: 25; opacity: 0.8; } }
        .sun { animation: pulse 4s infinite; }
    </style>
    
    <rect width="100%" height="100%" fill="#0d1117" />
    
    <line x1="50" y1="50" x2="50" y2="400" class="hud-line" />
    <line x1="50" y1="400" x2="750" y2="400" class="hud-line" />
    <text x="60" y="390" class="text">SYS_TIME: 2026.03.23 :: 0118</text>
    <text x="60" y="375" class="text">SECTOR: N_BHARATH_PRIME</text>
    
    <circle cx="400" cy="225" r="25" fill="url(#grad1)" class="sun" />
    <defs>
        <radialGradient id="grad1" cx="50%" cy="50%" r="50%" fx="50%" fy="50%">
            <stop offset="0%" style="stop-color:white;stop-opacity:1" />
            <stop offset="100%" style="stop-color:#00ffff;stop-opacity:1" />
        </radialGradient>
    </defs>
    <circle cx="400" cy="225" r="150.0" class="orbit" />
<circle cx="541.1092682437829" cy="174.12589641375376" r="50" fill="#f1e05a" class="planet" />
<text x="556.1092682437829" y="179.12589641375376" class="text" fill="white">REDSHIFT</text>
<circle cx="400" cy="225" r="240.0" class="orbit" />
<circle cx="593.7071069999898" cy="366.69529525603343" r="50" fill="#e34c26" class="planet" />
<text x="608.7071069999898" y="371.69529525603343" class="text" fill="white">CIRCLE-13</text>
<circle cx="400" cy="225" r="330.0" class="orbit" />
<circle cx="297.8328658821018" cy="-88.78635519431913" r="50" fill="#e34c26" class="planet" />
<text x="312.8328658821018" y="-83.78635519431913" class="text" fill="white">ALVRYN-AI</text>
<circle cx="400" cy="225" r="415.422" class="orbit" />
<circle cx="664.6780800299944" cy="-95.18893178190268" r="46.948" fill="#f1e05a" class="planet" />
<text x="679.6780800299944" y="-90.18893178190268" class="text" fill="white">DRIFT-CIRCLE13</text>
<circle cx="400" cy="225" r="461.8095" class="orbit" />
<circle cx="-25.177771678994247" cy="44.744967447965394" r="20.925" fill="#2b7489" class="planet" />
<text x="-10.177771678994247" y="49.744967447965394" class="text" fill="white">DSATM-EXAM-SYSTEM-</text>
<circle cx="400" cy="225" r="504.87600000000003" class="orbit" />
<circle cx="5.968150918219919" cy="540.655947647424" r="18.711" fill="#8b949e" class="planet" />
<text x="20.96815091821992" y="545.655947647424" class="text" fill="white">NBHARATH1306</text>
<circle cx="400" cy="225" r="547.1085" class="orbit" />
<circle cx="403.13947041058026" cy="772.0994923209042" r="18.155" fill="#e34c26" class="planet" />
<text x="418.13947041058026" y="777.0994923209042" class="text" fill="white">WEBSITE-EQUDATOR-TRADING-PLATFORM</text>
<circle cx="400" cy="225" r="577.941" class="orbit" />
<circle cx="832.2578601705003" cy="608.6260442173084" r="10.555" fill="#8b949e" class="planet" />
<text x="847.2578601705003" y="613.6260442173084" class="text" fill="white">FLASK</text>
<circle cx="400" cy="225" r="608.214" class="orbit" />
<circle cx="746.7159110588364" cy="724.7122640226485" r="10.182" fill="#8b949e" class="planet" />
<text x="761.7159110588364" y="729.7122640226485" class="text" fill="white">HCF-INTERNSHIP</text>
<circle cx="400" cy="225" r="637.0830000000001" class="orbit" />
<circle cx="254.51812294618333" cy="845.2497660925784" r="9.246" fill="#8b949e" class="planet" />

    <text x="400" y="40" text-anchor="middle" class="title">SYSTEM SINGULARITY</text>
    </svg>