<svg width="800" height="450" xmlns="http://www.w3.org/2000/svg">
    <style>
        .orbit { fill: none; stroke: #30363d; stroke-width: 1; opacity: 0.5; }
        .planet { filter: drop-shadow(0 0 5px rgba(255,255,255,0.3)); }
        .text { font-family: 'Courier New', monospace; fill: #8b949e; font-size: 10px; }
        .title { font-family: sans-serif; fill: white; font-weight: bold; font-size: 24px; letter-spacing: 4px; }
        .hud-line { stroke: #00ffff; stroke-width: 1; opacity: 0.3; }
        
        /* ANIMATIONS */
        @keyframes pulse { 0% { r: 25; opacity: 0.8; } 50% { r: 30; opacity: 0.4; } 100% { r: 25; opacity: 0.8; } }
        .sun { animation: pulse 4s infinite; }
    </style>
    
    <rect width="100%" height="100%" fill="#0d1117" />
    
    <line x1="50" y1="50" x2="50" y2="400" class="hud-line" />
    <line x1="50" y1="400" x2="750" y2="400" class="hud-line" />
    <text x="60" y="390" class="text">SYS_TIME: 2026.04.06 :: 0126</text>
    <text x="60" y="375" class="text">SECTOR: N_BHARATH_PRIME</text>
    
    <circle cx="400" cy="225" r="25" fill="url(#grad1)" class="sun" />
    <defs>
        <radialGradient id="grad1" cx="50%" cy="50%" r="50%" fx="50%" fy="50%">
            <stop offset="0%" style="stop-color:white;stop-opacity:1" />
            <stop offset="100%" style="stop-color:#00ffff;stop-opacity:1" />
        </radialGradient>
    </defs>
    <circle cx="400" cy="225" r="150.0" class="orbit" />
<circle cx="335.990256915426" cy="360.6567462024902" r="50" fill="#e34c26" class="planet" />
<text x="350.990256915426" y="365.6567462024902" class="text" fill="white">CIRCLE13</text>
<circle cx="400" cy="225" r="240.0" class="orbit" />
<circle cx="188.52886971815636" cy="111.510083895883" r="50" fill="#f1e05a" class="planet" />
<text x="203.52886971815636" y="116.510083895883" class="text" fill="white">REDSHIFT</text>
<circle cx="400" cy="225" r="330.0" class="orbit" />
<circle cx="549.99190125054" cy="-68.9429018691356" r="50" fill="#e34c26" class="planet" />
<text x="564.99190125054" y="-63.942901869135596" class="text" fill="white">ALVRYN-AI</text>
<circle cx="400" cy="225" r="415.422" class="orbit" />
<circle cx="783.8660594269222" cy="383.81525904032867" r="46.948" fill="#f1e05a" class="planet" />
<text x="798.8660594269222" y="388.81525904032867" class="text" fill="white">DRIFT-CIRCLE13</text>
<circle cx="400" cy="225" r="461.8095" class="orbit" />
<circle cx="628.9465357969914" cy="626.0629601905503" r="20.925" fill="#2b7489" class="planet" />
<text x="643.9465357969914" y="631.0629601905503" class="text" fill="white">DSATM-EXAM-SYSTEM-</text>
<circle cx="400" cy="225" r="504.858" class="orbit" />
<circle cx="856.0417315253723" cy="441.58148413781896" r="18.699" fill="#8b949e" class="planet" />
<text x="871.0417315253723" y="446.58148413781896" class="text" fill="white">NBHARATH1306</text>
<circle cx="400" cy="225" r="547.0905" class="orbit" />
<circle cx="924.8119145762774" cy="379.5330693056736" r="18.155" fill="#e34c26" class="planet" />
<text x="939.8119145762774" y="384.5330693056736" class="text" fill="white">WEBSITE-EQUDATOR-TRADING-PLATFORM</text>
<circle cx="400" cy="225" r="577.923" class="orbit" />
<circle cx="349.944658970223" cy="-350.7512108223418" r="10.555" fill="#8b949e" class="planet" />
<text x="364.944658970223" y="-345.7512108223418" class="text" fill="white">FLASK</text>
<circle cx="400" cy="225" r="608.196" class="orbit" />
<circle cx="34.15080756308174" cy="-260.85671016180765" r="10.182" fill="#8b949e" class="planet" />
<text x="49.15080756308174" y="-255.85671016180765" class="text" fill="white">HCF-INTERNSHIP</text>
<circle cx="400" cy="225" r="637.065" class="orbit" />
<circle cx="851.1090843654116" cy="-224.8359792502152" r="9.246" fill="#8b949e" class="planet" />

    <text x="400" y="40" text-anchor="middle" class="title">SYSTEM SINGULARITY</text>
    </svg>