<svg width="800" height="450" xmlns="http://www.w3.org/2000/svg">
    <style>
        .orbit { fill: none; stroke: #30363d; stroke-width: 1; opacity: 0.5; }
        .planet { filter: drop-shadow(0 0 5px rgba(255,255,255,0.3)); }
        .text { font-family: 'Courier New', monospace; fill: #8b949e; font-size: 10px; }
        .title { font-family: sans-serif; fill: white; font-weight: bold; font-size: 24px; letter-spacing: 4px; }
        .hud-line { stroke: #00ffff; stroke-width: 1; opacity: 0.3; }
        
        /* ANIMATIONS */
        @keyframes pulse { 0% { r: 25; opacity: 0.8; } 50% { r: 30; opacity: 0.4; } 100% { r: 25; opacity: 0.8; } }
        .sun { animation: pulse 4s infinite; }
    </style>
    
    <rect width="100%" height="100%" fill="#0d1117" />
    
    <line x1="50" y1="50" x2="50" y2="400" class="hud-line" />
    <line x1="50" y1="400" x2="750" y2="400" class="hud-line" />
    <text x="60" y="390" class="text">SYS_TIME: 2026.03.07 :: 0109</text>
    <text x="60" y="375" class="text">SECTOR: N_BHARATH_PRIME</text>
    
    <circle cx="400" cy="225" r="25" fill="url(#grad1)" class="sun" />
    <defs>
        <radialGradient id="grad1" cx="50%" cy="50%" r="50%" fx="50%" fy="50%">
            <stop offset="0%" style="stop-color:white;stop-opacity:1" />
            <stop offset="100%" style="stop-color:#00ffff;stop-opacity:1" />
        </radialGradient>
    </defs>
    <circle cx="400" cy="225" r="150.0" class="orbit" />
<circle cx="263.7584667910943" cy="287.7554350545564" r="50" fill="#f1e05a" class="planet" />
<text x="278.7584667910943" y="292.7554350545564" class="text" fill="white">REDSHIFT</text>
<circle cx="400" cy="225" r="240.0" class="orbit" />
<circle cx="487.9600741047711" cy="1.6996969023929296" r="50" fill="#e34c26" class="planet" />
<text x="502.9600741047711" y="6.69969690239293" class="text" fill="white">CIRCLE-13</text>
<circle cx="400" cy="225" r="330.0" class="orbit" />
<circle cx="71.4161486054366" cy="194.46063846909237" r="50" fill="#e34c26" class="planet" />
<text x="86.4161486054366" y="199.46063846909237" class="text" fill="white">ALVRYN-AI</text>
<circle cx="400" cy="225" r="415.422" class="orbit" />
<circle cx="306.9349905679445" cy="629.8633622636302" r="46.948" fill="#f1e05a" class="planet" />
<text x="321.9349905679445" y="634.8633622636302" class="text" fill="white">DRIFT-CIRCLE13</text>
<circle cx="400" cy="225" r="461.8095" class="orbit" />
<circle cx="857.6222904761812" cy="162.95281191235495" r="20.925" fill="#2b7489" class="planet" />
<text x="872.6222904761812" y="167.95281191235495" class="text" fill="white">DSATM-EXAM-SYSTEM-</text>
<circle cx="400" cy="225" r="504.84450000000004" class="orbit" />
<circle cx="616.3335141121273" cy="-231.1444725655985" r="18.69" fill="#8b949e" class="planet" />
<text x="631.3335141121273" y="-226.1444725655985" class="text" fill="white">NBHARATH1306</text>
<circle cx="400" cy="225" r="547.077" class="orbit" />
<circle cx="-47.99692120993541" cy="-88.99363451417116" r="18.155" fill="#e34c26" class="planet" />
<text x="-32.99692120993541" y="-83.99363451417116" class="text" fill="white">WEBSITE-EQUDATOR-TRADING-PLATFORM</text>
<circle cx="400" cy="225" r="577.9095" class="orbit" />
<circle cx="545.5438796192499" cy="784.2820123118813" r="10.555" fill="#8b949e" class="planet" />
<text x="560.5438796192499" y="789.2820123118813" class="text" fill="white">FLASK</text>
<circle cx="400" cy="225" r="608.1825" class="orbit" />
<circle cx="1002.9964281067726" cy="145.7455932031288" r="10.182" fill="#8b949e" class="planet" />
<text x="1017.9964281067726" y="150.7455932031288" class="text" fill="white">HCF-INTERNSHIP</text>
<circle cx="400" cy="225" r="637.0515" class="orbit" />
<circle cx="248.75720806700687" cy="843.8378071357336" r="9.246" fill="#8b949e" class="planet" />

    <text x="400" y="40" text-anchor="middle" class="title">SYSTEM SINGULARITY</text>
    </svg>