<svg width="800" height="450" xmlns="http://www.w3.org/2000/svg">
    <style>
        .orbit { fill: none; stroke: #30363d; stroke-width: 1; opacity: 0.5; }
        .planet { filter: drop-shadow(0 0 5px rgba(255,255,255,0.3)); }
        .text { font-family: 'Courier New', monospace; fill: #8b949e; font-size: 10px; }
        .title { font-family: sans-serif; fill: white; font-weight: bold; font-size: 24px; letter-spacing: 4px; }
        .hud-line { stroke: #00ffff; stroke-width: 1; opacity: 0.3; }
        
        /* ANIMATIONS */
        @keyframes pulse { 0% { r: 25; opacity: 0.8; } 50% { r: 30; opacity: 0.4; } 100% { r: 25; opacity: 0.8; } }
        .sun { animation: pulse 4s infinite; }
    </style>
    
    <rect width="100%" height="100%" fill="#0d1117" />
    
    <line x1="50" y1="50" x2="50" y2="400" class="hud-line" />
    <line x1="50" y1="400" x2="750" y2="400" class="hud-line" />
    <text x="60" y="390" class="text">SYS_TIME: 2026.02.04 :: 0110</text>
    <text x="60" y="375" class="text">SECTOR: N_BHARATH_PRIME</text>
    
    <circle cx="400" cy="225" r="25" fill="url(#grad1)" class="sun" />
    <defs>
        <radialGradient id="grad1" cx="50%" cy="50%" r="50%" fx="50%" fy="50%">
            <stop offset="0%" style="stop-color:white;stop-opacity:1" />
            <stop offset="100%" style="stop-color:#00ffff;stop-opacity:1" />
        </radialGradient>
    </defs>
    <circle cx="400" cy="225" r="150.0" class="orbit" />
<circle cx="324.50539831526373" cy="354.61699393390904" r="50" fill="#f1e05a" class="planet" />
<text x="339.50539831526373" y="359.61699393390904" class="text" fill="white">REDSHIFT</text>
<circle cx="400" cy="225" r="240.0" class="orbit" />
<circle cx="588.9326150407773" cy="373.00157760596164" r="50" fill="#e34c26" class="planet" />
<text x="603.9326150407773" y="378.00157760596164" class="text" fill="white">CIRCLE-13</text>
<circle cx="400" cy="225" r="330.0" class="orbit" />
<circle cx="70.61970048141183" cy="204.7856909827431" r="50" fill="#e34c26" class="planet" />
<text x="85.61970048141183" y="209.7856909827431" class="text" fill="white">ALVRYN-AI</text>
<circle cx="400" cy="225" r="415.422" class="orbit" />
<circle cx="151.12300149228804" cy="557.6194187022045" r="46.948" fill="#f1e05a" class="planet" />
<text x="166.12300149228804" y="562.6194187022045" class="text" fill="white">DRIFT-CIRCLE13</text>
<circle cx="400" cy="225" r="461.8095" class="orbit" />
<circle cx="711.7432468282068" cy="-115.71125949586366" r="20.925" fill="#2b7489" class="planet" />
<text x="726.7432468282068" y="-110.71125949586366" class="text" fill="white">DSATM-EXAM-SYSTEM-</text>
<circle cx="400" cy="225" r="504.81" class="orbit" />
<circle cx="-44.8165581107242" cy="-13.686752314678643" r="18.667" fill="#8b949e" class="planet" />
<text x="-29.816558110724202" y="-8.686752314678643" class="text" fill="white">NBHARATH1306</text>
<circle cx="400" cy="225" r="547.0425" class="orbit" />
<circle cx="946.8825354449563" cy="211.77165046023492" r="18.155" fill="#e34c26" class="planet" />
<text x="961.8825354449563" y="216.77165046023492" class="text" fill="white">WEBSITE-EQUDATOR-TRADING-PLATFORM</text>
<circle cx="400" cy="225" r="577.875" class="orbit" />
<circle cx="187.16223650274756" cy="-312.2518981394925" r="10.555" fill="#8b949e" class="planet" />
<text x="202.16223650274756" y="-307.2518981394925" class="text" fill="white">FLASK</text>
<circle cx="400" cy="225" r="608.148" class="orbit" />
<circle cx="-64.53571848949531" cy="-167.49274662272217" r="10.182" fill="#8b949e" class="planet" />
<text x="-49.53571848949531" y="-162.49274662272217" class="text" fill="white">HCF-INTERNSHIP</text>
<circle cx="400" cy="225" r="637.017" class="orbit" />
<circle cx="933.3940812496814" cy="-123.25480955301708" r="9.246" fill="#8b949e" class="planet" />

    <text x="400" y="40" text-anchor="middle" class="title">SYSTEM SINGULARITY</text>
    </svg>