<svg width="800" height="450" xmlns="http://www.w3.org/2000/svg">
    <style>
        .orbit { fill: none; stroke: #30363d; stroke-width: 1; opacity: 0.5; }
        .planet { filter: drop-shadow(0 0 5px rgba(255,255,255,0.3)); }
        .text { font-family: 'Courier New', monospace; fill: #8b949e; font-size: 10px; }
        .title { font-family: sans-serif; fill: white; font-weight: bold; font-size: 24px; letter-spacing: 4px; }
        .hud-line { stroke: #00ffff; stroke-width: 1; opacity: 0.3; }
        
        /* ANIMATIONS */
        @keyframes pulse { 0% { r: 25; opacity: 0.8; } 50% { r: 30; opacity: 0.4; } 100% { r: 25; opacity: 0.8; } }
        .sun { animation: pulse 4s infinite; }
    </style>
    
    <rect width="100%" height="100%" fill="#0d1117" />
    
    <line x1="50" y1="50" x2="50" y2="400" class="hud-line" />
    <line x1="50" y1="400" x2="750" y2="400" class="hud-line" />
    <text x="60" y="390" class="text">SYS_TIME: 2026.06.28 :: 0233</text>
    <text x="60" y="375" class="text">SECTOR: N_BHARATH_PRIME</text>
    
    <circle cx="400" cy="225" r="25" fill="url(#grad1)" class="sun" />
    <defs>
        <radialGradient id="grad1" cx="50%" cy="50%" r="50%" fx="50%" fy="50%">
            <stop offset="0%" style="stop-color:white;stop-opacity:1" />
            <stop offset="100%" style="stop-color:#00ffff;stop-opacity:1" />
        </radialGradient>
    </defs>
    <circle cx="400" cy="225" r="150.0" class="orbit" />
<circle cx="452.02996287553526" cy="365.6871812325857" r="50" fill="#e34c26" class="planet" />
<text x="467.02996287553526" y="370.6871812325857" class="text" fill="white">CIRCLE13</text>
<circle cx="400" cy="225" r="240.0" class="orbit" />
<circle cx="337.7959694253724" cy="456.7987458556901" r="50" fill="#f1e05a" class="planet" />
<text x="352.7959694253724" y="461.7987458556901" class="text" fill="white">REDSHIFT</text>
<circle cx="400" cy="225" r="330.0" class="orbit" />
<circle cx="74.26680499607835" cy="277.8950439317063" r="50" fill="#e34c26" class="planet" />
<text x="89.26680499607835" y="282.8950439317063" class="text" fill="white">ALVRYN-AI</text>
<circle cx="400" cy="225" r="415.422" class="orbit" />
<circle cx="768.7047843812859" cy="416.39545464391136" r="46.948" fill="#f1e05a" class="planet" />
<text x="783.7047843812859" y="421.39545464391136" class="text" fill="white">DRIFT-CIRCLE13</text>
<circle cx="400" cy="225" r="461.8095" class="orbit" />
<circle cx="56.10550570529307" cy="533.2281477802405" r="20.925" fill="#2b7489" class="planet" />
<text x="71.10550570529307" y="538.2281477802405" class="text" fill="white">DSATM-EXAM-SYSTEM-</text>
<circle cx="400" cy="225" r="504.97950000000003" class="orbit" />
<circle cx="850.7685711558543" cy="-2.622474018624956" r="18.78" fill="#8b949e" class="planet" />
<text x="865.7685711558543" y="2.377525981375044" class="text" fill="white">NBHARATH1306</text>
<circle cx="400" cy="225" r="547.212" class="orbit" />
<circle cx="266.95582969412277" cy="755.7920701099638" r="18.155" fill="#e34c26" class="planet" />
<text x="281.95582969412277" y="760.7920701099638" class="text" fill="white">WEBSITE-EQUDATOR-TRADING-PLATFORM</text>
<circle cx="400" cy="225" r="578.0445" class="orbit" />
<circle cx="932.2472225036951" cy="-0.4957607525074934" r="10.555" fill="#8b949e" class="planet" />
<text x="947.2472225036951" y="4.504239247492507" class="text" fill="white">FLASK</text>
<circle cx="400" cy="225" r="608.3175" class="orbit" />
<circle cx="578.5609857781963" cy="-356.52055437806223" r="10.182" fill="#8b949e" class="planet" />
<text x="593.5609857781963" y="-351.52055437806223" class="text" fill="white">HCF-INTERNSHIP</text>
<circle cx="400" cy="225" r="637.1865" class="orbit" />
<circle cx="665.8373631999673" cy="804.0830096878501" r="9.246" fill="#8b949e" class="planet" />

    <text x="400" y="40" text-anchor="middle" class="title">SYSTEM SINGULARITY</text>
    </svg>