<svg width="800" height="450" xmlns="http://www.w3.org/2000/svg">
    <style>
        .orbit { fill: none; stroke: #30363d; stroke-width: 1; opacity: 0.5; }
        .planet { filter: drop-shadow(0 0 5px rgba(255,255,255,0.3)); }
        .text { font-family: 'Courier New', monospace; fill: #8b949e; font-size: 10px; }
        .title { font-family: sans-serif; fill: white; font-weight: bold; font-size: 24px; letter-spacing: 4px; }
        .hud-line { stroke: #00ffff; stroke-width: 1; opacity: 0.3; }
        
        /* ANIMATIONS */
        @keyframes pulse { 0% { r: 25; opacity: 0.8; } 50% { r: 30; opacity: 0.4; } 100% { r: 25; opacity: 0.8; } }
        .sun { animation: pulse 4s infinite; }
    </style>
    
    <rect width="100%" height="100%" fill="#0d1117" />
    
    <line x1="50" y1="50" x2="50" y2="400" class="hud-line" />
    <line x1="50" y1="400" x2="750" y2="400" class="hud-line" />
    <text x="60" y="390" class="text">SYS_TIME: 2026.05.28 :: 0207</text>
    <text x="60" y="375" class="text">SECTOR: N_BHARATH_PRIME</text>
    
    <circle cx="400" cy="225" r="25" fill="url(#grad1)" class="sun" />
    <defs>
        <radialGradient id="grad1" cx="50%" cy="50%" r="50%" fx="50%" fy="50%">
            <stop offset="0%" style="stop-color:white;stop-opacity:1" />
            <stop offset="100%" style="stop-color:#00ffff;stop-opacity:1" />
        </radialGradient>
    </defs>
    <circle cx="400" cy="225" r="150.0" class="orbit" />
<circle cx="546.574249477599" cy="193.1254115308359" r="50" fill="#e34c26" class="planet" />
<text x="561.574249477599" y="198.1254115308359" class="text" fill="white">CIRCLE13</text>
<circle cx="400" cy="225" r="240.0" class="orbit" />
<circle cx="601.3296706765918" cy="94.36170658931945" r="50" fill="#f1e05a" class="planet" />
<text x="616.3296706765918" y="99.36170658931945" class="text" fill="white">REDSHIFT</text>
<circle cx="400" cy="225" r="330.0" class="orbit" />
<circle cx="356.0614340431271" cy="-102.06177156869546" r="50" fill="#e34c26" class="planet" />
<text x="371.0614340431271" y="-97.06177156869546" class="text" fill="white">ALVRYN-AI</text>
<circle cx="400" cy="225" r="415.422" class="orbit" />
<circle cx="-12.924945149426378" cy="179.52002905296385" r="46.948" fill="#f1e05a" class="planet" />
<text x="2.075054850573622" y="184.52002905296385" class="text" fill="white">DRIFT-CIRCLE13</text>
<circle cx="400" cy="225" r="461.8095" class="orbit" />
<circle cx="455.69631248983893" cy="-233.43858374408694" r="20.925" fill="#2b7489" class="planet" />
<text x="470.69631248983893" y="-228.43858374408694" class="text" fill="white">DSATM-EXAM-SYSTEM-</text>
<circle cx="400" cy="225" r="504.918" class="orbit" />
<circle cx="200.21964172677892" cy="-238.71326827278017" r="18.739" fill="#8b949e" class="planet" />
<text x="215.21964172677892" y="-233.71326827278017" class="text" fill="white">NBHARATH1306</text>
<circle cx="400" cy="225" r="547.1505" class="orbit" />
<circle cx="264.67484939734777" cy="755.1516511948439" r="18.155" fill="#e34c26" class="planet" />
<text x="279.67484939734777" y="760.1516511948439" class="text" fill="white">WEBSITE-EQUDATOR-TRADING-PLATFORM</text>
<circle cx="400" cy="225" r="577.983" class="orbit" />
<circle cx="919.0440841681262" cy="479.2785617763932" r="10.555" fill="#8b949e" class="planet" />
<text x="934.0440841681262" y="484.2785617763932" class="text" fill="white">FLASK</text>
<circle cx="400" cy="225" r="608.256" class="orbit" />
<circle cx="1003.3816911450996" cy="148.15017028724372" r="10.182" fill="#8b949e" class="planet" />
<text x="1018.3816911450996" y="153.15017028724372" class="text" fill="white">HCF-INTERNSHIP</text>
<circle cx="400" cy="225" r="637.125" class="orbit" />
<circle cx="59.68268663734233" cy="-313.6208238182244" r="9.246" fill="#8b949e" class="planet" />

    <text x="400" y="40" text-anchor="middle" class="title">SYSTEM SINGULARITY</text>
    </svg>