<svg width="800" height="450" xmlns="http://www.w3.org/2000/svg">
    <style>
        .orbit { fill: none; stroke: #30363d; stroke-width: 1; opacity: 0.5; }
        .planet { filter: drop-shadow(0 0 5px rgba(255,255,255,0.3)); }
        .text { font-family: 'Courier New', monospace; fill: #8b949e; font-size: 10px; }
        .title { font-family: sans-serif; fill: white; font-weight: bold; font-size: 24px; letter-spacing: 4px; }
        .hud-line { stroke: #00ffff; stroke-width: 1; opacity: 0.3; }
        
        /* ANIMATIONS */
        @keyframes pulse { 0% { r: 25; opacity: 0.8; } 50% { r: 30; opacity: 0.4; } 100% { r: 25; opacity: 0.8; } }
        .sun { animation: pulse 4s infinite; }
    </style>
    
    <rect width="100%" height="100%" fill="#0d1117" />
    
    <line x1="50" y1="50" x2="50" y2="400" class="hud-line" />
    <line x1="50" y1="400" x2="750" y2="400" class="hud-line" />
    <text x="60" y="390" class="text">SYS_TIME: 2026.05.20 :: 0215</text>
    <text x="60" y="375" class="text">SECTOR: N_BHARATH_PRIME</text>
    
    <circle cx="400" cy="225" r="25" fill="url(#grad1)" class="sun" />
    <defs>
        <radialGradient id="grad1" cx="50%" cy="50%" r="50%" fx="50%" fy="50%">
            <stop offset="0%" style="stop-color:white;stop-opacity:1" />
            <stop offset="100%" style="stop-color:#00ffff;stop-opacity:1" />
        </radialGradient>
    </defs>
    <circle cx="400" cy="225" r="150.0" class="orbit" />
<circle cx="366.2835856480142" cy="78.83843390533474" r="50" fill="#e34c26" class="planet" />
<text x="381.2835856480142" y="83.83843390533474" class="text" fill="white">CIRCLE13</text>
<circle cx="400" cy="225" r="240.0" class="orbit" />
<circle cx="310.1081932176454" cy="447.5296903188512" r="50" fill="#f1e05a" class="planet" />
<text x="325.1081932176454" y="452.5296903188512" class="text" fill="white">REDSHIFT</text>
<circle cx="400" cy="225" r="330.0" class="orbit" />
<circle cx="203.65320196821426" cy="490.2318512220302" r="50" fill="#e34c26" class="planet" />
<text x="218.65320196821426" y="495.2318512220302" class="text" fill="white">ALVRYN-AI</text>
<circle cx="400" cy="225" r="415.422" class="orbit" />
<circle cx="788.0235921059552" cy="76.63177545986693" r="46.948" fill="#f1e05a" class="planet" />
<text x="803.0235921059552" y="81.63177545986693" class="text" fill="white">DRIFT-CIRCLE13</text>
<circle cx="400" cy="225" r="461.8095" class="orbit" />
<circle cx="434.39431523654616" cy="-235.52692143853994" r="20.925" fill="#2b7489" class="planet" />
<text x="449.39431523654616" y="-230.52692143853994" class="text" fill="white">DSATM-EXAM-SYSTEM-</text>
<circle cx="400" cy="225" r="504.9465" class="orbit" />
<circle cx="735.8625440590845" cy="-152.05081800787747" r="18.758" fill="#8b949e" class="planet" />
<text x="750.8625440590845" y="-147.05081800787747" class="text" fill="white">NBHARATH1306</text>
<circle cx="400" cy="225" r="547.179" class="orbit" />
<circle cx="322.28285580153585" cy="-316.6317047022221" r="18.155" fill="#e34c26" class="planet" />
<text x="337.28285580153585" y="-311.6317047022221" class="text" fill="white">WEBSITE-EQUDATOR-TRADING-PLATFORM</text>
<circle cx="400" cy="225" r="578.0115" class="orbit" />
<circle cx="948.9908351153096" cy="405.84898974460685" r="10.555" fill="#8b949e" class="planet" />
<text x="963.9908351153096" y="410.84898974460685" class="text" fill="white">FLASK</text>
<circle cx="400" cy="225" r="608.2845" class="orbit" />
<circle cx="-76.81982084617925" cy="-152.69417706454976" r="10.182" fill="#8b949e" class="planet" />
<text x="-61.819820846179255" y="-147.69417706454976" class="text" fill="white">HCF-INTERNSHIP</text>
<circle cx="400" cy="225" r="637.1535" class="orbit" />
<circle cx="805.9240163163936" cy="716.1112659467487" r="9.246" fill="#8b949e" class="planet" />

    <text x="400" y="40" text-anchor="middle" class="title">SYSTEM SINGULARITY</text>
    </svg>