<svg width="800" height="450" xmlns="http://www.w3.org/2000/svg">
    <style>
        .orbit { fill: none; stroke: #30363d; stroke-width: 1; opacity: 0.5; }
        .planet { filter: drop-shadow(0 0 5px rgba(255,255,255,0.3)); }
        .text { font-family: 'Courier New', monospace; fill: #8b949e; font-size: 10px; }
        .title { font-family: sans-serif; fill: white; font-weight: bold; font-size: 24px; letter-spacing: 4px; }
        .hud-line { stroke: #00ffff; stroke-width: 1; opacity: 0.3; }
        
        /* ANIMATIONS */
        @keyframes pulse { 0% { r: 25; opacity: 0.8; } 50% { r: 30; opacity: 0.4; } 100% { r: 25; opacity: 0.8; } }
        .sun { animation: pulse 4s infinite; }
    </style>
    
    <rect width="100%" height="100%" fill="#0d1117" />
    
    <line x1="50" y1="50" x2="50" y2="400" class="hud-line" />
    <line x1="50" y1="400" x2="750" y2="400" class="hud-line" />
    <text x="60" y="390" class="text">SYS_TIME: 2026.06.12 :: 0236</text>
    <text x="60" y="375" class="text">SECTOR: N_BHARATH_PRIME</text>
    
    <circle cx="400" cy="225" r="25" fill="url(#grad1)" class="sun" />
    <defs>
        <radialGradient id="grad1" cx="50%" cy="50%" r="50%" fx="50%" fy="50%">
            <stop offset="0%" style="stop-color:white;stop-opacity:1" />
            <stop offset="100%" style="stop-color:#00ffff;stop-opacity:1" />
        </radialGradient>
    </defs>
    <circle cx="400" cy="225" r="150.0" class="orbit" />
<circle cx="517.7159162492121" cy="317.96753767637654" r="50" fill="#e34c26" class="planet" />
<text x="532.7159162492121" y="322.96753767637654" class="text" fill="white">CIRCLE13</text>
<circle cx="400" cy="225" r="240.0" class="orbit" />
<circle cx="169.34012457399294" cy="291.30250273148755" r="50" fill="#f1e05a" class="planet" />
<text x="184.34012457399294" y="296.30250273148755" class="text" fill="white">REDSHIFT</text>
<circle cx="400" cy="225" r="330.0" class="orbit" />
<circle cx="402.6759002074987" cy="-104.98915066722952" r="50" fill="#e34c26" class="planet" />
<text x="417.6759002074987" y="-99.98915066722952" class="text" fill="white">ALVRYN-AI</text>
<circle cx="400" cy="225" r="415.422" class="orbit" />
<circle cx="806.3069873755973" cy="138.4548089506627" r="46.948" fill="#f1e05a" class="planet" />
<text x="821.3069873755973" y="143.4548089506627" class="text" fill="white">DRIFT-CIRCLE13</text>
<circle cx="400" cy="225" r="461.8095" class="orbit" />
<circle cx="272.82639347126184" cy="668.9537003930969" r="20.925" fill="#2b7489" class="planet" />
<text x="287.82639347126184" y="673.9537003930969" class="text" fill="white">DSATM-EXAM-SYSTEM-</text>
<circle cx="400" cy="225" r="504.94800000000004" class="orbit" />
<circle cx="-75.22205448169143" cy="54.30588282486016" r="18.759" fill="#8b949e" class="planet" />
<text x="-60.22205448169143" y="59.30588282486016" class="text" fill="white">NBHARATH1306</text>
<circle cx="400" cy="225" r="547.1805" class="orbit" />
<circle cx="630.7581350137438" cy="721.1423008625941" r="18.155" fill="#e34c26" class="planet" />
<text x="645.7581350137438" y="726.1423008625941" class="text" fill="white">WEBSITE-EQUDATOR-TRADING-PLATFORM</text>
<circle cx="400" cy="225" r="578.013" class="orbit" />
<circle cx="-168.0542370648751" cy="118.16642886413113" r="10.555" fill="#8b949e" class="planet" />
<text x="-153.0542370648751" y="123.16642886413113" class="text" fill="white">FLASK</text>
<circle cx="400" cy="225" r="608.2860000000001" class="orbit" />
<circle cx="927.6476498893511" cy="-77.65461397811987" r="10.182" fill="#8b949e" class="planet" />
<text x="942.6476498893511" y="-72.65461397811987" class="text" fill="white">HCF-INTERNSHIP</text>
<circle cx="400" cy="225" r="637.1550000000001" class="orbit" />
<circle cx="1011.4784275156296" cy="404.05481481382463" r="9.246" fill="#8b949e" class="planet" />

    <text x="400" y="40" text-anchor="middle" class="title">SYSTEM SINGULARITY</text>
    </svg>