<svg width="800" height="450" xmlns="http://www.w3.org/2000/svg">
    <style>
        .orbit { fill: none; stroke: #30363d; stroke-width: 1; opacity: 0.5; }
        .planet { filter: drop-shadow(0 0 5px rgba(255,255,255,0.3)); }
        .text { font-family: 'Courier New', monospace; fill: #8b949e; font-size: 10px; }
        .title { font-family: sans-serif; fill: white; font-weight: bold; font-size: 24px; letter-spacing: 4px; }
        .hud-line { stroke: #00ffff; stroke-width: 1; opacity: 0.3; }
        
        /* ANIMATIONS */
        @keyframes pulse { 0% { r: 25; opacity: 0.8; } 50% { r: 30; opacity: 0.4; } 100% { r: 25; opacity: 0.8; } }
        .sun { animation: pulse 4s infinite; }
    </style>
    
    <rect width="100%" height="100%" fill="#0d1117" />
    
    <line x1="50" y1="50" x2="50" y2="400" class="hud-line" />
    <line x1="50" y1="400" x2="750" y2="400" class="hud-line" />
    <text x="60" y="390" class="text">SYS_TIME: 2026.04.12 :: 0143</text>
    <text x="60" y="375" class="text">SECTOR: N_BHARATH_PRIME</text>
    
    <circle cx="400" cy="225" r="25" fill="url(#grad1)" class="sun" />
    <defs>
        <radialGradient id="grad1" cx="50%" cy="50%" r="50%" fx="50%" fy="50%">
            <stop offset="0%" style="stop-color:white;stop-opacity:1" />
            <stop offset="100%" style="stop-color:#00ffff;stop-opacity:1" />
        </radialGradient>
    </defs>
    <circle cx="400" cy="225" r="150.0" class="orbit" />
<circle cx="284.64720260885014" cy="129.1160486106443" r="50" fill="#e34c26" class="planet" />
<text x="299.64720260885014" y="134.1160486106443" class="text" fill="white">CIRCLE13</text>
<circle cx="400" cy="225" r="240.0" class="orbit" />
<circle cx="226.550138730401" cy="59.12310098884515" r="50" fill="#f1e05a" class="planet" />
<text x="241.550138730401" y="64.12310098884515" class="text" fill="white">REDSHIFT</text>
<circle cx="400" cy="225" r="330.0" class="orbit" />
<circle cx="405.58196123778345" cy="-104.95278709042583" r="50" fill="#e34c26" class="planet" />
<text x="420.58196123778345" y="-99.95278709042583" class="text" fill="white">ALVRYN-AI</text>
<circle cx="400" cy="225" r="415.422" class="orbit" />
<circle cx="665.9557855124025" cy="-94.12843533048095" r="46.948" fill="#f1e05a" class="planet" />
<text x="680.9557855124025" y="-89.12843533048095" class="text" fill="white">DRIFT-CIRCLE13</text>
<circle cx="400" cy="225" r="461.8095" class="orbit" />
<circle cx="222.25905174279225" cy="651.2348760987053" r="20.925" fill="#2b7489" class="planet" />
<text x="237.25905174279225" y="656.2348760987053" class="text" fill="white">DSATM-EXAM-SYSTEM-</text>
<circle cx="400" cy="225" r="504.87" class="orbit" />
<circle cx="888.3230583301887" cy="353.1963634548622" r="18.707" fill="#8b949e" class="planet" />
<text x="903.3230583301887" y="358.1963634548622" class="text" fill="white">NBHARATH1306</text>
<circle cx="400" cy="225" r="547.1025" class="orbit" />
<circle cx="770.8597916746515" cy="627.2240177131198" r="18.155" fill="#e34c26" class="planet" />
<text x="785.8597916746515" y="632.2240177131198" class="text" fill="white">WEBSITE-EQUDATOR-TRADING-PLATFORM</text>
<circle cx="400" cy="225" r="577.935" class="orbit" />
<circle cx="937.4217056516652" cy="437.57181026527223" r="10.555" fill="#8b949e" class="planet" />
<text x="952.4217056516652" y="442.57181026527223" class="text" fill="white">FLASK</text>
<circle cx="400" cy="225" r="608.208" class="orbit" />
<circle cx="-181.17302752435035" cy="404.3178277310449" r="10.182" fill="#8b949e" class="planet" />
<text x="-166.17302752435035" y="409.3178277310449" class="text" fill="white">HCF-INTERNSHIP</text>
<circle cx="400" cy="225" r="637.077" class="orbit" />
<circle cx="408.3068347821852" cy="-412.0228413682679" r="9.246" fill="#8b949e" class="planet" />

    <text x="400" y="40" text-anchor="middle" class="title">SYSTEM SINGULARITY</text>
    </svg>