<svg width="800" height="450" xmlns="http://www.w3.org/2000/svg">
    <style>
        .orbit { fill: none; stroke: #30363d; stroke-width: 1; opacity: 0.5; }
        .planet { filter: drop-shadow(0 0 5px rgba(255,255,255,0.3)); }
        .text { font-family: 'Courier New', monospace; fill: #8b949e; font-size: 10px; }
        .title { font-family: sans-serif; fill: white; font-weight: bold; font-size: 24px; letter-spacing: 4px; }
        .hud-line { stroke: #00ffff; stroke-width: 1; opacity: 0.3; }
        
        /* ANIMATIONS */
        @keyframes pulse { 0% { r: 25; opacity: 0.8; } 50% { r: 30; opacity: 0.4; } 100% { r: 25; opacity: 0.8; } }
        .sun { animation: pulse 4s infinite; }
    </style>
    
    <rect width="100%" height="100%" fill="#0d1117" />
    
    <line x1="50" y1="50" x2="50" y2="400" class="hud-line" />
    <line x1="50" y1="400" x2="750" y2="400" class="hud-line" />
    <text x="60" y="390" class="text">SYS_TIME: 2026.05.26 :: 0212</text>
    <text x="60" y="375" class="text">SECTOR: N_BHARATH_PRIME</text>
    
    <circle cx="400" cy="225" r="25" fill="url(#grad1)" class="sun" />
    <defs>
        <radialGradient id="grad1" cx="50%" cy="50%" r="50%" fx="50%" fy="50%">
            <stop offset="0%" style="stop-color:white;stop-opacity:1" />
            <stop offset="100%" style="stop-color:#00ffff;stop-opacity:1" />
        </radialGradient>
    </defs>
    <circle cx="400" cy="225" r="150.0" class="orbit" />
<circle cx="549.7543145957324" cy="233.58168165119304" r="50" fill="#e34c26" class="planet" />
<text x="564.7543145957324" y="238.58168165119304" class="text" fill="white">CIRCLE13</text>
<circle cx="400" cy="225" r="240.0" class="orbit" />
<circle cx="212.6984551618251" cy="74.93957450002631" r="50" fill="#f1e05a" class="planet" />
<text x="227.6984551618251" y="79.93957450002631" class="text" fill="white">REDSHIFT</text>
<circle cx="400" cy="225" r="330.0" class="orbit" />
<circle cx="315.7327139915507" cy="-94.05959397700332" r="50" fill="#e34c26" class="planet" />
<text x="330.7327139915507" y="-89.05959397700332" class="text" fill="white">ALVRYN-AI</text>
<circle cx="400" cy="225" r="415.422" class="orbit" />
<circle cx="443.5236123529118" cy="638.1357322379092" r="46.948" fill="#f1e05a" class="planet" />
<text x="458.5236123529118" y="643.1357322379092" class="text" fill="white">DRIFT-CIRCLE13</text>
<circle cx="400" cy="225" r="461.8095" class="orbit" />
<circle cx="860.5499008415287" cy="259.0852332412157" r="20.925" fill="#2b7489" class="planet" />
<text x="875.5499008415287" y="264.0852332412157" class="text" fill="white">DSATM-EXAM-SYSTEM-</text>
<circle cx="400" cy="225" r="504.915" class="orbit" />
<circle cx="628.8139347303955" cy="675.0925910278843" r="18.737" fill="#8b949e" class="planet" />
<text x="643.8139347303955" y="680.0925910278843" class="text" fill="white">NBHARATH1306</text>
<circle cx="400" cy="225" r="547.1475" class="orbit" />
<circle cx="253.05476618340947" cy="-302.0459989553451" r="18.155" fill="#e34c26" class="planet" />
<text x="268.05476618340947" y="-297.0459989553451" class="text" fill="white">WEBSITE-EQUDATOR-TRADING-PLATFORM</text>
<circle cx="400" cy="225" r="577.98" class="orbit" />
<circle cx="-159.16138827848624" cy="78.71458630992652" r="10.555" fill="#8b949e" class="planet" />
<text x="-144.16138827848624" y="83.71458630992652" class="text" fill="white">FLASK</text>
<circle cx="400" cy="225" r="608.253" class="orbit" />
<circle cx="-146.5498038643891" cy="-41.93636677080525" r="10.182" fill="#8b949e" class="planet" />
<text x="-131.5498038643891" y="-36.93636677080525" class="text" fill="white">HCF-INTERNSHIP</text>
<circle cx="400" cy="225" r="637.1220000000001" class="orbit" />
<circle cx="561.8540390321817" cy="-391.22050674492243" r="9.246" fill="#8b949e" class="planet" />

    <text x="400" y="40" text-anchor="middle" class="title">SYSTEM SINGULARITY</text>
    </svg>