<svg width="800" height="450" xmlns="http://www.w3.org/2000/svg">
    <style>
        .orbit { fill: none; stroke: #30363d; stroke-width: 1; opacity: 0.5; }
        .planet { filter: drop-shadow(0 0 5px rgba(255,255,255,0.3)); }
        .text { font-family: 'Courier New', monospace; fill: #8b949e; font-size: 10px; }
        .title { font-family: sans-serif; fill: white; font-weight: bold; font-size: 24px; letter-spacing: 4px; }
        .hud-line { stroke: #00ffff; stroke-width: 1; opacity: 0.3; }
        
        /* ANIMATIONS */
        @keyframes pulse { 0% { r: 25; opacity: 0.8; } 50% { r: 30; opacity: 0.4; } 100% { r: 25; opacity: 0.8; } }
        .sun { animation: pulse 4s infinite; }
    </style>
    
    <rect width="100%" height="100%" fill="#0d1117" />
    
    <line x1="50" y1="50" x2="50" y2="400" class="hud-line" />
    <line x1="50" y1="400" x2="750" y2="400" class="hud-line" />
    <text x="60" y="390" class="text">SYS_TIME: 2026.03.04 :: 0111</text>
    <text x="60" y="375" class="text">SECTOR: N_BHARATH_PRIME</text>
    
    <circle cx="400" cy="225" r="25" fill="url(#grad1)" class="sun" />
    <defs>
        <radialGradient id="grad1" cx="50%" cy="50%" r="50%" fx="50%" fy="50%">
            <stop offset="0%" style="stop-color:white;stop-opacity:1" />
            <stop offset="100%" style="stop-color:#00ffff;stop-opacity:1" />
        </radialGradient>
    </defs>
    <circle cx="400" cy="225" r="150.0" class="orbit" />
<circle cx="493.15305357348524" cy="107.4308347825188" r="50" fill="#f1e05a" class="planet" />
<text x="508.15305357348524" y="112.4308347825188" class="text" fill="white">REDSHIFT</text>
<circle cx="400" cy="225" r="240.0" class="orbit" />
<circle cx="182.9688435885695" cy="327.4571966565414" r="50" fill="#e34c26" class="planet" />
<text x="197.9688435885695" y="332.4571966565414" class="text" fill="white">CIRCLE-13</text>
<circle cx="400" cy="225" r="330.0" class="orbit" />
<circle cx="306.8367635754234" cy="541.576391063671" r="50" fill="#e34c26" class="planet" />
<text x="321.8367635754234" y="546.576391063671" class="text" fill="white">ALVRYN-AI</text>
<circle cx="400" cy="225" r="415.422" class="orbit" />
<circle cx="436.89182724642546" cy="-188.7806558630066" r="46.948" fill="#f1e05a" class="planet" />
<text x="451.89182724642546" y="-183.7806558630066" class="text" fill="white">DRIFT-CIRCLE13</text>
<circle cx="400" cy="225" r="461.8095" class="orbit" />
<circle cx="719.3705277239435" cy="558.572301475377" r="20.925" fill="#2b7489" class="planet" />
<text x="734.3705277239435" y="563.572301475377" class="text" fill="white">DSATM-EXAM-SYSTEM-</text>
<circle cx="400" cy="225" r="504.8385" class="orbit" />
<circle cx="904.7940227412528" cy="218.29882943407756" r="18.686" fill="#8b949e" class="planet" />
<text x="919.7940227412528" y="223.29882943407756" class="text" fill="white">NBHARATH1306</text>
<circle cx="400" cy="225" r="547.071" class="orbit" />
<circle cx="-66.99234407771382" cy="509.9646111604074" r="18.155" fill="#e34c26" class="planet" />
<text x="-51.992344077713824" y="514.9646111604075" class="text" fill="white">WEBSITE-EQUDATOR-TRADING-PLATFORM</text>
<circle cx="400" cy="225" r="577.9035" class="orbit" />
<circle cx="-127.84843382682061" cy="-10.262589926283283" r="10.555" fill="#8b949e" class="planet" />
<text x="-112.84843382682061" y="-5.262589926283283" class="text" fill="white">FLASK</text>
<circle cx="400" cy="225" r="608.1765" class="orbit" />
<circle cx="-136.3899059220431" cy="511.643548640453" r="10.182" fill="#8b949e" class="planet" />
<text x="-121.38990592204311" y="516.643548640453" class="text" fill="white">HCF-INTERNSHIP</text>
<circle cx="400" cy="225" r="637.0455000000001" class="orbit" />
<circle cx="748.5499942035267" cy="758.2352863520678" r="9.246" fill="#8b949e" class="planet" />

    <text x="400" y="40" text-anchor="middle" class="title">SYSTEM SINGULARITY</text>
    </svg>