<svg width="800" height="450" xmlns="http://www.w3.org/2000/svg">
    <style>
        .orbit { fill: none; stroke: #30363d; stroke-width: 1; opacity: 0.5; }
        .planet { filter: drop-shadow(0 0 5px rgba(255,255,255,0.3)); }
        .text { font-family: 'Courier New', monospace; fill: #8b949e; font-size: 10px; }
        .title { font-family: sans-serif; fill: white; font-weight: bold; font-size: 24px; letter-spacing: 4px; }
        .hud-line { stroke: #00ffff; stroke-width: 1; opacity: 0.3; }
        
        /* ANIMATIONS */
        @keyframes pulse { 0% { r: 25; opacity: 0.8; } 50% { r: 30; opacity: 0.4; } 100% { r: 25; opacity: 0.8; } }
        .sun { animation: pulse 4s infinite; }
    </style>
    
    <rect width="100%" height="100%" fill="#0d1117" />
    
    <line x1="50" y1="50" x2="50" y2="400" class="hud-line" />
    <line x1="50" y1="400" x2="750" y2="400" class="hud-line" />
    <text x="60" y="390" class="text">SYS_TIME: 2026.06.23 :: 0212</text>
    <text x="60" y="375" class="text">SECTOR: N_BHARATH_PRIME</text>
    
    <circle cx="400" cy="225" r="25" fill="url(#grad1)" class="sun" />
    <defs>
        <radialGradient id="grad1" cx="50%" cy="50%" r="50%" fx="50%" fy="50%">
            <stop offset="0%" style="stop-color:white;stop-opacity:1" />
            <stop offset="100%" style="stop-color:#00ffff;stop-opacity:1" />
        </radialGradient>
    </defs>
    <circle cx="400" cy="225" r="150.0" class="orbit" />
<circle cx="473.6500759199391" cy="94.32610698005814" r="50" fill="#e34c26" class="planet" />
<text x="488.6500759199391" y="99.32610698005814" class="text" fill="white">CIRCLE13</text>
<circle cx="400" cy="225" r="240.0" class="orbit" />
<circle cx="611.2846416914074" cy="111.16327400467986" r="50" fill="#f1e05a" class="planet" />
<text x="626.2846416914074" y="116.16327400467986" class="text" fill="white">REDSHIFT</text>
<circle cx="400" cy="225" r="330.0" class="orbit" />
<circle cx="100.54757114114636" cy="86.33406023636087" r="50" fill="#e34c26" class="planet" />
<text x="115.54757114114636" y="91.33406023636087" class="text" fill="white">ALVRYN-AI</text>
<circle cx="400" cy="225" r="415.422" class="orbit" />
<circle cx="811.6600218381111" cy="280.78050290420356" r="46.948" fill="#f1e05a" class="planet" />
<text x="826.6600218381111" y="285.78050290420356" class="text" fill="white">DRIFT-CIRCLE13</text>
<circle cx="400" cy="225" r="461.8095" class="orbit" />
<circle cx="846.0707699451787" cy="105.46388624869282" r="20.925" fill="#2b7489" class="planet" />
<text x="861.0707699451787" y="110.46388624869282" class="text" fill="white">DSATM-EXAM-SYSTEM-</text>
<circle cx="400" cy="225" r="504.9705" class="orbit" />
<circle cx="211.87584495483705" cy="693.619790617931" r="18.774" fill="#8b949e" class="planet" />
<text x="226.87584495483705" y="698.619790617931" class="text" fill="white">NBHARATH1306</text>
<circle cx="400" cy="225" r="547.203" class="orbit" />
<circle cx="891.2424370326075" cy="466.06428866023384" r="18.155" fill="#e34c26" class="planet" />
<text x="906.2424370326075" y="471.06428866023384" class="text" fill="white">WEBSITE-EQUDATOR-TRADING-PLATFORM</text>
<circle cx="400" cy="225" r="578.0355" class="orbit" />
<circle cx="603.7025827995112" cy="765.9531375461818" r="10.555" fill="#8b949e" class="planet" />
<text x="618.7025827995112" y="770.9531375461818" class="text" fill="white">FLASK</text>
<circle cx="400" cy="225" r="608.3085" class="orbit" />
<circle cx="-207.14454706956838" cy="187.387101468531" r="10.182" fill="#8b949e" class="planet" />
<text x="-192.14454706956838" y="192.387101468531" class="text" fill="white">HCF-INTERNSHIP</text>
<circle cx="400" cy="225" r="637.1775" class="orbit" />
<circle cx="884.3203494790002" cy="639.0398115964081" r="9.246" fill="#8b949e" class="planet" />

    <text x="400" y="40" text-anchor="middle" class="title">SYSTEM SINGULARITY</text>
    </svg>