<svg width="800" height="450" xmlns="http://www.w3.org/2000/svg">
    <style>
        .orbit { fill: none; stroke: #30363d; stroke-width: 1; opacity: 0.5; }
        .planet { filter: drop-shadow(0 0 5px rgba(255,255,255,0.3)); }
        .text { font-family: 'Courier New', monospace; fill: #8b949e; font-size: 10px; }
        .title { font-family: sans-serif; fill: white; font-weight: bold; font-size: 24px; letter-spacing: 4px; }
        .hud-line { stroke: #00ffff; stroke-width: 1; opacity: 0.3; }
        
        /* ANIMATIONS */
        @keyframes pulse { 0% { r: 25; opacity: 0.8; } 50% { r: 30; opacity: 0.4; } 100% { r: 25; opacity: 0.8; } }
        .sun { animation: pulse 4s infinite; }
    </style>
    
    <rect width="100%" height="100%" fill="#0d1117" />
    
    <line x1="50" y1="50" x2="50" y2="400" class="hud-line" />
    <line x1="50" y1="400" x2="750" y2="400" class="hud-line" />
    <text x="60" y="390" class="text">SYS_TIME: 2026.04.14 :: 0129</text>
    <text x="60" y="375" class="text">SECTOR: N_BHARATH_PRIME</text>
    
    <circle cx="400" cy="225" r="25" fill="url(#grad1)" class="sun" />
    <defs>
        <radialGradient id="grad1" cx="50%" cy="50%" r="50%" fx="50%" fy="50%">
            <stop offset="0%" style="stop-color:white;stop-opacity:1" />
            <stop offset="100%" style="stop-color:#00ffff;stop-opacity:1" />
        </radialGradient>
    </defs>
    <circle cx="400" cy="225" r="150.0" class="orbit" />
<circle cx="323.1002287114597" cy="96.21170404198139" r="50" fill="#e34c26" class="planet" />
<text x="338.1002287114597" y="101.21170404198139" class="text" fill="white">CIRCLE13</text>
<circle cx="400" cy="225" r="240.0" class="orbit" />
<circle cx="172.15876345406258" cy="300.4212896284477" r="50" fill="#f1e05a" class="planet" />
<text x="187.15876345406258" y="305.4212896284477" class="text" fill="white">REDSHIFT</text>
<circle cx="400" cy="225" r="330.0" class="orbit" />
<circle cx="468.11455298489494" cy="-97.89380246710829" r="50" fill="#e34c26" class="planet" />
<text x="483.11455298489494" y="-92.89380246710829" class="text" fill="white">ALVRYN-AI</text>
<circle cx="400" cy="225" r="415.422" class="orbit" />
<circle cx="111.00321287172659" cy="-73.42301371297663" r="46.948" fill="#f1e05a" class="planet" />
<text x="126.00321287172659" y="-68.42301371297663" class="text" fill="white">DRIFT-CIRCLE13</text>
<circle cx="400" cy="225" r="461.8095" class="orbit" />
<circle cx="614.4491483785584" cy="633.9982604485758" r="20.925" fill="#2b7489" class="planet" />
<text x="629.4491483785584" y="638.9982604485758" class="text" fill="white">DSATM-EXAM-SYSTEM-</text>
<circle cx="400" cy="225" r="504.8745" class="orbit" />
<circle cx="893.4419625341495" cy="118.16699779236264" r="18.71" fill="#8b949e" class="planet" />
<text x="908.4419625341495" y="123.16699779236264" class="text" fill="white">NBHARATH1306</text>
<circle cx="400" cy="225" r="547.107" class="orbit" />
<circle cx="754.4775546498727" cy="-191.73940622221755" r="18.155" fill="#e34c26" class="planet" />
<text x="769.4775546498727" y="-186.73940622221755" class="text" fill="white">WEBSITE-EQUDATOR-TRADING-PLATFORM</text>
<circle cx="400" cy="225" r="577.9395" class="orbit" />
<circle cx="372.63075362484443" cy="-352.2910791040392" r="10.555" fill="#8b949e" class="planet" />
<text x="387.63075362484443" y="-347.2910791040392" class="text" fill="white">FLASK</text>
<circle cx="400" cy="225" r="608.2125" class="orbit" />
<circle cx="-175.62172162842694" cy="421.42321335772846" r="10.182" fill="#8b949e" class="planet" />
<text x="-160.62172162842694" y="426.42321335772846" class="text" fill="white">HCF-INTERNSHIP</text>
<circle cx="400" cy="225" r="637.0815" class="orbit" />
<circle cx="389.09852256041216" cy="861.9882223651267" r="9.246" fill="#8b949e" class="planet" />

    <text x="400" y="40" text-anchor="middle" class="title">SYSTEM SINGULARITY</text>
    </svg>