<svg width="800" height="450" xmlns="http://www.w3.org/2000/svg">
    <style>
        .orbit { fill: none; stroke: #30363d; stroke-width: 1; opacity: 0.5; }
        .planet { filter: drop-shadow(0 0 5px rgba(255,255,255,0.3)); }
        .text { font-family: 'Courier New', monospace; fill: #8b949e; font-size: 10px; }
        .title { font-family: sans-serif; fill: white; font-weight: bold; font-size: 24px; letter-spacing: 4px; }
        .hud-line { stroke: #00ffff; stroke-width: 1; opacity: 0.3; }
        
        /* ANIMATIONS */
        @keyframes pulse { 0% { r: 25; opacity: 0.8; } 50% { r: 30; opacity: 0.4; } 100% { r: 25; opacity: 0.8; } }
        .sun { animation: pulse 4s infinite; }
    </style>
    
    <rect width="100%" height="100%" fill="#0d1117" />
    
    <line x1="50" y1="50" x2="50" y2="400" class="hud-line" />
    <line x1="50" y1="400" x2="750" y2="400" class="hud-line" />
    <text x="60" y="390" class="text">SYS_TIME: 2026.02.24 :: 0113</text>
    <text x="60" y="375" class="text">SECTOR: N_BHARATH_PRIME</text>
    
    <circle cx="400" cy="225" r="25" fill="url(#grad1)" class="sun" />
    <defs>
        <radialGradient id="grad1" cx="50%" cy="50%" r="50%" fx="50%" fy="50%">
            <stop offset="0%" style="stop-color:white;stop-opacity:1" />
            <stop offset="100%" style="stop-color:#00ffff;stop-opacity:1" />
        </radialGradient>
    </defs>
    <circle cx="400" cy="225" r="150.0" class="orbit" />
<circle cx="327.8364363109359" cy="93.499353325946" r="50" fill="#f1e05a" class="planet" />
<text x="342.8364363109359" y="98.499353325946" class="text" fill="white">REDSHIFT</text>
<circle cx="400" cy="225" r="240.0" class="orbit" />
<circle cx="235.29536387086642" cy="399.56340635302035" r="50" fill="#e34c26" class="planet" />
<text x="250.29536387086642" y="404.56340635302035" class="text" fill="white">CIRCLE-13</text>
<circle cx="400" cy="225" r="330.0" class="orbit" />
<circle cx="354.56420886998706" cy="-101.85713834088102" r="50" fill="#e34c26" class="planet" />
<text x="369.56420886998706" y="-96.85713834088102" class="text" fill="white">ALVRYN-AI</text>
<circle cx="400" cy="225" r="415.422" class="orbit" />
<circle cx="505.5297620060609" cy="626.7946084941212" r="46.948" fill="#f1e05a" class="planet" />
<text x="520.5297620060609" y="631.7946084941212" class="text" fill="white">DRIFT-CIRCLE13</text>
<circle cx="400" cy="225" r="461.8095" class="orbit" />
<circle cx="721.4387815401851" cy="-106.57974005088295" r="20.925" fill="#2b7489" class="planet" />
<text x="736.4387815401851" y="-101.57974005088295" class="text" fill="white">DSATM-EXAM-SYSTEM-</text>
<circle cx="400" cy="225" r="504.822" class="orbit" />
<circle cx="769.6628215564323" cy="-118.79448809272282" r="18.675" fill="#8b949e" class="planet" />
<text x="784.6628215564323" y="-113.79448809272282" class="text" fill="white">NBHARATH1306</text>
<circle cx="400" cy="225" r="547.0545" class="orbit" />
<circle cx="946.5813254354857" cy="202.25179885270913" r="18.155" fill="#e34c26" class="planet" />
<text x="961.5813254354857" y="207.25179885270913" class="text" fill="white">WEBSITE-EQUDATOR-TRADING-PLATFORM</text>
<circle cx="400" cy="225" r="577.887" class="orbit" />
<circle cx="783.7503567649351" cy="-207.07528100064337" r="10.555" fill="#8b949e" class="planet" />
<text x="798.7503567649351" y="-202.07528100064337" class="text" fill="white">FLASK</text>
<circle cx="400" cy="225" r="608.16" class="orbit" />
<circle cx="239.9203494226903" cy="811.7138067840626" r="10.182" fill="#8b949e" class="planet" />
<text x="254.9203494226903" y="816.7138067840626" class="text" fill="white">HCF-INTERNSHIP</text>
<circle cx="400" cy="225" r="637.029" class="orbit" />
<circle cx="1030.5125320463167" cy="315.8839577348099" r="9.246" fill="#8b949e" class="planet" />

    <text x="400" y="40" text-anchor="middle" class="title">SYSTEM SINGULARITY</text>
    </svg>