<svg width="800" height="450" xmlns="http://www.w3.org/2000/svg">
    <style>
        .orbit { fill: none; stroke: #30363d; stroke-width: 1; opacity: 0.5; }
        .planet { filter: drop-shadow(0 0 5px rgba(255,255,255,0.3)); }
        .text { font-family: 'Courier New', monospace; fill: #8b949e; font-size: 10px; }
        .title { font-family: sans-serif; fill: white; font-weight: bold; font-size: 24px; letter-spacing: 4px; }
        .hud-line { stroke: #00ffff; stroke-width: 1; opacity: 0.3; }
        
        /* ANIMATIONS */
        @keyframes pulse { 0% { r: 25; opacity: 0.8; } 50% { r: 30; opacity: 0.4; } 100% { r: 25; opacity: 0.8; } }
        .sun { animation: pulse 4s infinite; }
    </style>
    
    <rect width="100%" height="100%" fill="#0d1117" />
    
    <line x1="50" y1="50" x2="50" y2="400" class="hud-line" />
    <line x1="50" y1="400" x2="750" y2="400" class="hud-line" />
    <text x="60" y="390" class="text">SYS_TIME: 2026.02.12 :: 0116</text>
    <text x="60" y="375" class="text">SECTOR: N_BHARATH_PRIME</text>
    
    <circle cx="400" cy="225" r="25" fill="url(#grad1)" class="sun" />
    <defs>
        <radialGradient id="grad1" cx="50%" cy="50%" r="50%" fx="50%" fy="50%">
            <stop offset="0%" style="stop-color:white;stop-opacity:1" />
            <stop offset="100%" style="stop-color:#00ffff;stop-opacity:1" />
        </radialGradient>
    </defs>
    <circle cx="400" cy="225" r="150.0" class="orbit" />
<circle cx="467.8857293552766" cy="91.24078442999851" r="50" fill="#f1e05a" class="planet" />
<text x="482.8857293552766" y="96.24078442999851" class="text" fill="white">REDSHIFT</text>
<circle cx="400" cy="225" r="240.0" class="orbit" />
<circle cx="228.4702141630435" cy="392.8616471107317" r="50" fill="#e34c26" class="planet" />
<text x="243.4702141630435" y="397.8616471107317" class="text" fill="white">CIRCLE-13</text>
<circle cx="400" cy="225" r="330.0" class="orbit" />
<circle cx="284.4854059274326" cy="-84.12194771036559" r="50" fill="#e34c26" class="planet" />
<text x="299.4854059274326" y="-79.12194771036559" class="text" fill="white">ALVRYN-AI</text>
<circle cx="400" cy="225" r="415.422" class="orbit" />
<circle cx="234.40783913328318" cy="605.9916985230668" r="46.948" fill="#f1e05a" class="planet" />
<text x="249.40783913328318" y="610.9916985230668" class="text" fill="white">DRIFT-CIRCLE13</text>
<circle cx="400" cy="225" r="461.8095" class="orbit" />
<circle cx="-60.42684063704462" cy="260.7090844357499" r="20.925" fill="#2b7489" class="planet" />
<text x="-45.42684063704462" y="265.7090844357499" class="text" fill="white">DSATM-EXAM-SYSTEM-</text>
<circle cx="400" cy="225" r="504.798" class="orbit" />
<circle cx="537.9982265706506" cy="-260.569264129594" r="18.659" fill="#8b949e" class="planet" />
<text x="552.9982265706506" y="-255.569264129594" class="text" fill="white">NBHARATH1306</text>
<circle cx="400" cy="225" r="547.0305" class="orbit" />
<circle cx="552.1212328204349" cy="-300.4536120871576" r="18.155" fill="#e34c26" class="planet" />
<text x="567.1212328204349" y="-295.4536120871576" class="text" fill="white">WEBSITE-EQUDATOR-TRADING-PLATFORM</text>
<circle cx="400" cy="225" r="577.8629999999999" class="orbit" />
<circle cx="663.9927216310232" cy="-289.0364672811113" r="10.555" fill="#8b949e" class="planet" />
<text x="678.9927216310232" y="-284.0364672811113" class="text" fill="white">FLASK</text>
<circle cx="400" cy="225" r="608.136" class="orbit" />
<circle cx="64.68869692627635" cy="732.3418221741645" r="10.182" fill="#8b949e" class="planet" />
<text x="79.68869692627635" y="737.3418221741645" class="text" fill="white">HCF-INTERNSHIP</text>
<circle cx="400" cy="225" r="637.005" class="orbit" />
<circle cx="1036.9293367345608" cy="234.81784252634966" r="9.246" fill="#8b949e" class="planet" />

    <text x="400" y="40" text-anchor="middle" class="title">SYSTEM SINGULARITY</text>
    </svg>