<svg width="800" height="450" xmlns="http://www.w3.org/2000/svg">
    <style>
        .orbit { fill: none; stroke: #30363d; stroke-width: 1; opacity: 0.5; }
        .planet { filter: drop-shadow(0 0 5px rgba(255,255,255,0.3)); }
        .text { font-family: 'Courier New', monospace; fill: #8b949e; font-size: 10px; }
        .title { font-family: sans-serif; fill: white; font-weight: bold; font-size: 24px; letter-spacing: 4px; }
        .hud-line { stroke: #00ffff; stroke-width: 1; opacity: 0.3; }
        
        /* ANIMATIONS */
        @keyframes pulse { 0% { r: 25; opacity: 0.8; } 50% { r: 30; opacity: 0.4; } 100% { r: 25; opacity: 0.8; } }
        .sun { animation: pulse 4s infinite; }
    </style>
    
    <rect width="100%" height="100%" fill="#0d1117" />
    
    <line x1="50" y1="50" x2="50" y2="400" class="hud-line" />
    <line x1="50" y1="400" x2="750" y2="400" class="hud-line" />
    <text x="60" y="390" class="text">SYS_TIME: 2026.02.08 :: 0146</text>
    <text x="60" y="375" class="text">SECTOR: N_BHARATH_PRIME</text>
    
    <circle cx="400" cy="225" r="25" fill="url(#grad1)" class="sun" />
    <defs>
        <radialGradient id="grad1" cx="50%" cy="50%" r="50%" fx="50%" fy="50%">
            <stop offset="0%" style="stop-color:white;stop-opacity:1" />
            <stop offset="100%" style="stop-color:#00ffff;stop-opacity:1" />
        </radialGradient>
    </defs>
    <circle cx="400" cy="225" r="150.0" class="orbit" />
<circle cx="506.94438802487593" cy="330.18031122783754" r="50" fill="#e34c26" class="planet" />
<text x="521.9443880248759" y="335.18031122783754" class="text" fill="white">CIRCLE-13</text>
<circle cx="400" cy="225" r="240.0" class="orbit" />
<circle cx="232.14724565394238" cy="396.5384879799342" r="50" fill="#f1e05a" class="planet" />
<text x="247.14724565394238" y="401.5384879799342" class="text" fill="white">REDSHIFT</text>
<circle cx="400" cy="225" r="330.0" class="orbit" />
<circle cx="234.62169087615632" cy="510.5696322638988" r="50" fill="#e34c26" class="planet" />
<text x="249.62169087615632" y="515.5696322638988" class="text" fill="white">ALVRYN-AI</text>
<circle cx="400" cy="225" r="415.422" class="orbit" />
<circle cx="447.05335057599996" cy="637.7486163315052" r="46.948" fill="#f1e05a" class="planet" />
<text x="462.05335057599996" y="642.7486163315052" class="text" fill="white">DRIFT-CIRCLE13</text>
<circle cx="400" cy="225" r="461.8095" class="orbit" />
<circle cx="316.0765939501296" cy="679.1198918867556" r="20.925" fill="#2b7489" class="planet" />
<text x="331.0765939501296" y="684.1198918867556" class="text" fill="white">DSATM-EXAM-SYSTEM-</text>
<circle cx="400" cy="225" r="504.819" class="orbit" />
<circle cx="-104.65032550626228" cy="238.0488209208166" r="18.673" fill="#8b949e" class="planet" />
<text x="-89.65032550626228" y="243.0488209208166" class="text" fill="white">NBHARATH1306</text>
<circle cx="400" cy="225" r="547.0515" class="orbit" />
<circle cx="935.3289197146416" cy="337.642316069072" r="18.155" fill="#e34c26" class="planet" />
<text x="950.3289197146416" y="342.642316069072" class="text" fill="white">WEBSITE-EQUDATOR-TRADING-PLATFORM</text>
<circle cx="400" cy="225" r="577.884" class="orbit" />
<circle cx="807.6983775687306" cy="-184.5509130545612" r="10.555" fill="#8b949e" class="planet" />
<text x="822.6983775687306" y="-179.5509130545612" class="text" fill="white">FLASK</text>
<circle cx="400" cy="225" r="608.157" class="orbit" />
<circle cx="595.3351260992488" cy="-350.9332645027465" r="10.182" fill="#8b949e" class="planet" />
<text x="610.3351260992488" y="-345.9332645027465" class="text" fill="white">HCF-INTERNSHIP</text>
<circle cx="400" cy="225" r="637.0260000000001" class="orbit" />
<circle cx="71.40543898938483" cy="-320.73596101983344" r="9.246" fill="#8b949e" class="planet" />

    <text x="400" y="40" text-anchor="middle" class="title">SYSTEM SINGULARITY</text>
    </svg>