<svg width="800" height="450" xmlns="http://www.w3.org/2000/svg">
    <style>
        .orbit { fill: none; stroke: #30363d; stroke-width: 1; opacity: 0.5; }
        .planet { filter: drop-shadow(0 0 5px rgba(255,255,255,0.3)); }
        .text { font-family: 'Courier New', monospace; fill: #8b949e; font-size: 10px; }
        .title { font-family: sans-serif; fill: white; font-weight: bold; font-size: 24px; letter-spacing: 4px; }
        .hud-line { stroke: #00ffff; stroke-width: 1; opacity: 0.3; }
        
        /* ANIMATIONS */
        @keyframes pulse { 0% { r: 25; opacity: 0.8; } 50% { r: 30; opacity: 0.4; } 100% { r: 25; opacity: 0.8; } }
        .sun { animation: pulse 4s infinite; }
    </style>
    
    <rect width="100%" height="100%" fill="#0d1117" />
    
    <line x1="50" y1="50" x2="50" y2="400" class="hud-line" />
    <line x1="50" y1="400" x2="750" y2="400" class="hud-line" />
    <text x="60" y="390" class="text">SYS_TIME: 2026.05.08 :: 0205</text>
    <text x="60" y="375" class="text">SECTOR: N_BHARATH_PRIME</text>
    
    <circle cx="400" cy="225" r="25" fill="url(#grad1)" class="sun" />
    <defs>
        <radialGradient id="grad1" cx="50%" cy="50%" r="50%" fx="50%" fy="50%">
            <stop offset="0%" style="stop-color:white;stop-opacity:1" />
            <stop offset="100%" style="stop-color:#00ffff;stop-opacity:1" />
        </radialGradient>
    </defs>
    <circle cx="400" cy="225" r="150.0" class="orbit" />
<circle cx="424.3854318297599" cy="373.00456315423565" r="50" fill="#e34c26" class="planet" />
<text x="439.3854318297599" y="378.00456315423565" class="text" fill="white">CIRCLE13</text>
<circle cx="400" cy="225" r="240.0" class="orbit" />
<circle cx="510.39817219744236" cy="438.1014865632426" r="50" fill="#f1e05a" class="planet" />
<text x="525.3981721974424" y="443.1014865632426" class="text" fill="white">REDSHIFT</text>
<circle cx="400" cy="225" r="330.0" class="orbit" />
<circle cx="225.96611491041526" cy="505.37868471163284" r="50" fill="#e34c26" class="planet" />
<text x="240.96611491041526" y="510.37868471163284" class="text" fill="white">ALVRYN-AI</text>
<circle cx="400" cy="225" r="415.422" class="orbit" />
<circle cx="204.5071661099929" cy="591.5487552586342" r="46.948" fill="#f1e05a" class="planet" />
<text x="219.5071661099929" y="596.5487552586342" class="text" fill="white">DRIFT-CIRCLE13</text>
<circle cx="400" cy="225" r="461.8095" class="orbit" />
<circle cx="150.99743482843706" cy="613.9289611590162" r="20.925" fill="#2b7489" class="planet" />
<text x="165.99743482843706" y="618.9289611590162" class="text" fill="white">DSATM-EXAM-SYSTEM-</text>
<circle cx="400" cy="225" r="504.9225" class="orbit" />
<circle cx="844.5420988963497" cy="464.43486236360434" r="18.742" fill="#8b949e" class="planet" />
<text x="859.5420988963497" y="469.43486236360434" class="text" fill="white">NBHARATH1306</text>
<circle cx="400" cy="225" r="547.155" class="orbit" />
<circle cx="107.18180000964969" cy="687.207849110561" r="18.155" fill="#e34c26" class="planet" />
<text x="122.18180000964969" y="692.207849110561" class="text" fill="white">WEBSITE-EQUDATOR-TRADING-PLATFORM</text>
<circle cx="400" cy="225" r="577.9875" class="orbit" />
<circle cx="245.3954553102494" cy="-331.92637297718704" r="10.555" fill="#8b949e" class="planet" />
<text x="260.3954553102494" y="-326.92637297718704" class="text" fill="white">FLASK</text>
<circle cx="400" cy="225" r="608.2605" class="orbit" />
<circle cx="-195.2331294455496" cy="99.78675201598031" r="10.182" fill="#8b949e" class="planet" />
<text x="-180.2331294455496" y="104.78675201598031" class="text" fill="white">HCF-INTERNSHIP</text>
<circle cx="400" cy="225" r="637.1295" class="orbit" />
<circle cx="812.2510069810671" cy="710.7809249171339" r="9.246" fill="#8b949e" class="planet" />

    <text x="400" y="40" text-anchor="middle" class="title">SYSTEM SINGULARITY</text>
    </svg>