<svg width="800" height="450" xmlns="http://www.w3.org/2000/svg">
    <style>
        .orbit { fill: none; stroke: #30363d; stroke-width: 1; opacity: 0.5; }
        .planet { filter: drop-shadow(0 0 5px rgba(255,255,255,0.3)); }
        .text { font-family: 'Courier New', monospace; fill: #8b949e; font-size: 10px; }
        .title { font-family: sans-serif; fill: white; font-weight: bold; font-size: 24px; letter-spacing: 4px; }
        .hud-line { stroke: #00ffff; stroke-width: 1; opacity: 0.3; }
        
        /* ANIMATIONS */
        @keyframes pulse { 0% { r: 25; opacity: 0.8; } 50% { r: 30; opacity: 0.4; } 100% { r: 25; opacity: 0.8; } }
        .sun { animation: pulse 4s infinite; }
    </style>
    
    <rect width="100%" height="100%" fill="#0d1117" />
    
    <line x1="50" y1="50" x2="50" y2="400" class="hud-line" />
    <line x1="50" y1="400" x2="750" y2="400" class="hud-line" />
    <text x="60" y="390" class="text">SYS_TIME: 2026.04.22 :: 0128</text>
    <text x="60" y="375" class="text">SECTOR: N_BHARATH_PRIME</text>
    
    <circle cx="400" cy="225" r="25" fill="url(#grad1)" class="sun" />
    <defs>
        <radialGradient id="grad1" cx="50%" cy="50%" r="50%" fx="50%" fy="50%">
            <stop offset="0%" style="stop-color:white;stop-opacity:1" />
            <stop offset="100%" style="stop-color:#00ffff;stop-opacity:1" />
        </radialGradient>
    </defs>
    <circle cx="400" cy="225" r="150.0" class="orbit" />
<circle cx="303.4795411124597" cy="339.82073426057957" r="50" fill="#e34c26" class="planet" />
<text x="318.4795411124597" y="344.82073426057957" class="text" fill="white">CIRCLE13</text>
<circle cx="400" cy="225" r="240.0" class="orbit" />
<circle cx="574.2598923060871" cy="390.02572506573307" r="50" fill="#f1e05a" class="planet" />
<text x="589.2598923060871" y="395.02572506573307" class="text" fill="white">REDSHIFT</text>
<circle cx="400" cy="225" r="330.0" class="orbit" />
<circle cx="84.57397067555655" cy="321.98670024604064" r="50" fill="#e34c26" class="planet" />
<text x="99.57397067555655" y="326.98670024604064" class="text" fill="white">ALVRYN-AI</text>
<circle cx="400" cy="225" r="415.422" class="orbit" />
<circle cx="244.13765397835186" cy="610.0744956195203" r="46.948" fill="#f1e05a" class="planet" />
<text x="259.13765397835186" y="615.0744956195203" class="text" fill="white">DRIFT-CIRCLE13</text>
<circle cx="400" cy="225" r="461.8095" class="orbit" />
<circle cx="215.58555051710155" cy="-198.39027517430003" r="20.925" fill="#2b7489" class="planet" />
<text x="230.58555051710155" y="-193.39027517430003" class="text" fill="white">DSATM-EXAM-SYSTEM-</text>
<circle cx="400" cy="225" r="504.891" class="orbit" />
<circle cx="182.40104881649359" cy="-230.59369873258566" r="18.721" fill="#8b949e" class="planet" />
<text x="197.40104881649359" y="-225.59369873258566" class="text" fill="white">NBHARATH1306</text>
<circle cx="400" cy="225" r="547.1235" class="orbit" />
<circle cx="-138.9993621639171" cy="131.06485301474993" r="18.155" fill="#e34c26" class="planet" />
<text x="-123.99936216391711" y="136.06485301474993" class="text" fill="white">WEBSITE-EQUDATOR-TRADING-PLATFORM</text>
<circle cx="400" cy="225" r="577.956" class="orbit" />
<circle cx="814.9258710602146" cy="-177.3302865320012" r="10.555" fill="#8b949e" class="planet" />
<text x="829.9258710602146" y="-172.3302865320012" class="text" fill="white">FLASK</text>
<circle cx="400" cy="225" r="608.229" class="orbit" />
<circle cx="-204.14739218062232" cy="295.3451843579461" r="10.182" fill="#8b949e" class="planet" />
<text x="-189.14739218062232" y="300.3451843579461" class="text" fill="white">HCF-INTERNSHIP</text>
<circle cx="400" cy="225" r="637.0980000000001" class="orbit" />
<circle cx="-54.96874155433545" cy="-220.9790418982314" r="9.246" fill="#8b949e" class="planet" />

    <text x="400" y="40" text-anchor="middle" class="title">SYSTEM SINGULARITY</text>
    </svg>