<svg width="800" height="450" xmlns="http://www.w3.org/2000/svg">
    <style>
        .orbit { fill: none; stroke: #30363d; stroke-width: 1; opacity: 0.5; }
        .planet { filter: drop-shadow(0 0 5px rgba(255,255,255,0.3)); }
        .text { font-family: 'Courier New', monospace; fill: #8b949e; font-size: 10px; }
        .title { font-family: sans-serif; fill: white; font-weight: bold; font-size: 24px; letter-spacing: 4px; }
        .hud-line { stroke: #00ffff; stroke-width: 1; opacity: 0.3; }
        
        /* ANIMATIONS */
        @keyframes pulse { 0% { r: 25; opacity: 0.8; } 50% { r: 30; opacity: 0.4; } 100% { r: 25; opacity: 0.8; } }
        .sun { animation: pulse 4s infinite; }
    </style>
    
    <rect width="100%" height="100%" fill="#0d1117" />
    
    <line x1="50" y1="50" x2="50" y2="400" class="hud-line" />
    <line x1="50" y1="400" x2="750" y2="400" class="hud-line" />
    <text x="60" y="390" class="text">SYS_TIME: 2026.04.25 :: 0125</text>
    <text x="60" y="375" class="text">SECTOR: N_BHARATH_PRIME</text>
    
    <circle cx="400" cy="225" r="25" fill="url(#grad1)" class="sun" />
    <defs>
        <radialGradient id="grad1" cx="50%" cy="50%" r="50%" fx="50%" fy="50%">
            <stop offset="0%" style="stop-color:white;stop-opacity:1" />
            <stop offset="100%" style="stop-color:#00ffff;stop-opacity:1" />
        </radialGradient>
    </defs>
    <circle cx="400" cy="225" r="150.0" class="orbit" />
<circle cx="250.2776797378306" cy="215.8771268060779" r="50" fill="#e34c26" class="planet" />
<text x="265.27767973783057" y="220.8771268060779" class="text" fill="white">CIRCLE13</text>
<circle cx="400" cy="225" r="240.0" class="orbit" />
<circle cx="164.240290994388" cy="269.9150265455689" r="50" fill="#f1e05a" class="planet" />
<text x="179.240290994388" y="274.9150265455689" class="text" fill="white">REDSHIFT</text>
<circle cx="400" cy="225" r="330.0" class="orbit" />
<circle cx="716.5431142355206" cy="131.72376063499271" r="50" fill="#e34c26" class="planet" />
<text x="731.5431142355206" y="136.72376063499271" class="text" fill="white">ALVRYN-AI</text>
<circle cx="400" cy="225" r="415.422" class="orbit" />
<circle cx="694.9303511122079" cy="517.5602947715731" r="46.948" fill="#f1e05a" class="planet" />
<text x="709.9303511122079" y="522.5602947715731" class="text" fill="white">DRIFT-CIRCLE13</text>
<circle cx="400" cy="225" r="461.8095" class="orbit" />
<circle cx="754.8062271739789" cy="-70.60202206483115" r="20.925" fill="#2b7489" class="planet" />
<text x="769.8062271739789" y="-65.60202206483115" class="text" fill="white">DSATM-EXAM-SYSTEM-</text>
<circle cx="400" cy="225" r="504.89700000000005" class="orbit" />
<circle cx="750.6067631402211" cy="588.3123700747567" r="18.725" fill="#8b949e" class="planet" />
<text x="765.6067631402211" y="593.3123700747567" class="text" fill="white">NBHARATH1306</text>
<circle cx="400" cy="225" r="547.1295" class="orbit" />
<circle cx="197.08217806379776" cy="733.1092867788559" r="18.155" fill="#e34c26" class="planet" />
<text x="212.08217806379776" y="738.1092867788559" class="text" fill="white">WEBSITE-EQUDATOR-TRADING-PLATFORM</text>
<circle cx="400" cy="225" r="577.962" class="orbit" />
<circle cx="550.7326018378017" cy="-332.96035359800135" r="10.555" fill="#8b949e" class="planet" />
<text x="565.7326018378017" y="-327.96035359800135" class="text" fill="white">FLASK</text>
<circle cx="400" cy="225" r="608.235" class="orbit" />
<circle cx="199.80320475277736" cy="799.3440244293847" r="10.182" fill="#8b949e" class="planet" />
<text x="214.80320475277736" y="804.3440244293847" class="text" fill="white">HCF-INTERNSHIP</text>
<circle cx="400" cy="225" r="637.104" class="orbit" />
<circle cx="-228.39631815444602" cy="120.02584057999672" r="9.246" fill="#8b949e" class="planet" />

    <text x="400" y="40" text-anchor="middle" class="title">SYSTEM SINGULARITY</text>
    </svg>