<svg width="800" height="450" xmlns="http://www.w3.org/2000/svg">
    <style>
        .orbit { fill: none; stroke: #30363d; stroke-width: 1; opacity: 0.5; }
        .planet { filter: drop-shadow(0 0 5px rgba(255,255,255,0.3)); }
        .text { font-family: 'Courier New', monospace; fill: #8b949e; font-size: 10px; }
        .title { font-family: sans-serif; fill: white; font-weight: bold; font-size: 24px; letter-spacing: 4px; }
        .hud-line { stroke: #00ffff; stroke-width: 1; opacity: 0.3; }
        
        /* ANIMATIONS */
        @keyframes pulse { 0% { r: 25; opacity: 0.8; } 50% { r: 30; opacity: 0.4; } 100% { r: 25; opacity: 0.8; } }
        .sun { animation: pulse 4s infinite; }
    </style>
    
    <rect width="100%" height="100%" fill="#0d1117" />
    
    <line x1="50" y1="50" x2="50" y2="400" class="hud-line" />
    <line x1="50" y1="400" x2="750" y2="400" class="hud-line" />
    <text x="60" y="390" class="text">SYS_TIME: 2026.03.08 :: 0114</text>
    <text x="60" y="375" class="text">SECTOR: N_BHARATH_PRIME</text>
    
    <circle cx="400" cy="225" r="25" fill="url(#grad1)" class="sun" />
    <defs>
        <radialGradient id="grad1" cx="50%" cy="50%" r="50%" fx="50%" fy="50%">
            <stop offset="0%" style="stop-color:white;stop-opacity:1" />
            <stop offset="100%" style="stop-color:#00ffff;stop-opacity:1" />
        </radialGradient>
    </defs>
    <circle cx="400" cy="225" r="150.0" class="orbit" />
<circle cx="527.6225174152517" cy="146.18063024488347" r="50" fill="#f1e05a" class="planet" />
<text x="542.6225174152517" y="151.18063024488347" class="text" fill="white">REDSHIFT</text>
<circle cx="400" cy="225" r="240.0" class="orbit" />
<circle cx="356.676952549314" cy="461.0574369927489" r="50" fill="#e34c26" class="planet" />
<text x="371.676952549314" y="466.0574369927489" class="text" fill="white">CIRCLE-13</text>
<circle cx="400" cy="225" r="330.0" class="orbit" />
<circle cx="587.2492503536918" cy="-46.73096666000447" r="50" fill="#e34c26" class="planet" />
<text x="602.2492503536918" y="-41.73096666000447" class="text" fill="white">ALVRYN-AI</text>
<circle cx="400" cy="225" r="415.422" class="orbit" />
<circle cx="42.80560499604525" cy="437.10281059372767" r="46.948" fill="#f1e05a" class="planet" />
<text x="57.80560499604525" y="442.10281059372767" class="text" fill="white">DRIFT-CIRCLE13</text>
<circle cx="400" cy="225" r="461.8095" class="orbit" />
<circle cx="498.8776856776533" cy="-226.10000838537036" r="20.925" fill="#2b7489" class="planet" />
<text x="513.8776856776533" y="-221.10000838537036" class="text" fill="white">DSATM-EXAM-SYSTEM-</text>
<circle cx="400" cy="225" r="504.846" class="orbit" />
<circle cx="692.4916612531326" cy="636.4828207998273" r="18.691" fill="#8b949e" class="planet" />
<text x="707.4916612531326" y="641.4828207998273" class="text" fill="white">NBHARATH1306</text>
<circle cx="400" cy="225" r="547.0785" class="orbit" />
<circle cx="135.61804689274942" cy="703.9541398019705" r="18.155" fill="#e34c26" class="planet" />
<text x="150.61804689274942" y="708.9541398019705" class="text" fill="white">WEBSITE-EQUDATOR-TRADING-PLATFORM</text>
<circle cx="400" cy="225" r="577.911" class="orbit" />
<circle cx="973.3393329987153" cy="152.45254547823123" r="10.555" fill="#8b949e" class="planet" />
<text x="988.3393329987153" y="157.45254547823123" class="text" fill="white">FLASK</text>
<circle cx="400" cy="225" r="608.184" class="orbit" />
<circle cx="865.2408531722548" cy="-166.71255583086997" r="10.182" fill="#8b949e" class="planet" />
<text x="880.2408531722548" y="-161.71255583086997" class="text" fill="white">HCF-INTERNSHIP</text>
<circle cx="400" cy="225" r="637.053" class="orbit" />
<circle cx="931.1440253074877" cy="576.7421629392172" r="9.246" fill="#8b949e" class="planet" />

    <text x="400" y="40" text-anchor="middle" class="title">SYSTEM SINGULARITY</text>
    </svg>