<svg width="800" height="450" xmlns="http://www.w3.org/2000/svg">
    <style>
        .orbit { fill: none; stroke: #30363d; stroke-width: 1; opacity: 0.5; }
        .planet { filter: drop-shadow(0 0 5px rgba(255,255,255,0.3)); }
        .text { font-family: 'Courier New', monospace; fill: #8b949e; font-size: 10px; }
        .title { font-family: sans-serif; fill: white; font-weight: bold; font-size: 24px; letter-spacing: 4px; }
        .hud-line { stroke: #00ffff; stroke-width: 1; opacity: 0.3; }
        
        /* ANIMATIONS */
        @keyframes pulse { 0% { r: 25; opacity: 0.8; } 50% { r: 30; opacity: 0.4; } 100% { r: 25; opacity: 0.8; } }
        .sun { animation: pulse 4s infinite; }
    </style>
    
    <rect width="100%" height="100%" fill="#0d1117" />
    
    <line x1="50" y1="50" x2="50" y2="400" class="hud-line" />
    <line x1="50" y1="400" x2="750" y2="400" class="hud-line" />
    <text x="60" y="390" class="text">SYS_TIME: 2026.04.10 :: 0126</text>
    <text x="60" y="375" class="text">SECTOR: N_BHARATH_PRIME</text>
    
    <circle cx="400" cy="225" r="25" fill="url(#grad1)" class="sun" />
    <defs>
        <radialGradient id="grad1" cx="50%" cy="50%" r="50%" fx="50%" fy="50%">
            <stop offset="0%" style="stop-color:white;stop-opacity:1" />
            <stop offset="100%" style="stop-color:#00ffff;stop-opacity:1" />
        </radialGradient>
    </defs>
    <circle cx="400" cy="225" r="150.0" class="orbit" />
<circle cx="547.2332512519504" cy="253.67698948251117" r="50" fill="#e34c26" class="planet" />
<text x="562.2332512519504" y="258.6769894825112" class="text" fill="white">CIRCLE13</text>
<circle cx="400" cy="225" r="240.0" class="orbit" />
<circle cx="555.7695928067926" cy="407.5810339460428" r="50" fill="#f1e05a" class="planet" />
<text x="570.7695928067926" y="412.5810339460428" class="text" fill="white">REDSHIFT</text>
<circle cx="400" cy="225" r="330.0" class="orbit" />
<circle cx="95.7505811207065" cy="97.20214746869878" r="50" fill="#e34c26" class="planet" />
<text x="110.7505811207065" y="102.20214746869878" class="text" fill="white">ALVRYN-AI</text>
<circle cx="400" cy="225" r="415.422" class="orbit" />
<circle cx="333.1561404489492" cy="-185.00894688325934" r="46.948" fill="#f1e05a" class="planet" />
<text x="348.1561404489492" y="-180.00894688325934" class="text" fill="white">DRIFT-CIRCLE13</text>
<circle cx="400" cy="225" r="461.8095" class="orbit" />
<circle cx="30.635231063715537" cy="502.19610704137824" r="20.925" fill="#2b7489" class="planet" />
<text x="45.63523106371554" y="507.19610704137824" class="text" fill="white">DSATM-EXAM-SYSTEM-</text>
<circle cx="400" cy="225" r="504.867" class="orbit" />
<circle cx="735.1792470443562" cy="-152.55206268775493" r="18.705" fill="#8b949e" class="planet" />
<text x="750.1792470443562" y="-147.55206268775493" class="text" fill="white">NBHARATH1306</text>
<circle cx="400" cy="225" r="547.0995" class="orbit" />
<circle cx="545.6807165304251" cy="-302.3471264086228" r="18.155" fill="#e34c26" class="planet" />
<text x="560.6807165304251" y="-297.3471264086228" class="text" fill="white">WEBSITE-EQUDATOR-TRADING-PLATFORM</text>
<circle cx="400" cy="225" r="577.932" class="orbit" />
<circle cx="839.2380925575662" cy="600.5999130329917" r="10.555" fill="#8b949e" class="planet" />
<text x="854.2380925575662" y="605.5999130329917" class="text" fill="white">FLASK</text>
<circle cx="400" cy="225" r="608.205" class="orbit" />
<circle cx="912.6138444181664" cy="552.3230339218857" r="10.182" fill="#8b949e" class="planet" />
<text x="927.6138444181664" y="557.3230339218857" class="text" fill="white">HCF-INTERNSHIP</text>
<circle cx="400" cy="225" r="637.0740000000001" class="orbit" />
<circle cx="182.90795759724298" cy="-373.9443434922812" r="9.246" fill="#8b949e" class="planet" />

    <text x="400" y="40" text-anchor="middle" class="title">SYSTEM SINGULARITY</text>
    </svg>