<svg width="800" height="450" xmlns="http://www.w3.org/2000/svg">
    <style>
        .orbit { fill: none; stroke: #30363d; stroke-width: 1; opacity: 0.5; }
        .planet { filter: drop-shadow(0 0 5px rgba(255,255,255,0.3)); }
        .text { font-family: 'Courier New', monospace; fill: #8b949e; font-size: 10px; }
        .title { font-family: sans-serif; fill: white; font-weight: bold; font-size: 24px; letter-spacing: 4px; }
        .hud-line { stroke: #00ffff; stroke-width: 1; opacity: 0.3; }
        
        /* ANIMATIONS */
        @keyframes pulse { 0% { r: 25; opacity: 0.8; } 50% { r: 30; opacity: 0.4; } 100% { r: 25; opacity: 0.8; } }
        .sun { animation: pulse 4s infinite; }
    </style>
    
    <rect width="100%" height="100%" fill="#0d1117" />
    
    <line x1="50" y1="50" x2="50" y2="400" class="hud-line" />
    <line x1="50" y1="400" x2="750" y2="400" class="hud-line" />
    <text x="60" y="390" class="text">SYS_TIME: 2026.06.27 :: 0212</text>
    <text x="60" y="375" class="text">SECTOR: N_BHARATH_PRIME</text>
    
    <circle cx="400" cy="225" r="25" fill="url(#grad1)" class="sun" />
    <defs>
        <radialGradient id="grad1" cx="50%" cy="50%" r="50%" fx="50%" fy="50%">
            <stop offset="0%" style="stop-color:white;stop-opacity:1" />
            <stop offset="100%" style="stop-color:#00ffff;stop-opacity:1" />
        </radialGradient>
    </defs>
    <circle cx="400" cy="225" r="150.0" class="orbit" />
<circle cx="321.1732499509285" cy="97.38204093192367" r="50" fill="#e34c26" class="planet" />
<text x="336.1732499509285" y="102.38204093192367" class="text" fill="white">CIRCLE13</text>
<circle cx="400" cy="225" r="240.0" class="orbit" />
<circle cx="425.284971814548" cy="463.6643463115878" r="50" fill="#f1e05a" class="planet" />
<text x="440.284971814548" y="468.6643463115878" class="text" fill="white">REDSHIFT</text>
<circle cx="400" cy="225" r="330.0" class="orbit" />
<circle cx="414.9486189031273" cy="554.6612485459718" r="50" fill="#e34c26" class="planet" />
<text x="429.9486189031273" y="559.6612485459718" class="text" fill="white">ALVRYN-AI</text>
<circle cx="400" cy="225" r="415.422" class="orbit" />
<circle cx="407.44838304067275" cy="-190.3552210747801" r="46.948" fill="#f1e05a" class="planet" />
<text x="422.44838304067275" y="-185.3552210747801" class="text" fill="white">DRIFT-CIRCLE13</text>
<circle cx="400" cy="225" r="461.8095" class="orbit" />
<circle cx="856.1291092214385" cy="297.2097639596411" r="20.925" fill="#2b7489" class="planet" />
<text x="871.1291092214385" y="302.2097639596411" class="text" fill="white">DSATM-EXAM-SYSTEM-</text>
<circle cx="400" cy="225" r="504.978" class="orbit" />
<circle cx="326.69304639835605" cy="724.6287331986086" r="18.779" fill="#8b949e" class="planet" />
<text x="341.69304639835605" y="729.6287331986086" class="text" fill="white">NBHARATH1306</text>
<circle cx="400" cy="225" r="547.2105" class="orbit" />
<circle cx="943.1504267734998" cy="158.4647070644828" r="18.155" fill="#e34c26" class="planet" />
<text x="958.1504267734998" y="163.4647070644828" class="text" fill="white">WEBSITE-EQUDATOR-TRADING-PLATFORM</text>
<circle cx="400" cy="225" r="578.043" class="orbit" />
<circle cx="244.68384165678378" cy="-331.7859560068887" r="10.555" fill="#8b949e" class="planet" />
<text x="259.6838416567838" y="-326.7859560068887" class="text" fill="white">FLASK</text>
<circle cx="400" cy="225" r="608.316" class="orbit" />
<circle cx="839.7267197457531" cy="-195.3436306138584" r="10.182" fill="#8b949e" class="planet" />
<text x="854.7267197457531" y="-190.3436306138584" class="text" fill="white">HCF-INTERNSHIP</text>
<circle cx="400" cy="225" r="637.1850000000001" class="orbit" />
<circle cx="505.265801540084" cy="853.4296581568408" r="9.246" fill="#8b949e" class="planet" />

    <text x="400" y="40" text-anchor="middle" class="title">SYSTEM SINGULARITY</text>
    </svg>