<svg width="800" height="450" xmlns="http://www.w3.org/2000/svg">
    <style>
        .orbit { fill: none; stroke: #30363d; stroke-width: 1; opacity: 0.5; }
        .planet { filter: drop-shadow(0 0 5px rgba(255,255,255,0.3)); }
        .text { font-family: 'Courier New', monospace; fill: #8b949e; font-size: 10px; }
        .title { font-family: sans-serif; fill: white; font-weight: bold; font-size: 24px; letter-spacing: 4px; }
        .hud-line { stroke: #00ffff; stroke-width: 1; opacity: 0.3; }
        
        /* ANIMATIONS */
        @keyframes pulse { 0% { r: 25; opacity: 0.8; } 50% { r: 30; opacity: 0.4; } 100% { r: 25; opacity: 0.8; } }
        .sun { animation: pulse 4s infinite; }
    </style>
    
    <rect width="100%" height="100%" fill="#0d1117" />
    
    <line x1="50" y1="50" x2="50" y2="400" class="hud-line" />
    <line x1="50" y1="400" x2="750" y2="400" class="hud-line" />
    <text x="60" y="390" class="text">SYS_TIME: 2026.04.11 :: 0120</text>
    <text x="60" y="375" class="text">SECTOR: N_BHARATH_PRIME</text>
    
    <circle cx="400" cy="225" r="25" fill="url(#grad1)" class="sun" />
    <defs>
        <radialGradient id="grad1" cx="50%" cy="50%" r="50%" fx="50%" fy="50%">
            <stop offset="0%" style="stop-color:white;stop-opacity:1" />
            <stop offset="100%" style="stop-color:#00ffff;stop-opacity:1" />
        </radialGradient>
    </defs>
    <circle cx="400" cy="225" r="150.0" class="orbit" />
<circle cx="250.4021925646348" cy="214.02293251676983" r="50" fill="#e34c26" class="planet" />
<text x="265.4021925646348" y="219.02293251676983" class="text" fill="white">CIRCLE13</text>
<circle cx="400" cy="225" r="240.0" class="orbit" />
<circle cx="627.8242783252269" cy="149.52750033562208" r="50" fill="#f1e05a" class="planet" />
<text x="642.8242783252269" y="154.52750033562208" class="text" fill="white">REDSHIFT</text>
<circle cx="400" cy="225" r="330.0" class="orbit" />
<circle cx="721.7215655044373" cy="151.54774142768616" r="50" fill="#e34c26" class="planet" />
<text x="736.7215655044373" y="156.54774142768616" class="text" fill="white">ALVRYN-AI</text>
<circle cx="400" cy="225" r="415.422" class="orbit" />
<circle cx="678.2906451325615" cy="-83.43111859166021" r="46.948" fill="#f1e05a" class="planet" />
<text x="693.2906451325615" y="-78.43111859166021" class="text" fill="white">DRIFT-CIRCLE13</text>
<circle cx="400" cy="225" r="461.8095" class="orbit" />
<circle cx="202.72916651798687" cy="642.5550652878753" r="20.925" fill="#2b7489" class="planet" />
<text x="217.72916651798687" y="647.5550652878753" class="text" fill="white">DSATM-EXAM-SYSTEM-</text>
<circle cx="400" cy="225" r="504.87" class="orbit" />
<circle cx="264.2872687905058" cy="-261.2877455659967" r="18.707" fill="#8b949e" class="planet" />
<text x="279.2872687905058" y="-256.2877455659967" class="text" fill="white">NBHARATH1306</text>
<circle cx="400" cy="225" r="547.1025" class="orbit" />
<circle cx="-137.87206471785862" cy="325.07391019840117" r="18.155" fill="#e34c26" class="planet" />
<text x="-122.87206471785862" y="330.07391019840117" class="text" fill="white">WEBSITE-EQUDATOR-TRADING-PLATFORM</text>
<circle cx="400" cy="225" r="577.935" class="orbit" />
<circle cx="940.3003011082365" cy="430.1449459463939" r="10.555" fill="#8b949e" class="planet" />
<text x="955.3003011082365" y="435.1449459463939" class="text" fill="white">FLASK</text>
<circle cx="400" cy="225" r="608.208" class="orbit" />
<circle cx="-102.42574976911862" cy="-117.76134150883905" r="10.182" fill="#8b949e" class="planet" />
<text x="-87.42574976911862" y="-112.76134150883905" class="text" fill="white">HCF-INTERNSHIP</text>
<circle cx="400" cy="225" r="637.077" class="orbit" />
<circle cx="537.2322916782438" cy="-397.12089022129567" r="9.246" fill="#8b949e" class="planet" />

    <text x="400" y="40" text-anchor="middle" class="title">SYSTEM SINGULARITY</text>
    </svg>