<svg width="800" height="450" xmlns="http://www.w3.org/2000/svg">
    <style>
        .orbit { fill: none; stroke: #30363d; stroke-width: 1; opacity: 0.5; }
        .planet { filter: drop-shadow(0 0 5px rgba(255,255,255,0.3)); }
        .text { font-family: 'Courier New', monospace; fill: #8b949e; font-size: 10px; }
        .title { font-family: sans-serif; fill: white; font-weight: bold; font-size: 24px; letter-spacing: 4px; }
        .hud-line { stroke: #00ffff; stroke-width: 1; opacity: 0.3; }
        
        /* ANIMATIONS */
        @keyframes pulse { 0% { r: 25; opacity: 0.8; } 50% { r: 30; opacity: 0.4; } 100% { r: 25; opacity: 0.8; } }
        .sun { animation: pulse 4s infinite; }
    </style>
    
    <rect width="100%" height="100%" fill="#0d1117" />
    
    <line x1="50" y1="50" x2="50" y2="400" class="hud-line" />
    <line x1="50" y1="400" x2="750" y2="400" class="hud-line" />
    <text x="60" y="390" class="text">SYS_TIME: 2026.05.14 :: 0212</text>
    <text x="60" y="375" class="text">SECTOR: N_BHARATH_PRIME</text>
    
    <circle cx="400" cy="225" r="25" fill="url(#grad1)" class="sun" />
    <defs>
        <radialGradient id="grad1" cx="50%" cy="50%" r="50%" fx="50%" fy="50%">
            <stop offset="0%" style="stop-color:white;stop-opacity:1" />
            <stop offset="100%" style="stop-color:#00ffff;stop-opacity:1" />
        </radialGradient>
    </defs>
    <circle cx="400" cy="225" r="150.0" class="orbit" />
<circle cx="259.43307930509184" cy="172.6460048673322" r="50" fill="#e34c26" class="planet" />
<text x="274.43307930509184" y="177.6460048673322" class="text" fill="white">CIRCLE13</text>
<circle cx="400" cy="225" r="240.0" class="orbit" />
<circle cx="574.7305809047047" cy="389.52727462856865" r="50" fill="#f1e05a" class="planet" />
<text x="589.7305809047047" y="394.52727462856865" class="text" fill="white">REDSHIFT</text>
<circle cx="400" cy="225" r="330.0" class="orbit" />
<circle cx="87.6099259101573" cy="118.64003756044949" r="50" fill="#e34c26" class="planet" />
<text x="102.6099259101573" y="123.64003756044949" class="text" fill="white">ALVRYN-AI</text>
<circle cx="400" cy="225" r="415.422" class="orbit" />
<circle cx="136.77604546411055" cy="-96.385419461568" r="46.948" fill="#f1e05a" class="planet" />
<text x="151.77604546411055" y="-91.385419461568" class="text" fill="white">DRIFT-CIRCLE13</text>
<circle cx="400" cy="225" r="461.8095" class="orbit" />
<circle cx="608.7994348786383" cy="-186.91116795325092" r="20.925" fill="#2b7489" class="planet" />
<text x="623.7994348786383" y="-181.91116795325092" class="text" fill="white">DSATM-EXAM-SYSTEM-</text>
<circle cx="400" cy="225" r="504.9345" class="orbit" />
<circle cx="379.7772605385808" cy="-279.5293748622825" r="18.75" fill="#8b949e" class="planet" />
<text x="394.7772605385808" y="-274.5293748622825" class="text" fill="white">NBHARATH1306</text>
<circle cx="400" cy="225" r="547.167" class="orbit" />
<circle cx="803.7982019648489" cy="-144.24075882675135" r="18.155" fill="#e34c26" class="planet" />
<text x="818.7982019648489" y="-139.24075882675135" class="text" fill="white">WEBSITE-EQUDATOR-TRADING-PLATFORM</text>
<circle cx="400" cy="225" r="577.9995" class="orbit" />
<circle cx="-161.39218849215706" cy="362.55810663220257" r="10.555" fill="#8b949e" class="planet" />
<text x="-146.39218849215706" y="367.55810663220257" class="text" fill="white">FLASK</text>
<circle cx="400" cy="225" r="608.2725" class="orbit" />
<circle cx="-3.4685032281460053" cy="680.2017148024484" r="10.182" fill="#8b949e" class="planet" />
<text x="11.531496771853995" y="685.2017148024484" class="text" fill="white">HCF-INTERNSHIP</text>
<circle cx="400" cy="225" r="637.1415000000001" class="orbit" />
<circle cx="686.1452055632765" cy="-344.2716507568248" r="9.246" fill="#8b949e" class="planet" />

    <text x="400" y="40" text-anchor="middle" class="title">SYSTEM SINGULARITY</text>
    </svg>