<svg width="800" height="450" xmlns="http://www.w3.org/2000/svg">
    <style>
        .orbit { fill: none; stroke: #30363d; stroke-width: 1; opacity: 0.5; }
        .planet { filter: drop-shadow(0 0 5px rgba(255,255,255,0.3)); }
        .text { font-family: 'Courier New', monospace; fill: #8b949e; font-size: 10px; }
        .title { font-family: sans-serif; fill: white; font-weight: bold; font-size: 24px; letter-spacing: 4px; }
        .hud-line { stroke: #00ffff; stroke-width: 1; opacity: 0.3; }
        
        /* ANIMATIONS */
        @keyframes pulse { 0% { r: 25; opacity: 0.8; } 50% { r: 30; opacity: 0.4; } 100% { r: 25; opacity: 0.8; } }
        .sun { animation: pulse 4s infinite; }
    </style>
    
    <rect width="100%" height="100%" fill="#0d1117" />
    
    <line x1="50" y1="50" x2="50" y2="400" class="hud-line" />
    <line x1="50" y1="400" x2="750" y2="400" class="hud-line" />
    <text x="60" y="390" class="text">SYS_TIME: 2026.05.23 :: 0205</text>
    <text x="60" y="375" class="text">SECTOR: N_BHARATH_PRIME</text>
    
    <circle cx="400" cy="225" r="25" fill="url(#grad1)" class="sun" />
    <defs>
        <radialGradient id="grad1" cx="50%" cy="50%" r="50%" fx="50%" fy="50%">
            <stop offset="0%" style="stop-color:white;stop-opacity:1" />
            <stop offset="100%" style="stop-color:#00ffff;stop-opacity:1" />
        </radialGradient>
    </defs>
    <circle cx="400" cy="225" r="150.0" class="orbit" />
<circle cx="256.32964028045853" cy="268.11412457719126" r="50" fill="#e34c26" class="planet" />
<text x="271.32964028045853" y="273.11412457719126" class="text" fill="white">CIRCLE13</text>
<circle cx="400" cy="225" r="240.0" class="orbit" />
<circle cx="194.9653682351213" cy="100.25706522195098" r="50" fill="#f1e05a" class="planet" />
<text x="209.9653682351213" y="105.25706522195098" class="text" fill="white">REDSHIFT</text>
<circle cx="400" cy="225" r="330.0" class="orbit" />
<circle cx="460.4649094715423" cy="549.4133084856387" r="50" fill="#e34c26" class="planet" />
<text x="475.4649094715423" y="554.4133084856387" class="text" fill="white">ALVRYN-AI</text>
<circle cx="400" cy="225" r="415.422" class="orbit" />
<circle cx="715.7495495578206" cy="-44.95862653012853" r="46.948" fill="#f1e05a" class="planet" />
<text x="730.7495495578206" y="-39.95862653012853" class="text" fill="white">DRIFT-CIRCLE13</text>
<circle cx="400" cy="225" r="461.8095" class="orbit" />
<circle cx="380.66857179223297" cy="-236.4047140783219" r="20.925" fill="#2b7489" class="planet" />
<text x="395.66857179223297" y="-231.4047140783219" class="text" fill="white">DSATM-EXAM-SYSTEM-</text>
<circle cx="400" cy="225" r="504.9525" class="orbit" />
<circle cx="226.17350375462766" cy="-249.09005100224107" r="18.762" fill="#8b949e" class="planet" />
<text x="241.17350375462766" y="-244.09005100224107" class="text" fill="white">NBHARATH1306</text>
<circle cx="400" cy="225" r="547.185" class="orbit" />
<circle cx="202.1649024832584" cy="735.1692840769044" r="18.155" fill="#e34c26" class="planet" />
<text x="217.1649024832584" y="740.1692840769044" class="text" fill="white">WEBSITE-EQUDATOR-TRADING-PLATFORM</text>
<circle cx="400" cy="225" r="578.0174999999999" class="orbit" />
<circle cx="861.091406386942" cy="573.5669881993442" r="10.555" fill="#8b949e" class="planet" />
<text x="876.091406386942" y="578.5669881993442" class="text" fill="white">FLASK</text>
<circle cx="400" cy="225" r="608.2905" class="orbit" />
<circle cx="721.5741525798578" cy="-291.34038848689363" r="10.182" fill="#8b949e" class="planet" />
<text x="736.5741525798578" y="-286.34038848689363" class="text" fill="white">HCF-INTERNSHIP</text>
<circle cx="400" cy="225" r="637.1595" class="orbit" />
<circle cx="428.6329066345389" cy="861.5158168481815" r="9.246" fill="#8b949e" class="planet" />

    <text x="400" y="40" text-anchor="middle" class="title">SYSTEM SINGULARITY</text>
    </svg>