<svg width="800" height="450" xmlns="http://www.w3.org/2000/svg">
    <style>
        .orbit { fill: none; stroke: #30363d; stroke-width: 1; opacity: 0.5; }
        .planet { filter: drop-shadow(0 0 5px rgba(255,255,255,0.3)); }
        .text { font-family: 'Courier New', monospace; fill: #8b949e; font-size: 10px; }
        .title { font-family: sans-serif; fill: white; font-weight: bold; font-size: 24px; letter-spacing: 4px; }
        .hud-line { stroke: #00ffff; stroke-width: 1; opacity: 0.3; }
        
        /* ANIMATIONS */
        @keyframes pulse { 0% { r: 25; opacity: 0.8; } 50% { r: 30; opacity: 0.4; } 100% { r: 25; opacity: 0.8; } }
        .sun { animation: pulse 4s infinite; }
    </style>
    
    <rect width="100%" height="100%" fill="#0d1117" />
    
    <line x1="50" y1="50" x2="50" y2="400" class="hud-line" />
    <line x1="50" y1="400" x2="750" y2="400" class="hud-line" />
    <text x="60" y="390" class="text">SYS_TIME: 2026.05.18 :: 0227</text>
    <text x="60" y="375" class="text">SECTOR: N_BHARATH_PRIME</text>
    
    <circle cx="400" cy="225" r="25" fill="url(#grad1)" class="sun" />
    <defs>
        <radialGradient id="grad1" cx="50%" cy="50%" r="50%" fx="50%" fy="50%">
            <stop offset="0%" style="stop-color:white;stop-opacity:1" />
            <stop offset="100%" style="stop-color:#00ffff;stop-opacity:1" />
        </radialGradient>
    </defs>
    <circle cx="400" cy="225" r="150.0" class="orbit" />
<circle cx="347.07088433763977" cy="365.351375893507" r="50" fill="#e34c26" class="planet" />
<text x="362.07088433763977" y="370.351375893507" class="text" fill="white">CIRCLE13</text>
<circle cx="400" cy="225" r="240.0" class="orbit" />
<circle cx="215.85451767056662" cy="71.08300503953328" r="50" fill="#f1e05a" class="planet" />
<text x="230.85451767056662" y="76.08300503953328" class="text" fill="white">REDSHIFT</text>
<circle cx="400" cy="225" r="330.0" class="orbit" />
<circle cx="407.9689635015845" cy="-104.90376721206206" r="50" fill="#e34c26" class="planet" />
<text x="422.9689635015845" y="-99.90376721206206" class="text" fill="white">ALVRYN-AI</text>
<circle cx="400" cy="225" r="415.422" class="orbit" />
<circle cx="85.76615401785187" cy="496.72141638683473" r="46.948" fill="#f1e05a" class="planet" />
<text x="100.76615401785187" y="501.72141638683473" class="text" fill="white">DRIFT-CIRCLE13</text>
<circle cx="400" cy="225" r="461.8095" class="orbit" />
<circle cx="608.023185912827" cy="637.3037332027536" r="20.925" fill="#2b7489" class="planet" />
<text x="623.023185912827" y="642.3037332027536" class="text" fill="white">DSATM-EXAM-SYSTEM-</text>
<circle cx="400" cy="225" r="504.942" class="orbit" />
<circle cx="126.33692864456401" cy="-199.35238510029558" r="18.755" fill="#8b949e" class="planet" />
<text x="141.336928644564" y="-194.35238510029558" class="text" fill="white">NBHARATH1306</text>
<circle cx="400" cy="225" r="547.1745" class="orbit" />
<circle cx="943.8466878878089" cy="285.2554024441803" r="18.155" fill="#e34c26" class="planet" />
<text x="958.8466878878089" y="290.2554024441803" class="text" fill="white">WEBSITE-EQUDATOR-TRADING-PLATFORM</text>
<circle cx="400" cy="225" r="578.007" class="orbit" />
<circle cx="-104.91810895203946" cy="-56.33573413503001" r="10.555" fill="#8b949e" class="planet" />
<text x="-89.91810895203946" y="-51.33573413503001" class="text" fill="white">FLASK</text>
<circle cx="400" cy="225" r="608.28" class="orbit" />
<circle cx="-97.36757240569744" cy="575.185745454128" r="10.182" fill="#8b949e" class="planet" />
<text x="-82.36757240569744" y="580.185745454128" class="text" fill="white">HCF-INTERNSHIP</text>
<circle cx="400" cy="225" r="637.149" class="orbit" />
<circle cx="392.9763692701474" cy="862.1102862239557" r="9.246" fill="#8b949e" class="planet" />

    <text x="400" y="40" text-anchor="middle" class="title">SYSTEM SINGULARITY</text>
    </svg>