<svg width="800" height="450" xmlns="http://www.w3.org/2000/svg">
    <style>
        .orbit { fill: none; stroke: #30363d; stroke-width: 1; opacity: 0.5; }
        .planet { filter: drop-shadow(0 0 5px rgba(255,255,255,0.3)); }
        .text { font-family: 'Courier New', monospace; fill: #8b949e; font-size: 10px; }
        .title { font-family: sans-serif; fill: white; font-weight: bold; font-size: 24px; letter-spacing: 4px; }
        .hud-line { stroke: #00ffff; stroke-width: 1; opacity: 0.3; }
        
        /* ANIMATIONS */
        @keyframes pulse { 0% { r: 25; opacity: 0.8; } 50% { r: 30; opacity: 0.4; } 100% { r: 25; opacity: 0.8; } }
        .sun { animation: pulse 4s infinite; }
    </style>
    
    <rect width="100%" height="100%" fill="#0d1117" />
    
    <line x1="50" y1="50" x2="50" y2="400" class="hud-line" />
    <line x1="50" y1="400" x2="750" y2="400" class="hud-line" />
    <text x="60" y="390" class="text">SYS_TIME: 2026.05.19 :: 0226</text>
    <text x="60" y="375" class="text">SECTOR: N_BHARATH_PRIME</text>
    
    <circle cx="400" cy="225" r="25" fill="url(#grad1)" class="sun" />
    <defs>
        <radialGradient id="grad1" cx="50%" cy="50%" r="50%" fx="50%" fy="50%">
            <stop offset="0%" style="stop-color:white;stop-opacity:1" />
            <stop offset="100%" style="stop-color:#00ffff;stop-opacity:1" />
        </radialGradient>
    </defs>
    <circle cx="400" cy="225" r="150.0" class="orbit" />
<circle cx="492.91735024635426" cy="107.24446499974479" r="50" fill="#e34c26" class="planet" />
<text x="507.91735024635426" y="112.24446499974479" class="text" fill="white">CIRCLE13</text>
<circle cx="400" cy="225" r="240.0" class="orbit" />
<circle cx="187.2034808018631" cy="335.98487021732717" r="50" fill="#f1e05a" class="planet" />
<text x="202.2034808018631" y="340.98487021732717" class="text" fill="white">REDSHIFT</text>
<circle cx="400" cy="225" r="330.0" class="orbit" />
<circle cx="186.49251659753526" cy="476.62383537961233" r="50" fill="#e34c26" class="planet" />
<text x="201.49251659753526" y="481.62383537961233" class="text" fill="white">ALVRYN-AI</text>
<circle cx="400" cy="225" r="415.422" class="orbit" />
<circle cx="466.96878136184165" cy="634.988561312276" r="46.948" fill="#f1e05a" class="planet" />
<text x="481.96878136184165" y="639.988561312276" class="text" fill="white">DRIFT-CIRCLE13</text>
<circle cx="400" cy="225" r="461.8095" class="orbit" />
<circle cx="425.31776213571084" cy="-236.1149804665747" r="20.925" fill="#2b7489" class="planet" />
<text x="440.31776213571084" y="-231.1149804665747" class="text" fill="white">DSATM-EXAM-SYSTEM-</text>
<circle cx="400" cy="225" r="504.945" class="orbit" />
<circle cx="869.1590516660026" cy="38.293713911777786" r="18.757" fill="#8b949e" class="planet" />
<text x="884.1590516660026" y="43.293713911777786" class="text" fill="white">NBHARATH1306</text>
<circle cx="400" cy="225" r="547.1775" class="orbit" />
<circle cx="829.5107990622776" cy="-114.00396752122816" r="18.155" fill="#e34c26" class="planet" />
<text x="844.5107990622776" y="-109.00396752122816" class="text" fill="white">WEBSITE-EQUDATOR-TRADING-PLATFORM</text>
<circle cx="400" cy="225" r="578.01" class="orbit" />
<circle cx="237.47862034421829" cy="-329.69123055514524" r="10.555" fill="#8b949e" class="planet" />
<text x="252.47862034421829" y="-324.69123055514524" class="text" fill="white">FLASK</text>
<circle cx="400" cy="225" r="608.283" class="orbit" />
<circle cx="926.9236443398112" cy="528.907356154227" r="10.182" fill="#8b949e" class="planet" />
<text x="941.9236443398112" y="533.907356154227" class="text" fill="white">HCF-INTERNSHIP</text>
<circle cx="400" cy="225" r="637.152" class="orbit" />
<circle cx="964.458075839869" cy="520.5499140976914" r="9.246" fill="#8b949e" class="planet" />

    <text x="400" y="40" text-anchor="middle" class="title">SYSTEM SINGULARITY</text>
    </svg>