<svg width="800" height="450" xmlns="http://www.w3.org/2000/svg">
    <style>
        .orbit { fill: none; stroke: #30363d; stroke-width: 1; opacity: 0.5; }
        .planet { filter: drop-shadow(0 0 5px rgba(255,255,255,0.3)); }
        .text { font-family: 'Courier New', monospace; fill: #8b949e; font-size: 10px; }
        .title { font-family: sans-serif; fill: white; font-weight: bold; font-size: 24px; letter-spacing: 4px; }
        .hud-line { stroke: #00ffff; stroke-width: 1; opacity: 0.3; }
        
        /* ANIMATIONS */
        @keyframes pulse { 0% { r: 25; opacity: 0.8; } 50% { r: 30; opacity: 0.4; } 100% { r: 25; opacity: 0.8; } }
        .sun { animation: pulse 4s infinite; }
    </style>
    
    <rect width="100%" height="100%" fill="#0d1117" />
    
    <line x1="50" y1="50" x2="50" y2="400" class="hud-line" />
    <line x1="50" y1="400" x2="750" y2="400" class="hud-line" />
    <text x="60" y="390" class="text">SYS_TIME: 2026.04.26 :: 0148</text>
    <text x="60" y="375" class="text">SECTOR: N_BHARATH_PRIME</text>
    
    <circle cx="400" cy="225" r="25" fill="url(#grad1)" class="sun" />
    <defs>
        <radialGradient id="grad1" cx="50%" cy="50%" r="50%" fx="50%" fy="50%">
            <stop offset="0%" style="stop-color:white;stop-opacity:1" />
            <stop offset="100%" style="stop-color:#00ffff;stop-opacity:1" />
        </radialGradient>
    </defs>
    <circle cx="400" cy="225" r="150.0" class="orbit" />
<circle cx="479.8118676210677" cy="352.0041959418553" r="50" fill="#e34c26" class="planet" />
<text x="494.8118676210677" y="357.0041959418553" class="text" fill="white">CIRCLE13</text>
<circle cx="400" cy="225" r="240.0" class="orbit" />
<circle cx="202.68933212878756" cy="88.36727937929328" r="50" fill="#f1e05a" class="planet" />
<text x="217.68933212878756" y="93.36727937929328" class="text" fill="white">REDSHIFT</text>
<circle cx="400" cy="225" r="330.0" class="orbit" />
<circle cx="468.7428280343642" cy="-97.76062894014478" r="50" fill="#e34c26" class="planet" />
<text x="483.7428280343642" y="-92.76062894014478" class="text" fill="white">ALVRYN-AI</text>
<circle cx="400" cy="225" r="415.422" class="orbit" />
<circle cx="347.10263085091543" cy="637.0404184313785" r="46.948" fill="#f1e05a" class="planet" />
<text x="362.10263085091543" y="642.0404184313785" class="text" fill="white">DRIFT-CIRCLE13</text>
<circle cx="400" cy="225" r="461.8095" class="orbit" />
<circle cx="57.59366741055345" cy="534.880489371137" r="20.925" fill="#2b7489" class="planet" />
<text x="72.59366741055345" y="539.880489371137" class="text" fill="white">DSATM-EXAM-SYSTEM-</text>
<circle cx="400" cy="225" r="504.8985" class="orbit" />
<circle cx="-34.87637297057438" cy="-31.52492185791209" r="18.726" fill="#8b949e" class="planet" />
<text x="-19.87637297057438" y="-26.52492185791209" class="text" fill="white">NBHARATH1306</text>
<circle cx="400" cy="225" r="547.131" class="orbit" />
<circle cx="358.9518805614178" cy="-320.58902394710606" r="18.155" fill="#e34c26" class="planet" />
<text x="373.9518805614178" y="-315.58902394710606" class="text" fill="white">WEBSITE-EQUDATOR-TRADING-PLATFORM</text>
<circle cx="400" cy="225" r="577.9635" class="orbit" />
<circle cx="-38.03998147941411" cy="602.0448009955376" r="10.555" fill="#8b949e" class="planet" />
<text x="-23.03998147941411" y="607.0448009955376" class="text" fill="white">FLASK</text>
<circle cx="400" cy="225" r="608.2365" class="orbit" />
<circle cx="-167.97264759041366" cy="442.62056778114004" r="10.182" fill="#8b949e" class="planet" />
<text x="-152.97264759041366" y="447.62056778114004" class="text" fill="white">HCF-INTERNSHIP</text>
<circle cx="400" cy="225" r="637.1055" class="orbit" />
<circle cx="-206.20007908049718" cy="421.022657499201" r="9.246" fill="#8b949e" class="planet" />

    <text x="400" y="40" text-anchor="middle" class="title">SYSTEM SINGULARITY</text>
    </svg>