<svg width="800" height="450" xmlns="http://www.w3.org/2000/svg">
    <style>
        .orbit { fill: none; stroke: #30363d; stroke-width: 1; opacity: 0.5; }
        .planet { filter: drop-shadow(0 0 5px rgba(255,255,255,0.3)); }
        .text { font-family: 'Courier New', monospace; fill: #8b949e; font-size: 10px; }
        .title { font-family: sans-serif; fill: white; font-weight: bold; font-size: 24px; letter-spacing: 4px; }
        .hud-line { stroke: #00ffff; stroke-width: 1; opacity: 0.3; }
        
        /* ANIMATIONS */
        @keyframes pulse { 0% { r: 25; opacity: 0.8; } 50% { r: 30; opacity: 0.4; } 100% { r: 25; opacity: 0.8; } }
        .sun { animation: pulse 4s infinite; }
    </style>
    
    <rect width="100%" height="100%" fill="#0d1117" />
    
    <line x1="50" y1="50" x2="50" y2="400" class="hud-line" />
    <line x1="50" y1="400" x2="750" y2="400" class="hud-line" />
    <text x="60" y="390" class="text">SYS_TIME: 2026.05.16 :: 0202</text>
    <text x="60" y="375" class="text">SECTOR: N_BHARATH_PRIME</text>
    
    <circle cx="400" cy="225" r="25" fill="url(#grad1)" class="sun" />
    <defs>
        <radialGradient id="grad1" cx="50%" cy="50%" r="50%" fx="50%" fy="50%">
            <stop offset="0%" style="stop-color:white;stop-opacity:1" />
            <stop offset="100%" style="stop-color:#00ffff;stop-opacity:1" />
        </radialGradient>
    </defs>
    <circle cx="400" cy="225" r="150.0" class="orbit" />
<circle cx="279.70712471521415" cy="135.39182986067084" r="50" fill="#e34c26" class="planet" />
<text x="294.70712471521415" y="140.39182986067084" class="text" fill="white">CIRCLE13</text>
<circle cx="400" cy="225" r="240.0" class="orbit" />
<circle cx="197.69131842687557" cy="354.116990981606" r="50" fill="#f1e05a" class="planet" />
<text x="212.69131842687557" y="359.116990981606" class="text" fill="white">REDSHIFT</text>
<circle cx="400" cy="225" r="330.0" class="orbit" />
<circle cx="123.90826905014228" cy="44.24227236128635" r="50" fill="#e34c26" class="planet" />
<text x="138.90826905014228" y="49.24227236128635" class="text" fill="white">ALVRYN-AI</text>
<circle cx="400" cy="225" r="415.422" class="orbit" />
<circle cx="753.1374722038979" cy="6.209315076164046" r="46.948" fill="#f1e05a" class="planet" />
<text x="768.1374722038979" y="11.209315076164046" class="text" fill="white">DRIFT-CIRCLE13</text>
<circle cx="400" cy="225" r="461.8095" class="orbit" />
<circle cx="861.5979126701914" cy="211.0221135799277" r="20.925" fill="#2b7489" class="planet" />
<text x="876.5979126701914" y="216.0221135799277" class="text" fill="white">DSATM-EXAM-SYSTEM-</text>
<circle cx="400" cy="225" r="504.939" class="orbit" />
<circle cx="762.8524005229815" cy="-126.14317472465541" r="18.753" fill="#8b949e" class="planet" />
<text x="777.8524005229815" y="-121.14317472465541" class="text" fill="white">NBHARATH1306</text>
<circle cx="400" cy="225" r="547.1715" class="orbit" />
<circle cx="873.8511956424285" cy="498.6086526418545" r="18.155" fill="#e34c26" class="planet" />
<text x="888.8511956424285" y="503.6086526418545" class="text" fill="white">WEBSITE-EQUDATOR-TRADING-PLATFORM</text>
<circle cx="400" cy="225" r="578.004" class="orbit" />
<circle cx="147.00209700731344" cy="744.6928757423015" r="10.555" fill="#8b949e" class="planet" />
<text x="162.00209700731344" y="749.6928757423015" class="text" fill="white">FLASK</text>
<circle cx="400" cy="225" r="608.277" class="orbit" />
<circle cx="958.4250908501882" cy="466.1686684417341" r="10.182" fill="#8b949e" class="planet" />
<text x="973.4250908501882" y="471.1686684417341" class="text" fill="white">HCF-INTERNSHIP</text>
<circle cx="400" cy="225" r="637.1460000000001" class="orbit" />
<circle cx="-152.4263367811102" cy="542.4589229279964" r="9.246" fill="#8b949e" class="planet" />

    <text x="400" y="40" text-anchor="middle" class="title">SYSTEM SINGULARITY</text>
    </svg>