<svg width="800" height="450" xmlns="http://www.w3.org/2000/svg">
    <style>
        .orbit { fill: none; stroke: #30363d; stroke-width: 1; opacity: 0.5; }
        .planet { filter: drop-shadow(0 0 5px rgba(255,255,255,0.3)); }
        .text { font-family: 'Courier New', monospace; fill: #8b949e; font-size: 10px; }
        .title { font-family: sans-serif; fill: white; font-weight: bold; font-size: 24px; letter-spacing: 4px; }
        .hud-line { stroke: #00ffff; stroke-width: 1; opacity: 0.3; }
        
        /* ANIMATIONS */
        @keyframes pulse { 0% { r: 25; opacity: 0.8; } 50% { r: 30; opacity: 0.4; } 100% { r: 25; opacity: 0.8; } }
        .sun { animation: pulse 4s infinite; }
    </style>
    
    <rect width="100%" height="100%" fill="#0d1117" />
    
    <line x1="50" y1="50" x2="50" y2="400" class="hud-line" />
    <line x1="50" y1="400" x2="750" y2="400" class="hud-line" />
    <text x="60" y="390" class="text">SYS_TIME: 2026.04.18 :: 0123</text>
    <text x="60" y="375" class="text">SECTOR: N_BHARATH_PRIME</text>
    
    <circle cx="400" cy="225" r="25" fill="url(#grad1)" class="sun" />
    <defs>
        <radialGradient id="grad1" cx="50%" cy="50%" r="50%" fx="50%" fy="50%">
            <stop offset="0%" style="stop-color:white;stop-opacity:1" />
            <stop offset="100%" style="stop-color:#00ffff;stop-opacity:1" />
        </radialGradient>
    </defs>
    <circle cx="400" cy="225" r="150.0" class="orbit" />
<circle cx="266.5408992671319" cy="293.4738521741998" r="50" fill="#e34c26" class="planet" />
<text x="281.5408992671319" y="298.4738521741998" class="text" fill="white">CIRCLE13</text>
<circle cx="400" cy="225" r="240.0" class="orbit" />
<circle cx="262.2843822265358" cy="28.443624826684612" r="50" fill="#f1e05a" class="planet" />
<text x="277.2843822265358" y="33.44362482668461" class="text" fill="white">REDSHIFT</text>
<circle cx="400" cy="225" r="330.0" class="orbit" />
<circle cx="73.98214648643187" cy="276.1112432876136" r="50" fill="#e34c26" class="planet" />
<text x="88.98214648643187" y="281.1112432876136" class="text" fill="white">ALVRYN-AI</text>
<circle cx="400" cy="225" r="415.422" class="orbit" />
<circle cx="115.55571577073175" cy="527.7653996963645" r="46.948" fill="#f1e05a" class="planet" />
<text x="130.55571577073175" y="532.7653996963645" class="text" fill="white">DRIFT-CIRCLE13</text>
<circle cx="400" cy="225" r="461.8095" class="orbit" />
<circle cx="322.4122347961894" cy="-230.24515700985592" r="20.925" fill="#2b7489" class="planet" />
<text x="337.4122347961894" y="-225.24515700985592" class="text" fill="white">DSATM-EXAM-SYSTEM-</text>
<circle cx="400" cy="225" r="504.882" class="orbit" />
<circle cx="-90.15448139722304" cy="346.05543478183597" r="18.715" fill="#8b949e" class="planet" />
<text x="-75.15448139722304" y="351.05543478183597" class="text" fill="white">NBHARATH1306</text>
<circle cx="400" cy="225" r="547.1145" class="orbit" />
<circle cx="-111.14409605039316" cy="420.1050721613266" r="18.155" fill="#e34c26" class="planet" />
<text x="-96.14409605039316" y="425.1050721613266" class="text" fill="white">WEBSITE-EQUDATOR-TRADING-PLATFORM</text>
<circle cx="400" cy="225" r="577.947" class="orbit" />
<circle cx="977.092835804136" cy="193.58991129365464" r="10.555" fill="#8b949e" class="planet" />
<text x="992.092835804136" y="198.58991129365464" class="text" fill="white">FLASK</text>
<circle cx="400" cy="225" r="608.22" class="orbit" />
<circle cx="165.14136469307218" cy="-336.04633482607073" r="10.182" fill="#8b949e" class="planet" />
<text x="180.14136469307218" y="-331.04633482607073" class="text" fill="white">HCF-INTERNSHIP</text>
<circle cx="400" cy="225" r="637.089" class="orbit" />
<circle cx="19.439669242658113" cy="-285.93661894100194" r="9.246" fill="#8b949e" class="planet" />

    <text x="400" y="40" text-anchor="middle" class="title">SYSTEM SINGULARITY</text>
    </svg>