<svg width="800" height="450" xmlns="http://www.w3.org/2000/svg">
    <style>
        .orbit { fill: none; stroke: #30363d; stroke-width: 1; opacity: 0.5; }
        .planet { filter: drop-shadow(0 0 5px rgba(255,255,255,0.3)); }
        .text { font-family: 'Courier New', monospace; fill: #8b949e; font-size: 10px; }
        .title { font-family: sans-serif; fill: white; font-weight: bold; font-size: 24px; letter-spacing: 4px; }
        .hud-line { stroke: #00ffff; stroke-width: 1; opacity: 0.3; }
        
        /* ANIMATIONS */
        @keyframes pulse { 0% { r: 25; opacity: 0.8; } 50% { r: 30; opacity: 0.4; } 100% { r: 25; opacity: 0.8; } }
        .sun { animation: pulse 4s infinite; }
    </style>
    
    <rect width="100%" height="100%" fill="#0d1117" />
    
    <line x1="50" y1="50" x2="50" y2="400" class="hud-line" />
    <line x1="50" y1="400" x2="750" y2="400" class="hud-line" />
    <text x="60" y="390" class="text">SYS_TIME: 2026.05.05 :: 0157</text>
    <text x="60" y="375" class="text">SECTOR: N_BHARATH_PRIME</text>
    
    <circle cx="400" cy="225" r="25" fill="url(#grad1)" class="sun" />
    <defs>
        <radialGradient id="grad1" cx="50%" cy="50%" r="50%" fx="50%" fy="50%">
            <stop offset="0%" style="stop-color:white;stop-opacity:1" />
            <stop offset="100%" style="stop-color:#00ffff;stop-opacity:1" />
        </radialGradient>
    </defs>
    <circle cx="400" cy="225" r="150.0" class="orbit" />
<circle cx="480.3849738128519" cy="351.6422361817222" r="50" fill="#e34c26" class="planet" />
<text x="495.3849738128519" y="356.6422361817222" class="text" fill="white">CIRCLE13</text>
<circle cx="400" cy="225" r="240.0" class="orbit" />
<circle cx="426.1214783115071" cy="463.57424079481314" r="50" fill="#f1e05a" class="planet" />
<text x="441.1214783115071" y="468.57424079481314" class="text" fill="white">REDSHIFT</text>
<circle cx="400" cy="225" r="330.0" class="orbit" />
<circle cx="604.9829118793391" cy="483.61555606240535" r="50" fill="#e34c26" class="planet" />
<text x="619.9829118793391" y="488.61555606240535" class="text" fill="white">ALVRYN-AI</text>
<circle cx="400" cy="225" r="415.422" class="orbit" />
<circle cx="85.95265796724539" cy="-46.93695049801909" r="46.948" fill="#f1e05a" class="planet" />
<text x="100.95265796724539" y="-41.93695049801909" class="text" fill="white">DRIFT-CIRCLE13</text>
<circle cx="400" cy="225" r="461.8095" class="orbit" />
<circle cx="830.7184721462221" cy="58.417851970044154" r="20.925" fill="#2b7489" class="planet" />
<text x="845.7184721462221" y="63.417851970044154" class="text" fill="white">DSATM-EXAM-SYSTEM-</text>
<circle cx="400" cy="225" r="504.91650000000004" class="orbit" />
<circle cx="761.9530904316821" cy="577.0378279378575" r="18.738" fill="#8b949e" class="planet" />
<text x="776.9530904316821" y="582.0378279378575" class="text" fill="white">NBHARATH1306</text>
<circle cx="400" cy="225" r="547.149" class="orbit" />
<circle cx="-136.608323926558" cy="118.11906206563208" r="18.155" fill="#e34c26" class="planet" />
<text x="-121.608323926558" y="123.11906206563208" class="text" fill="white">WEBSITE-EQUDATOR-TRADING-PLATFORM</text>
<circle cx="400" cy="225" r="577.9815" class="orbit" />
<circle cx="-108.82474932592373" cy="499.1532214212718" r="10.555" fill="#8b949e" class="planet" />
<text x="-93.82474932592373" y="504.1532214212718" class="text" fill="white">FLASK</text>
<circle cx="400" cy="225" r="608.2545" class="orbit" />
<circle cx="387.4251272368179" cy="833.1245015169507" r="10.182" fill="#8b949e" class="planet" />
<text x="402.4251272368179" y="838.1245015169507" class="text" fill="white">HCF-INTERNSHIP</text>
<circle cx="400" cy="225" r="637.1235" class="orbit" />
<circle cx="-133.89375042033828" cy="572.683501930068" r="9.246" fill="#8b949e" class="planet" />

    <text x="400" y="40" text-anchor="middle" class="title">SYSTEM SINGULARITY</text>
    </svg>