<svg width="800" height="450" xmlns="http://www.w3.org/2000/svg">
    <style>
        .orbit { fill: none; stroke: #30363d; stroke-width: 1; opacity: 0.5; }
        .planet { filter: drop-shadow(0 0 5px rgba(255,255,255,0.3)); }
        .text { font-family: 'Courier New', monospace; fill: #8b949e; font-size: 10px; }
        .title { font-family: sans-serif; fill: white; font-weight: bold; font-size: 24px; letter-spacing: 4px; }
        .hud-line { stroke: #00ffff; stroke-width: 1; opacity: 0.3; }
        
        /* ANIMATIONS */
        @keyframes pulse { 0% { r: 25; opacity: 0.8; } 50% { r: 30; opacity: 0.4; } 100% { r: 25; opacity: 0.8; } }
        .sun { animation: pulse 4s infinite; }
    </style>
    
    <rect width="100%" height="100%" fill="#0d1117" />
    
    <line x1="50" y1="50" x2="50" y2="400" class="hud-line" />
    <line x1="50" y1="400" x2="750" y2="400" class="hud-line" />
    <text x="60" y="390" class="text">SYS_TIME: 2026.06.11 :: 0240</text>
    <text x="60" y="375" class="text">SECTOR: N_BHARATH_PRIME</text>
    
    <circle cx="400" cy="225" r="25" fill="url(#grad1)" class="sun" />
    <defs>
        <radialGradient id="grad1" cx="50%" cy="50%" r="50%" fx="50%" fy="50%">
            <stop offset="0%" style="stop-color:white;stop-opacity:1" />
            <stop offset="100%" style="stop-color:#00ffff;stop-opacity:1" />
        </radialGradient>
    </defs>
    <circle cx="400" cy="225" r="150.0" class="orbit" />
<circle cx="267.0914292774634" cy="155.4635935031692" r="50" fill="#e34c26" class="planet" />
<text x="282.0914292774634" y="160.4635935031692" class="text" fill="white">CIRCLE13</text>
<circle cx="400" cy="225" r="240.0" class="orbit" />
<circle cx="604.7648198531363" cy="350.18533680312834" r="50" fill="#f1e05a" class="planet" />
<text x="619.7648198531363" y="355.18533680312834" class="text" fill="white">REDSHIFT</text>
<circle cx="400" cy="225" r="330.0" class="orbit" />
<circle cx="296.00748156130436" cy="-88.18613652072395" r="50" fill="#e34c26" class="planet" />
<text x="311.00748156130436" y="-83.18613652072395" class="text" fill="white">ALVRYN-AI</text>
<circle cx="400" cy="225" r="415.422" class="orbit" />
<circle cx="690.0914870078361" cy="522.3589871680063" r="46.948" fill="#f1e05a" class="planet" />
<text x="705.0914870078361" y="527.3589871680063" class="text" fill="white">DRIFT-CIRCLE13</text>
<circle cx="400" cy="225" r="461.8095" class="orbit" />
<circle cx="710.4242755439113" cy="-116.91341512623899" r="20.925" fill="#2b7489" class="planet" />
<text x="725.4242755439113" y="-111.91341512623899" class="text" fill="white">DSATM-EXAM-SYSTEM-</text>
<circle cx="400" cy="225" r="504.9465" class="orbit" />
<circle cx="413.28431574281524" cy="729.7717254536898" r="18.758" fill="#8b949e" class="planet" />
<text x="428.28431574281524" y="734.7717254536898" class="text" fill="white">NBHARATH1306</text>
<circle cx="400" cy="225" r="547.179" class="orbit" />
<circle cx="359.54094401476306" cy="770.6811549153805" r="18.155" fill="#e34c26" class="planet" />
<text x="374.54094401476306" y="775.6811549153805" class="text" fill="white">WEBSITE-EQUDATOR-TRADING-PLATFORM</text>
<circle cx="400" cy="225" r="578.0115" class="orbit" />
<circle cx="-4.185691905249371" cy="-188.1963462947425" r="10.555" fill="#8b949e" class="planet" />
<text x="10.81430809475063" y="-183.1963462947425" class="text" fill="white">FLASK</text>
<circle cx="400" cy="225" r="608.2845" class="orbit" />
<circle cx="741.1989193488159" cy="-278.58051032128935" r="10.182" fill="#8b949e" class="planet" />
<text x="756.1989193488159" y="-273.58051032128935" class="text" fill="white">HCF-INTERNSHIP</text>
<circle cx="400" cy="225" r="637.1535" class="orbit" />
<circle cx="-194.4679506849409" cy="454.28680330689906" r="9.246" fill="#8b949e" class="planet" />

    <text x="400" y="40" text-anchor="middle" class="title">SYSTEM SINGULARITY</text>
    </svg>