<svg width="800" height="450" xmlns="http://www.w3.org/2000/svg">
    <style>
        .orbit { fill: none; stroke: #30363d; stroke-width: 1; opacity: 0.5; }
        .planet { filter: drop-shadow(0 0 5px rgba(255,255,255,0.3)); }
        .text { font-family: 'Courier New', monospace; fill: #8b949e; font-size: 10px; }
        .title { font-family: sans-serif; fill: white; font-weight: bold; font-size: 24px; letter-spacing: 4px; }
        .hud-line { stroke: #00ffff; stroke-width: 1; opacity: 0.3; }
        
        /* ANIMATIONS */
        @keyframes pulse { 0% { r: 25; opacity: 0.8; } 50% { r: 30; opacity: 0.4; } 100% { r: 25; opacity: 0.8; } }
        .sun { animation: pulse 4s infinite; }
    </style>
    
    <rect width="100%" height="100%" fill="#0d1117" />
    
    <line x1="50" y1="50" x2="50" y2="400" class="hud-line" />
    <line x1="50" y1="400" x2="750" y2="400" class="hud-line" />
    <text x="60" y="390" class="text">SYS_TIME: 2026.06.17 :: 0244</text>
    <text x="60" y="375" class="text">SECTOR: N_BHARATH_PRIME</text>
    
    <circle cx="400" cy="225" r="25" fill="url(#grad1)" class="sun" />
    <defs>
        <radialGradient id="grad1" cx="50%" cy="50%" r="50%" fx="50%" fy="50%">
            <stop offset="0%" style="stop-color:white;stop-opacity:1" />
            <stop offset="100%" style="stop-color:#00ffff;stop-opacity:1" />
        </radialGradient>
    </defs>
    <circle cx="400" cy="225" r="150.0" class="orbit" />
<circle cx="262.7183281274901" cy="164.55380435553846" r="50" fill="#e34c26" class="planet" />
<text x="277.7183281274901" y="169.55380435553846" class="text" fill="white">CIRCLE13</text>
<circle cx="400" cy="225" r="240.0" class="orbit" />
<circle cx="563.6787508151529" cy="400.52568624446707" r="50" fill="#f1e05a" class="planet" />
<text x="578.6787508151529" y="405.52568624446707" class="text" fill="white">REDSHIFT</text>
<circle cx="400" cy="225" r="330.0" class="orbit" />
<circle cx="142.06531331215194" cy="19.160991541346448" r="50" fill="#e34c26" class="planet" />
<text x="157.06531331215194" y="24.160991541346448" class="text" fill="white">ALVRYN-AI</text>
<circle cx="400" cy="225" r="415.422" class="orbit" />
<circle cx="592.7438828938266" cy="-143.00167620679508" r="46.948" fill="#f1e05a" class="planet" />
<text x="607.7438828938266" y="-138.00167620679508" class="text" fill="white">DRIFT-CIRCLE13</text>
<circle cx="400" cy="225" r="461.8095" class="orbit" />
<circle cx="762.8727317031553" cy="-60.64207476585068" r="20.925" fill="#2b7489" class="planet" />
<text x="777.8727317031553" y="-55.64207476585068" class="text" fill="white">DSATM-EXAM-SYSTEM-</text>
<circle cx="400" cy="225" r="504.9585" class="orbit" />
<circle cx="901.3589876191504" cy="285.1851497942018" r="18.766" fill="#8b949e" class="planet" />
<text x="916.3589876191504" y="290.1851497942018" class="text" fill="white">NBHARATH1306</text>
<circle cx="400" cy="225" r="547.191" class="orbit" />
<circle cx="925.5768930656075" cy="377.2725187172755" r="18.155" fill="#e34c26" class="planet" />
<text x="940.5768930656075" y="382.2725187172755" class="text" fill="white">WEBSITE-EQUDATOR-TRADING-PLATFORM</text>
<circle cx="400" cy="225" r="578.0235" class="orbit" />
<circle cx="32.20284006341683" cy="-220.91077100114262" r="10.555" fill="#8b949e" class="planet" />
<text x="47.20284006341683" y="-215.91077100114262" class="text" fill="white">FLASK</text>
<circle cx="400" cy="225" r="608.2965" class="orbit" />
<circle cx="406.33345361415985" cy="833.2635278212621" r="10.182" fill="#8b949e" class="planet" />
<text x="421.33345361415985" y="838.2635278212621" class="text" fill="white">HCF-INTERNSHIP</text>
<circle cx="400" cy="225" r="637.1655000000001" class="orbit" />
<circle cx="727.1320459468984" cy="771.7764615497327" r="9.246" fill="#8b949e" class="planet" />

    <text x="400" y="40" text-anchor="middle" class="title">SYSTEM SINGULARITY</text>
    </svg>