<svg width="800" height="450" xmlns="http://www.w3.org/2000/svg">
    <style>
        .orbit { fill: none; stroke: #30363d; stroke-width: 1; opacity: 0.5; }
        .planet { filter: drop-shadow(0 0 5px rgba(255,255,255,0.3)); }
        .text { font-family: 'Courier New', monospace; fill: #8b949e; font-size: 10px; }
        .title { font-family: sans-serif; fill: white; font-weight: bold; font-size: 24px; letter-spacing: 4px; }
        .hud-line { stroke: #00ffff; stroke-width: 1; opacity: 0.3; }
        
        /* ANIMATIONS */
        @keyframes pulse { 0% { r: 25; opacity: 0.8; } 50% { r: 30; opacity: 0.4; } 100% { r: 25; opacity: 0.8; } }
        .sun { animation: pulse 4s infinite; }
    </style>
    
    <rect width="100%" height="100%" fill="#0d1117" />
    
    <line x1="50" y1="50" x2="50" y2="400" class="hud-line" />
    <line x1="50" y1="400" x2="750" y2="400" class="hud-line" />
    <text x="60" y="390" class="text">SYS_TIME: 2026.06.08 :: 0240</text>
    <text x="60" y="375" class="text">SECTOR: N_BHARATH_PRIME</text>
    
    <circle cx="400" cy="225" r="25" fill="url(#grad1)" class="sun" />
    <defs>
        <radialGradient id="grad1" cx="50%" cy="50%" r="50%" fx="50%" fy="50%">
            <stop offset="0%" style="stop-color:white;stop-opacity:1" />
            <stop offset="100%" style="stop-color:#00ffff;stop-opacity:1" />
        </radialGradient>
    </defs>
    <circle cx="400" cy="225" r="150.0" class="orbit" />
<circle cx="260.1150056783398" cy="170.8503152028649" r="50" fill="#e34c26" class="planet" />
<text x="275.1150056783398" y="175.8503152028649" class="text" fill="white">CIRCLE13</text>
<circle cx="400" cy="225" r="240.0" class="orbit" />
<circle cx="171.57656916955207" cy="151.36076964248215" r="50" fill="#f1e05a" class="planet" />
<text x="186.57656916955207" y="156.36076964248215" class="text" fill="white">REDSHIFT</text>
<circle cx="400" cy="225" r="330.0" class="orbit" />
<circle cx="525.797831967234" cy="-80.08180128015431" r="50" fill="#e34c26" class="planet" />
<text x="540.797831967234" y="-75.08180128015431" class="text" fill="white">ALVRYN-AI</text>
<circle cx="400" cy="225" r="415.422" class="orbit" />
<circle cx="747.8240575695864" cy="452.142825244006" r="46.948" fill="#f1e05a" class="planet" />
<text x="762.8240575695864" y="457.142825244006" class="text" fill="white">DRIFT-CIRCLE13</text>
<circle cx="400" cy="225" r="461.8095" class="orbit" />
<circle cx="211.28557747113308" cy="-196.4912585331353" r="20.925" fill="#2b7489" class="planet" />
<text x="226.28557747113308" y="-191.4912585331353" class="text" fill="white">DSATM-EXAM-SYSTEM-</text>
<circle cx="400" cy="225" r="504.939" class="orbit" />
<circle cx="-89.71839900800757" cy="348.0417953137628" r="18.753" fill="#8b949e" class="planet" />
<text x="-74.71839900800757" y="353.0417953137628" class="text" fill="white">NBHARATH1306</text>
<circle cx="400" cy="225" r="547.1715" class="orbit" />
<circle cx="-79.5255143932203" cy="488.537343574241" r="18.155" fill="#e34c26" class="planet" />
<text x="-64.5255143932203" y="493.537343574241" class="text" fill="white">WEBSITE-EQUDATOR-TRADING-PLATFORM</text>
<circle cx="400" cy="225" r="578.004" class="orbit" />
<circle cx="753.1484106145165" cy="-232.57493823027608" r="10.555" fill="#8b949e" class="planet" />
<text x="768.1484106145165" y="-227.57493823027608" class="text" fill="white">FLASK</text>
<circle cx="400" cy="225" r="608.277" class="orbit" />
<circle cx="738.4957748759552" cy="730.3924407033871" r="10.182" fill="#8b949e" class="planet" />
<text x="753.4957748759552" y="735.3924407033871" class="text" fill="white">HCF-INTERNSHIP</text>
<circle cx="400" cy="225" r="637.1460000000001" class="orbit" />
<circle cx="932.0114877974155" cy="-125.59777832664673" r="9.246" fill="#8b949e" class="planet" />

    <text x="400" y="40" text-anchor="middle" class="title">SYSTEM SINGULARITY</text>
    </svg>