<svg width="800" height="450" xmlns="http://www.w3.org/2000/svg">
    <style>
        .orbit { fill: none; stroke: #30363d; stroke-width: 1; opacity: 0.5; }
        .planet { filter: drop-shadow(0 0 5px rgba(255,255,255,0.3)); }
        .text { font-family: 'Courier New', monospace; fill: #8b949e; font-size: 10px; }
        .title { font-family: sans-serif; fill: white; font-weight: bold; font-size: 24px; letter-spacing: 4px; }
        .hud-line { stroke: #00ffff; stroke-width: 1; opacity: 0.3; }
        
        /* ANIMATIONS */
        @keyframes pulse { 0% { r: 25; opacity: 0.8; } 50% { r: 30; opacity: 0.4; } 100% { r: 25; opacity: 0.8; } }
        .sun { animation: pulse 4s infinite; }
    </style>
    
    <rect width="100%" height="100%" fill="#0d1117" />
    
    <line x1="50" y1="50" x2="50" y2="400" class="hud-line" />
    <line x1="50" y1="400" x2="750" y2="400" class="hud-line" />
    <text x="60" y="390" class="text">SYS_TIME: 2026.04.15 :: 0126</text>
    <text x="60" y="375" class="text">SECTOR: N_BHARATH_PRIME</text>
    
    <circle cx="400" cy="225" r="25" fill="url(#grad1)" class="sun" />
    <defs>
        <radialGradient id="grad1" cx="50%" cy="50%" r="50%" fx="50%" fy="50%">
            <stop offset="0%" style="stop-color:white;stop-opacity:1" />
            <stop offset="100%" style="stop-color:#00ffff;stop-opacity:1" />
        </radialGradient>
    </defs>
    <circle cx="400" cy="225" r="150.0" class="orbit" />
<circle cx="262.23426612678566" cy="165.6653341597453" r="50" fill="#e34c26" class="planet" />
<text x="277.23426612678566" y="170.6653341597453" class="text" fill="white">CIRCLE13</text>
<circle cx="400" cy="225" r="240.0" class="orbit" />
<circle cx="178.83227239816486" cy="318.1924689416503" r="50" fill="#f1e05a" class="planet" />
<text x="193.83227239816486" y="323.1924689416503" class="text" fill="white">REDSHIFT</text>
<circle cx="400" cy="225" r="330.0" class="orbit" />
<circle cx="70.46839715384795" cy="242.57619770160562" r="50" fill="#e34c26" class="planet" />
<text x="85.46839715384795" y="247.57619770160562" class="text" fill="white">ALVRYN-AI</text>
<circle cx="400" cy="225" r="415.422" class="orbit" />
<circle cx="637.1275416834058" cy="-116.09524631572435" r="46.948" fill="#f1e05a" class="planet" />
<text x="652.1275416834058" y="-111.09524631572435" class="text" fill="white">DRIFT-CIRCLE13</text>
<circle cx="400" cy="225" r="461.8095" class="orbit" />
<circle cx="81.83110846413337" cy="559.7186441611641" r="20.925" fill="#2b7489" class="planet" />
<text x="96.83110846413337" y="564.7186441611641" class="text" fill="white">DSATM-EXAM-SYSTEM-</text>
<circle cx="400" cy="225" r="504.8775" class="orbit" />
<circle cx="572.4608008098057" cy="-249.50875881303864" r="18.712" fill="#8b949e" class="planet" />
<text x="587.4608008098057" y="-244.50875881303864" class="text" fill="white">NBHARATH1306</text>
<circle cx="400" cy="225" r="547.11" class="orbit" />
<circle cx="98.40940079263959" cy="681.4783265060296" r="18.155" fill="#e34c26" class="planet" />
<text x="113.40940079263959" y="686.4783265060296" class="text" fill="white">WEBSITE-EQUDATOR-TRADING-PLATFORM</text>
<circle cx="400" cy="225" r="577.9425" class="orbit" />
<circle cx="-157.4777884707296" cy="72.56624826491199" r="10.555" fill="#8b949e" class="planet" />
<text x="-142.4777884707296" y="77.56624826491199" class="text" fill="white">FLASK</text>
<circle cx="400" cy="225" r="608.2155" class="orbit" />
<circle cx="883.6863196267343" cy="-143.74603543115512" r="10.182" fill="#8b949e" class="planet" />
<text x="898.6863196267343" y="-138.74603543115512" class="text" fill="white">HCF-INTERNSHIP</text>
<circle cx="400" cy="225" r="637.0845" class="orbit" />
<circle cx="-153.64940650374115" cy="-90.19675572300127" r="9.246" fill="#8b949e" class="planet" />

    <text x="400" y="40" text-anchor="middle" class="title">SYSTEM SINGULARITY</text>
    </svg>