<svg width="800" height="450" xmlns="http://www.w3.org/2000/svg">
    <style>
        .orbit { fill: none; stroke: #30363d; stroke-width: 1; opacity: 0.5; }
        .planet { filter: drop-shadow(0 0 5px rgba(255,255,255,0.3)); }
        .text { font-family: 'Courier New', monospace; fill: #8b949e; font-size: 10px; }
        .title { font-family: sans-serif; fill: white; font-weight: bold; font-size: 24px; letter-spacing: 4px; }
        .hud-line { stroke: #00ffff; stroke-width: 1; opacity: 0.3; }
        
        /* ANIMATIONS */
        @keyframes pulse { 0% { r: 25; opacity: 0.8; } 50% { r: 30; opacity: 0.4; } 100% { r: 25; opacity: 0.8; } }
        .sun { animation: pulse 4s infinite; }
    </style>
    
    <rect width="100%" height="100%" fill="#0d1117" />
    
    <line x1="50" y1="50" x2="50" y2="400" class="hud-line" />
    <line x1="50" y1="400" x2="750" y2="400" class="hud-line" />
    <text x="60" y="390" class="text">SYS_TIME: 2026.04.05 :: 0126</text>
    <text x="60" y="375" class="text">SECTOR: N_BHARATH_PRIME</text>
    
    <circle cx="400" cy="225" r="25" fill="url(#grad1)" class="sun" />
    <defs>
        <radialGradient id="grad1" cx="50%" cy="50%" r="50%" fx="50%" fy="50%">
            <stop offset="0%" style="stop-color:white;stop-opacity:1" />
            <stop offset="100%" style="stop-color:#00ffff;stop-opacity:1" />
        </radialGradient>
    </defs>
    <circle cx="400" cy="225" r="150.0" class="orbit" />
<circle cx="301.76558089967773" cy="338.35783565339557" r="50" fill="#e34c26" class="planet" />
<text x="316.76558089967773" y="343.35783565339557" class="text" fill="white">CIRCLE13</text>
<circle cx="400" cy="225" r="240.0" class="orbit" />
<circle cx="168.38021399178874" cy="287.8671196215512" r="50" fill="#f1e05a" class="planet" />
<text x="183.38021399178874" y="292.8671196215512" class="text" fill="white">REDSHIFT</text>
<circle cx="400" cy="225" r="330.0" class="orbit" />
<circle cx="643.5559705500798" cy="2.333232813226715" r="50" fill="#e34c26" class="planet" />
<text x="658.5559705500798" y="7.333232813226715" class="text" fill="white">ALVRYN-AI</text>
<circle cx="400" cy="225" r="415.422" class="orbit" />
<circle cx="441.66968726228424" cy="638.3268382859544" r="46.948" fill="#f1e05a" class="planet" />
<text x="456.66968726228424" y="643.3268382859544" class="text" fill="white">DRIFT-CIRCLE13</text>
<circle cx="400" cy="225" r="461.8095" class="orbit" />
<circle cx="-61.250682918289215" cy="202.28828941577" r="20.925" fill="#2b7489" class="planet" />
<text x="-46.250682918289215" y="207.28828941577" class="text" fill="white">DSATM-EXAM-SYSTEM-</text>
<circle cx="400" cy="225" r="504.858" class="orbit" />
<circle cx="32.18971572689867" cy="570.828273781859" r="18.699" fill="#8b949e" class="planet" />
<text x="47.18971572689867" y="575.828273781859" class="text" fill="white">NBHARATH1306</text>
<circle cx="400" cy="225" r="547.0905" class="orbit" />
<circle cx="241.3354743473633" cy="748.577676653306" r="18.155" fill="#e34c26" class="planet" />
<text x="256.3354743473633" y="753.577676653306" class="text" fill="white">WEBSITE-EQUDATOR-TRADING-PLATFORM</text>
<circle cx="400" cy="225" r="577.923" class="orbit" />
<circle cx="238.58456963581722" cy="-329.9234656863464" r="10.555" fill="#8b949e" class="planet" />
<text x="253.58456963581722" y="-324.9234656863464" class="text" fill="white">FLASK</text>
<circle cx="400" cy="225" r="608.196" class="orbit" />
<circle cx="-167.87711897071745" cy="7.243364818617607" r="10.182" fill="#8b949e" class="planet" />
<text x="-152.87711897071745" y="12.243364818617607" class="text" fill="white">HCF-INTERNSHIP</text>
<circle cx="400" cy="225" r="637.065" class="orbit" />
<circle cx="506.79515144672297" cy="853.0498466304022" r="9.246" fill="#8b949e" class="planet" />

    <text x="400" y="40" text-anchor="middle" class="title">SYSTEM SINGULARITY</text>
    </svg>