<svg width="800" height="450" xmlns="http://www.w3.org/2000/svg">
    <style>
        .orbit { fill: none; stroke: #30363d; stroke-width: 1; opacity: 0.5; }
        .planet { filter: drop-shadow(0 0 5px rgba(255,255,255,0.3)); }
        .text { font-family: 'Courier New', monospace; fill: #8b949e; font-size: 10px; }
        .title { font-family: sans-serif; fill: white; font-weight: bold; font-size: 24px; letter-spacing: 4px; }
        .hud-line { stroke: #00ffff; stroke-width: 1; opacity: 0.3; }
        
        /* ANIMATIONS */
        @keyframes pulse { 0% { r: 25; opacity: 0.8; } 50% { r: 30; opacity: 0.4; } 100% { r: 25; opacity: 0.8; } }
        .sun { animation: pulse 4s infinite; }
    </style>
    
    <rect width="100%" height="100%" fill="#0d1117" />
    
    <line x1="50" y1="50" x2="50" y2="400" class="hud-line" />
    <line x1="50" y1="400" x2="750" y2="400" class="hud-line" />
    <text x="60" y="390" class="text">SYS_TIME: 2026.06.06 :: 0209</text>
    <text x="60" y="375" class="text">SECTOR: N_BHARATH_PRIME</text>
    
    <circle cx="400" cy="225" r="25" fill="url(#grad1)" class="sun" />
    <defs>
        <radialGradient id="grad1" cx="50%" cy="50%" r="50%" fx="50%" fy="50%">
            <stop offset="0%" style="stop-color:white;stop-opacity:1" />
            <stop offset="100%" style="stop-color:#00ffff;stop-opacity:1" />
        </radialGradient>
    </defs>
    <circle cx="400" cy="225" r="150.0" class="orbit" />
<circle cx="250.0063342151139" cy="223.62151372444598" r="50" fill="#e34c26" class="planet" />
<text x="265.0063342151139" y="228.62151372444598" class="text" fill="white">CIRCLE13</text>
<circle cx="400" cy="225" r="240.0" class="orbit" />
<circle cx="579.8921894116794" cy="66.13275923377893" r="50" fill="#f1e05a" class="planet" />
<text x="594.8921894116794" y="71.13275923377893" class="text" fill="white">REDSHIFT</text>
<circle cx="400" cy="225" r="330.0" class="orbit" />
<circle cx="214.5217650621207" cy="-47.94289579384338" r="50" fill="#e34c26" class="planet" />
<text x="229.5217650621207" y="-42.94289579384338" class="text" fill="white">ALVRYN-AI</text>
<circle cx="400" cy="225" r="415.422" class="orbit" />
<circle cx="578.0537727607597" cy="600.329577957373" r="46.948" fill="#f1e05a" class="planet" />
<text x="593.0537727607597" y="605.329577957373" class="text" fill="white">DRIFT-CIRCLE13</text>
<circle cx="400" cy="225" r="461.8095" class="orbit" />
<circle cx="603.6415810078864" cy="639.4853685896023" r="20.925" fill="#2b7489" class="planet" />
<text x="618.6415810078864" y="644.4853685896023" class="text" fill="white">DSATM-EXAM-SYSTEM-</text>
<circle cx="400" cy="225" r="504.93600000000004" class="orbit" />
<circle cx="-35.64954051938065" cy="-30.28384582901549" r="18.751" fill="#8b949e" class="planet" />
<text x="-20.64954051938065" y="-25.28384582901549" class="text" fill="white">NBHARATH1306</text>
<circle cx="400" cy="225" r="547.1685" class="orbit" />
<circle cx="911.7244648472488" cy="418.7303266632429" r="18.155" fill="#e34c26" class="planet" />
<text x="926.7244648472488" y="423.7303266632429" class="text" fill="white">WEBSITE-EQUDATOR-TRADING-PLATFORM</text>
<circle cx="400" cy="225" r="578.001" class="orbit" />
<circle cx="740.6777272751137" cy="-241.93023262545688" r="10.555" fill="#8b949e" class="planet" />
<text x="755.6777272751137" y="-236.93023262545688" class="text" fill="white">FLASK</text>
<circle cx="400" cy="225" r="608.274" class="orbit" />
<circle cx="974.2481620960008" cy="24.410101437372504" r="10.182" fill="#8b949e" class="planet" />
<text x="989.2481620960008" y="29.410101437372504" class="text" fill="white">HCF-INTERNSHIP</text>
<circle cx="400" cy="225" r="637.143" class="orbit" />
<circle cx="38.25853343955117" cy="-299.49434107499746" r="9.246" fill="#8b949e" class="planet" />

    <text x="400" y="40" text-anchor="middle" class="title">SYSTEM SINGULARITY</text>
    </svg>