<svg width="800" height="450" xmlns="http://www.w3.org/2000/svg">
    <style>
        .orbit { fill: none; stroke: #30363d; stroke-width: 1; opacity: 0.5; }
        .planet { filter: drop-shadow(0 0 5px rgba(255,255,255,0.3)); }
        .text { font-family: 'Courier New', monospace; fill: #8b949e; font-size: 10px; }
        .title { font-family: sans-serif; fill: white; font-weight: bold; font-size: 24px; letter-spacing: 4px; }
        .hud-line { stroke: #00ffff; stroke-width: 1; opacity: 0.3; }
        
        /* ANIMATIONS */
        @keyframes pulse { 0% { r: 25; opacity: 0.8; } 50% { r: 30; opacity: 0.4; } 100% { r: 25; opacity: 0.8; } }
        .sun { animation: pulse 4s infinite; }
    </style>
    
    <rect width="100%" height="100%" fill="#0d1117" />
    
    <line x1="50" y1="50" x2="50" y2="400" class="hud-line" />
    <line x1="50" y1="400" x2="750" y2="400" class="hud-line" />
    <text x="60" y="390" class="text">SYS_TIME: 2026.04.16 :: 0147</text>
    <text x="60" y="375" class="text">SECTOR: N_BHARATH_PRIME</text>
    
    <circle cx="400" cy="225" r="25" fill="url(#grad1)" class="sun" />
    <defs>
        <radialGradient id="grad1" cx="50%" cy="50%" r="50%" fx="50%" fy="50%">
            <stop offset="0%" style="stop-color:white;stop-opacity:1" />
            <stop offset="100%" style="stop-color:#00ffff;stop-opacity:1" />
        </radialGradient>
    </defs>
    <circle cx="400" cy="225" r="150.0" class="orbit" />
<circle cx="271.08735080947304" cy="148.30887353363408" r="50" fill="#e34c26" class="planet" />
<text x="286.08735080947304" y="153.30887353363408" class="text" fill="white">CIRCLE13</text>
<circle cx="400" cy="225" r="240.0" class="orbit" />
<circle cx="226.3052682034629" cy="59.379529809479635" r="50" fill="#f1e05a" class="planet" />
<text x="241.3052682034629" y="64.37952980947964" class="text" fill="white">REDSHIFT</text>
<circle cx="400" cy="225" r="330.0" class="orbit" />
<circle cx="84.27023790994582" cy="320.9933191975242" r="50" fill="#e34c26" class="planet" />
<text x="99.27023790994582" y="325.9933191975242" class="text" fill="white">ALVRYN-AI</text>
<circle cx="400" cy="225" r="415.422" class="orbit" />
<circle cx="445.18057400966774" cy="-187.95781118191354" r="46.948" fill="#f1e05a" class="planet" />
<text x="460.18057400966774" y="-182.95781118191354" class="text" fill="white">DRIFT-CIRCLE13</text>
<circle cx="400" cy="225" r="461.8095" class="orbit" />
<circle cx="406.1413653636514" cy="686.7686627757671" r="20.925" fill="#2b7489" class="planet" />
<text x="421.1413653636514" y="691.7686627757671" class="text" fill="white">DSATM-EXAM-SYSTEM-</text>
<circle cx="400" cy="225" r="504.879" class="orbit" />
<circle cx="-78.0326918654556" cy="387.4424518063747" r="18.713" fill="#8b949e" class="planet" />
<text x="-63.032691865455604" y="392.4424518063747" class="text" fill="white">NBHARATH1306</text>
<circle cx="400" cy="225" r="547.1115" class="orbit" />
<circle cx="508.09045187895117" cy="761.3277427514394" r="18.155" fill="#e34c26" class="planet" />
<text x="523.0904518789512" y="766.3277427514394" class="text" fill="white">WEBSITE-EQUDATOR-TRADING-PLATFORM</text>
<circle cx="400" cy="225" r="577.944" class="orbit" />
<circle cx="612.7425027670218" cy="-312.3638382440929" r="10.555" fill="#8b949e" class="planet" />
<text x="627.7425027670218" y="-307.3638382440929" class="text" fill="white">FLASK</text>
<circle cx="400" cy="225" r="608.217" class="orbit" />
<circle cx="967.8597534347641" cy="7.139449376421311" r="10.182" fill="#8b949e" class="planet" />
<text x="982.8597534347641" y="12.139449376421311" class="text" fill="white">HCF-INTERNSHIP</text>
<circle cx="400" cy="225" r="637.086" class="orbit" />
<circle cx="295.70567381080315" cy="-403.4912608149309" r="9.246" fill="#8b949e" class="planet" />

    <text x="400" y="40" text-anchor="middle" class="title">SYSTEM SINGULARITY</text>
    </svg>