<svg width="800" height="450" xmlns="http://www.w3.org/2000/svg">
    <style>
        .orbit { fill: none; stroke: #30363d; stroke-width: 1; opacity: 0.5; }
        .planet { filter: drop-shadow(0 0 5px rgba(255,255,255,0.3)); }
        .text { font-family: 'Courier New', monospace; fill: #8b949e; font-size: 10px; }
        .title { font-family: sans-serif; fill: white; font-weight: bold; font-size: 24px; letter-spacing: 4px; }
        .hud-line { stroke: #00ffff; stroke-width: 1; opacity: 0.3; }
        
        /* ANIMATIONS */
        @keyframes pulse { 0% { r: 25; opacity: 0.8; } 50% { r: 30; opacity: 0.4; } 100% { r: 25; opacity: 0.8; } }
        .sun { animation: pulse 4s infinite; }
    </style>
    
    <rect width="100%" height="100%" fill="#0d1117" />
    
    <line x1="50" y1="50" x2="50" y2="400" class="hud-line" />
    <line x1="50" y1="400" x2="750" y2="400" class="hud-line" />
    <text x="60" y="390" class="text">SYS_TIME: 2026.05.06 :: 0155</text>
    <text x="60" y="375" class="text">SECTOR: N_BHARATH_PRIME</text>
    
    <circle cx="400" cy="225" r="25" fill="url(#grad1)" class="sun" />
    <defs>
        <radialGradient id="grad1" cx="50%" cy="50%" r="50%" fx="50%" fy="50%">
            <stop offset="0%" style="stop-color:white;stop-opacity:1" />
            <stop offset="100%" style="stop-color:#00ffff;stop-opacity:1" />
        </radialGradient>
    </defs>
    <circle cx="400" cy="225" r="150.0" class="orbit" />
<circle cx="410.9102507725733" cy="374.60269525673516" r="50" fill="#e34c26" class="planet" />
<text x="425.9102507725733" y="379.60269525673516" class="text" fill="white">CIRCLE13</text>
<circle cx="400" cy="225" r="240.0" class="orbit" />
<circle cx="581.3227803551003" cy="382.23246905234305" r="50" fill="#f1e05a" class="planet" />
<text x="596.3227803551003" y="387.23246905234305" class="text" fill="white">REDSHIFT</text>
<circle cx="400" cy="225" r="330.0" class="orbit" />
<circle cx="548.0898123720474" cy="-69.905760322873" r="50" fill="#e34c26" class="planet" />
<text x="563.0898123720474" y="-64.905760322873" class="text" fill="white">ALVRYN-AI</text>
<circle cx="400" cy="225" r="415.422" class="orbit" />
<circle cx="802.2096306087506" cy="328.9367650524706" r="46.948" fill="#f1e05a" class="planet" />
<text x="817.2096306087506" y="333.9367650524706" class="text" fill="white">DRIFT-CIRCLE13</text>
<circle cx="400" cy="225" r="461.8095" class="orbit" />
<circle cx="782.953541915326" cy="483.0980414973283" r="20.925" fill="#2b7489" class="planet" />
<text x="797.953541915326" y="488.0980414973283" class="text" fill="white">DSATM-EXAM-SYSTEM-</text>
<circle cx="400" cy="225" r="504.918" class="orbit" />
<circle cx="612.4819412160523" cy="683.0323256944407" r="18.739" fill="#8b949e" class="planet" />
<text x="627.4819412160523" y="688.0323256944407" class="text" fill="white">NBHARATH1306</text>
<circle cx="400" cy="225" r="547.1505" class="orbit" />
<circle cx="63.02183791171507" cy="656.0677300910513" r="18.155" fill="#e34c26" class="planet" />
<text x="78.02183791171507" y="661.0677300910513" class="text" fill="white">WEBSITE-EQUDATOR-TRADING-PLATFORM</text>
<circle cx="400" cy="225" r="577.983" class="orbit" />
<circle cx="280.1151209143065" cy="-340.4130915141677" r="10.555" fill="#8b949e" class="planet" />
<text x="295.1151209143065" y="-335.4130915141677" class="text" fill="white">FLASK</text>
<circle cx="400" cy="225" r="608.256" class="orbit" />
<circle cx="347.13588234261044" cy="830.9544096714749" r="10.182" fill="#8b949e" class="planet" />
<text x="362.13588234261044" y="835.9544096714749" class="text" fill="white">HCF-INTERNSHIP</text>
<circle cx="400" cy="225" r="637.125" class="orbit" />
<circle cx="254.97443956003372" cy="845.3997521308931" r="9.246" fill="#8b949e" class="planet" />

    <text x="400" y="40" text-anchor="middle" class="title">SYSTEM SINGULARITY</text>
    </svg>