<svg width="800" height="450" xmlns="http://www.w3.org/2000/svg">
    <style>
        .orbit { fill: none; stroke: #30363d; stroke-width: 1; opacity: 0.5; }
        .planet { filter: drop-shadow(0 0 5px rgba(255,255,255,0.3)); }
        .text { font-family: 'Courier New', monospace; fill: #8b949e; font-size: 10px; }
        .title { font-family: sans-serif; fill: white; font-weight: bold; font-size: 24px; letter-spacing: 4px; }
        .hud-line { stroke: #00ffff; stroke-width: 1; opacity: 0.3; }
        
        /* ANIMATIONS */
        @keyframes pulse { 0% { r: 25; opacity: 0.8; } 50% { r: 30; opacity: 0.4; } 100% { r: 25; opacity: 0.8; } }
        .sun { animation: pulse 4s infinite; }
    </style>
    
    <rect width="100%" height="100%" fill="#0d1117" />
    
    <line x1="50" y1="50" x2="50" y2="400" class="hud-line" />
    <line x1="50" y1="400" x2="750" y2="400" class="hud-line" />
    <text x="60" y="390" class="text">SYS_TIME: 2026.04.09 :: 0116</text>
    <text x="60" y="375" class="text">SECTOR: N_BHARATH_PRIME</text>
    
    <circle cx="400" cy="225" r="25" fill="url(#grad1)" class="sun" />
    <defs>
        <radialGradient id="grad1" cx="50%" cy="50%" r="50%" fx="50%" fy="50%">
            <stop offset="0%" style="stop-color:white;stop-opacity:1" />
            <stop offset="100%" style="stop-color:#00ffff;stop-opacity:1" />
        </radialGradient>
    </defs>
    <circle cx="400" cy="225" r="150.0" class="orbit" />
<circle cx="452.92314014290577" cy="84.64637077220141" r="50" fill="#e34c26" class="planet" />
<text x="467.92314014290577" y="89.64637077220141" class="text" fill="white">CIRCLE13</text>
<circle cx="400" cy="225" r="240.0" class="orbit" />
<circle cx="430.58272702713583" cy="463.04347671714027" r="50" fill="#f1e05a" class="planet" />
<text x="445.58272702713583" y="468.04347671714027" class="text" fill="white">REDSHIFT</text>
<circle cx="400" cy="225" r="330.0" class="orbit" />
<circle cx="529.8107761198057" cy="528.3960487599891" r="50" fill="#e34c26" class="planet" />
<text x="544.8107761198057" y="533.3960487599891" class="text" fill="white">ALVRYN-AI</text>
<circle cx="400" cy="225" r="415.422" class="orbit" />
<circle cx="219.75595581328523" cy="-149.28267742338494" r="46.948" fill="#f1e05a" class="planet" />
<text x="234.75595581328523" y="-144.28267742338494" class="text" fill="white">DRIFT-CIRCLE13</text>
<circle cx="400" cy="225" r="461.8095" class="orbit" />
<circle cx="-36.45814491043291" cy="375.9049436950081" r="20.925" fill="#2b7489" class="planet" />
<text x="-21.458144910432907" y="380.9049436950081" class="text" fill="white">DSATM-EXAM-SYSTEM-</text>
<circle cx="400" cy="225" r="504.8655" class="orbit" />
<circle cx="630.580251508428" cy="674.134635387386" r="18.704" fill="#8b949e" class="planet" />
<text x="645.580251508428" y="679.134635387386" class="text" fill="white">NBHARATH1306</text>
<circle cx="400" cy="225" r="547.098" class="orbit" />
<circle cx="913.181670241998" cy="414.63331704010557" r="18.155" fill="#e34c26" class="planet" />
<text x="928.181670241998" y="419.63331704010557" class="text" fill="white">WEBSITE-EQUDATOR-TRADING-PLATFORM</text>
<circle cx="400" cy="225" r="577.9304999999999" class="orbit" />
<circle cx="-176.78148047044738" cy="261.4250822451894" r="10.555" fill="#8b949e" class="planet" />
<text x="-161.78148047044738" y="266.4250822451894" class="text" fill="white">FLASK</text>
<circle cx="400" cy="225" r="608.2035" class="orbit" />
<circle cx="470.2140668036784" cy="829.1369730741022" r="10.182" fill="#8b949e" class="planet" />
<text x="485.2140668036784" y="834.1369730741022" class="text" fill="white">HCF-INTERNSHIP</text>
<circle cx="400" cy="225" r="637.0725" class="orbit" />
<circle cx="1036.6605058165094" cy="202.0921282150348" r="9.246" fill="#8b949e" class="planet" />

    <text x="400" y="40" text-anchor="middle" class="title">SYSTEM SINGULARITY</text>
    </svg>