<svg width="800" height="450" xmlns="http://www.w3.org/2000/svg">
    <style>
        .orbit { fill: none; stroke: #30363d; stroke-width: 1; opacity: 0.5; }
        .planet { filter: drop-shadow(0 0 5px rgba(255,255,255,0.3)); }
        .text { font-family: 'Courier New', monospace; fill: #8b949e; font-size: 10px; }
        .title { font-family: sans-serif; fill: white; font-weight: bold; font-size: 24px; letter-spacing: 4px; }
        .hud-line { stroke: #00ffff; stroke-width: 1; opacity: 0.3; }
        
        /* ANIMATIONS */
        @keyframes pulse { 0% { r: 25; opacity: 0.8; } 50% { r: 30; opacity: 0.4; } 100% { r: 25; opacity: 0.8; } }
        .sun { animation: pulse 4s infinite; }
    </style>
    
    <rect width="100%" height="100%" fill="#0d1117" />
    
    <line x1="50" y1="50" x2="50" y2="400" class="hud-line" />
    <line x1="50" y1="400" x2="750" y2="400" class="hud-line" />
    <text x="60" y="390" class="text">SYS_TIME: 2026.04.02 :: 0120</text>
    <text x="60" y="375" class="text">SECTOR: N_BHARATH_PRIME</text>
    
    <circle cx="400" cy="225" r="25" fill="url(#grad1)" class="sun" />
    <defs>
        <radialGradient id="grad1" cx="50%" cy="50%" r="50%" fx="50%" fy="50%">
            <stop offset="0%" style="stop-color:white;stop-opacity:1" />
            <stop offset="100%" style="stop-color:#00ffff;stop-opacity:1" />
        </radialGradient>
    </defs>
    <circle cx="400" cy="225" r="150.0" class="orbit" />
<circle cx="291.1617002648223" cy="121.78069700508718" r="50" fill="#f1e05a" class="planet" />
<text x="306.1617002648223" y="126.78069700508718" class="text" fill="white">REDSHIFT</text>
<circle cx="400" cy="225" r="240.0" class="orbit" />
<circle cx="183.85464020608998" cy="329.31291118342534" r="50" fill="#e34c26" class="planet" />
<text x="198.85464020608998" y="334.31291118342534" class="text" fill="white">CIRCLE-13</text>
<circle cx="400" cy="225" r="330.0" class="orbit" />
<circle cx="653.1400420882012" cy="13.292373563010955" r="50" fill="#e34c26" class="planet" />
<text x="668.1400420882012" y="18.292373563010955" class="text" fill="white">ALVRYN-AI</text>
<circle cx="400" cy="225" r="415.422" class="orbit" />
<circle cx="-6.853306324347841" cy="308.93941396594596" r="46.948" fill="#f1e05a" class="planet" />
<text x="8.146693675652159" y="313.93941396594596" class="text" fill="white">DRIFT-CIRCLE13</text>
<circle cx="400" cy="225" r="461.8095" class="orbit" />
<circle cx="-46.609011191729564" cy="107.49082838945898" r="20.925" fill="#2b7489" class="planet" />
<text x="-31.609011191729564" y="112.49082838945898" class="text" fill="white">DSATM-EXAM-SYSTEM-</text>
<circle cx="400" cy="225" r="504.89700000000005" class="orbit" />
<circle cx="889.1558663675622" cy="350.0900435974008" r="18.725" fill="#8b949e" class="planet" />
<text x="904.1558663675622" y="355.0900435974008" class="text" fill="white">NBHARATH1306</text>
<circle cx="400" cy="225" r="547.1295" class="orbit" />
<circle cx="530.7787964304514" cy="-306.2697960306539" r="18.155" fill="#e34c26" class="planet" />
<text x="545.7787964304514" y="-301.2697960306539" class="text" fill="white">WEBSITE-EQUDATOR-TRADING-PLATFORM</text>
<circle cx="400" cy="225" r="577.962" class="orbit" />
<circle cx="-155.09642624976857" cy="64.04028140949279" r="10.555" fill="#8b949e" class="planet" />
<text x="-140.09642624976857" y="69.04028140949279" class="text" fill="white">FLASK</text>
<circle cx="400" cy="225" r="608.235" class="orbit" />
<circle cx="373.55337696444127" cy="832.6597661150647" r="10.182" fill="#8b949e" class="planet" />
<text x="388.55337696444127" y="837.6597661150647" class="text" fill="white">HCF-INTERNSHIP</text>
<circle cx="400" cy="225" r="637.104" class="orbit" />
<circle cx="1007.2272426846973" cy="417.8122987714727" r="9.246" fill="#8b949e" class="planet" />

    <text x="400" y="40" text-anchor="middle" class="title">SYSTEM SINGULARITY</text>
    </svg>