<svg width="800" height="450" xmlns="http://www.w3.org/2000/svg">
    <style>
        .orbit { fill: none; stroke: #30363d; stroke-width: 1; opacity: 0.5; }
        .planet { filter: drop-shadow(0 0 5px rgba(255,255,255,0.3)); }
        .text { font-family: 'Courier New', monospace; fill: #8b949e; font-size: 10px; }
        .title { font-family: sans-serif; fill: white; font-weight: bold; font-size: 24px; letter-spacing: 4px; }
        .hud-line { stroke: #00ffff; stroke-width: 1; opacity: 0.3; }
        
        /* ANIMATIONS */
        @keyframes pulse { 0% { r: 25; opacity: 0.8; } 50% { r: 30; opacity: 0.4; } 100% { r: 25; opacity: 0.8; } }
        .sun { animation: pulse 4s infinite; }
    </style>
    
    <rect width="100%" height="100%" fill="#0d1117" />
    
    <line x1="50" y1="50" x2="50" y2="400" class="hud-line" />
    <line x1="50" y1="400" x2="750" y2="400" class="hud-line" />
    <text x="60" y="390" class="text">SYS_TIME: 2026.06.18 :: 0240</text>
    <text x="60" y="375" class="text">SECTOR: N_BHARATH_PRIME</text>
    
    <circle cx="400" cy="225" r="25" fill="url(#grad1)" class="sun" />
    <defs>
        <radialGradient id="grad1" cx="50%" cy="50%" r="50%" fx="50%" fy="50%">
            <stop offset="0%" style="stop-color:white;stop-opacity:1" />
            <stop offset="100%" style="stop-color:#00ffff;stop-opacity:1" />
        </radialGradient>
    </defs>
    <circle cx="400" cy="225" r="150.0" class="orbit" />
<circle cx="254.53977940964953" cy="188.37590648484826" r="50" fill="#e34c26" class="planet" />
<text x="269.53977940964955" y="193.37590648484826" class="text" fill="white">CIRCLE13</text>
<circle cx="400" cy="225" r="240.0" class="orbit" />
<circle cx="360.57841728760167" cy="461.7402348914302" r="50" fill="#f1e05a" class="planet" />
<text x="375.57841728760167" y="466.7402348914302" class="text" fill="white">REDSHIFT</text>
<circle cx="400" cy="225" r="330.0" class="orbit" />
<circle cx="75.04963914618361" cy="167.4911921443811" r="50" fill="#e34c26" class="planet" />
<text x="90.04963914618361" y="172.4911921443811" class="text" fill="white">ALVRYN-AI</text>
<circle cx="400" cy="225" r="415.422" class="orbit" />
<circle cx="13.590289148832028" cy="377.5220424853954" r="46.948" fill="#f1e05a" class="planet" />
<text x="28.590289148832028" y="382.5220424853954" class="text" fill="white">DRIFT-CIRCLE13</text>
<circle cx="400" cy="225" r="461.8095" class="orbit" />
<circle cx="634.5845164442331" cy="622.7915521160239" r="20.925" fill="#2b7489" class="planet" />
<text x="649.5845164442331" y="627.7915521160239" class="text" fill="white">DSATM-EXAM-SYSTEM-</text>
<circle cx="400" cy="225" r="504.96000000000004" class="orbit" />
<circle cx="-88.29703141148104" cy="353.6491768910129" r="18.767" fill="#8b949e" class="planet" />
<text x="-73.29703141148104" y="358.6491768910129" class="text" fill="white">NBHARATH1306</text>
<circle cx="400" cy="225" r="547.1925" class="orbit" />
<circle cx="79.07596582231719" cy="-218.20130453708214" r="18.155" fill="#e34c26" class="planet" />
<text x="94.07596582231719" y="-213.20130453708214" class="text" fill="white">WEBSITE-EQUDATOR-TRADING-PLATFORM</text>
<circle cx="400" cy="225" r="578.025" class="orbit" />
<circle cx="378.1416014186861" cy="802.6115572220317" r="10.555" fill="#8b949e" class="planet" />
<text x="393.1416014186861" y="807.6115572220317" class="text" fill="white">FLASK</text>
<circle cx="400" cy="225" r="608.298" class="orbit" />
<circle cx="876.0634501735516" cy="603.6687843126949" r="10.182" fill="#8b949e" class="planet" />
<text x="891.0634501735516" y="608.6687843126949" class="text" fill="white">HCF-INTERNSHIP</text>
<circle cx="400" cy="225" r="637.167" class="orbit" />
<circle cx="991.324168911687" cy="-12.313112047991922" r="9.246" fill="#8b949e" class="planet" />

    <text x="400" y="40" text-anchor="middle" class="title">SYSTEM SINGULARITY</text>
    </svg>