<svg width="800" height="450" xmlns="http://www.w3.org/2000/svg">
    <style>
        .orbit { fill: none; stroke: #30363d; stroke-width: 1; opacity: 0.5; }
        .planet { filter: drop-shadow(0 0 5px rgba(255,255,255,0.3)); }
        .text { font-family: 'Courier New', monospace; fill: #8b949e; font-size: 10px; }
        .title { font-family: sans-serif; fill: white; font-weight: bold; font-size: 24px; letter-spacing: 4px; }
        .hud-line { stroke: #00ffff; stroke-width: 1; opacity: 0.3; }
        
        /* ANIMATIONS */
        @keyframes pulse { 0% { r: 25; opacity: 0.8; } 50% { r: 30; opacity: 0.4; } 100% { r: 25; opacity: 0.8; } }
        .sun { animation: pulse 4s infinite; }
    </style>
    
    <rect width="100%" height="100%" fill="#0d1117" />
    
    <line x1="50" y1="50" x2="50" y2="400" class="hud-line" />
    <line x1="50" y1="400" x2="750" y2="400" class="hud-line" />
    <text x="60" y="390" class="text">SYS_TIME: 2026.03.29 :: 0125</text>
    <text x="60" y="375" class="text">SECTOR: N_BHARATH_PRIME</text>
    
    <circle cx="400" cy="225" r="25" fill="url(#grad1)" class="sun" />
    <defs>
        <radialGradient id="grad1" cx="50%" cy="50%" r="50%" fx="50%" fy="50%">
            <stop offset="0%" style="stop-color:white;stop-opacity:1" />
            <stop offset="100%" style="stop-color:#00ffff;stop-opacity:1" />
        </radialGradient>
    </defs>
    <circle cx="400" cy="225" r="150.0" class="orbit" />
<circle cx="534.7639392923984" cy="159.13133775159255" r="50" fill="#f1e05a" class="planet" />
<text x="549.7639392923984" y="164.13133775159255" class="text" fill="white">REDSHIFT</text>
<circle cx="400" cy="225" r="240.0" class="orbit" />
<circle cx="255.72778222923012" cy="416.79553482681376" r="50" fill="#e34c26" class="planet" />
<text x="270.7277822292301" y="421.79553482681376" class="text" fill="white">CIRCLE-13</text>
<circle cx="400" cy="225" r="330.0" class="orbit" />
<circle cx="503.605923456485" cy="-88.31423942222762" r="50" fill="#e34c26" class="planet" />
<text x="518.605923456485" y="-83.31423942222762" class="text" fill="white">ALVRYN-AI</text>
<circle cx="400" cy="225" r="415.422" class="orbit" />
<circle cx="811.7680654156935" cy="279.9772533673442" r="46.948" fill="#f1e05a" class="planet" />
<text x="826.7680654156935" y="284.9772533673442" class="text" fill="white">DRIFT-CIRCLE13</text>
<circle cx="400" cy="225" r="461.8095" class="orbit" />
<circle cx="27.39482724766566" cy="497.8248513762137" r="20.925" fill="#2b7489" class="planet" />
<text x="42.39482724766566" y="502.8248513762137" class="text" fill="white">DSATM-EXAM-SYSTEM-</text>
<circle cx="400" cy="225" r="504.8895" class="orbit" />
<circle cx="5.436788427428212" cy="-90.01314144617521" r="18.72" fill="#8b949e" class="planet" />
<text x="20.436788427428212" y="-85.01314144617521" class="text" fill="white">NBHARATH1306</text>
<circle cx="400" cy="225" r="547.122" class="orbit" />
<circle cx="881.8090055389946" cy="484.2345753666456" r="18.155" fill="#e34c26" class="planet" />
<text x="896.8090055389946" y="489.2345753666456" class="text" fill="white">WEBSITE-EQUDATOR-TRADING-PLATFORM</text>
<circle cx="400" cy="225" r="577.9544999999999" class="orbit" />
<circle cx="528.9255806781969" cy="788.3911596014261" r="10.555" fill="#8b949e" class="planet" />
<text x="543.9255806781969" y="793.3911596014261" class="text" fill="white">FLASK</text>
<circle cx="400" cy="225" r="608.2275" class="orbit" />
<circle cx="860.5943189923161" cy="-172.23238169647567" r="10.182" fill="#8b949e" class="planet" />
<text x="875.5943189923161" y="-167.23238169647567" class="text" fill="white">HCF-INTERNSHIP</text>
<circle cx="400" cy="225" r="637.0965" class="orbit" />
<circle cx="91.78877824413644" cy="782.5820953868658" r="9.246" fill="#8b949e" class="planet" />

    <text x="400" y="40" text-anchor="middle" class="title">SYSTEM SINGULARITY</text>
    </svg>