<svg width="800" height="450" xmlns="http://www.w3.org/2000/svg">
    <style>
        .orbit { fill: none; stroke: #30363d; stroke-width: 1; opacity: 0.5; }
        .planet { filter: drop-shadow(0 0 5px rgba(255,255,255,0.3)); }
        .text { font-family: 'Courier New', monospace; fill: #8b949e; font-size: 10px; }
        .title { font-family: sans-serif; fill: white; font-weight: bold; font-size: 24px; letter-spacing: 4px; }
        .hud-line { stroke: #00ffff; stroke-width: 1; opacity: 0.3; }
        
        /* ANIMATIONS */
        @keyframes pulse { 0% { r: 25; opacity: 0.8; } 50% { r: 30; opacity: 0.4; } 100% { r: 25; opacity: 0.8; } }
        .sun { animation: pulse 4s infinite; }
    </style>
    
    <rect width="100%" height="100%" fill="#0d1117" />
    
    <line x1="50" y1="50" x2="50" y2="400" class="hud-line" />
    <line x1="50" y1="400" x2="750" y2="400" class="hud-line" />
    <text x="60" y="390" class="text">SYS_TIME: 2026.05.03 :: 0154</text>
    <text x="60" y="375" class="text">SECTOR: N_BHARATH_PRIME</text>
    
    <circle cx="400" cy="225" r="25" fill="url(#grad1)" class="sun" />
    <defs>
        <radialGradient id="grad1" cx="50%" cy="50%" r="50%" fx="50%" fy="50%">
            <stop offset="0%" style="stop-color:white;stop-opacity:1" />
            <stop offset="100%" style="stop-color:#00ffff;stop-opacity:1" />
        </radialGradient>
    </defs>
    <circle cx="400" cy="225" r="150.0" class="orbit" />
<circle cx="452.30347978858134" cy="84.41427525525407" r="50" fill="#e34c26" class="planet" />
<text x="467.30347978858134" y="89.41427525525407" class="text" fill="white">CIRCLE13</text>
<circle cx="400" cy="225" r="240.0" class="orbit" />
<circle cx="392.5328247733988" cy="-14.883807903191382" r="50" fill="#f1e05a" class="planet" />
<text x="407.5328247733988" y="-9.883807903191382" class="text" fill="white">REDSHIFT</text>
<circle cx="400" cy="225" r="330.0" class="orbit" />
<circle cx="360.6802041376444" cy="-102.64913192826054" r="50" fill="#e34c26" class="planet" />
<text x="375.6802041376444" y="-97.64913192826054" class="text" fill="white">ALVRYN-AI</text>
<circle cx="400" cy="225" r="415.422" class="orbit" />
<circle cx="567.4759413187246" cy="-155.16739360893007" r="46.948" fill="#f1e05a" class="planet" />
<text x="582.4759413187246" y="-150.16739360893007" class="text" fill="white">DRIFT-CIRCLE13</text>
<circle cx="400" cy="225" r="461.8095" class="orbit" />
<circle cx="269.4016218483333" cy="-217.95832525690753" r="20.925" fill="#2b7489" class="planet" />
<text x="284.4016218483333" y="-212.95832525690753" class="text" fill="white">DSATM-EXAM-SYSTEM-</text>
<circle cx="400" cy="225" r="504.9135" class="orbit" />
<circle cx="-94.74105199017652" cy="325.84113227202204" r="18.736" fill="#8b949e" class="planet" />
<text x="-79.74105199017652" y="330.84113227202204" class="text" fill="white">NBHARATH1306</text>
<circle cx="400" cy="225" r="547.146" class="orbit" />
<circle cx="815.3671750357444" cy="581.1444302791008" r="18.155" fill="#e34c26" class="planet" />
<text x="830.3671750357444" y="586.1444302791008" class="text" fill="white">WEBSITE-EQUDATOR-TRADING-PLATFORM</text>
<circle cx="400" cy="225" r="577.9784999999999" class="orbit" />
<circle cx="-15.334759537274124" cy="-176.94052294134838" r="10.555" fill="#8b949e" class="planet" />
<text x="-0.3347595372741239" y="-171.94052294134838" class="text" fill="white">FLASK</text>
<circle cx="400" cy="225" r="608.2515" class="orbit" />
<circle cx="131.5870867155225" cy="770.824509558145" r="10.182" fill="#8b949e" class="planet" />
<text x="146.5870867155225" y="775.824509558145" class="text" fill="white">HCF-INTERNSHIP</text>
<circle cx="400" cy="225" r="637.1205" class="orbit" />
<circle cx="-211.81435757396093" cy="402.7799859000203" r="9.246" fill="#8b949e" class="planet" />

    <text x="400" y="40" text-anchor="middle" class="title">SYSTEM SINGULARITY</text>
    </svg>