<svg width="800" height="450" xmlns="http://www.w3.org/2000/svg">
    <style>
        .orbit { fill: none; stroke: #30363d; stroke-width: 1; opacity: 0.5; }
        .planet { filter: drop-shadow(0 0 5px rgba(255,255,255,0.3)); }
        .text { font-family: 'Courier New', monospace; fill: #8b949e; font-size: 10px; }
        .title { font-family: sans-serif; fill: white; font-weight: bold; font-size: 24px; letter-spacing: 4px; }
        .hud-line { stroke: #00ffff; stroke-width: 1; opacity: 0.3; }
        
        /* ANIMATIONS */
        @keyframes pulse { 0% { r: 25; opacity: 0.8; } 50% { r: 30; opacity: 0.4; } 100% { r: 25; opacity: 0.8; } }
        .sun { animation: pulse 4s infinite; }
    </style>
    
    <rect width="100%" height="100%" fill="#0d1117" />
    
    <line x1="50" y1="50" x2="50" y2="400" class="hud-line" />
    <line x1="50" y1="400" x2="750" y2="400" class="hud-line" />
    <text x="60" y="390" class="text">SYS_TIME: 2026.04.21 :: 0129</text>
    <text x="60" y="375" class="text">SECTOR: N_BHARATH_PRIME</text>
    
    <circle cx="400" cy="225" r="25" fill="url(#grad1)" class="sun" />
    <defs>
        <radialGradient id="grad1" cx="50%" cy="50%" r="50%" fx="50%" fy="50%">
            <stop offset="0%" style="stop-color:white;stop-opacity:1" />
            <stop offset="100%" style="stop-color:#00ffff;stop-opacity:1" />
        </radialGradient>
    </defs>
    <circle cx="400" cy="225" r="150.0" class="orbit" />
<circle cx="510.11658754477537" cy="326.85449007036374" r="50" fill="#e34c26" class="planet" />
<text x="525.1165875447754" y="331.85449007036374" class="text" fill="white">CIRCLE13</text>
<circle cx="400" cy="225" r="240.0" class="orbit" />
<circle cx="396.8597650623316" cy="464.9794552134333" r="50" fill="#f1e05a" class="planet" />
<text x="411.8597650623316" y="469.9794552134333" class="text" fill="white">REDSHIFT</text>
<circle cx="400" cy="225" r="330.0" class="orbit" />
<circle cx="339.84702269405085" cy="-99.47129198317367" r="50" fill="#e34c26" class="planet" />
<text x="354.84702269405085" y="-94.47129198317367" class="text" fill="white">ALVRYN-AI</text>
<circle cx="400" cy="225" r="415.422" class="orbit" />
<circle cx="110.13987131116102" cy="522.5845155254045" r="46.948" fill="#f1e05a" class="planet" />
<text x="125.13987131116102" y="527.5845155254045" class="text" fill="white">DRIFT-CIRCLE13</text>
<circle cx="400" cy="225" r="461.8095" class="orbit" />
<circle cx="652.410601702273" cy="-161.72587505692775" r="20.925" fill="#2b7489" class="planet" />
<text x="667.410601702273" y="-156.72587505692775" class="text" fill="white">DSATM-EXAM-SYSTEM-</text>
<circle cx="400" cy="225" r="504.8895" class="orbit" />
<circle cx="876.7099137748007" cy="391.3161607273088" r="18.72" fill="#8b949e" class="planet" />
<text x="891.7099137748007" y="396.3161607273088" class="text" fill="white">NBHARATH1306</text>
<circle cx="400" cy="225" r="547.122" class="orbit" />
<circle cx="-73.96094033879575" cy="-48.31942835657412" r="18.155" fill="#e34c26" class="planet" />
<text x="-58.96094033879575" y="-43.31942835657412" class="text" fill="white">WEBSITE-EQUDATOR-TRADING-PLATFORM</text>
<circle cx="400" cy="225" r="577.9544999999999" class="orbit" />
<circle cx="-76.60308304797792" cy="-101.92645243144864" r="10.555" fill="#8b949e" class="planet" />
<text x="-61.60308304797792" y="-96.92645243144864" class="text" fill="white">FLASK</text>
<circle cx="400" cy="225" r="608.2275" class="orbit" />
<circle cx="703.6967146323354" cy="751.981021743455" r="10.182" fill="#8b949e" class="planet" />
<text x="718.6967146323354" y="756.981021743455" class="text" fill="white">HCF-INTERNSHIP</text>
<circle cx="400" cy="225" r="637.0965" class="orbit" />
<circle cx="413.0461302364809" cy="861.9629100647091" r="9.246" fill="#8b949e" class="planet" />

    <text x="400" y="40" text-anchor="middle" class="title">SYSTEM SINGULARITY</text>
    </svg>