<svg width="800" height="450" xmlns="http://www.w3.org/2000/svg">
    <style>
        .orbit { fill: none; stroke: #30363d; stroke-width: 1; opacity: 0.5; }
        .planet { filter: drop-shadow(0 0 5px rgba(255,255,255,0.3)); }
        .text { font-family: 'Courier New', monospace; fill: #8b949e; font-size: 10px; }
        .title { font-family: sans-serif; fill: white; font-weight: bold; font-size: 24px; letter-spacing: 4px; }
        .hud-line { stroke: #00ffff; stroke-width: 1; opacity: 0.3; }
        
        /* ANIMATIONS */
        @keyframes pulse { 0% { r: 25; opacity: 0.8; } 50% { r: 30; opacity: 0.4; } 100% { r: 25; opacity: 0.8; } }
        .sun { animation: pulse 4s infinite; }
    </style>
    
    <rect width="100%" height="100%" fill="#0d1117" />
    
    <line x1="50" y1="50" x2="50" y2="400" class="hud-line" />
    <line x1="50" y1="400" x2="750" y2="400" class="hud-line" />
    <text x="60" y="390" class="text">SYS_TIME: 2026.02.20 :: 0112</text>
    <text x="60" y="375" class="text">SECTOR: N_BHARATH_PRIME</text>
    
    <circle cx="400" cy="225" r="25" fill="url(#grad1)" class="sun" />
    <defs>
        <radialGradient id="grad1" cx="50%" cy="50%" r="50%" fx="50%" fy="50%">
            <stop offset="0%" style="stop-color:white;stop-opacity:1" />
            <stop offset="100%" style="stop-color:#00ffff;stop-opacity:1" />
        </radialGradient>
    </defs>
    <circle cx="400" cy="225" r="150.0" class="orbit" />
<circle cx="252.16301737599593" cy="250.38161871571475" r="50" fill="#f1e05a" class="planet" />
<text x="267.16301737599593" y="255.38161871571475" class="text" fill="white">REDSHIFT</text>
<circle cx="400" cy="225" r="240.0" class="orbit" />
<circle cx="170.81245599397135" cy="153.7745152878221" r="50" fill="#e34c26" class="planet" />
<text x="185.81245599397135" y="158.7745152878221" class="text" fill="white">CIRCLE-13</text>
<circle cx="400" cy="225" r="330.0" class="orbit" />
<circle cx="608.1545019680184" cy="-31.069723533349872" r="50" fill="#e34c26" class="planet" />
<text x="623.1545019680184" y="-26.069723533349872" class="text" fill="white">ALVRYN-AI</text>
<circle cx="400" cy="225" r="415.422" class="orbit" />
<circle cx="577.7647687156359" cy="-150.46654323318404" r="46.948" fill="#f1e05a" class="planet" />
<text x="592.7647687156359" y="-145.46654323318404" class="text" fill="white">DRIFT-CIRCLE13</text>
<circle cx="400" cy="225" r="461.8095" class="orbit" />
<circle cx="780.2290133134417" cy="-37.095234075205155" r="20.925" fill="#2b7489" class="planet" />
<text x="795.2290133134417" y="-32.095234075205155" class="text" fill="white">DSATM-EXAM-SYSTEM-</text>
<circle cx="400" cy="225" r="504.8145" class="orbit" />
<circle cx="277.29753280341396" cy="714.6751820892301" r="18.67" fill="#8b949e" class="planet" />
<text x="292.29753280341396" y="719.6751820892301" class="text" fill="white">NBHARATH1306</text>
<circle cx="400" cy="225" r="547.047" class="orbit" />
<circle cx="517.1258478838142" cy="-309.36125979200403" r="18.155" fill="#e34c26" class="planet" />
<text x="532.1258478838142" y="-304.36125979200403" class="text" fill="white">WEBSITE-EQUDATOR-TRADING-PLATFORM</text>
<circle cx="400" cy="225" r="577.8795" class="orbit" />
<circle cx="977.8568212786045" cy="219.8803689549951" r="10.555" fill="#8b949e" class="planet" />
<text x="992.8568212786045" y="224.8803689549951" class="text" fill="white">FLASK</text>
<circle cx="400" cy="225" r="608.1525" class="orbit" />
<circle cx="1007.8929613699769" cy="207.23456240083405" r="10.182" fill="#8b949e" class="planet" />
<text x="1022.8929613699769" y="212.23456240083405" class="text" fill="white">HCF-INTERNSHIP</text>
<circle cx="400" cy="225" r="637.0215000000001" class="orbit" />
<circle cx="85.31481639765576" cy="778.8678783639731" r="9.246" fill="#8b949e" class="planet" />

    <text x="400" y="40" text-anchor="middle" class="title">SYSTEM SINGULARITY</text>
    </svg>