<svg width="800" height="450" xmlns="http://www.w3.org/2000/svg">
    <style>
        .orbit { fill: none; stroke: #30363d; stroke-width: 1; opacity: 0.5; }
        .planet { filter: drop-shadow(0 0 5px rgba(255,255,255,0.3)); }
        .text { font-family: 'Courier New', monospace; fill: #8b949e; font-size: 10px; }
        .title { font-family: sans-serif; fill: white; font-weight: bold; font-size: 24px; letter-spacing: 4px; }
        .hud-line { stroke: #00ffff; stroke-width: 1; opacity: 0.3; }
        
        /* ANIMATIONS */
        @keyframes pulse { 0% { r: 25; opacity: 0.8; } 50% { r: 30; opacity: 0.4; } 100% { r: 25; opacity: 0.8; } }
        .sun { animation: pulse 4s infinite; }
    </style>
    
    <rect width="100%" height="100%" fill="#0d1117" />
    
    <line x1="50" y1="50" x2="50" y2="400" class="hud-line" />
    <line x1="50" y1="400" x2="750" y2="400" class="hud-line" />
    <text x="60" y="390" class="text">SYS_TIME: 2026.03.28 :: 0116</text>
    <text x="60" y="375" class="text">SECTOR: N_BHARATH_PRIME</text>
    
    <circle cx="400" cy="225" r="25" fill="url(#grad1)" class="sun" />
    <defs>
        <radialGradient id="grad1" cx="50%" cy="50%" r="50%" fx="50%" fy="50%">
            <stop offset="0%" style="stop-color:white;stop-opacity:1" />
            <stop offset="100%" style="stop-color:#00ffff;stop-opacity:1" />
        </radialGradient>
    </defs>
    <circle cx="400" cy="225" r="150.0" class="orbit" />
<circle cx="498.3479456835499" cy="338.2593553744039" r="50" fill="#f1e05a" class="planet" />
<text x="513.3479456835498" y="343.2593553744039" class="text" fill="white">REDSHIFT</text>
<circle cx="400" cy="225" r="240.0" class="orbit" />
<circle cx="628.2206429198815" cy="299.265322629313" r="50" fill="#e34c26" class="planet" />
<text x="643.2206429198815" y="304.265322629313" class="text" fill="white">CIRCLE-13</text>
<circle cx="400" cy="225" r="330.0" class="orbit" />
<circle cx="268.58224523983006" cy="-77.70344189287943" r="50" fill="#e34c26" class="planet" />
<text x="283.58224523983006" y="-72.70344189287943" class="text" fill="white">ALVRYN-AI</text>
<circle cx="400" cy="225" r="415.422" class="orbit" />
<circle cx="449.52299202514996" cy="-187.45958752934445" r="46.948" fill="#f1e05a" class="planet" />
<text x="464.52299202514996" y="-182.45958752934445" class="text" fill="white">DRIFT-CIRCLE13</text>
<circle cx="400" cy="225" r="461.8095" class="orbit" />
<circle cx="857.4173265384053" cy="161.45943285815034" r="20.925" fill="#2b7489" class="planet" />
<text x="872.4173265384053" y="166.45943285815034" class="text" fill="white">DSATM-EXAM-SYSTEM-</text>
<circle cx="400" cy="225" r="504.8865" class="orbit" />
<circle cx="671.8725849206772" cy="650.4358652614976" r="18.718" fill="#8b949e" class="planet" />
<text x="686.8725849206772" y="655.4358652614976" class="text" fill="white">NBHARATH1306</text>
<circle cx="400" cy="225" r="547.119" class="orbit" />
<circle cx="441.54483810799076" cy="770.5393905004302" r="18.155" fill="#e34c26" class="planet" />
<text x="456.54483810799076" y="775.5393905004302" class="text" fill="white">WEBSITE-EQUDATOR-TRADING-PLATFORM</text>
<circle cx="400" cy="225" r="577.9515" class="orbit" />
<circle cx="-48.409016466294815" cy="-139.63308997399042" r="10.555" fill="#8b949e" class="planet" />
<text x="-33.409016466294815" y="-134.63308997399042" class="text" fill="white">FLASK</text>
<circle cx="400" cy="225" r="608.2245" class="orbit" />
<circle cx="1004.2717207305909" cy="155.7704548220866" r="10.182" fill="#8b949e" class="planet" />
<text x="1019.2717207305909" y="160.7704548220866" class="text" fill="white">HCF-INTERNSHIP</text>
<circle cx="400" cy="225" r="637.0935000000001" class="orbit" />
<circle cx="52.792057228566534" cy="759.1673634907687" r="9.246" fill="#8b949e" class="planet" />

    <text x="400" y="40" text-anchor="middle" class="title">SYSTEM SINGULARITY</text>
    </svg>