<svg width="800" height="450" xmlns="http://www.w3.org/2000/svg">
    <style>
        .orbit { fill: none; stroke: #30363d; stroke-width: 1; opacity: 0.5; }
        .planet { filter: drop-shadow(0 0 5px rgba(255,255,255,0.3)); }
        .text { font-family: 'Courier New', monospace; fill: #8b949e; font-size: 10px; }
        .title { font-family: sans-serif; fill: white; font-weight: bold; font-size: 24px; letter-spacing: 4px; }
        .hud-line { stroke: #00ffff; stroke-width: 1; opacity: 0.3; }
        
        /* ANIMATIONS */
        @keyframes pulse { 0% { r: 25; opacity: 0.8; } 50% { r: 30; opacity: 0.4; } 100% { r: 25; opacity: 0.8; } }
        .sun { animation: pulse 4s infinite; }
    </style>
    
    <rect width="100%" height="100%" fill="#0d1117" />
    
    <line x1="50" y1="50" x2="50" y2="400" class="hud-line" />
    <line x1="50" y1="400" x2="750" y2="400" class="hud-line" />
    <text x="60" y="390" class="text">SYS_TIME: 2026.06.05 :: 0230</text>
    <text x="60" y="375" class="text">SECTOR: N_BHARATH_PRIME</text>
    
    <circle cx="400" cy="225" r="25" fill="url(#grad1)" class="sun" />
    <defs>
        <radialGradient id="grad1" cx="50%" cy="50%" r="50%" fx="50%" fy="50%">
            <stop offset="0%" style="stop-color:white;stop-opacity:1" />
            <stop offset="100%" style="stop-color:#00ffff;stop-opacity:1" />
        </radialGradient>
    </defs>
    <circle cx="400" cy="225" r="150.0" class="orbit" />
<circle cx="493.1633717166703" cy="107.43901084806444" r="50" fill="#e34c26" class="planet" />
<text x="508.1633717166703" y="112.43901084806444" class="text" fill="white">CIRCLE13</text>
<circle cx="400" cy="225" r="240.0" class="orbit" />
<circle cx="232.20161105996175" cy="53.4083315859198" r="50" fill="#f1e05a" class="planet" />
<text x="247.20161105996175" y="58.4083315859198" class="text" fill="white">REDSHIFT</text>
<circle cx="400" cy="225" r="330.0" class="orbit" />
<circle cx="729.2485176807529" cy="202.74211139782358" r="50" fill="#e34c26" class="planet" />
<text x="744.2485176807529" y="207.74211139782358" class="text" fill="white">ALVRYN-AI</text>
<circle cx="400" cy="225" r="415.422" class="orbit" />
<circle cx="395.82010691121377" cy="-190.40097084355295" r="46.948" fill="#f1e05a" class="planet" />
<text x="410.82010691121377" y="-185.40097084355295" class="text" fill="white">DRIFT-CIRCLE13</text>
<circle cx="400" cy="225" r="461.8095" class="orbit" />
<circle cx="849.2657360886043" cy="331.9032865117561" r="20.925" fill="#2b7489" class="planet" />
<text x="864.2657360886043" y="336.9032865117561" class="text" fill="white">DSATM-EXAM-SYSTEM-</text>
<circle cx="400" cy="225" r="504.9345" class="orbit" />
<circle cx="744.8059935257432" cy="593.8735232013476" r="18.75" fill="#8b949e" class="planet" />
<text x="759.8059935257432" y="598.8735232013476" class="text" fill="white">NBHARATH1306</text>
<circle cx="400" cy="225" r="547.167" class="orbit" />
<circle cx="286.1441131736575" cy="760.1902119097351" r="18.155" fill="#e34c26" class="planet" />
<text x="301.1441131736575" y="765.1902119097351" class="text" fill="white">WEBSITE-EQUDATOR-TRADING-PLATFORM</text>
<circle cx="400" cy="225" r="577.9995" class="orbit" />
<circle cx="418.2672497400973" cy="802.7107663763788" r="10.555" fill="#8b949e" class="planet" />
<text x="433.2672497400973" y="807.7107663763788" class="text" fill="white">FLASK</text>
<circle cx="400" cy="225" r="608.2725" class="orbit" />
<circle cx="921.35517141355" cy="-88.3436125032676" r="10.182" fill="#8b949e" class="planet" />
<text x="936.35517141355" y="-83.3436125032676" class="text" fill="white">HCF-INTERNSHIP</text>
<circle cx="400" cy="225" r="637.1415000000001" class="orbit" />
<circle cx="766.1879157646979" cy="746.3978340673814" r="9.246" fill="#8b949e" class="planet" />

    <text x="400" y="40" text-anchor="middle" class="title">SYSTEM SINGULARITY</text>
    </svg>