<svg width="800" height="450" xmlns="http://www.w3.org/2000/svg">
    <style>
        .orbit { fill: none; stroke: #30363d; stroke-width: 1; opacity: 0.5; }
        .planet { filter: drop-shadow(0 0 5px rgba(255,255,255,0.3)); }
        .text { font-family: 'Courier New', monospace; fill: #8b949e; font-size: 10px; }
        .title { font-family: sans-serif; fill: white; font-weight: bold; font-size: 24px; letter-spacing: 4px; }
        .hud-line { stroke: #00ffff; stroke-width: 1; opacity: 0.3; }
        
        /* ANIMATIONS */
        @keyframes pulse { 0% { r: 25; opacity: 0.8; } 50% { r: 30; opacity: 0.4; } 100% { r: 25; opacity: 0.8; } }
        .sun { animation: pulse 4s infinite; }
    </style>
    
    <rect width="100%" height="100%" fill="#0d1117" />
    
    <line x1="50" y1="50" x2="50" y2="400" class="hud-line" />
    <line x1="50" y1="400" x2="750" y2="400" class="hud-line" />
    <text x="60" y="390" class="text">SYS_TIME: 2026.03.06 :: 0117</text>
    <text x="60" y="375" class="text">SECTOR: N_BHARATH_PRIME</text>
    
    <circle cx="400" cy="225" r="25" fill="url(#grad1)" class="sun" />
    <defs>
        <radialGradient id="grad1" cx="50%" cy="50%" r="50%" fx="50%" fy="50%">
            <stop offset="0%" style="stop-color:white;stop-opacity:1" />
            <stop offset="100%" style="stop-color:#00ffff;stop-opacity:1" />
        </radialGradient>
    </defs>
    <circle cx="400" cy="225" r="150.0" class="orbit" />
<circle cx="497.68852560581547" cy="111.17139215047065" r="50" fill="#f1e05a" class="planet" />
<text x="512.6885256058155" y="116.17139215047065" class="text" fill="white">REDSHIFT</text>
<circle cx="400" cy="225" r="240.0" class="orbit" />
<circle cx="589.4368154223101" cy="372.35566824066734" r="50" fill="#e34c26" class="planet" />
<text x="604.4368154223101" y="377.35566824066734" class="text" fill="white">CIRCLE-13</text>
<circle cx="400" cy="225" r="330.0" class="orbit" />
<circle cx="604.4943698708921" cy="-34.00203221424107" r="50" fill="#e34c26" class="planet" />
<text x="619.4943698708921" y="-29.00203221424107" class="text" fill="white">ALVRYN-AI</text>
<circle cx="400" cy="225" r="415.422" class="orbit" />
<circle cx="186.89086859008881" cy="581.5949189118" r="46.948" fill="#f1e05a" class="planet" />
<text x="201.89086859008881" y="586.5949189118" class="text" fill="white">DRIFT-CIRCLE13</text>
<circle cx="400" cy="225" r="461.8095" class="orbit" />
<circle cx="-47.52790112652451" cy="111.0403931055493" r="20.925" fill="#2b7489" class="planet" />
<text x="-32.52790112652451" y="116.0403931055493" class="text" fill="white">DSATM-EXAM-SYSTEM-</text>
<circle cx="400" cy="225" r="504.8415" class="orbit" />
<circle cx="3.361312637035951" cy="-87.31825404422784" r="18.688" fill="#8b949e" class="planet" />
<text x="18.36131263703595" y="-82.31825404422784" class="text" fill="white">NBHARATH1306</text>
<circle cx="400" cy="225" r="547.074" class="orbit" />
<circle cx="803.358741469013" cy="594.583126179394" r="18.155" fill="#e34c26" class="planet" />
<text x="818.358741469013" y="599.583126179394" class="text" fill="white">WEBSITE-EQUDATOR-TRADING-PLATFORM</text>
<circle cx="400" cy="225" r="577.9064999999999" class="orbit" />
<circle cx="825.8912237835771" cy="-165.63101290908406" r="10.555" fill="#8b949e" class="planet" />
<text x="840.8912237835771" y="-160.63101290908406" class="text" fill="white">FLASK</text>
<circle cx="400" cy="225" r="608.1795" class="orbit" />
<circle cx="-205.83800886997255" cy="278.3161441658818" r="10.182" fill="#8b949e" class="planet" />
<text x="-190.83800886997255" y="283.3161441658818" class="text" fill="white">HCF-INTERNSHIP</text>
<circle cx="400" cy="225" r="637.0485" class="orbit" />
<circle cx="-227.22977790511777" cy="336.41632313690246" r="9.246" fill="#8b949e" class="planet" />

    <text x="400" y="40" text-anchor="middle" class="title">SYSTEM SINGULARITY</text>
    </svg>