<svg width="800" height="450" xmlns="http://www.w3.org/2000/svg">
    <style>
        .orbit { fill: none; stroke: #30363d; stroke-width: 1; opacity: 0.5; }
        .planet { filter: drop-shadow(0 0 5px rgba(255,255,255,0.3)); }
        .text { font-family: 'Courier New', monospace; fill: #8b949e; font-size: 10px; }
        .title { font-family: sans-serif; fill: white; font-weight: bold; font-size: 24px; letter-spacing: 4px; }
        .hud-line { stroke: #00ffff; stroke-width: 1; opacity: 0.3; }
        
        /* ANIMATIONS */
        @keyframes pulse { 0% { r: 25; opacity: 0.8; } 50% { r: 30; opacity: 0.4; } 100% { r: 25; opacity: 0.8; } }
        .sun { animation: pulse 4s infinite; }
    </style>
    
    <rect width="100%" height="100%" fill="#0d1117" />
    
    <line x1="50" y1="50" x2="50" y2="400" class="hud-line" />
    <line x1="50" y1="400" x2="750" y2="400" class="hud-line" />
    <text x="60" y="390" class="text">SYS_TIME: 2026.03.16 :: 0123</text>
    <text x="60" y="375" class="text">SECTOR: N_BHARATH_PRIME</text>
    
    <circle cx="400" cy="225" r="25" fill="url(#grad1)" class="sun" />
    <defs>
        <radialGradient id="grad1" cx="50%" cy="50%" r="50%" fx="50%" fy="50%">
            <stop offset="0%" style="stop-color:white;stop-opacity:1" />
            <stop offset="100%" style="stop-color:#00ffff;stop-opacity:1" />
        </radialGradient>
    </defs>
    <circle cx="400" cy="225" r="150.0" class="orbit" />
<circle cx="282.68927350868347" cy="131.52169529736045" r="50" fill="#f1e05a" class="planet" />
<text x="297.68927350868347" y="136.52169529736045" class="text" fill="white">REDSHIFT</text>
<circle cx="400" cy="225" r="240.0" class="orbit" />
<circle cx="489.71872662777093" cy="447.59952850869047" r="50" fill="#e34c26" class="planet" />
<text x="504.71872662777093" y="452.59952850869047" class="text" fill="white">CIRCLE-13</text>
<circle cx="400" cy="225" r="330.0" class="orbit" />
<circle cx="726.6395308805232" cy="178.02535932919005" r="50" fill="#e34c26" class="planet" />
<text x="741.6395308805232" y="183.02535932919005" class="text" fill="white">ALVRYN-AI</text>
<circle cx="400" cy="225" r="415.422" class="orbit" />
<circle cx="601.4213914779589" cy="-138.32473235259232" r="46.948" fill="#f1e05a" class="planet" />
<text x="616.4213914779589" y="-133.32473235259232" class="text" fill="white">DRIFT-CIRCLE13</text>
<circle cx="400" cy="225" r="461.8095" class="orbit" />
<circle cx="156.7738852351875" cy="617.567282623838" r="20.925" fill="#2b7489" class="planet" />
<text x="171.7738852351875" y="622.567282623838" class="text" fill="white">DSATM-EXAM-SYSTEM-</text>
<circle cx="400" cy="225" r="504.8625" class="orbit" />
<circle cx="609.1132310425554" cy="684.5190970016295" r="18.702" fill="#8b949e" class="planet" />
<text x="624.1132310425554" y="689.5190970016295" class="text" fill="white">NBHARATH1306</text>
<circle cx="400" cy="225" r="547.095" class="orbit" />
<circle cx="945.5778907303974" cy="184.28508662454752" r="18.155" fill="#e34c26" class="planet" />
<text x="960.5778907303974" y="189.28508662454752" class="text" fill="white">WEBSITE-EQUDATOR-TRADING-PLATFORM</text>
<circle cx="400" cy="225" r="577.9275" class="orbit" />
<circle cx="408.5660974708982" cy="802.8640127489937" r="10.555" fill="#8b949e" class="planet" />
<text x="423.5660974708982" y="807.8640127489937" class="text" fill="white">FLASK</text>
<circle cx="400" cy="225" r="608.2005" class="orbit" />
<circle cx="646.8212043559586" cy="-330.8661181260503" r="10.182" fill="#8b949e" class="planet" />
<text x="661.8212043559586" y="-325.8661181260503" class="text" fill="white">HCF-INTERNSHIP</text>
<circle cx="400" cy="225" r="637.0695000000001" class="orbit" />
<circle cx="69.30275906231697" cy="-319.5152731250557" r="9.246" fill="#8b949e" class="planet" />

    <text x="400" y="40" text-anchor="middle" class="title">SYSTEM SINGULARITY</text>
    </svg>