<svg width="800" height="450" xmlns="http://www.w3.org/2000/svg">
    <style>
        .orbit { fill: none; stroke: #30363d; stroke-width: 1; opacity: 0.5; }
        .planet { filter: drop-shadow(0 0 5px rgba(255,255,255,0.3)); }
        .text { font-family: 'Courier New', monospace; fill: #8b949e; font-size: 10px; }
        .title { font-family: sans-serif; fill: white; font-weight: bold; font-size: 24px; letter-spacing: 4px; }
        .hud-line { stroke: #00ffff; stroke-width: 1; opacity: 0.3; }
        
        /* ANIMATIONS */
        @keyframes pulse { 0% { r: 25; opacity: 0.8; } 50% { r: 30; opacity: 0.4; } 100% { r: 25; opacity: 0.8; } }
        .sun { animation: pulse 4s infinite; }
    </style>
    
    <rect width="100%" height="100%" fill="#0d1117" />
    
    <line x1="50" y1="50" x2="50" y2="400" class="hud-line" />
    <line x1="50" y1="400" x2="750" y2="400" class="hud-line" />
    <text x="60" y="390" class="text">SYS_TIME: 2026.06.29 :: 0233</text>
    <text x="60" y="375" class="text">SECTOR: N_BHARATH_PRIME</text>
    
    <circle cx="400" cy="225" r="25" fill="url(#grad1)" class="sun" />
    <defs>
        <radialGradient id="grad1" cx="50%" cy="50%" r="50%" fx="50%" fy="50%">
            <stop offset="0%" style="stop-color:white;stop-opacity:1" />
            <stop offset="100%" style="stop-color:#00ffff;stop-opacity:1" />
        </radialGradient>
    </defs>
    <circle cx="400" cy="225" r="150.0" class="orbit" />
<circle cx="253.02133909846654" cy="195.04548048136905" r="50" fill="#e34c26" class="planet" />
<text x="268.02133909846657" y="200.04548048136905" class="text" fill="white">CIRCLE13</text>
<circle cx="400" cy="225" r="240.0" class="orbit" />
<circle cx="637.4717583998627" cy="190.25573482605682" r="50" fill="#f1e05a" class="planet" />
<text x="652.4717583998627" y="195.25573482605682" class="text" fill="white">REDSHIFT</text>
<circle cx="400" cy="225" r="330.0" class="orbit" />
<circle cx="729.9158863116418" cy="217.54963361948657" r="50" fill="#e34c26" class="planet" />
<text x="744.9158863116418" y="222.54963361948657" class="text" fill="white">ALVRYN-AI</text>
<circle cx="400" cy="225" r="415.422" class="orbit" />
<circle cx="715.6868684915518" cy="-45.03192245732299" r="46.948" fill="#f1e05a" class="planet" />
<text x="730.6868684915518" y="-40.03192245732299" class="text" fill="white">DRIFT-CIRCLE13</text>
<circle cx="400" cy="225" r="461.8095" class="orbit" />
<circle cx="231.46681588013266" cy="654.9588121444528" r="20.925" fill="#2b7489" class="planet" />
<text x="246.46681588013266" y="659.9588121444528" class="text" fill="white">DSATM-EXAM-SYSTEM-</text>
<circle cx="400" cy="225" r="504.9825" class="orbit" />
<circle cx="884.3870948590154" cy="367.7461650633502" r="18.782" fill="#8b949e" class="planet" />
<text x="899.3870948590154" y="372.7461650633502" class="text" fill="white">NBHARATH1306</text>
<circle cx="400" cy="225" r="547.215" class="orbit" />
<circle cx="496.6800824753222" cy="-313.6067376830381" r="18.155" fill="#e34c26" class="planet" />
<text x="511.6800824753222" y="-308.6067376830381" class="text" fill="white">WEBSITE-EQUDATOR-TRADING-PLATFORM</text>
<circle cx="400" cy="225" r="578.0475" class="orbit" />
<circle cx="832.5141977377202" cy="-158.4975632406891" r="10.555" fill="#8b949e" class="planet" />
<text x="847.5141977377202" y="-153.4975632406891" class="text" fill="white">FLASK</text>
<circle cx="400" cy="225" r="608.3205" class="orbit" />
<circle cx="843.0619931592164" cy="641.8331811864699" r="10.182" fill="#8b949e" class="planet" />
<text x="858.0619931592164" y="646.8331811864699" class="text" fill="white">HCF-INTERNSHIP</text>
<circle cx="400" cy="225" r="637.1895000000001" class="orbit" />
<circle cx="-236.40558558532518" cy="193.4026971712865" r="9.246" fill="#8b949e" class="planet" />

    <text x="400" y="40" text-anchor="middle" class="title">SYSTEM SINGULARITY</text>
    </svg>