<svg width="800" height="450" xmlns="http://www.w3.org/2000/svg">
    <style>
        .orbit { fill: none; stroke: #30363d; stroke-width: 1; opacity: 0.5; }
        .planet { filter: drop-shadow(0 0 5px rgba(255,255,255,0.3)); }
        .text { font-family: 'Courier New', monospace; fill: #8b949e; font-size: 10px; }
        .title { font-family: sans-serif; fill: white; font-weight: bold; font-size: 24px; letter-spacing: 4px; }
        .hud-line { stroke: #00ffff; stroke-width: 1; opacity: 0.3; }
        
        /* ANIMATIONS */
        @keyframes pulse { 0% { r: 25; opacity: 0.8; } 50% { r: 30; opacity: 0.4; } 100% { r: 25; opacity: 0.8; } }
        .sun { animation: pulse 4s infinite; }
    </style>
    
    <rect width="100%" height="100%" fill="#0d1117" />
    
    <line x1="50" y1="50" x2="50" y2="400" class="hud-line" />
    <line x1="50" y1="400" x2="750" y2="400" class="hud-line" />
    <text x="60" y="390" class="text">SYS_TIME: 2026.04.28 :: 0159</text>
    <text x="60" y="375" class="text">SECTOR: N_BHARATH_PRIME</text>
    
    <circle cx="400" cy="225" r="25" fill="url(#grad1)" class="sun" />
    <defs>
        <radialGradient id="grad1" cx="50%" cy="50%" r="50%" fx="50%" fy="50%">
            <stop offset="0%" style="stop-color:white;stop-opacity:1" />
            <stop offset="100%" style="stop-color:#00ffff;stop-opacity:1" />
        </radialGradient>
    </defs>
    <circle cx="400" cy="225" r="150.0" class="orbit" />
<circle cx="418.33714058466984" cy="373.8749450887491" r="50" fill="#e34c26" class="planet" />
<text x="433.33714058466984" y="378.8749450887491" class="text" fill="white">CIRCLE13</text>
<circle cx="400" cy="225" r="240.0" class="orbit" />
<circle cx="607.7487789501909" cy="345.1684020227645" r="50" fill="#f1e05a" class="planet" />
<text x="622.7487789501909" y="350.1684020227645" class="text" fill="white">REDSHIFT</text>
<circle cx="400" cy="225" r="330.0" class="orbit" />
<circle cx="229.76458932756663" cy="-57.70108764061723" r="50" fill="#e34c26" class="planet" />
<text x="244.76458932756663" y="-52.70108764061723" class="text" fill="white">ALVRYN-AI</text>
<circle cx="400" cy="225" r="415.422" class="orbit" />
<circle cx="687.5661975119291" cy="524.8018014164195" r="46.948" fill="#f1e05a" class="planet" />
<text x="702.5661975119291" y="529.8018014164195" class="text" fill="white">DRIFT-CIRCLE13</text>
<circle cx="400" cy="225" r="461.8095" class="orbit" />
<circle cx="228.66909793687375" cy="653.8516483453054" r="20.925" fill="#2b7489" class="planet" />
<text x="243.66909793687375" y="658.8516483453054" class="text" fill="white">DSATM-EXAM-SYSTEM-</text>
<circle cx="400" cy="225" r="504.903" class="orbit" />
<circle cx="693.2409721267409" cy="636.0191865049173" r="18.729" fill="#8b949e" class="planet" />
<text x="708.2409721267409" y="641.0191865049173" class="text" fill="white">NBHARATH1306</text>
<circle cx="400" cy="225" r="547.1355" class="orbit" />
<circle cx="809.5468835052955" cy="587.8065677070219" r="18.155" fill="#e34c26" class="planet" />
<text x="824.5468835052955" y="592.8065677070219" class="text" fill="white">WEBSITE-EQUDATOR-TRADING-PLATFORM</text>
<circle cx="400" cy="225" r="577.968" class="orbit" />
<circle cx="953.3228840493372" cy="58.02456764145282" r="10.555" fill="#8b949e" class="planet" />
<text x="968.3228840493372" y="63.02456764145282" class="text" fill="white">FLASK</text>
<circle cx="400" cy="225" r="608.241" class="orbit" />
<circle cx="-143.80762504839288" cy="497.45252984735976" r="10.182" fill="#8b949e" class="planet" />
<text x="-128.80762504839288" y="502.45252984735976" class="text" fill="white">HCF-INTERNSHIP</text>
<circle cx="400" cy="225" r="637.11" class="orbit" />
<circle cx="-192.74345237859245" cy="-8.59013626929385" r="9.246" fill="#8b949e" class="planet" />

    <text x="400" y="40" text-anchor="middle" class="title">SYSTEM SINGULARITY</text>
    </svg>