<svg width="800" height="450" xmlns="http://www.w3.org/2000/svg">
    <style>
        .orbit { fill: none; stroke: #30363d; stroke-width: 1; opacity: 0.5; }
        .planet { filter: drop-shadow(0 0 5px rgba(255,255,255,0.3)); }
        .text { font-family: 'Courier New', monospace; fill: #8b949e; font-size: 10px; }
        .title { font-family: sans-serif; fill: white; font-weight: bold; font-size: 24px; letter-spacing: 4px; }
        .hud-line { stroke: #00ffff; stroke-width: 1; opacity: 0.3; }
        
        /* ANIMATIONS */
        @keyframes pulse { 0% { r: 25; opacity: 0.8; } 50% { r: 30; opacity: 0.4; } 100% { r: 25; opacity: 0.8; } }
        .sun { animation: pulse 4s infinite; }
    </style>
    
    <rect width="100%" height="100%" fill="#0d1117" />
    
    <line x1="50" y1="50" x2="50" y2="400" class="hud-line" />
    <line x1="50" y1="400" x2="750" y2="400" class="hud-line" />
    <text x="60" y="390" class="text">SYS_TIME: 2026.05.12 :: 0204</text>
    <text x="60" y="375" class="text">SECTOR: N_BHARATH_PRIME</text>
    
    <circle cx="400" cy="225" r="25" fill="url(#grad1)" class="sun" />
    <defs>
        <radialGradient id="grad1" cx="50%" cy="50%" r="50%" fx="50%" fy="50%">
            <stop offset="0%" style="stop-color:white;stop-opacity:1" />
            <stop offset="100%" style="stop-color:#00ffff;stop-opacity:1" />
        </radialGradient>
    </defs>
    <circle cx="400" cy="225" r="150.0" class="orbit" />
<circle cx="250.34227622192282" cy="235.12747320730836" r="50" fill="#e34c26" class="planet" />
<text x="265.3422762219228" y="240.12747320730836" class="text" fill="white">CIRCLE13</text>
<circle cx="400" cy="225" r="240.0" class="orbit" />
<circle cx="558.3283507541261" cy="405.36666362573334" r="50" fill="#f1e05a" class="planet" />
<text x="573.3283507541261" y="410.36666362573334" class="text" fill="white">REDSHIFT</text>
<circle cx="400" cy="225" r="330.0" class="orbit" />
<circle cx="75.80829554836089" cy="163.35797890447543" r="50" fill="#e34c26" class="planet" />
<text x="90.80829554836089" y="168.35797890447543" class="text" fill="white">ALVRYN-AI</text>
<circle cx="400" cy="225" r="415.422" class="orbit" />
<circle cx="815.352584705312" cy="217.4060245841398" r="46.948" fill="#f1e05a" class="planet" />
<text x="830.352584705312" y="222.4060245841398" class="text" fill="white">DRIFT-CIRCLE13</text>
<circle cx="400" cy="225" r="461.8095" class="orbit" />
<circle cx="223.27860203329752" cy="-201.6586009808596" r="20.925" fill="#2b7489" class="planet" />
<text x="238.27860203329752" y="-196.6586009808596" class="text" fill="white">DSATM-EXAM-SYSTEM-</text>
<circle cx="400" cy="225" r="504.93" class="orbit" />
<circle cx="44.53609698270026" cy="583.608029123314" r="18.747" fill="#8b949e" class="planet" />
<text x="59.53609698270026" y="588.608029123314" class="text" fill="white">NBHARATH1306</text>
<circle cx="400" cy="225" r="547.1625" class="orbit" />
<circle cx="-144.79261871026836" cy="174.12953700762932" r="18.155" fill="#e34c26" class="planet" />
<text x="-129.79261871026836" y="179.12953700762932" class="text" fill="white">WEBSITE-EQUDATOR-TRADING-PLATFORM</text>
<circle cx="400" cy="225" r="577.995" class="orbit" />
<circle cx="149.36196789017208" cy="-295.82511161148216" r="10.555" fill="#8b949e" class="planet" />
<text x="164.36196789017208" y="-290.82511161148216" class="text" fill="white">FLASK</text>
<circle cx="400" cy="225" r="608.268" class="orbit" />
<circle cx="-113.5591519137904" cy="550.9554529526824" r="10.182" fill="#8b949e" class="planet" />
<text x="-98.5591519137904" y="555.9554529526824" class="text" fill="white">HCF-INTERNSHIP</text>
<circle cx="400" cy="225" r="637.1370000000001" class="orbit" />
<circle cx="-89.87383551745438" cy="632.3906995065279" r="9.246" fill="#8b949e" class="planet" />

    <text x="400" y="40" text-anchor="middle" class="title">SYSTEM SINGULARITY</text>
    </svg>