<svg width="800" height="450" xmlns="http://www.w3.org/2000/svg">
    <style>
        .orbit { fill: none; stroke: #30363d; stroke-width: 1; opacity: 0.5; }
        .planet { filter: drop-shadow(0 0 5px rgba(255,255,255,0.3)); }
        .text { font-family: 'Courier New', monospace; fill: #8b949e; font-size: 10px; }
        .title { font-family: sans-serif; fill: white; font-weight: bold; font-size: 24px; letter-spacing: 4px; }
        .hud-line { stroke: #00ffff; stroke-width: 1; opacity: 0.3; }
        
        /* ANIMATIONS */
        @keyframes pulse { 0% { r: 25; opacity: 0.8; } 50% { r: 30; opacity: 0.4; } 100% { r: 25; opacity: 0.8; } }
        .sun { animation: pulse 4s infinite; }
    </style>
    
    <rect width="100%" height="100%" fill="#0d1117" />
    
    <line x1="50" y1="50" x2="50" y2="400" class="hud-line" />
    <line x1="50" y1="400" x2="750" y2="400" class="hud-line" />
    <text x="60" y="390" class="text">SYS_TIME: 2026.02.16 :: 0115</text>
    <text x="60" y="375" class="text">SECTOR: N_BHARATH_PRIME</text>
    
    <circle cx="400" cy="225" r="25" fill="url(#grad1)" class="sun" />
    <defs>
        <radialGradient id="grad1" cx="50%" cy="50%" r="50%" fx="50%" fy="50%">
            <stop offset="0%" style="stop-color:white;stop-opacity:1" />
            <stop offset="100%" style="stop-color:#00ffff;stop-opacity:1" />
        </radialGradient>
    </defs>
    <circle cx="400" cy="225" r="150.0" class="orbit" />
<circle cx="419.6753702522416" cy="76.2959993630393" r="50" fill="#f1e05a" class="planet" />
<text x="434.6753702522416" y="81.2959993630393" class="text" fill="white">REDSHIFT</text>
<circle cx="400" cy="225" r="240.0" class="orbit" />
<circle cx="622.5429384472488" cy="314.85900370727484" r="50" fill="#e34c26" class="planet" />
<text x="637.5429384472488" y="319.85900370727484" class="text" fill="white">CIRCLE-13</text>
<circle cx="400" cy="225" r="330.0" class="orbit" />
<circle cx="128.3237602326613" cy="412.32864368771664" r="50" fill="#e34c26" class="planet" />
<text x="143.3237602326613" y="417.32864368771664" class="text" fill="white">ALVRYN-AI</text>
<circle cx="400" cy="225" r="415.422" class="orbit" />
<circle cx="781.2077860450372" cy="390.0941002660033" r="46.948" fill="#f1e05a" class="planet" />
<text x="796.2077860450372" y="395.0941002660033" class="text" fill="white">DRIFT-CIRCLE13</text>
<circle cx="400" cy="225" r="461.8095" class="orbit" />
<circle cx="413.3744577376355" cy="686.6157906424717" r="20.925" fill="#2b7489" class="planet" />
<text x="428.3744577376355" y="691.6157906424717" class="text" fill="white">DSATM-EXAM-SYSTEM-</text>
<circle cx="400" cy="225" r="504.8055" class="orbit" />
<circle cx="92.42876850505746" cy="-175.28556105227483" r="18.664" fill="#8b949e" class="planet" />
<text x="107.42876850505746" y="-170.28556105227483" class="text" fill="white">NBHARATH1306</text>
<circle cx="400" cy="225" r="547.038" class="orbit" />
<circle cx="917.3203874886525" cy="402.84878445631966" r="18.155" fill="#e34c26" class="planet" />
<text x="932.3203874886525" y="407.84878445631966" class="text" fill="white">WEBSITE-EQUDATOR-TRADING-PLATFORM</text>
<circle cx="400" cy="225" r="577.8705" class="orbit" />
<circle cx="-171.0360597380252" cy="136.38773646317094" r="10.555" fill="#8b949e" class="planet" />
<text x="-156.0360597380252" y="141.38773646317094" class="text" fill="white">FLASK</text>
<circle cx="400" cy="225" r="608.1435" class="orbit" />
<circle cx="-168.2412139000677" cy="8.34257590004546" r="10.182" fill="#8b949e" class="planet" />
<text x="-153.2412139000677" y="13.34257590004546" class="text" fill="white">HCF-INTERNSHIP</text>
<circle cx="400" cy="225" r="637.0125" class="orbit" />
<circle cx="901.409992072136" cy="-167.9032260066981" r="9.246" fill="#8b949e" class="planet" />

    <text x="400" y="40" text-anchor="middle" class="title">SYSTEM SINGULARITY</text>
    </svg>