<svg width="800" height="450" xmlns="http://www.w3.org/2000/svg">
    <style>
        .orbit { fill: none; stroke: #30363d; stroke-width: 1; opacity: 0.5; }
        .planet { filter: drop-shadow(0 0 5px rgba(255,255,255,0.3)); }
        .text { font-family: 'Courier New', monospace; fill: #8b949e; font-size: 10px; }
        .title { font-family: sans-serif; fill: white; font-weight: bold; font-size: 24px; letter-spacing: 4px; }
        .hud-line { stroke: #00ffff; stroke-width: 1; opacity: 0.3; }
        
        /* ANIMATIONS */
        @keyframes pulse { 0% { r: 25; opacity: 0.8; } 50% { r: 30; opacity: 0.4; } 100% { r: 25; opacity: 0.8; } }
        .sun { animation: pulse 4s infinite; }
    </style>
    
    <rect width="100%" height="100%" fill="#0d1117" />
    
    <line x1="50" y1="50" x2="50" y2="400" class="hud-line" />
    <line x1="50" y1="400" x2="750" y2="400" class="hud-line" />
    <text x="60" y="390" class="text">SYS_TIME: 2026.04.30 :: 0201</text>
    <text x="60" y="375" class="text">SECTOR: N_BHARATH_PRIME</text>
    
    <circle cx="400" cy="225" r="25" fill="url(#grad1)" class="sun" />
    <defs>
        <radialGradient id="grad1" cx="50%" cy="50%" r="50%" fx="50%" fy="50%">
            <stop offset="0%" style="stop-color:white;stop-opacity:1" />
            <stop offset="100%" style="stop-color:#00ffff;stop-opacity:1" />
        </radialGradient>
    </defs>
    <circle cx="400" cy="225" r="150.0" class="orbit" />
<circle cx="393.43089574208665" cy="75.14391280548972" r="50" fill="#e34c26" class="planet" />
<text x="408.43089574208665" y="80.14391280548972" class="text" fill="white">CIRCLE13</text>
<circle cx="400" cy="225" r="240.0" class="orbit" />
<circle cx="569.7214739047891" cy="394.68977958494133" r="50" fill="#f1e05a" class="planet" />
<text x="584.7214739047891" y="399.68977958494133" class="text" fill="white">REDSHIFT</text>
<circle cx="400" cy="225" r="330.0" class="orbit" />
<circle cx="426.2010274767184" cy="553.9582133936835" r="50" fill="#e34c26" class="planet" />
<text x="441.2010274767184" y="558.9582133936835" class="text" fill="white">ALVRYN-AI</text>
<circle cx="400" cy="225" r="415.422" class="orbit" />
<circle cx="357.55713208880104" cy="638.2481591579963" r="46.948" fill="#f1e05a" class="planet" />
<text x="372.55713208880104" y="643.2481591579963" class="text" fill="white">DRIFT-CIRCLE13</text>
<circle cx="400" cy="225" r="461.8095" class="orbit" />
<circle cx="586.661846518067" cy="-197.4042724034827" r="20.925" fill="#2b7489" class="planet" />
<text x="601.661846518067" y="-192.4042724034827" class="text" fill="white">DSATM-EXAM-SYSTEM-</text>
<circle cx="400" cy="225" r="504.906" class="orbit" />
<circle cx="600.0001553412455" cy="-238.60544291399088" r="18.731" fill="#8b949e" class="planet" />
<text x="615.0001553412455" y="-233.60544291399088" class="text" fill="white">NBHARATH1306</text>
<circle cx="400" cy="225" r="547.1385" class="orbit" />
<circle cx="-129.08696628727625" cy="85.61736016570572" r="18.155" fill="#e34c26" class="planet" />
<text x="-114.08696628727625" y="90.61736016570572" class="text" fill="white">WEBSITE-EQUDATOR-TRADING-PLATFORM</text>
<circle cx="400" cy="225" r="577.971" class="orbit" />
<circle cx="-17.993756435735747" cy="624.1637463770262" r="10.555" fill="#8b949e" class="planet" />
<text x="-2.9937564357357473" y="629.1637463770262" class="text" fill="white">FLASK</text>
<circle cx="400" cy="225" r="608.244" class="orbit" />
<circle cx="182.13813280061896" cy="-342.8881671213086" r="10.182" fill="#8b949e" class="planet" />
<text x="197.13813280061896" y="-337.8881671213086" class="text" fill="white">HCF-INTERNSHIP</text>
<circle cx="400" cy="225" r="637.113" class="orbit" />
<circle cx="690.93900061622" cy="-341.8046159740014" r="9.246" fill="#8b949e" class="planet" />

    <text x="400" y="40" text-anchor="middle" class="title">SYSTEM SINGULARITY</text>
    </svg>