<svg width="800" height="450" xmlns="http://www.w3.org/2000/svg">
    <style>
        .orbit { fill: none; stroke: #30363d; stroke-width: 1; opacity: 0.5; }
        .planet { filter: drop-shadow(0 0 5px rgba(255,255,255,0.3)); }
        .text { font-family: 'Courier New', monospace; fill: #8b949e; font-size: 10px; }
        .title { font-family: sans-serif; fill: white; font-weight: bold; font-size: 24px; letter-spacing: 4px; }
        .hud-line { stroke: #00ffff; stroke-width: 1; opacity: 0.3; }
        
        /* ANIMATIONS */
        @keyframes pulse { 0% { r: 25; opacity: 0.8; } 50% { r: 30; opacity: 0.4; } 100% { r: 25; opacity: 0.8; } }
        .sun { animation: pulse 4s infinite; }
    </style>
    
    <rect width="100%" height="100%" fill="#0d1117" />
    
    <line x1="50" y1="50" x2="50" y2="400" class="hud-line" />
    <line x1="50" y1="400" x2="750" y2="400" class="hud-line" />
    <text x="60" y="390" class="text">SYS_TIME: 2026.02.06 :: 0110</text>
    <text x="60" y="375" class="text">SECTOR: N_BHARATH_PRIME</text>
    
    <circle cx="400" cy="225" r="25" fill="url(#grad1)" class="sun" />
    <defs>
        <radialGradient id="grad1" cx="50%" cy="50%" r="50%" fx="50%" fy="50%">
            <stop offset="0%" style="stop-color:white;stop-opacity:1" />
            <stop offset="100%" style="stop-color:#00ffff;stop-opacity:1" />
        </radialGradient>
    </defs>
    <circle cx="400" cy="225" r="150.0" class="orbit" />
<circle cx="334.98494589587364" cy="360.1778189639022" r="50" fill="#e34c26" class="planet" />
<text x="349.98494589587364" y="365.1778189639022" class="text" fill="white">CIRCLE-13</text>
<circle cx="400" cy="225" r="240.0" class="orbit" />
<circle cx="185.136434950609" cy="118.07176044530557" r="50" fill="#f1e05a" class="planet" />
<text x="200.136434950609" y="123.07176044530557" class="text" fill="white">REDSHIFT</text>
<circle cx="400" cy="225" r="330.0" class="orbit" />
<circle cx="71.48059703442578" cy="256.2250200182911" r="50" fill="#e34c26" class="planet" />
<text x="86.48059703442578" y="261.2250200182911" class="text" fill="white">ALVRYN-AI</text>
<circle cx="400" cy="225" r="415.422" class="orbit" />
<circle cx="426.2001683957533" cy="639.5949701335439" r="46.948" fill="#f1e05a" class="planet" />
<text x="441.2001683957533" y="644.5949701335439" class="text" fill="white">DRIFT-CIRCLE13</text>
<circle cx="400" cy="225" r="461.8095" class="orbit" />
<circle cx="-54.90909369638757" cy="145.46553726477237" r="20.925" fill="#2b7489" class="planet" />
<text x="-39.90909369638757" y="150.46553726477237" class="text" fill="white">DSATM-EXAM-SYSTEM-</text>
<circle cx="400" cy="225" r="504.8145" class="orbit" />
<circle cx="821.4031651736856" cy="-52.9515277739078" r="18.67" fill="#8b949e" class="planet" />
<text x="836.4031651736856" y="-47.9515277739078" class="text" fill="white">NBHARATH1306</text>
<circle cx="400" cy="225" r="547.047" class="orbit" />
<circle cx="579.7471863769853" cy="741.6733679981554" r="18.155" fill="#e34c26" class="planet" />
<text x="594.7471863769853" y="746.6733679981554" class="text" fill="white">WEBSITE-EQUDATOR-TRADING-PLATFORM</text>
<circle cx="400" cy="225" r="577.8795" class="orbit" />
<circle cx="322.8739724114946" cy="797.709605636807" r="10.555" fill="#8b949e" class="planet" />
<text x="337.8739724114946" y="802.709605636807" class="text" fill="white">FLASK</text>
<circle cx="400" cy="225" r="608.1525" class="orbit" />
<circle cx="-177.29865238733498" cy="416.24782144645985" r="10.182" fill="#8b949e" class="planet" />
<text x="-162.29865238733498" y="421.24782144645985" class="text" fill="white">HCF-INTERNSHIP</text>
<circle cx="400" cy="225" r="637.0215000000001" class="orbit" />
<circle cx="-51.012036922232824" cy="-224.87168616563167" r="9.246" fill="#8b949e" class="planet" />

    <text x="400" y="40" text-anchor="middle" class="title">SYSTEM SINGULARITY</text>
    </svg>