<svg width="800" height="450" xmlns="http://www.w3.org/2000/svg">
    <style>
        .orbit { fill: none; stroke: #30363d; stroke-width: 1; opacity: 0.5; }
        .planet { filter: drop-shadow(0 0 5px rgba(255,255,255,0.3)); }
        .text { font-family: 'Courier New', monospace; fill: #8b949e; font-size: 10px; }
        .title { font-family: sans-serif; fill: white; font-weight: bold; font-size: 24px; letter-spacing: 4px; }
        .hud-line { stroke: #00ffff; stroke-width: 1; opacity: 0.3; }
        
        /* ANIMATIONS */
        @keyframes pulse { 0% { r: 25; opacity: 0.8; } 50% { r: 30; opacity: 0.4; } 100% { r: 25; opacity: 0.8; } }
        .sun { animation: pulse 4s infinite; }
    </style>
    
    <rect width="100%" height="100%" fill="#0d1117" />
    
    <line x1="50" y1="50" x2="50" y2="400" class="hud-line" />
    <line x1="50" y1="400" x2="750" y2="400" class="hud-line" />
    <text x="60" y="390" class="text">SYS_TIME: 2026.05.02 :: 0152</text>
    <text x="60" y="375" class="text">SECTOR: N_BHARATH_PRIME</text>
    
    <circle cx="400" cy="225" r="25" fill="url(#grad1)" class="sun" />
    <defs>
        <radialGradient id="grad1" cx="50%" cy="50%" r="50%" fx="50%" fy="50%">
            <stop offset="0%" style="stop-color:white;stop-opacity:1" />
            <stop offset="100%" style="stop-color:#00ffff;stop-opacity:1" />
        </radialGradient>
    </defs>
    <circle cx="400" cy="225" r="150.0" class="orbit" />
<circle cx="518.5056604545034" cy="316.9587322674794" r="50" fill="#e34c26" class="planet" />
<text x="533.5056604545034" y="321.9587322674794" class="text" fill="white">CIRCLE13</text>
<circle cx="400" cy="225" r="240.0" class="orbit" />
<circle cx="357.5012893916791" cy="-11.207238662641743" r="50" fill="#f1e05a" class="planet" />
<text x="372.5012893916791" y="-6.207238662641743" class="text" fill="white">REDSHIFT</text>
<circle cx="400" cy="225" r="330.0" class="orbit" />
<circle cx="609.9722327715181" cy="-29.581345477125325" r="50" fill="#e34c26" class="planet" />
<text x="624.9722327715181" y="-24.581345477125325" class="text" fill="white">ALVRYN-AI</text>
<circle cx="400" cy="225" r="415.422" class="orbit" />
<circle cx="813.1131283493401" cy="268.7376413335437" r="46.948" fill="#f1e05a" class="planet" />
<text x="828.1131283493401" y="273.7376413335437" class="text" fill="white">DRIFT-CIRCLE13</text>
<circle cx="400" cy="225" r="461.8095" class="orbit" />
<circle cx="596.9549323307897" cy="-192.70416435657427" r="20.925" fill="#2b7489" class="planet" />
<text x="611.9549323307897" y="-187.70416435657427" class="text" fill="white">DSATM-EXAM-SYSTEM-</text>
<circle cx="400" cy="225" r="504.9105" class="orbit" />
<circle cx="-69.82066606795553" cy="40.059050652072614" r="18.734" fill="#8b949e" class="planet" />
<text x="-54.82066606795553" y="45.059050652072614" class="text" fill="white">NBHARATH1306</text>
<circle cx="400" cy="225" r="547.143" class="orbit" />
<circle cx="724.6671919365897" cy="-215.4051281820066" r="18.155" fill="#e34c26" class="planet" />
<text x="739.6671919365897" y="-210.4051281820066" class="text" fill="white">WEBSITE-EQUDATOR-TRADING-PLATFORM</text>
<circle cx="400" cy="225" r="577.9755" class="orbit" />
<circle cx="497.46555239265945" cy="-344.6982926927584" r="10.555" fill="#8b949e" class="planet" />
<text x="512.4655523926594" y="-339.6982926927584" class="text" fill="white">FLASK</text>
<circle cx="400" cy="225" r="608.2485" class="orbit" />
<circle cx="561.6645900245203" cy="811.3708707673445" r="10.182" fill="#8b949e" class="planet" />
<text x="576.6645900245203" y="816.3708707673445" class="text" fill="white">HCF-INTERNSHIP</text>
<circle cx="400" cy="225" r="637.1175000000001" class="orbit" />
<circle cx="53.604368008131416" cy="-309.7230824858826" r="9.246" fill="#8b949e" class="planet" />

    <text x="400" y="40" text-anchor="middle" class="title">SYSTEM SINGULARITY</text>
    </svg>