<svg width="800" height="450" xmlns="http://www.w3.org/2000/svg">
    <style>
        .orbit { fill: none; stroke: #30363d; stroke-width: 1; opacity: 0.5; }
        .planet { filter: drop-shadow(0 0 5px rgba(255,255,255,0.3)); }
        .text { font-family: 'Courier New', monospace; fill: #8b949e; font-size: 10px; }
        .title { font-family: sans-serif; fill: white; font-weight: bold; font-size: 24px; letter-spacing: 4px; }
        .hud-line { stroke: #00ffff; stroke-width: 1; opacity: 0.3; }
        
        /* ANIMATIONS */
        @keyframes pulse { 0% { r: 25; opacity: 0.8; } 50% { r: 30; opacity: 0.4; } 100% { r: 25; opacity: 0.8; } }
        .sun { animation: pulse 4s infinite; }
    </style>
    
    <rect width="100%" height="100%" fill="#0d1117" />
    
    <line x1="50" y1="50" x2="50" y2="400" class="hud-line" />
    <line x1="50" y1="400" x2="750" y2="400" class="hud-line" />
    <text x="60" y="390" class="text">SYS_TIME: 2026.05.29 :: 0211</text>
    <text x="60" y="375" class="text">SECTOR: N_BHARATH_PRIME</text>
    
    <circle cx="400" cy="225" r="25" fill="url(#grad1)" class="sun" />
    <defs>
        <radialGradient id="grad1" cx="50%" cy="50%" r="50%" fx="50%" fy="50%">
            <stop offset="0%" style="stop-color:white;stop-opacity:1" />
            <stop offset="100%" style="stop-color:#00ffff;stop-opacity:1" />
        </radialGradient>
    </defs>
    <circle cx="400" cy="225" r="150.0" class="orbit" />
<circle cx="549.9526587824716" cy="221.2316948016874" r="50" fill="#e34c26" class="planet" />
<text x="564.9526587824716" y="226.2316948016874" class="text" fill="white">CIRCLE13</text>
<circle cx="400" cy="225" r="240.0" class="orbit" />
<circle cx="448.5256491488715" cy="-10.043105354487324" r="50" fill="#f1e05a" class="planet" />
<text x="463.5256491488715" y="-5.043105354487324" class="text" fill="white">REDSHIFT</text>
<circle cx="400" cy="225" r="330.0" class="orbit" />
<circle cx="119.34335755264954" cy="51.414721101759085" r="50" fill="#e34c26" class="planet" />
<text x="134.34335755264954" y="56.414721101759085" class="text" fill="white">ALVRYN-AI</text>
<circle cx="400" cy="225" r="415.422" class="orbit" />
<circle cx="357.2880261204513" cy="638.2204319383454" r="46.948" fill="#f1e05a" class="planet" />
<text x="372.2880261204513" y="643.2204319383454" class="text" fill="white">DRIFT-CIRCLE13</text>
<circle cx="400" cy="225" r="461.8095" class="orbit" />
<circle cx="-51.03528271811837" cy="125.82748347633279" r="20.925" fill="#2b7489" class="planet" />
<text x="-36.03528271811837" y="130.8274834763328" class="text" fill="white">DSATM-EXAM-SYSTEM-</text>
<circle cx="400" cy="225" r="504.9195" class="orbit" />
<circle cx="11.264565385753656" cy="547.2242438978219" r="18.74" fill="#8b949e" class="planet" />
<text x="26.264565385753656" y="552.2242438978219" class="text" fill="white">NBHARATH1306</text>
<circle cx="400" cy="225" r="547.152" class="orbit" />
<circle cx="-128.13312035534602" cy="81.99399212716378" r="18.155" fill="#e34c26" class="planet" />
<text x="-113.13312035534602" y="86.99399212716378" class="text" fill="white">WEBSITE-EQUDATOR-TRADING-PLATFORM</text>
<circle cx="400" cy="225" r="577.9845" class="orbit" />
<circle cx="772.7630693960397" cy="-216.71685086115218" r="10.555" fill="#8b949e" class="planet" />
<text x="787.7630693960397" y="-211.71685086115218" class="text" fill="white">FLASK</text>
<circle cx="400" cy="225" r="608.2575" class="orbit" />
<circle cx="-203.7600222672521" cy="151.16896439777315" r="10.182" fill="#8b949e" class="planet" />
<text x="-188.7600222672521" y="156.16896439777315" class="text" fill="white">HCF-INTERNSHIP</text>
<circle cx="400" cy="225" r="637.1265000000001" class="orbit" />
<circle cx="60.8272281341421" cy="764.3440532972259" r="9.246" fill="#8b949e" class="planet" />

    <text x="400" y="40" text-anchor="middle" class="title">SYSTEM SINGULARITY</text>
    </svg>