<svg width="800" height="450" xmlns="http://www.w3.org/2000/svg">
    <style>
        .orbit { fill: none; stroke: #30363d; stroke-width: 1; opacity: 0.5; }
        .planet { filter: drop-shadow(0 0 5px rgba(255,255,255,0.3)); }
        .text { font-family: 'Courier New', monospace; fill: #8b949e; font-size: 10px; }
        .title { font-family: sans-serif; fill: white; font-weight: bold; font-size: 24px; letter-spacing: 4px; }
        .hud-line { stroke: #00ffff; stroke-width: 1; opacity: 0.3; }
        
        /* ANIMATIONS */
        @keyframes pulse { 0% { r: 25; opacity: 0.8; } 50% { r: 30; opacity: 0.4; } 100% { r: 25; opacity: 0.8; } }
        .sun { animation: pulse 4s infinite; }
    </style>
    
    <rect width="100%" height="100%" fill="#0d1117" />
    
    <line x1="50" y1="50" x2="50" y2="400" class="hud-line" />
    <line x1="50" y1="400" x2="750" y2="400" class="hud-line" />
    <text x="60" y="390" class="text">SYS_TIME: 2026.03.01 :: 0121</text>
    <text x="60" y="375" class="text">SECTOR: N_BHARATH_PRIME</text>
    
    <circle cx="400" cy="225" r="25" fill="url(#grad1)" class="sun" />
    <defs>
        <radialGradient id="grad1" cx="50%" cy="50%" r="50%" fx="50%" fy="50%">
            <stop offset="0%" style="stop-color:white;stop-opacity:1" />
            <stop offset="100%" style="stop-color:#00ffff;stop-opacity:1" />
        </radialGradient>
    </defs>
    <circle cx="400" cy="225" r="150.0" class="orbit" />
<circle cx="541.418252773514" cy="174.99122294550213" r="50" fill="#f1e05a" class="planet" />
<text x="556.418252773514" y="179.99122294550213" class="text" fill="white">REDSHIFT</text>
<circle cx="400" cy="225" r="240.0" class="orbit" />
<circle cx="624.014197543326" cy="138.87428201158667" r="50" fill="#e34c26" class="planet" />
<text x="639.014197543326" y="143.87428201158667" class="text" fill="white">CIRCLE-13</text>
<circle cx="400" cy="225" r="330.0" class="orbit" />
<circle cx="119.62880834689867" cy="399.04595626161483" r="50" fill="#e34c26" class="planet" />
<text x="134.62880834689867" y="404.04595626161483" class="text" fill="white">ALVRYN-AI</text>
<circle cx="400" cy="225" r="415.422" class="orbit" />
<circle cx="775.2925517007859" cy="403.13180154568954" r="46.948" fill="#f1e05a" class="planet" />
<text x="790.2925517007859" y="408.13180154568954" class="text" fill="white">DRIFT-CIRCLE13</text>
<circle cx="400" cy="225" r="461.8095" class="orbit" />
<circle cx="602.8772530691805" cy="-189.86001793057102" r="20.925" fill="#2b7489" class="planet" />
<text x="617.8772530691805" y="-184.86001793057102" class="text" fill="white">DSATM-EXAM-SYSTEM-</text>
<circle cx="400" cy="225" r="504.8325" class="orbit" />
<circle cx="890.7330933774169" cy="106.52264300516603" r="18.682" fill="#8b949e" class="planet" />
<text x="905.7330933774169" y="111.52264300516603" class="text" fill="white">NBHARATH1306</text>
<circle cx="400" cy="225" r="547.0649999999999" class="orbit" />
<circle cx="243.92163925738905" cy="-299.3278168597384" r="18.155" fill="#e34c26" class="planet" />
<text x="258.9216392573891" y="-294.3278168597384" class="text" fill="white">WEBSITE-EQUDATOR-TRADING-PLATFORM</text>
<circle cx="400" cy="225" r="577.8974999999999" class="orbit" />
<circle cx="547.6193818068425" cy="-333.7253695879717" r="10.555" fill="#8b949e" class="planet" />
<text x="562.6193818068425" y="-328.7253695879717" class="text" fill="white">FLASK</text>
<circle cx="400" cy="225" r="608.1705" class="orbit" />
<circle cx="-207.9061686932223" cy="207.07105315481223" r="10.182" fill="#8b949e" class="planet" />
<text x="-192.9061686932223" y="212.07105315481223" class="text" fill="white">HCF-INTERNSHIP</text>
<circle cx="400" cy="225" r="637.0395" class="orbit" />
<circle cx="296.27808749481665" cy="-403.53885275813866" r="9.246" fill="#8b949e" class="planet" />

    <text x="400" y="40" text-anchor="middle" class="title">SYSTEM SINGULARITY</text>
    </svg>