<svg width="800" height="450" xmlns="http://www.w3.org/2000/svg">
    <style>
        .orbit { fill: none; stroke: #30363d; stroke-width: 1; opacity: 0.5; }
        .planet { filter: drop-shadow(0 0 5px rgba(255,255,255,0.3)); }
        .text { font-family: 'Courier New', monospace; fill: #8b949e; font-size: 10px; }
        .title { font-family: sans-serif; fill: white; font-weight: bold; font-size: 24px; letter-spacing: 4px; }
        .hud-line { stroke: #00ffff; stroke-width: 1; opacity: 0.3; }
        
        /* ANIMATIONS */
        @keyframes pulse { 0% { r: 25; opacity: 0.8; } 50% { r: 30; opacity: 0.4; } 100% { r: 25; opacity: 0.8; } }
        .sun { animation: pulse 4s infinite; }
    </style>
    
    <rect width="100%" height="100%" fill="#0d1117" />
    
    <line x1="50" y1="50" x2="50" y2="400" class="hud-line" />
    <line x1="50" y1="400" x2="750" y2="400" class="hud-line" />
    <text x="60" y="390" class="text">SYS_TIME: 2026.06.26 :: 0228</text>
    <text x="60" y="375" class="text">SECTOR: N_BHARATH_PRIME</text>
    
    <circle cx="400" cy="225" r="25" fill="url(#grad1)" class="sun" />
    <defs>
        <radialGradient id="grad1" cx="50%" cy="50%" r="50%" fx="50%" fy="50%">
            <stop offset="0%" style="stop-color:white;stop-opacity:1" />
            <stop offset="100%" style="stop-color:#00ffff;stop-opacity:1" />
        </radialGradient>
    </defs>
    <circle cx="400" cy="225" r="150.0" class="orbit" />
<circle cx="548.955872426292" cy="207.33228736586977" r="50" fill="#e34c26" class="planet" />
<text x="563.955872426292" y="212.33228736586977" class="text" fill="white">CIRCLE13</text>
<circle cx="400" cy="225" r="240.0" class="orbit" />
<circle cx="569.9552939886687" cy="55.54440686355261" r="50" fill="#f1e05a" class="planet" />
<text x="584.9552939886687" y="60.54440686355261" class="text" fill="white">REDSHIFT</text>
<circle cx="400" cy="225" r="330.0" class="orbit" />
<circle cx="725.9788592413495" cy="173.64064517822985" r="50" fill="#e34c26" class="planet" />
<text x="740.9788592413495" y="178.64064517822985" class="text" fill="white">ALVRYN-AI</text>
<circle cx="400" cy="225" r="415.422" class="orbit" />
<circle cx="17.836462961567463" cy="62.13051531279831" r="46.948" fill="#f1e05a" class="planet" />
<text x="32.83646296156746" y="67.13051531279831" class="text" fill="white">DRIFT-CIRCLE13</text>
<circle cx="400" cy="225" r="461.8095" class="orbit" />
<circle cx="820.6638914561894" cy="415.5515801959809" r="20.925" fill="#2b7489" class="planet" />
<text x="835.6638914561894" y="420.5515801959809" class="text" fill="white">DSATM-EXAM-SYSTEM-</text>
<circle cx="400" cy="225" r="504.975" class="orbit" />
<circle cx="462.1975802167678" cy="-276.12993488732917" r="18.777" fill="#8b949e" class="planet" />
<text x="477.1975802167678" y="-271.12993488732917" class="text" fill="white">NBHARATH1306</text>
<circle cx="400" cy="225" r="547.2075" class="orbit" />
<circle cx="-144.05770846278278" cy="283.6281324832682" r="18.155" fill="#e34c26" class="planet" />
<text x="-129.05770846278278" y="288.6281324832682" class="text" fill="white">WEBSITE-EQUDATOR-TRADING-PLATFORM</text>
<circle cx="400" cy="225" r="578.04" class="orbit" />
<circle cx="-157.00125490856738" cy="379.5310442282748" r="10.555" fill="#8b949e" class="planet" />
<text x="-142.00125490856738" y="384.5310442282748" class="text" fill="white">FLASK</text>
<circle cx="400" cy="225" r="608.313" class="orbit" />
<circle cx="66.59645341291241" cy="733.809179449577" r="10.182" fill="#8b949e" class="planet" />
<text x="81.59645341291241" y="738.809179449577" class="text" fill="white">HCF-INTERNSHIP</text>
<circle cx="400" cy="225" r="637.182" class="orbit" />
<circle cx="-233.57396016610107" cy="292.7121711617914" r="9.246" fill="#8b949e" class="planet" />

    <text x="400" y="40" text-anchor="middle" class="title">SYSTEM SINGULARITY</text>
    </svg>