<svg width="800" height="450" xmlns="http://www.w3.org/2000/svg">
    <style>
        .orbit { fill: none; stroke: #30363d; stroke-width: 1; opacity: 0.5; }
        .planet { filter: drop-shadow(0 0 5px rgba(255,255,255,0.3)); }
        .text { font-family: 'Courier New', monospace; fill: #8b949e; font-size: 10px; }
        .title { font-family: sans-serif; fill: white; font-weight: bold; font-size: 24px; letter-spacing: 4px; }
        .hud-line { stroke: #00ffff; stroke-width: 1; opacity: 0.3; }
        
        /* ANIMATIONS */
        @keyframes pulse { 0% { r: 25; opacity: 0.8; } 50% { r: 30; opacity: 0.4; } 100% { r: 25; opacity: 0.8; } }
        .sun { animation: pulse 4s infinite; }
    </style>
    
    <rect width="100%" height="100%" fill="#0d1117" />
    
    <line x1="50" y1="50" x2="50" y2="400" class="hud-line" />
    <line x1="50" y1="400" x2="750" y2="400" class="hud-line" />
    <text x="60" y="390" class="text">SYS_TIME: 2026.04.07 :: 0124</text>
    <text x="60" y="375" class="text">SECTOR: N_BHARATH_PRIME</text>
    
    <circle cx="400" cy="225" r="25" fill="url(#grad1)" class="sun" />
    <defs>
        <radialGradient id="grad1" cx="50%" cy="50%" r="50%" fx="50%" fy="50%">
            <stop offset="0%" style="stop-color:white;stop-opacity:1" />
            <stop offset="100%" style="stop-color:#00ffff;stop-opacity:1" />
        </radialGradient>
    </defs>
    <circle cx="400" cy="225" r="150.0" class="orbit" />
<circle cx="250.00135273271863" cy="224.3629615508447" r="50" fill="#e34c26" class="planet" />
<text x="265.0013527327186" y="229.3629615508447" class="text" fill="white">CIRCLE13</text>
<circle cx="400" cy="225" r="240.0" class="orbit" />
<circle cx="639.8036668490852" cy="215.29426119592378" r="50" fill="#f1e05a" class="planet" />
<text x="654.8036668490852" y="220.29426119592378" class="text" fill="white">REDSHIFT</text>
<circle cx="400" cy="225" r="330.0" class="orbit" />
<circle cx="382.9046393659578" cy="554.5568974316757" r="50" fill="#e34c26" class="planet" />
<text x="397.9046393659578" y="559.5568974316757" class="text" fill="white">ALVRYN-AI</text>
<circle cx="400" cy="225" r="415.422" class="orbit" />
<circle cx="402.65382988945447" cy="640.4135232162259" r="46.948" fill="#f1e05a" class="planet" />
<text x="417.65382988945447" y="645.4135232162259" class="text" fill="white">DRIFT-CIRCLE13</text>
<circle cx="400" cy="225" r="461.8095" class="orbit" />
<circle cx="860.0041184454512" cy="184.2050823818298" r="20.925" fill="#2b7489" class="planet" />
<text x="875.0041184454512" y="189.2050823818298" class="text" fill="white">DSATM-EXAM-SYSTEM-</text>
<circle cx="400" cy="225" r="504.861" class="orbit" />
<circle cx="351.6178347137744" cy="-277.5373572215466" r="18.701" fill="#8b949e" class="planet" />
<text x="366.6178347137744" y="-272.5373572215466" class="text" fill="white">NBHARATH1306</text>
<circle cx="400" cy="225" r="547.0935" class="orbit" />
<circle cx="-117.98354915286723" cy="401.0804945167098" r="18.155" fill="#e34c26" class="planet" />
<text x="-102.98354915286723" y="406.0804945167098" class="text" fill="white">WEBSITE-EQUDATOR-TRADING-PLATFORM</text>
<circle cx="400" cy="225" r="577.9259999999999" class="orbit" />
<circle cx="163.98809012395148" cy="752.5384724099844" r="10.555" fill="#8b949e" class="planet" />
<text x="178.98809012395148" y="757.5384724099844" class="text" fill="white">FLASK</text>
<circle cx="400" cy="225" r="608.199" class="orbit" />
<circle cx="960.1778683354191" cy="461.86869659831757" r="10.182" fill="#8b949e" class="planet" />
<text x="975.1778683354191" y="466.86869659831757" class="text" fill="white">HCF-INTERNSHIP</text>
<circle cx="400" cy="225" r="637.068" class="orbit" />
<circle cx="766.111968049795" cy="746.3613559468191" r="9.246" fill="#8b949e" class="planet" />

    <text x="400" y="40" text-anchor="middle" class="title">SYSTEM SINGULARITY</text>
    </svg>