<svg width="800" height="450" xmlns="http://www.w3.org/2000/svg">
    <style>
        .orbit { fill: none; stroke: #30363d; stroke-width: 1; opacity: 0.5; }
        .planet { filter: drop-shadow(0 0 5px rgba(255,255,255,0.3)); }
        .text { font-family: 'Courier New', monospace; fill: #8b949e; font-size: 10px; }
        .title { font-family: sans-serif; fill: white; font-weight: bold; font-size: 24px; letter-spacing: 4px; }
        .hud-line { stroke: #00ffff; stroke-width: 1; opacity: 0.3; }
        
        /* ANIMATIONS */
        @keyframes pulse { 0% { r: 25; opacity: 0.8; } 50% { r: 30; opacity: 0.4; } 100% { r: 25; opacity: 0.8; } }
        .sun { animation: pulse 4s infinite; }
    </style>
    
    <rect width="100%" height="100%" fill="#0d1117" />
    
    <line x1="50" y1="50" x2="50" y2="400" class="hud-line" />
    <line x1="50" y1="400" x2="750" y2="400" class="hud-line" />
    <text x="60" y="390" class="text">SYS_TIME: 2026.03.14 :: 0111</text>
    <text x="60" y="375" class="text">SECTOR: N_BHARATH_PRIME</text>
    
    <circle cx="400" cy="225" r="25" fill="url(#grad1)" class="sun" />
    <defs>
        <radialGradient id="grad1" cx="50%" cy="50%" r="50%" fx="50%" fy="50%">
            <stop offset="0%" style="stop-color:white;stop-opacity:1" />
            <stop offset="100%" style="stop-color:#00ffff;stop-opacity:1" />
        </radialGradient>
    </defs>
    <circle cx="400" cy="225" r="150.0" class="orbit" />
<circle cx="402.1100982770953" cy="75.01484245012443" r="50" fill="#f1e05a" class="planet" />
<text x="417.1100982770953" y="80.01484245012443" class="text" fill="white">REDSHIFT</text>
<circle cx="400" cy="225" r="240.0" class="orbit" />
<circle cx="639.355291534356" cy="242.5796591122651" r="50" fill="#e34c26" class="planet" />
<text x="654.355291534356" y="247.5796591122651" class="text" fill="white">CIRCLE-13</text>
<circle cx="400" cy="225" r="330.0" class="orbit" />
<circle cx="695.1228741338085" cy="372.6566597312841" r="50" fill="#e34c26" class="planet" />
<text x="710.1228741338085" y="377.6566597312841" class="text" fill="white">ALVRYN-AI</text>
<circle cx="400" cy="225" r="415.422" class="orbit" />
<circle cx="345.26753451975503" cy="636.8006742423497" r="46.948" fill="#f1e05a" class="planet" />
<text x="360.26753451975503" y="641.8006742423497" class="text" fill="white">DRIFT-CIRCLE13</text>
<circle cx="400" cy="225" r="461.8095" class="orbit" />
<circle cx="789.5226519148041" cy="473.0728077309328" r="20.925" fill="#2b7489" class="planet" />
<text x="804.5226519148041" y="478.0728077309328" class="text" fill="white">DSATM-EXAM-SYSTEM-</text>
<circle cx="400" cy="225" r="504.858" class="orbit" />
<circle cx="334.12125253246165" cy="-275.5412977928078" r="18.699" fill="#8b949e" class="planet" />
<text x="349.12125253246165" y="-270.5412977928078" class="text" fill="white">NBHARATH1306</text>
<circle cx="400" cy="225" r="547.0905" class="orbit" />
<circle cx="551.2210996017425" cy="750.7758022441599" r="18.155" fill="#e34c26" class="planet" />
<text x="566.2210996017425" y="755.7758022441599" class="text" fill="white">WEBSITE-EQUDATOR-TRADING-PLATFORM</text>
<circle cx="400" cy="225" r="577.923" class="orbit" />
<circle cx="-45.08885536803376" cy="593.6338356095023" r="10.555" fill="#8b949e" class="planet" />
<text x="-30.088855368033762" y="598.6338356095023" class="text" fill="white">FLASK</text>
<circle cx="400" cy="225" r="608.196" class="orbit" />
<circle cx="283.1294960063692" cy="-371.8615079834474" r="10.182" fill="#8b949e" class="planet" />
<text x="298.1294960063692" y="-366.8615079834474" class="text" fill="white">HCF-INTERNSHIP</text>
<circle cx="400" cy="225" r="637.065" class="orbit" />
<circle cx="708.9682917822245" cy="-332.12692350861505" r="9.246" fill="#8b949e" class="planet" />

    <text x="400" y="40" text-anchor="middle" class="title">SYSTEM SINGULARITY</text>
    </svg>