<svg width="800" height="450" xmlns="http://www.w3.org/2000/svg">
    <style>
        .orbit { fill: none; stroke: #30363d; stroke-width: 1; opacity: 0.5; }
        .planet { filter: drop-shadow(0 0 5px rgba(255,255,255,0.3)); }
        .text { font-family: 'Courier New', monospace; fill: #8b949e; font-size: 10px; }
        .title { font-family: sans-serif; fill: white; font-weight: bold; font-size: 24px; letter-spacing: 4px; }
        .hud-line { stroke: #00ffff; stroke-width: 1; opacity: 0.3; }
        
        /* ANIMATIONS */
        @keyframes pulse { 0% { r: 25; opacity: 0.8; } 50% { r: 30; opacity: 0.4; } 100% { r: 25; opacity: 0.8; } }
        .sun { animation: pulse 4s infinite; }
    </style>
    
    <rect width="100%" height="100%" fill="#0d1117" />
    
    <line x1="50" y1="50" x2="50" y2="400" class="hud-line" />
    <line x1="50" y1="400" x2="750" y2="400" class="hud-line" />
    <text x="60" y="390" class="text">SYS_TIME: 2026.05.31 :: 0232</text>
    <text x="60" y="375" class="text">SECTOR: N_BHARATH_PRIME</text>
    
    <circle cx="400" cy="225" r="25" fill="url(#grad1)" class="sun" />
    <defs>
        <radialGradient id="grad1" cx="50%" cy="50%" r="50%" fx="50%" fy="50%">
            <stop offset="0%" style="stop-color:white;stop-opacity:1" />
            <stop offset="100%" style="stop-color:#00ffff;stop-opacity:1" />
        </radialGradient>
    </defs>
    <circle cx="400" cy="225" r="150.0" class="orbit" />
<circle cx="333.8128656403719" cy="90.39218728000765" r="50" fill="#e34c26" class="planet" />
<text x="348.8128656403719" y="95.39218728000765" class="text" fill="white">CIRCLE13</text>
<circle cx="400" cy="225" r="240.0" class="orbit" />
<circle cx="574.0989699773666" cy="59.804513824317695" r="50" fill="#f1e05a" class="planet" />
<text x="589.0989699773666" y="64.8045138243177" class="text" fill="white">REDSHIFT</text>
<circle cx="400" cy="225" r="330.0" class="orbit" />
<circle cx="356.31182386459597" cy="552.0953122041983" r="50" fill="#e34c26" class="planet" />
<text x="371.31182386459597" y="557.0953122041983" class="text" fill="white">ALVRYN-AI</text>
<circle cx="400" cy="225" r="415.422" class="orbit" />
<circle cx="272.9487002466491" cy="620.516630895572" r="46.948" fill="#f1e05a" class="planet" />
<text x="287.9487002466491" y="625.516630895572" class="text" fill="white">DRIFT-CIRCLE13</text>
<circle cx="400" cy="225" r="461.8095" class="orbit" />
<circle cx="800.0578922021333" cy="-5.698281695023269" r="20.925" fill="#2b7489" class="planet" />
<text x="815.0578922021333" y="-0.6982816950232689" class="text" fill="white">DSATM-EXAM-SYSTEM-</text>
<circle cx="400" cy="225" r="504.92400000000004" class="orbit" />
<circle cx="614.2321026933744" cy="682.2229783722331" r="18.743" fill="#8b949e" class="planet" />
<text x="629.2321026933744" y="687.2229783722331" class="text" fill="white">NBHARATH1306</text>
<circle cx="400" cy="225" r="547.1565" class="orbit" />
<circle cx="-12.997445990367282" cy="583.9057607474192" r="18.155" fill="#e34c26" class="planet" />
<text x="2.0025540096327177" y="588.9057607474192" class="text" fill="white">WEBSITE-EQUDATOR-TRADING-PLATFORM</text>
<circle cx="400" cy="225" r="577.989" class="orbit" />
<circle cx="453.49330271168617" cy="-350.5082542292473" r="10.555" fill="#8b949e" class="planet" />
<text x="468.49330271168617" y="-345.5082542292473" class="text" fill="white">FLASK</text>
<circle cx="400" cy="225" r="608.2620000000001" class="orbit" />
<circle cx="252.30436439230795" cy="815.0581834585805" r="10.182" fill="#8b949e" class="planet" />
<text x="267.30436439230795" y="820.0581834585805" class="text" fill="white">HCF-INTERNSHIP</text>
<circle cx="400" cy="225" r="637.1310000000001" class="orbit" />
<circle cx="489.58964217104216" cy="-405.8007666265671" r="9.246" fill="#8b949e" class="planet" />

    <text x="400" y="40" text-anchor="middle" class="title">SYSTEM SINGULARITY</text>
    </svg>