<svg width="800" height="450" xmlns="http://www.w3.org/2000/svg">
    <style>
        .orbit { fill: none; stroke: #30363d; stroke-width: 1; opacity: 0.5; }
        .planet { filter: drop-shadow(0 0 5px rgba(255,255,255,0.3)); }
        .text { font-family: 'Courier New', monospace; fill: #8b949e; font-size: 10px; }
        .title { font-family: sans-serif; fill: white; font-weight: bold; font-size: 24px; letter-spacing: 4px; }
        .hud-line { stroke: #00ffff; stroke-width: 1; opacity: 0.3; }
        
        /* ANIMATIONS */
        @keyframes pulse { 0% { r: 25; opacity: 0.8; } 50% { r: 30; opacity: 0.4; } 100% { r: 25; opacity: 0.8; } }
        .sun { animation: pulse 4s infinite; }
    </style>
    
    <rect width="100%" height="100%" fill="#0d1117" />
    
    <line x1="50" y1="50" x2="50" y2="400" class="hud-line" />
    <line x1="50" y1="400" x2="750" y2="400" class="hud-line" />
    <text x="60" y="390" class="text">SYS_TIME: 2026.04.19 :: 0146</text>
    <text x="60" y="375" class="text">SECTOR: N_BHARATH_PRIME</text>
    
    <circle cx="400" cy="225" r="25" fill="url(#grad1)" class="sun" />
    <defs>
        <radialGradient id="grad1" cx="50%" cy="50%" r="50%" fx="50%" fy="50%">
            <stop offset="0%" style="stop-color:white;stop-opacity:1" />
            <stop offset="100%" style="stop-color:#00ffff;stop-opacity:1" />
        </radialGradient>
    </defs>
    <circle cx="400" cy="225" r="150.0" class="orbit" />
<circle cx="539.0755382088166" cy="281.19603786681034" r="50" fill="#e34c26" class="planet" />
<text x="554.0755382088166" y="286.19603786681034" class="text" fill="white">CIRCLE13</text>
<circle cx="400" cy="225" r="240.0" class="orbit" />
<circle cx="410.23709271371496" cy="-14.781571295149377" r="50" fill="#f1e05a" class="planet" />
<text x="425.23709271371496" y="-9.781571295149377" class="text" fill="white">REDSHIFT</text>
<circle cx="400" cy="225" r="330.0" class="orbit" />
<circle cx="71.54988702039856" cy="193.05436988120186" r="50" fill="#e34c26" class="planet" />
<text x="86.54988702039856" y="198.05436988120186" class="text" fill="white">ALVRYN-AI</text>
<circle cx="400" cy="225" r="415.422" class="orbit" />
<circle cx="752.9190387115874" cy="5.857146594078728" r="46.948" fill="#f1e05a" class="planet" />
<text x="767.9190387115874" y="10.857146594078728" class="text" fill="white">DRIFT-CIRCLE13</text>
<circle cx="400" cy="225" r="461.8095" class="orbit" />
<circle cx="435.0662532258908" cy="-235.47624496269918" r="20.925" fill="#2b7489" class="planet" />
<text x="450.0662532258908" y="-230.47624496269918" class="text" fill="white">DSATM-EXAM-SYSTEM-</text>
<circle cx="400" cy="225" r="504.885" class="orbit" />
<circle cx="887.7300662973919" cy="94.50767971048359" r="18.717" fill="#8b949e" class="planet" />
<text x="902.7300662973919" y="99.50767971048359" class="text" fill="white">NBHARATH1306</text>
<circle cx="400" cy="225" r="547.1175" class="orbit" />
<circle cx="553.2847302914493" cy="750.2060074539586" r="18.155" fill="#e34c26" class="planet" />
<text x="568.2847302914493" y="755.2060074539586" class="text" fill="white">WEBSITE-EQUDATOR-TRADING-PLATFORM</text>
<circle cx="400" cy="225" r="577.9499999999999" class="orbit" />
<circle cx="913.3765110600673" cy="490.4632938690253" r="10.555" fill="#8b949e" class="planet" />
<text x="928.3765110600673" y="495.4632938690253" class="text" fill="white">FLASK</text>
<circle cx="400" cy="225" r="608.223" class="orbit" />
<circle cx="-46.99215779012201" cy="637.4720943326113" r="10.182" fill="#8b949e" class="planet" />
<text x="-31.992157790122008" y="642.4720943326113" class="text" fill="white">HCF-INTERNSHIP</text>
<circle cx="400" cy="225" r="637.092" class="orbit" />
<circle cx="177.8507308754661" cy="822.1062875999845" r="9.246" fill="#8b949e" class="planet" />

    <text x="400" y="40" text-anchor="middle" class="title">SYSTEM SINGULARITY</text>
    </svg>