<svg width="800" height="450" xmlns="http://www.w3.org/2000/svg">
    <style>
        .orbit { fill: none; stroke: #30363d; stroke-width: 1; opacity: 0.5; }
        .planet { filter: drop-shadow(0 0 5px rgba(255,255,255,0.3)); }
        .text { font-family: 'Courier New', monospace; fill: #8b949e; font-size: 10px; }
        .title { font-family: sans-serif; fill: white; font-weight: bold; font-size: 24px; letter-spacing: 4px; }
        .hud-line { stroke: #00ffff; stroke-width: 1; opacity: 0.3; }
        
        /* ANIMATIONS */
        @keyframes pulse { 0% { r: 25; opacity: 0.8; } 50% { r: 30; opacity: 0.4; } 100% { r: 25; opacity: 0.8; } }
        .sun { animation: pulse 4s infinite; }
    </style>
    
    <rect width="100%" height="100%" fill="#0d1117" />
    
    <line x1="50" y1="50" x2="50" y2="400" class="hud-line" />
    <line x1="50" y1="400" x2="750" y2="400" class="hud-line" />
    <text x="60" y="390" class="text">SYS_TIME: 2026.06.22 :: 0246</text>
    <text x="60" y="375" class="text">SECTOR: N_BHARATH_PRIME</text>
    
    <circle cx="400" cy="225" r="25" fill="url(#grad1)" class="sun" />
    <defs>
        <radialGradient id="grad1" cx="50%" cy="50%" r="50%" fx="50%" fy="50%">
            <stop offset="0%" style="stop-color:white;stop-opacity:1" />
            <stop offset="100%" style="stop-color:#00ffff;stop-opacity:1" />
        </radialGradient>
    </defs>
    <circle cx="400" cy="225" r="150.0" class="orbit" />
<circle cx="389.46784309725035" cy="75.3702112847316" r="50" fill="#e34c26" class="planet" />
<text x="404.46784309725035" y="80.3702112847316" class="text" fill="white">CIRCLE13</text>
<circle cx="400" cy="225" r="240.0" class="orbit" />
<circle cx="636.2624957548574" cy="267.1904384865339" r="50" fill="#f1e05a" class="planet" />
<text x="651.2624957548574" y="272.1904384865339" class="text" fill="white">REDSHIFT</text>
<circle cx="400" cy="225" r="330.0" class="orbit" />
<circle cx="70.03125851382799" cy="229.54198657327106" r="50" fill="#e34c26" class="planet" />
<text x="85.03125851382799" y="234.54198657327106" class="text" fill="white">ALVRYN-AI</text>
<circle cx="400" cy="225" r="415.422" class="orbit" />
<circle cx="691.0756445554778" cy="-71.39569367757889" r="46.948" fill="#f1e05a" class="planet" />
<text x="706.0756445554778" y="-66.39569367757889" class="text" fill="white">DRIFT-CIRCLE13</text>
<circle cx="400" cy="225" r="461.8095" class="orbit" />
<circle cx="463.1180929016064" cy="682.4758142664093" r="20.925" fill="#2b7489" class="planet" />
<text x="478.1180929016064" y="687.4758142664093" class="text" fill="white">DSATM-EXAM-SYSTEM-</text>
<circle cx="400" cy="225" r="504.96750000000003" class="orbit" />
<circle cx="247.82556022978272" cy="-256.49259177776617" r="18.772" fill="#8b949e" class="planet" />
<text x="262.8255602297827" y="-251.49259177776617" class="text" fill="white">NBHARATH1306</text>
<circle cx="400" cy="225" r="547.2" class="orbit" />
<circle cx="336.4240764357396" cy="-318.4941967886606" r="18.155" fill="#e34c26" class="planet" />
<text x="351.4240764357396" y="-313.4941967886606" class="text" fill="white">WEBSITE-EQUDATOR-TRADING-PLATFORM</text>
<circle cx="400" cy="225" r="578.0325" class="orbit" />
<circle cx="28.593272737067252" cy="667.9205504377591" r="10.555" fill="#8b949e" class="planet" />
<text x="43.59327273706725" y="672.9205504377591" class="text" fill="white">FLASK</text>
<circle cx="400" cy="225" r="608.3055" class="orbit" />
<circle cx="-183.68826164988548" cy="53.70027862724072" r="10.182" fill="#8b949e" class="planet" />
<text x="-168.68826164988548" y="58.70027862724072" class="text" fill="white">HCF-INTERNSHIP</text>
<circle cx="400" cy="225" r="637.1745000000001" class="orbit" />
<circle cx="775.8715052201215" cy="739.5016569592466" r="9.246" fill="#8b949e" class="planet" />

    <text x="400" y="40" text-anchor="middle" class="title">SYSTEM SINGULARITY</text>
    </svg>