<svg width="800" height="450" xmlns="http://www.w3.org/2000/svg">
    <style>
        .orbit { fill: none; stroke: #30363d; stroke-width: 1; opacity: 0.5; }
        .planet { filter: drop-shadow(0 0 5px rgba(255,255,255,0.3)); }
        .text { font-family: 'Courier New', monospace; fill: #8b949e; font-size: 10px; }
        .title { font-family: sans-serif; fill: white; font-weight: bold; font-size: 24px; letter-spacing: 4px; }
        .hud-line { stroke: #00ffff; stroke-width: 1; opacity: 0.3; }
        
        /* ANIMATIONS */
        @keyframes pulse { 0% { r: 25; opacity: 0.8; } 50% { r: 30; opacity: 0.4; } 100% { r: 25; opacity: 0.8; } }
        .sun { animation: pulse 4s infinite; }
    </style>
    
    <rect width="100%" height="100%" fill="#0d1117" />
    
    <line x1="50" y1="50" x2="50" y2="400" class="hud-line" />
    <line x1="50" y1="400" x2="750" y2="400" class="hud-line" />
    <text x="60" y="390" class="text">SYS_TIME: 2026.06.03 :: 0248</text>
    <text x="60" y="375" class="text">SECTOR: N_BHARATH_PRIME</text>
    
    <circle cx="400" cy="225" r="25" fill="url(#grad1)" class="sun" />
    <defs>
        <radialGradient id="grad1" cx="50%" cy="50%" r="50%" fx="50%" fy="50%">
            <stop offset="0%" style="stop-color:white;stop-opacity:1" />
            <stop offset="100%" style="stop-color:#00ffff;stop-opacity:1" />
        </radialGradient>
    </defs>
    <circle cx="400" cy="225" r="150.0" class="orbit" />
<circle cx="541.6415590136642" cy="175.62724678348695" r="50" fill="#e34c26" class="planet" />
<text x="556.6415590136642" y="180.62724678348695" class="text" fill="white">CIRCLE13</text>
<circle cx="400" cy="225" r="240.0" class="orbit" />
<circle cx="626.8827816955676" cy="303.2572895651351" r="50" fill="#f1e05a" class="planet" />
<text x="641.8827816955676" y="308.2572895651351" class="text" fill="white">REDSHIFT</text>
<circle cx="400" cy="225" r="330.0" class="orbit" />
<circle cx="89.89516883632649" cy="112.15057071943355" r="50" fill="#e34c26" class="planet" />
<text x="104.89516883632649" y="117.15057071943355" class="text" fill="white">ALVRYN-AI</text>
<circle cx="400" cy="225" r="415.422" class="orbit" />
<circle cx="280.4787455936376" cy="-172.85689365540674" r="46.948" fill="#f1e05a" class="planet" />
<text x="295.4787455936376" y="-167.85689365540674" class="text" fill="white">DRIFT-CIRCLE13</text>
<circle cx="400" cy="225" r="461.8095" class="orbit" />
<circle cx="85.93206061066024" cy="-113.56955524379924" r="20.925" fill="#2b7489" class="planet" />
<text x="100.93206061066024" y="-108.56955524379924" class="text" fill="white">DSATM-EXAM-SYSTEM-</text>
<circle cx="400" cy="225" r="504.93" class="orbit" />
<circle cx="904.6310819460016" cy="242.37170210450924" r="18.747" fill="#8b949e" class="planet" />
<text x="919.6310819460016" y="247.37170210450924" class="text" fill="white">NBHARATH1306</text>
<circle cx="400" cy="225" r="547.1625" class="orbit" />
<circle cx="723.3203943308981" cy="666.4189891882345" r="18.155" fill="#e34c26" class="planet" />
<text x="738.3203943308981" y="671.4189891882345" class="text" fill="white">WEBSITE-EQUDATOR-TRADING-PLATFORM</text>
<circle cx="400" cy="225" r="577.995" class="orbit" />
<circle cx="687.6428840280096" cy="-276.3380010462493" r="10.555" fill="#8b949e" class="planet" />
<text x="702.6428840280096" y="-271.3380010462493" class="text" fill="white">FLASK</text>
<circle cx="400" cy="225" r="608.268" class="orbit" />
<circle cx="-127.87516569821616" cy="-77.22139114080062" r="10.182" fill="#8b949e" class="planet" />
<text x="-112.87516569821616" y="-72.22139114080062" class="text" fill="white">HCF-INTERNSHIP</text>
<circle cx="400" cy="225" r="637.1370000000001" class="orbit" />
<circle cx="963.021267065117" cy="-73.24588781974916" r="9.246" fill="#8b949e" class="planet" />

    <text x="400" y="40" text-anchor="middle" class="title">SYSTEM SINGULARITY</text>
    </svg>