<svg width="800" height="450" xmlns="http://www.w3.org/2000/svg">
    <style>
        .orbit { fill: none; stroke: #30363d; stroke-width: 1; opacity: 0.5; }
        .planet { filter: drop-shadow(0 0 5px rgba(255,255,255,0.3)); }
        .text { font-family: 'Courier New', monospace; fill: #8b949e; font-size: 10px; }
        .title { font-family: sans-serif; fill: white; font-weight: bold; font-size: 24px; letter-spacing: 4px; }
        .hud-line { stroke: #00ffff; stroke-width: 1; opacity: 0.3; }
        
        /* ANIMATIONS */
        @keyframes pulse { 0% { r: 25; opacity: 0.8; } 50% { r: 30; opacity: 0.4; } 100% { r: 25; opacity: 0.8; } }
        .sun { animation: pulse 4s infinite; }
    </style>
    
    <rect width="100%" height="100%" fill="#0d1117" />
    
    <line x1="50" y1="50" x2="50" y2="400" class="hud-line" />
    <line x1="50" y1="400" x2="750" y2="400" class="hud-line" />
    <text x="60" y="390" class="text">SYS_TIME: 2026.04.04 :: 0117</text>
    <text x="60" y="375" class="text">SECTOR: N_BHARATH_PRIME</text>
    
    <circle cx="400" cy="225" r="25" fill="url(#grad1)" class="sun" />
    <defs>
        <radialGradient id="grad1" cx="50%" cy="50%" r="50%" fx="50%" fy="50%">
            <stop offset="0%" style="stop-color:white;stop-opacity:1" />
            <stop offset="100%" style="stop-color:#00ffff;stop-opacity:1" />
        </radialGradient>
    </defs>
    <circle cx="400" cy="225" r="150.0" class="orbit" />
<circle cx="265.8289209596486" cy="292.06803671755847" r="50" fill="#e34c26" class="planet" />
<text x="280.8289209596486" y="297.06803671755847" class="text" fill="white">CIRCLE13</text>
<circle cx="400" cy="225" r="240.0" class="orbit" />
<circle cx="343.9218091470267" cy="-8.356458043606551" r="50" fill="#f1e05a" class="planet" />
<text x="358.9218091470267" y="-3.356458043606551" class="text" fill="white">REDSHIFT</text>
<circle cx="400" cy="225" r="330.0" class="orbit" />
<circle cx="168.43787899357721" cy="-10.11483176313402" r="50" fill="#e34c26" class="planet" />
<text x="183.43787899357721" y="-5.1148317631340205" class="text" fill="white">ALVRYN-AI</text>
<circle cx="400" cy="225" r="415.422" class="orbit" />
<circle cx="196.42298733503213" cy="587.1213028784796" r="46.948" fill="#f1e05a" class="planet" />
<text x="211.42298733503213" y="592.1213028784796" class="text" fill="white">DRIFT-CIRCLE13</text>
<circle cx="400" cy="225" r="461.8095" class="orbit" />
<circle cx="195.87036426839614" cy="639.2452246029309" r="20.925" fill="#2b7489" class="planet" />
<text x="210.87036426839614" y="644.2452246029309" class="text" fill="white">DSATM-EXAM-SYSTEM-</text>
<circle cx="400" cy="225" r="504.855" class="orbit" />
<circle cx="167.2975854555729" cy="-223.0269604501426" r="18.697" fill="#8b949e" class="planet" />
<text x="182.2975854555729" y="-218.0269604501426" class="text" fill="white">NBHARATH1306</text>
<circle cx="400" cy="225" r="547.0875" class="orbit" />
<circle cx="-146.97032990772584" cy="213.67785988058884" r="18.155" fill="#e34c26" class="planet" />
<text x="-131.97032990772584" y="218.67785988058884" class="text" fill="white">WEBSITE-EQUDATOR-TRADING-PLATFORM</text>
<circle cx="400" cy="225" r="577.92" class="orbit" />
<circle cx="-142.12520069690504" cy="24.77064858183161" r="10.555" fill="#8b949e" class="planet" />
<text x="-127.12520069690504" y="29.77064858183161" class="text" fill="white">FLASK</text>
<circle cx="400" cy="225" r="608.193" class="orbit" />
<circle cx="-123.53481338380846" cy="-84.53194410945838" r="10.182" fill="#8b949e" class="planet" />
<text x="-108.53481338380846" y="-79.53194410945838" class="text" fill="white">HCF-INTERNSHIP</text>
<circle cx="400" cy="225" r="637.062" class="orbit" />
<circle cx="566.3415455459758" cy="-389.962179381282" r="9.246" fill="#8b949e" class="planet" />

    <text x="400" y="40" text-anchor="middle" class="title">SYSTEM SINGULARITY</text>
    </svg>