<svg width="800" height="450" xmlns="http://www.w3.org/2000/svg">
    <style>
        .orbit { fill: none; stroke: #30363d; stroke-width: 1; opacity: 0.5; }
        .planet { filter: drop-shadow(0 0 5px rgba(255,255,255,0.3)); }
        .text { font-family: 'Courier New', monospace; fill: #8b949e; font-size: 10px; }
        .title { font-family: sans-serif; fill: white; font-weight: bold; font-size: 24px; letter-spacing: 4px; }
        .hud-line { stroke: #00ffff; stroke-width: 1; opacity: 0.3; }
        
        /* ANIMATIONS */
        @keyframes pulse { 0% { r: 25; opacity: 0.8; } 50% { r: 30; opacity: 0.4; } 100% { r: 25; opacity: 0.8; } }
        .sun { animation: pulse 4s infinite; }
    </style>
    
    <rect width="100%" height="100%" fill="#0d1117" />
    
    <line x1="50" y1="50" x2="50" y2="400" class="hud-line" />
    <line x1="50" y1="400" x2="750" y2="400" class="hud-line" />
    <text x="60" y="390" class="text">SYS_TIME: 2026.02.14 :: 0112</text>
    <text x="60" y="375" class="text">SECTOR: N_BHARATH_PRIME</text>
    
    <circle cx="400" cy="225" r="25" fill="url(#grad1)" class="sun" />
    <defs>
        <radialGradient id="grad1" cx="50%" cy="50%" r="50%" fx="50%" fy="50%">
            <stop offset="0%" style="stop-color:white;stop-opacity:1" />
            <stop offset="100%" style="stop-color:#00ffff;stop-opacity:1" />
        </radialGradient>
    </defs>
    <circle cx="400" cy="225" r="150.0" class="orbit" />
<circle cx="425.74332448905307" cy="77.22557310464262" r="50" fill="#f1e05a" class="planet" />
<text x="440.74332448905307" y="82.22557310464262" class="text" fill="white">REDSHIFT</text>
<circle cx="400" cy="225" r="240.0" class="orbit" />
<circle cx="164.34528502724868" cy="270.4626804215428" r="50" fill="#e34c26" class="planet" />
<text x="179.34528502724868" y="275.4626804215428" class="text" fill="white">CIRCLE-13</text>
<circle cx="400" cy="225" r="330.0" class="orbit" />
<circle cx="204.1508095735807" cy="-40.59950039357403" r="50" fill="#e34c26" class="planet" />
<text x="219.1508095735807" y="-35.59950039357403" class="text" fill="white">ALVRYN-AI</text>
<circle cx="400" cy="225" r="415.422" class="orbit" />
<circle cx="-9.698664169367987" cy="156.27996899130898" r="46.948" fill="#f1e05a" class="planet" />
<text x="5.301335830632013" y="161.27996899130898" class="text" fill="white">DRIFT-CIRCLE13</text>
<circle cx="400" cy="225" r="461.8095" class="orbit" />
<circle cx="-17.31510746245783" cy="27.22205539078101" r="20.925" fill="#2b7489" class="planet" />
<text x="-2.3151074624578314" y="32.22205539078101" class="text" fill="white">DSATM-EXAM-SYSTEM-</text>
<circle cx="400" cy="225" r="504.8025" class="orbit" />
<circle cx="774.4047617676815" cy="563.5950950204915" r="18.662" fill="#8b949e" class="planet" />
<text x="789.4047617676815" y="568.5950950204915" class="text" fill="white">NBHARATH1306</text>
<circle cx="400" cy="225" r="547.035" class="orbit" />
<circle cx="-95.00717284647146" cy="-7.841555688720348" r="18.155" fill="#e34c26" class="planet" />
<text x="-80.00717284647146" y="-2.841555688720348" class="text" fill="white">WEBSITE-EQUDATOR-TRADING-PLATFORM</text>
<circle cx="400" cy="225" r="577.8675" class="orbit" />
<circle cx="919.4391903142629" cy="-28.206980792222566" r="10.555" fill="#8b949e" class="planet" />
<text x="934.4391903142629" y="-23.206980792222566" class="text" fill="white">FLASK</text>
<circle cx="400" cy="225" r="608.1405" class="orbit" />
<circle cx="778.293697894976" cy="701.1604203135689" r="10.182" fill="#8b949e" class="planet" />
<text x="793.293697894976" y="706.1604203135689" class="text" fill="white">HCF-INTERNSHIP</text>
<circle cx="400" cy="225" r="637.0095" class="orbit" />
<circle cx="385.0447353456008" cy="861.8339211673376" r="9.246" fill="#8b949e" class="planet" />

    <text x="400" y="40" text-anchor="middle" class="title">SYSTEM SINGULARITY</text>
    </svg>