<svg width="800" height="450" xmlns="http://www.w3.org/2000/svg">
    <style>
        .orbit { fill: none; stroke: #30363d; stroke-width: 1; opacity: 0.5; }
        .planet { filter: drop-shadow(0 0 5px rgba(255,255,255,0.3)); }
        .text { font-family: 'Courier New', monospace; fill: #8b949e; font-size: 10px; }
        .title { font-family: sans-serif; fill: white; font-weight: bold; font-size: 24px; letter-spacing: 4px; }
        .hud-line { stroke: #00ffff; stroke-width: 1; opacity: 0.3; }
        
        /* ANIMATIONS */
        @keyframes pulse { 0% { r: 25; opacity: 0.8; } 50% { r: 30; opacity: 0.4; } 100% { r: 25; opacity: 0.8; } }
        .sun { animation: pulse 4s infinite; }
    </style>
    
    <rect width="100%" height="100%" fill="#0d1117" />
    
    <line x1="50" y1="50" x2="50" y2="400" class="hud-line" />
    <line x1="50" y1="400" x2="750" y2="400" class="hud-line" />
    <text x="60" y="390" class="text">SYS_TIME: 2026.03.25 :: 0116</text>
    <text x="60" y="375" class="text">SECTOR: N_BHARATH_PRIME</text>
    
    <circle cx="400" cy="225" r="25" fill="url(#grad1)" class="sun" />
    <defs>
        <radialGradient id="grad1" cx="50%" cy="50%" r="50%" fx="50%" fy="50%">
            <stop offset="0%" style="stop-color:white;stop-opacity:1" />
            <stop offset="100%" style="stop-color:#00ffff;stop-opacity:1" />
        </radialGradient>
    </defs>
    <circle cx="400" cy="225" r="150.0" class="orbit" />
<circle cx="256.0692440199691" cy="182.7633159088359" r="50" fill="#f1e05a" class="planet" />
<text x="271.0692440199691" y="187.7633159088359" class="text" fill="white">REDSHIFT</text>
<circle cx="400" cy="225" r="240.0" class="orbit" />
<circle cx="218.55390671460287" cy="382.0901500141462" r="50" fill="#e34c26" class="planet" />
<text x="233.55390671460287" y="387.0901500141462" class="text" fill="white">CIRCLE-13</text>
<circle cx="400" cy="225" r="330.0" class="orbit" />
<circle cx="137.5023249077409" cy="424.9874260326353" r="50" fill="#e34c26" class="planet" />
<text x="152.5023249077409" y="429.9874260326353" class="text" fill="white">ALVRYN-AI</text>
<circle cx="400" cy="225" r="415.422" class="orbit" />
<circle cx="66.90289105090119" cy="473.2372939220701" r="46.948" fill="#f1e05a" class="planet" />
<text x="81.90289105090119" y="478.2372939220701" class="text" fill="white">DRIFT-CIRCLE13</text>
<circle cx="400" cy="225" r="461.8095" class="orbit" />
<circle cx="811.9770305416929" cy="16.33054704557486" r="20.925" fill="#2b7489" class="planet" />
<text x="826.9770305416929" y="21.33054704557486" class="text" fill="white">DSATM-EXAM-SYSTEM-</text>
<circle cx="400" cy="225" r="504.8805" class="orbit" />
<circle cx="361.0853425614493" cy="728.3785540889583" r="18.714" fill="#8b949e" class="planet" />
<text x="376.0853425614493" y="733.3785540889583" class="text" fill="white">NBHARATH1306</text>
<circle cx="400" cy="225" r="547.1129999999999" class="orbit" />
<circle cx="676.5629503690666" cy="697.0652171598297" r="18.155" fill="#e34c26" class="planet" />
<text x="691.5629503690666" y="702.0652171598297" class="text" fill="white">WEBSITE-EQUDATOR-TRADING-PLATFORM</text>
<circle cx="400" cy="225" r="577.9454999999999" class="orbit" />
<circle cx="747.0943773109992" cy="-237.11091115590386" r="10.555" fill="#8b949e" class="planet" />
<text x="762.0943773109992" y="-232.11091115590386" class="text" fill="white">FLASK</text>
<circle cx="400" cy="225" r="608.2185" class="orbit" />
<circle cx="-171.60895907524423" cy="432.82911645668355" r="10.182" fill="#8b949e" class="planet" />
<text x="-156.60895907524423" y="437.82911645668355" class="text" fill="white">HCF-INTERNSHIP</text>
<circle cx="400" cy="225" r="637.0875" class="orbit" />
<circle cx="-220.4960919787269" cy="80.55249224933888" r="9.246" fill="#8b949e" class="planet" />

    <text x="400" y="40" text-anchor="middle" class="title">SYSTEM SINGULARITY</text>
    </svg>