<svg width="800" height="450" xmlns="http://www.w3.org/2000/svg">
    <style>
        .orbit { fill: none; stroke: #30363d; stroke-width: 1; opacity: 0.5; }
        .planet { filter: drop-shadow(0 0 5px rgba(255,255,255,0.3)); }
        .text { font-family: 'Courier New', monospace; fill: #8b949e; font-size: 10px; }
        .title { font-family: sans-serif; fill: white; font-weight: bold; font-size: 24px; letter-spacing: 4px; }
        .hud-line { stroke: #00ffff; stroke-width: 1; opacity: 0.3; }
        
        /* ANIMATIONS */
        @keyframes pulse { 0% { r: 25; opacity: 0.8; } 50% { r: 30; opacity: 0.4; } 100% { r: 25; opacity: 0.8; } }
        .sun { animation: pulse 4s infinite; }
    </style>
    
    <rect width="100%" height="100%" fill="#0d1117" />
    
    <line x1="50" y1="50" x2="50" y2="400" class="hud-line" />
    <line x1="50" y1="400" x2="750" y2="400" class="hud-line" />
    <text x="60" y="390" class="text">SYS_TIME: 2026.05.10 :: 0158</text>
    <text x="60" y="375" class="text">SECTOR: N_BHARATH_PRIME</text>
    
    <circle cx="400" cy="225" r="25" fill="url(#grad1)" class="sun" />
    <defs>
        <radialGradient id="grad1" cx="50%" cy="50%" r="50%" fx="50%" fy="50%">
            <stop offset="0%" style="stop-color:white;stop-opacity:1" />
            <stop offset="100%" style="stop-color:#00ffff;stop-opacity:1" />
        </radialGradient>
    </defs>
    <circle cx="400" cy="225" r="150.0" class="orbit" />
<circle cx="547.8203197127002" cy="250.4784826870656" r="50" fill="#e34c26" class="planet" />
<text x="562.8203197127002" y="255.4784826870656" class="text" fill="white">CIRCLE13</text>
<circle cx="400" cy="225" r="240.0" class="orbit" />
<circle cx="537.8727662983533" cy="421.4461766317677" r="50" fill="#f1e05a" class="planet" />
<text x="552.8727662983533" y="426.4461766317677" class="text" fill="white">REDSHIFT</text>
<circle cx="400" cy="225" r="330.0" class="orbit" />
<circle cx="499.76598077636163" cy="-89.55802180159168" r="50" fill="#e34c26" class="planet" />
<text x="514.7659807763616" y="-84.55802180159168" class="text" fill="white">ALVRYN-AI</text>
<circle cx="400" cy="225" r="415.422" class="orbit" />
<circle cx="450.5746751020618" cy="637.33195403985" r="46.948" fill="#f1e05a" class="planet" />
<text x="465.5746751020618" y="642.33195403985" class="text" fill="white">DRIFT-CIRCLE13</text>
<circle cx="400" cy="225" r="461.8095" class="orbit" />
<circle cx="392.3395140172115" cy="-236.745959640967" r="20.925" fill="#2b7489" class="planet" />
<text x="407.3395140172115" y="-231.745959640967" class="text" fill="white">DSATM-EXAM-SYSTEM-</text>
<circle cx="400" cy="225" r="504.927" class="orbit" />
<circle cx="-104.07296261768244" cy="254.35513050273374" r="18.745" fill="#8b949e" class="planet" />
<text x="-89.07296261768244" y="259.35513050273374" class="text" fill="white">NBHARATH1306</text>
<circle cx="400" cy="225" r="547.1595" class="orbit" />
<circle cx="925.5311749465648" cy="377.31711197213895" r="18.155" fill="#e34c26" class="planet" />
<text x="940.5311749465648" y="382.31711197213895" class="text" fill="white">WEBSITE-EQUDATOR-TRADING-PLATFORM</text>
<circle cx="400" cy="225" r="577.992" class="orbit" />
<circle cx="-89.42627444945549" cy="-82.46816736456839" r="10.555" fill="#8b949e" class="planet" />
<text x="-74.42627444945549" y="-77.46816736456839" class="text" fill="white">FLASK</text>
<circle cx="400" cy="225" r="608.265" class="orbit" />
<circle cx="-139.62818474155165" cy="-55.691525446597325" r="10.182" fill="#8b949e" class="planet" />
<text x="-124.62818474155165" y="-50.691525446597325" class="text" fill="white">HCF-INTERNSHIP</text>
<circle cx="400" cy="225" r="637.134" class="orbit" />
<circle cx="867.9255027947634" cy="657.4181515504038" r="9.246" fill="#8b949e" class="planet" />

    <text x="400" y="40" text-anchor="middle" class="title">SYSTEM SINGULARITY</text>
    </svg>