<svg width="800" height="450" xmlns="http://www.w3.org/2000/svg">
    <style>
        .orbit { fill: none; stroke: #30363d; stroke-width: 1; opacity: 0.5; }
        .planet { filter: drop-shadow(0 0 5px rgba(255,255,255,0.3)); }
        .text { font-family: 'Courier New', monospace; fill: #8b949e; font-size: 10px; }
        .title { font-family: sans-serif; fill: white; font-weight: bold; font-size: 24px; letter-spacing: 4px; }
        .hud-line { stroke: #00ffff; stroke-width: 1; opacity: 0.3; }
        
        /* ANIMATIONS */
        @keyframes pulse { 0% { r: 25; opacity: 0.8; } 50% { r: 30; opacity: 0.4; } 100% { r: 25; opacity: 0.8; } }
        .sun { animation: pulse 4s infinite; }
    </style>
    
    <rect width="100%" height="100%" fill="#0d1117" />
    
    <line x1="50" y1="50" x2="50" y2="400" class="hud-line" />
    <line x1="50" y1="400" x2="750" y2="400" class="hud-line" />
    <text x="60" y="390" class="text">SYS_TIME: 2026.06.04 :: 0243</text>
    <text x="60" y="375" class="text">SECTOR: N_BHARATH_PRIME</text>
    
    <circle cx="400" cy="225" r="25" fill="url(#grad1)" class="sun" />
    <defs>
        <radialGradient id="grad1" cx="50%" cy="50%" r="50%" fx="50%" fy="50%">
            <stop offset="0%" style="stop-color:white;stop-opacity:1" />
            <stop offset="100%" style="stop-color:#00ffff;stop-opacity:1" />
        </radialGradient>
    </defs>
    <circle cx="400" cy="225" r="150.0" class="orbit" />
<circle cx="271.3900270707599" cy="302.19763508774173" r="50" fill="#e34c26" class="planet" />
<text x="286.3900270707599" y="307.19763508774173" class="text" fill="white">CIRCLE13</text>
<circle cx="400" cy="225" r="240.0" class="orbit" />
<circle cx="639.6315177654872" cy="238.29419773468805" r="50" fill="#f1e05a" class="planet" />
<text x="654.6315177654872" y="243.29419773468805" class="text" fill="white">REDSHIFT</text>
<circle cx="400" cy="225" r="330.0" class="orbit" />
<circle cx="463.0602726069709" cy="-98.91882010580139" r="50" fill="#e34c26" class="planet" />
<text x="478.0602726069709" y="-93.91882010580139" class="text" fill="white">ALVRYN-AI</text>
<circle cx="400" cy="225" r="415.422" class="orbit" />
<circle cx="-15.408348151851953" cy="221.63215651347224" r="46.948" fill="#f1e05a" class="planet" />
<text x="-0.4083481518519534" y="226.63215651347224" class="text" fill="white">DRIFT-CIRCLE13</text>
<circle cx="400" cy="225" r="461.8095" class="orbit" />
<circle cx="688.8232710276268" cy="585.345851097459" r="20.925" fill="#2b7489" class="planet" />
<text x="703.8232710276268" y="590.345851097459" class="text" fill="white">DSATM-EXAM-SYSTEM-</text>
<circle cx="400" cy="225" r="504.9315" class="orbit" />
<circle cx="830.169260109208" cy="489.40542231457084" r="18.748" fill="#8b949e" class="planet" />
<text x="845.169260109208" y="494.40542231457084" class="text" fill="white">NBHARATH1306</text>
<circle cx="400" cy="225" r="547.164" class="orbit" />
<circle cx="318.9792950326" cy="-316.1322280760827" r="18.155" fill="#e34c26" class="planet" />
<text x="333.9792950326" y="-311.1322280760827" class="text" fill="white">WEBSITE-EQUDATOR-TRADING-PLATFORM</text>
<circle cx="400" cy="225" r="577.9965" class="orbit" />
<circle cx="364.3230203724043" cy="801.8943639323426" r="10.555" fill="#8b949e" class="planet" />
<text x="379.3230203724043" y="806.8943639323426" class="text" fill="white">FLASK</text>
<circle cx="400" cy="225" r="608.2695" class="orbit" />
<circle cx="259.27869536135813" cy="816.7679435818136" r="10.182" fill="#8b949e" class="planet" />
<text x="274.27869536135813" y="821.7679435818136" class="text" fill="white">HCF-INTERNSHIP</text>
<circle cx="400" cy="225" r="637.1385" class="orbit" />
<circle cx="162.47591778018494" cy="816.208743632809" r="9.246" fill="#8b949e" class="planet" />

    <text x="400" y="40" text-anchor="middle" class="title">SYSTEM SINGULARITY</text>
    </svg>