<svg width="800" height="450" xmlns="http://www.w3.org/2000/svg">
    <style>
        .orbit { fill: none; stroke: #30363d; stroke-width: 1; opacity: 0.5; }
        .planet { filter: drop-shadow(0 0 5px rgba(255,255,255,0.3)); }
        .text { font-family: 'Courier New', monospace; fill: #8b949e; font-size: 10px; }
        .title { font-family: sans-serif; fill: white; font-weight: bold; font-size: 24px; letter-spacing: 4px; }
        .hud-line { stroke: #00ffff; stroke-width: 1; opacity: 0.3; }
        
        /* ANIMATIONS */
        @keyframes pulse { 0% { r: 25; opacity: 0.8; } 50% { r: 30; opacity: 0.4; } 100% { r: 25; opacity: 0.8; } }
        .sun { animation: pulse 4s infinite; }
    </style>
    
    <rect width="100%" height="100%" fill="#0d1117" />
    
    <line x1="50" y1="50" x2="50" y2="400" class="hud-line" />
    <line x1="50" y1="400" x2="750" y2="400" class="hud-line" />
    <text x="60" y="390" class="text">SYS_TIME: 2026.05.30 :: 0207</text>
    <text x="60" y="375" class="text">SECTOR: N_BHARATH_PRIME</text>
    
    <circle cx="400" cy="225" r="25" fill="url(#grad1)" class="sun" />
    <defs>
        <radialGradient id="grad1" cx="50%" cy="50%" r="50%" fx="50%" fy="50%">
            <stop offset="0%" style="stop-color:white;stop-opacity:1" />
            <stop offset="100%" style="stop-color:#00ffff;stop-opacity:1" />
        </radialGradient>
    </defs>
    <circle cx="400" cy="225" r="150.0" class="orbit" />
<circle cx="275.1007576810894" cy="141.9326823102969" r="50" fill="#e34c26" class="planet" />
<text x="290.1007576810894" y="146.9326823102969" class="text" fill="white">CIRCLE13</text>
<circle cx="400" cy="225" r="240.0" class="orbit" />
<circle cx="258.58001222255166" cy="31.091807658814048" r="50" fill="#f1e05a" class="planet" />
<text x="273.58001222255166" y="36.09180765881405" class="text" fill="white">REDSHIFT</text>
<circle cx="400" cy="225" r="330.0" class="orbit" />
<circle cx="682.6911789881326" cy="54.74813562753687" r="50" fill="#e34c26" class="planet" />
<text x="697.6911789881326" y="59.74813562753687" class="text" fill="white">ALVRYN-AI</text>
<circle cx="400" cy="225" r="415.422" class="orbit" />
<circle cx="527.7972581842262" cy="620.276231115146" r="46.948" fill="#f1e05a" class="planet" />
<text x="542.7972581842262" y="625.276231115146" class="text" fill="white">DRIFT-CIRCLE13</text>
<circle cx="400" cy="225" r="461.8095" class="orbit" />
<circle cx="824.6877747230424" cy="406.40647257206797" r="20.925" fill="#2b7489" class="planet" />
<text x="839.6877747230424" y="411.40647257206797" class="text" fill="white">DSATM-EXAM-SYSTEM-</text>
<circle cx="400" cy="225" r="504.9225" class="orbit" />
<circle cx="891.2942921580159" cy="341.5188804409149" r="18.742" fill="#8b949e" class="planet" />
<text x="906.2942921580159" y="346.5188804409149" class="text" fill="white">NBHARATH1306</text>
<circle cx="400" cy="225" r="547.155" class="orbit" />
<circle cx="323.0985514967803" cy="-316.7238791516455" r="18.155" fill="#e34c26" class="planet" />
<text x="338.0985514967803" y="-311.7238791516455" class="text" fill="white">WEBSITE-EQUDATOR-TRADING-PLATFORM</text>
<circle cx="400" cy="225" r="577.9875" class="orbit" />
<circle cx="-49.202679738901054" cy="588.712115101546" r="10.555" fill="#8b949e" class="planet" />
<text x="-34.202679738901054" y="593.712115101546" class="text" fill="white">FLASK</text>
<circle cx="400" cy="225" r="608.2605" class="orbit" />
<circle cx="-157.75883379433515" cy="467.66421076177085" r="10.182" fill="#8b949e" class="planet" />
<text x="-142.75883379433515" y="472.66421076177085" class="text" fill="white">HCF-INTERNSHIP</text>
<circle cx="400" cy="225" r="637.1295" class="orbit" />
<circle cx="964.2739264449466" cy="520.8528953798711" r="9.246" fill="#8b949e" class="planet" />

    <text x="400" y="40" text-anchor="middle" class="title">SYSTEM SINGULARITY</text>
    </svg>