<svg width="800" height="450" xmlns="http://www.w3.org/2000/svg">
    <style>
        .orbit { fill: none; stroke: #30363d; stroke-width: 1; opacity: 0.5; }
        .planet { filter: drop-shadow(0 0 5px rgba(255,255,255,0.3)); }
        .text { font-family: 'Courier New', monospace; fill: #8b949e; font-size: 10px; }
        .title { font-family: sans-serif; fill: white; font-weight: bold; font-size: 24px; letter-spacing: 4px; }
        .hud-line { stroke: #00ffff; stroke-width: 1; opacity: 0.3; }
        
        /* ANIMATIONS */
        @keyframes pulse { 0% { r: 25; opacity: 0.8; } 50% { r: 30; opacity: 0.4; } 100% { r: 25; opacity: 0.8; } }
        .sun { animation: pulse 4s infinite; }
    </style>
    
    <rect width="100%" height="100%" fill="#0d1117" />
    
    <line x1="50" y1="50" x2="50" y2="400" class="hud-line" />
    <line x1="50" y1="400" x2="750" y2="400" class="hud-line" />
    <text x="60" y="390" class="text">SYS_TIME: 2026.06.09 :: 0207</text>
    <text x="60" y="375" class="text">SECTOR: N_BHARATH_PRIME</text>
    
    <circle cx="400" cy="225" r="25" fill="url(#grad1)" class="sun" />
    <defs>
        <radialGradient id="grad1" cx="50%" cy="50%" r="50%" fx="50%" fy="50%">
            <stop offset="0%" style="stop-color:white;stop-opacity:1" />
            <stop offset="100%" style="stop-color:#00ffff;stop-opacity:1" />
        </radialGradient>
    </defs>
    <circle cx="400" cy="225" r="150.0" class="orbit" />
<circle cx="542.2445574022265" cy="272.60762427851944" r="50" fill="#e34c26" class="planet" />
<text x="557.2445574022265" y="277.60762427851944" class="text" fill="white">CIRCLE13</text>
<circle cx="400" cy="225" r="240.0" class="orbit" />
<circle cx="526.9694512726506" cy="21.336654148268508" r="50" fill="#f1e05a" class="planet" />
<text x="541.9694512726506" y="26.336654148268508" class="text" fill="white">REDSHIFT</text>
<circle cx="400" cy="225" r="330.0" class="orbit" />
<circle cx="509.67749087363" cy="536.2408199379779" r="50" fill="#e34c26" class="planet" />
<text x="524.67749087363" y="541.2408199379779" class="text" fill="white">ALVRYN-AI</text>
<circle cx="400" cy="225" r="415.422" class="orbit" />
<circle cx="773.0690567398107" cy="407.7427617917272" r="46.948" fill="#f1e05a" class="planet" />
<text x="788.0690567398107" y="412.7427617917272" class="text" fill="white">DRIFT-CIRCLE13</text>
<circle cx="400" cy="225" r="461.8095" class="orbit" />
<circle cx="-48.807254222247764" cy="116.18794713940605" r="20.925" fill="#2b7489" class="planet" />
<text x="-33.807254222247764" y="121.18794713940605" class="text" fill="white">DSATM-EXAM-SYSTEM-</text>
<circle cx="400" cy="225" r="504.942" class="orbit" />
<circle cx="402.70349645871994" cy="729.9347625890871" r="18.755" fill="#8b949e" class="planet" />
<text x="417.70349645871994" y="734.9347625890871" class="text" fill="white">NBHARATH1306</text>
<circle cx="400" cy="225" r="547.1745" class="orbit" />
<circle cx="885.1416559436195" cy="-28.056331907606562" r="18.155" fill="#e34c26" class="planet" />
<text x="900.1416559436195" y="-23.056331907606562" class="text" fill="white">WEBSITE-EQUDATOR-TRADING-PLATFORM</text>
<circle cx="400" cy="225" r="578.007" class="orbit" />
<circle cx="830.4482672297837" cy="610.7543017101386" r="10.555" fill="#8b949e" class="planet" />
<text x="845.4482672297837" y="615.7543017101386" class="text" fill="white">FLASK</text>
<circle cx="400" cy="225" r="608.28" class="orbit" />
<circle cx="285.2888373861864" cy="-372.36580716658636" r="10.182" fill="#8b949e" class="planet" />
<text x="300.2888373861864" y="-367.36580716658636" class="text" fill="white">HCF-INTERNSHIP</text>
<circle cx="400" cy="225" r="637.149" class="orbit" />
<circle cx="1007.6264624512631" cy="33.29989480972182" r="9.246" fill="#8b949e" class="planet" />

    <text x="400" y="40" text-anchor="middle" class="title">SYSTEM SINGULARITY</text>
    </svg>