<svg width="800" height="450" xmlns="http://www.w3.org/2000/svg">
    <style>
        .orbit { fill: none; stroke: #30363d; stroke-width: 1; opacity: 0.5; }
        .planet { filter: drop-shadow(0 0 5px rgba(255,255,255,0.3)); }
        .text { font-family: 'Courier New', monospace; fill: #8b949e; font-size: 10px; }
        .title { font-family: sans-serif; fill: white; font-weight: bold; font-size: 24px; letter-spacing: 4px; }
        .hud-line { stroke: #00ffff; stroke-width: 1; opacity: 0.3; }
        
        /* ANIMATIONS */
        @keyframes pulse { 0% { r: 25; opacity: 0.8; } 50% { r: 30; opacity: 0.4; } 100% { r: 25; opacity: 0.8; } }
        .sun { animation: pulse 4s infinite; }
    </style>
    
    <rect width="100%" height="100%" fill="#0d1117" />
    
    <line x1="50" y1="50" x2="50" y2="400" class="hud-line" />
    <line x1="50" y1="400" x2="750" y2="400" class="hud-line" />
    <text x="60" y="390" class="text">SYS_TIME: 2026.04.20 :: 0148</text>
    <text x="60" y="375" class="text">SECTOR: N_BHARATH_PRIME</text>
    
    <circle cx="400" cy="225" r="25" fill="url(#grad1)" class="sun" />
    <defs>
        <radialGradient id="grad1" cx="50%" cy="50%" r="50%" fx="50%" fy="50%">
            <stop offset="0%" style="stop-color:white;stop-opacity:1" />
            <stop offset="100%" style="stop-color:#00ffff;stop-opacity:1" />
        </radialGradient>
    </defs>
    <circle cx="400" cy="225" r="150.0" class="orbit" />
<circle cx="479.76871321202805" cy="352.03130477365505" r="50" fill="#e34c26" class="planet" />
<text x="494.76871321202805" y="357.03130477365505" class="text" fill="white">CIRCLE13</text>
<circle cx="400" cy="225" r="240.0" class="orbit" />
<circle cx="564.4937436260009" cy="399.76214781211485" r="50" fill="#f1e05a" class="planet" />
<text x="579.4937436260009" y="404.76214781211485" class="text" fill="white">REDSHIFT</text>
<circle cx="400" cy="225" r="330.0" class="orbit" />
<circle cx="329.95870864388036" cy="547.4813444296695" r="50" fill="#e34c26" class="planet" />
<text x="344.95870864388036" y="552.4813444296695" class="text" fill="white">ALVRYN-AI</text>
<circle cx="400" cy="225" r="415.422" class="orbit" />
<circle cx="-4.635542821359081" cy="319.05060111272076" r="46.948" fill="#f1e05a" class="planet" />
<text x="10.364457178640919" y="324.05060111272076" class="text" fill="white">DRIFT-CIRCLE13</text>
<circle cx="400" cy="225" r="461.8095" class="orbit" />
<circle cx="11.061149113596855" cy="-23.987117259938287" r="20.925" fill="#2b7489" class="planet" />
<text x="26.061149113596855" y="-18.987117259938287" class="text" fill="white">DSATM-EXAM-SYSTEM-</text>
<circle cx="400" cy="225" r="504.8865" class="orbit" />
<circle cx="348.08973016721416" cy="727.2108140692884" r="18.718" fill="#8b949e" class="planet" />
<text x="363.08973016721416" y="732.2108140692884" class="text" fill="white">NBHARATH1306</text>
<circle cx="400" cy="225" r="547.119" class="orbit" />
<circle cx="559.9199916058074" cy="-298.22537825090103" r="18.155" fill="#e34c26" class="planet" />
<text x="574.9199916058074" y="-293.22537825090103" class="text" fill="white">WEBSITE-EQUDATOR-TRADING-PLATFORM</text>
<circle cx="400" cy="225" r="577.9515" class="orbit" />
<circle cx="-175.85440235210342" cy="274.1898733882472" r="10.555" fill="#8b949e" class="planet" />
<text x="-160.85440235210342" y="279.1898733882472" class="text" fill="white">FLASK</text>
<circle cx="400" cy="225" r="608.2245" class="orbit" />
<circle cx="267.82284846064863" cy="-368.6886751582797" r="10.182" fill="#8b949e" class="planet" />
<text x="282.82284846064863" y="-363.6886751582797" class="text" fill="white">HCF-INTERNSHIP</text>
<circle cx="400" cy="225" r="637.0935000000001" class="orbit" />
<circle cx="973.86242923475" cy="501.712919927931" r="9.246" fill="#8b949e" class="planet" />

    <text x="400" y="40" text-anchor="middle" class="title">SYSTEM SINGULARITY</text>
    </svg>