<svg width="800" height="450" xmlns="http://www.w3.org/2000/svg">
    <style>
        .orbit { fill: none; stroke: #30363d; stroke-width: 1; opacity: 0.5; }
        .planet { filter: drop-shadow(0 0 5px rgba(255,255,255,0.3)); }
        .text { font-family: 'Courier New', monospace; fill: #8b949e; font-size: 10px; }
        .title { font-family: sans-serif; fill: white; font-weight: bold; font-size: 24px; letter-spacing: 4px; }
        .hud-line { stroke: #00ffff; stroke-width: 1; opacity: 0.3; }
        
        /* ANIMATIONS */
        @keyframes pulse { 0% { r: 25; opacity: 0.8; } 50% { r: 30; opacity: 0.4; } 100% { r: 25; opacity: 0.8; } }
        .sun { animation: pulse 4s infinite; }
    </style>
    
    <rect width="100%" height="100%" fill="#0d1117" />
    
    <line x1="50" y1="50" x2="50" y2="400" class="hud-line" />
    <line x1="50" y1="400" x2="750" y2="400" class="hud-line" />
    <text x="60" y="390" class="text">SYS_TIME: 2026.03.02 :: 0113</text>
    <text x="60" y="375" class="text">SECTOR: N_BHARATH_PRIME</text>
    
    <circle cx="400" cy="225" r="25" fill="url(#grad1)" class="sun" />
    <defs>
        <radialGradient id="grad1" cx="50%" cy="50%" r="50%" fx="50%" fy="50%">
            <stop offset="0%" style="stop-color:white;stop-opacity:1" />
            <stop offset="100%" style="stop-color:#00ffff;stop-opacity:1" />
        </radialGradient>
    </defs>
    <circle cx="400" cy="225" r="150.0" class="orbit" />
<circle cx="412.98550762062604" cy="374.4368649023214" r="50" fill="#f1e05a" class="planet" />
<text x="427.98550762062604" y="379.4368649023214" class="text" fill="white">REDSHIFT</text>
<circle cx="400" cy="225" r="240.0" class="orbit" />
<circle cx="175.42259290382134" cy="140.35374655687798" r="50" fill="#e34c26" class="planet" />
<text x="190.42259290382134" y="145.35374655687798" class="text" fill="white">CIRCLE-13</text>
<circle cx="400" cy="225" r="330.0" class="orbit" />
<circle cx="145.8083632041203" cy="14.556155274069397" r="50" fill="#e34c26" class="planet" />
<text x="160.8083632041203" y="19.556155274069397" class="text" fill="white">ALVRYN-AI</text>
<circle cx="400" cy="225" r="415.422" class="orbit" />
<circle cx="629.223244262557" cy="-121.45655192786893" r="46.948" fill="#f1e05a" class="planet" />
<text x="644.223244262557" y="-116.45655192786893" class="text" fill="white">DRIFT-CIRCLE13</text>
<circle cx="400" cy="225" r="461.8095" class="orbit" />
<circle cx="-59.04711529623137" cy="174.5642960943493" r="20.925" fill="#2b7489" class="planet" />
<text x="-44.04711529623137" y="179.5642960943493" class="text" fill="white">DSATM-EXAM-SYSTEM-</text>
<circle cx="400" cy="225" r="504.834" class="orbit" />
<circle cx="39.08835255082141" cy="577.9874647795865" r="18.683" fill="#8b949e" class="planet" />
<text x="54.08835255082141" y="582.9874647795865" class="text" fill="white">NBHARATH1306</text>
<circle cx="400" cy="225" r="547.0665" class="orbit" />
<circle cx="745.9788000930648" cy="648.7693067087482" r="18.155" fill="#e34c26" class="planet" />
<text x="760.9788000930648" y="653.7693067087482" class="text" fill="white">WEBSITE-EQUDATOR-TRADING-PLATFORM</text>
<circle cx="400" cy="225" r="577.899" class="orbit" />
<circle cx="848.4976016061955" cy="-139.44088073992225" r="10.555" fill="#8b949e" class="planet" />
<text x="863.4976016061955" y="-134.44088073992225" class="text" fill="white">FLASK</text>
<circle cx="400" cy="225" r="608.172" class="orbit" />
<circle cx="418.4641417339601" cy="832.8916491070001" r="10.182" fill="#8b949e" class="planet" />
<text x="433.4641417339601" y="837.8916491070001" class="text" fill="white">HCF-INTERNSHIP</text>
<circle cx="400" cy="225" r="637.041" class="orbit" />
<circle cx="469.52834362606063" cy="-408.2353789181527" r="9.246" fill="#8b949e" class="planet" />

    <text x="400" y="40" text-anchor="middle" class="title">SYSTEM SINGULARITY</text>
    </svg>