<svg width="800" height="450" xmlns="http://www.w3.org/2000/svg">
    <style>
        .orbit { fill: none; stroke: #30363d; stroke-width: 1; opacity: 0.5; }
        .planet { filter: drop-shadow(0 0 5px rgba(255,255,255,0.3)); }
        .text { font-family: 'Courier New', monospace; fill: #8b949e; font-size: 10px; }
        .title { font-family: sans-serif; fill: white; font-weight: bold; font-size: 24px; letter-spacing: 4px; }
        .hud-line { stroke: #00ffff; stroke-width: 1; opacity: 0.3; }
        
        /* ANIMATIONS */
        @keyframes pulse { 0% { r: 25; opacity: 0.8; } 50% { r: 30; opacity: 0.4; } 100% { r: 25; opacity: 0.8; } }
        .sun { animation: pulse 4s infinite; }
    </style>
    
    <rect width="100%" height="100%" fill="#0d1117" />
    
    <line x1="50" y1="50" x2="50" y2="400" class="hud-line" />
    <line x1="50" y1="400" x2="750" y2="400" class="hud-line" />
    <text x="60" y="390" class="text">SYS_TIME: 2026.04.23 :: 0147</text>
    <text x="60" y="375" class="text">SECTOR: N_BHARATH_PRIME</text>
    
    <circle cx="400" cy="225" r="25" fill="url(#grad1)" class="sun" />
    <defs>
        <radialGradient id="grad1" cx="50%" cy="50%" r="50%" fx="50%" fy="50%">
            <stop offset="0%" style="stop-color:white;stop-opacity:1" />
            <stop offset="100%" style="stop-color:#00ffff;stop-opacity:1" />
        </radialGradient>
    </defs>
    <circle cx="400" cy="225" r="150.0" class="orbit" />
<circle cx="269.91172826307604" cy="299.67959263748185" r="50" fill="#e34c26" class="planet" />
<text x="284.91172826307604" y="304.67959263748185" class="text" fill="white">CIRCLE13</text>
<circle cx="400" cy="225" r="240.0" class="orbit" />
<circle cx="161.26879094323758" cy="200.3543143269174" r="50" fill="#f1e05a" class="planet" />
<text x="176.26879094323758" y="205.3543143269174" class="text" fill="white">REDSHIFT</text>
<circle cx="400" cy="225" r="330.0" class="orbit" />
<circle cx="605.4319102663256" cy="-33.259037100985665" r="50" fill="#e34c26" class="planet" />
<text x="620.4319102663256" y="-28.259037100985665" class="text" fill="white">ALVRYN-AI</text>
<circle cx="400" cy="225" r="415.422" class="orbit" />
<circle cx="511.3950764870553" cy="625.2081646074241" r="46.948" fill="#f1e05a" class="planet" />
<text x="526.3950764870553" y="630.2081646074241" class="text" fill="white">DRIFT-CIRCLE13</text>
<circle cx="400" cy="225" r="461.8095" class="orbit" />
<circle cx="797.6667847866015" cy="459.79595943656443" r="20.925" fill="#2b7489" class="planet" />
<text x="812.6667847866015" y="464.79595943656443" class="text" fill="white">DSATM-EXAM-SYSTEM-</text>
<circle cx="400" cy="225" r="504.89250000000004" class="orbit" />
<circle cx="-72.19401635049155" cy="46.25647570039976" r="18.722" fill="#8b949e" class="planet" />
<text x="-57.19401635049155" y="51.25647570039976" class="text" fill="white">NBHARATH1306</text>
<circle cx="400" cy="225" r="547.125" class="orbit" />
<circle cx="-139.273742261699" cy="132.64418517460524" r="18.155" fill="#e34c26" class="planet" />
<text x="-124.273742261699" y="137.64418517460524" class="text" fill="white">WEBSITE-EQUDATOR-TRADING-PLATFORM</text>
<circle cx="400" cy="225" r="577.9575" class="orbit" />
<circle cx="918.4835853372184" cy="480.36178951071224" r="10.555" fill="#8b949e" class="planet" />
<text x="933.4835853372184" y="485.36178951071224" class="text" fill="white">FLASK</text>
<circle cx="400" cy="225" r="608.2305" class="orbit" />
<circle cx="920.2681510254934" cy="540.0641080141698" r="10.182" fill="#8b949e" class="planet" />
<text x="935.2681510254934" y="545.0641080141698" class="text" fill="white">HCF-INTERNSHIP</text>
<circle cx="400" cy="225" r="637.0995" class="orbit" />
<circle cx="1030.8311331059276" cy="135.84926021315778" r="9.246" fill="#8b949e" class="planet" />

    <text x="400" y="40" text-anchor="middle" class="title">SYSTEM SINGULARITY</text>
    </svg>