<svg width="800" height="450" xmlns="http://www.w3.org/2000/svg">
    <style>
        .orbit { fill: none; stroke: #30363d; stroke-width: 1; opacity: 0.5; }
        .planet { filter: drop-shadow(0 0 5px rgba(255,255,255,0.3)); }
        .text { font-family: 'Courier New', monospace; fill: #8b949e; font-size: 10px; }
        .title { font-family: sans-serif; fill: white; font-weight: bold; font-size: 24px; letter-spacing: 4px; }
        .hud-line { stroke: #00ffff; stroke-width: 1; opacity: 0.3; }
        
        /* ANIMATIONS */
        @keyframes pulse { 0% { r: 25; opacity: 0.8; } 50% { r: 30; opacity: 0.4; } 100% { r: 25; opacity: 0.8; } }
        .sun { animation: pulse 4s infinite; }
    </style>
    
    <rect width="100%" height="100%" fill="#0d1117" />
    
    <line x1="50" y1="50" x2="50" y2="400" class="hud-line" />
    <line x1="50" y1="400" x2="750" y2="400" class="hud-line" />
    <text x="60" y="390" class="text">SYS_TIME: 2026.03.05 :: 0113</text>
    <text x="60" y="375" class="text">SECTOR: N_BHARATH_PRIME</text>
    
    <circle cx="400" cy="225" r="25" fill="url(#grad1)" class="sun" />
    <defs>
        <radialGradient id="grad1" cx="50%" cy="50%" r="50%" fx="50%" fy="50%">
            <stop offset="0%" style="stop-color:white;stop-opacity:1" />
            <stop offset="100%" style="stop-color:#00ffff;stop-opacity:1" />
        </radialGradient>
    </defs>
    <circle cx="400" cy="225" r="150.0" class="orbit" />
<circle cx="343.0097857574756" cy="86.24800729145846" r="50" fill="#f1e05a" class="planet" />
<text x="358.0097857574756" y="91.24800729145846" class="text" fill="white">REDSHIFT</text>
<circle cx="400" cy="225" r="240.0" class="orbit" />
<circle cx="512.1891648938786" cy="12.835933107384704" r="50" fill="#e34c26" class="planet" />
<text x="527.1891648938786" y="17.835933107384704" class="text" fill="white">CIRCLE-13</text>
<circle cx="400" cy="225" r="330.0" class="orbit" />
<circle cx="566.863977069991" cy="-59.70407997846729" r="50" fill="#e34c26" class="planet" />
<text x="581.863977069991" y="-54.70407997846729" class="text" fill="white">ALVRYN-AI</text>
<circle cx="400" cy="225" r="415.422" class="orbit" />
<circle cx="-1.86228970703786" cy="119.72826497384582" r="46.948" fill="#f1e05a" class="planet" />
<text x="13.13771029296214" y="124.72826497384582" class="text" fill="white">DRIFT-CIRCLE13</text>
<circle cx="400" cy="225" r="461.8095" class="orbit" />
<circle cx="839.144380563763" cy="82.10063922634589" r="20.925" fill="#2b7489" class="planet" />
<text x="854.144380563763" y="87.10063922634589" class="text" fill="white">DSATM-EXAM-SYSTEM-</text>
<circle cx="400" cy="225" r="504.8415" class="orbit" />
<circle cx="221.0171873744312" cy="697.0488247066087" r="18.688" fill="#8b949e" class="planet" />
<text x="236.0171873744312" y="702.0488247066087" class="text" fill="white">NBHARATH1306</text>
<circle cx="400" cy="225" r="547.074" class="orbit" />
<circle cx="467.4703067661306" cy="-317.8975218039627" r="18.155" fill="#e34c26" class="planet" />
<text x="482.4703067661306" y="-312.8975218039627" class="text" fill="white">WEBSITE-EQUDATOR-TRADING-PLATFORM</text>
<circle cx="400" cy="225" r="577.9064999999999" class="orbit" />
<circle cx="36.69692250515703" cy="674.4294122829814" r="10.555" fill="#8b949e" class="planet" />
<text x="51.69692250515703" y="679.4294122829814" class="text" fill="white">FLASK</text>
<circle cx="400" cy="225" r="608.1795" class="orbit" />
<circle cx="777.6960259755648" cy="701.6843989292238" r="10.182" fill="#8b949e" class="planet" />
<text x="792.6960259755648" y="706.6843989292238" class="text" fill="white">HCF-INTERNSHIP</text>
<circle cx="400" cy="225" r="637.0485" class="orbit" />
<circle cx="-112.83442628423268" cy="602.9307377946016" r="9.246" fill="#8b949e" class="planet" />

    <text x="400" y="40" text-anchor="middle" class="title">SYSTEM SINGULARITY</text>
    </svg>