<svg width="800" height="450" xmlns="http://www.w3.org/2000/svg">
    <style>
        .orbit { fill: none; stroke: #30363d; stroke-width: 1; opacity: 0.5; }
        .planet { filter: drop-shadow(0 0 5px rgba(255,255,255,0.3)); }
        .text { font-family: 'Courier New', monospace; fill: #8b949e; font-size: 10px; }
        .title { font-family: sans-serif; fill: white; font-weight: bold; font-size: 24px; letter-spacing: 4px; }
        .hud-line { stroke: #00ffff; stroke-width: 1; opacity: 0.3; }
        
        /* ANIMATIONS */
        @keyframes pulse { 0% { r: 25; opacity: 0.8; } 50% { r: 30; opacity: 0.4; } 100% { r: 25; opacity: 0.8; } }
        .sun { animation: pulse 4s infinite; }
    </style>
    
    <rect width="100%" height="100%" fill="#0d1117" />
    
    <line x1="50" y1="50" x2="50" y2="400" class="hud-line" />
    <line x1="50" y1="400" x2="750" y2="400" class="hud-line" />
    <text x="60" y="390" class="text">SYS_TIME: 2026.06.07 :: 0236</text>
    <text x="60" y="375" class="text">SECTOR: N_BHARATH_PRIME</text>
    
    <circle cx="400" cy="225" r="25" fill="url(#grad1)" class="sun" />
    <defs>
        <radialGradient id="grad1" cx="50%" cy="50%" r="50%" fx="50%" fy="50%">
            <stop offset="0%" style="stop-color:white;stop-opacity:1" />
            <stop offset="100%" style="stop-color:#00ffff;stop-opacity:1" />
        </radialGradient>
    </defs>
    <circle cx="400" cy="225" r="150.0" class="orbit" />
<circle cx="404.25130268972555" cy="75.06025735169368" r="50" fill="#e34c26" class="planet" />
<text x="419.25130268972555" y="80.06025735169368" class="text" fill="white">CIRCLE13</text>
<circle cx="400" cy="225" r="240.0" class="orbit" />
<circle cx="557.1105794002036" cy="406.42840417236846" r="50" fill="#f1e05a" class="planet" />
<text x="572.1105794002036" y="411.42840417236846" class="text" fill="white">REDSHIFT</text>
<circle cx="400" cy="225" r="330.0" class="orbit" />
<circle cx="308.95188167409356" cy="-92.19117287420175" r="50" fill="#e34c26" class="planet" />
<text x="323.95188167409356" y="-87.19117287420175" class="text" fill="white">ALVRYN-AI</text>
<circle cx="400" cy="225" r="415.422" class="orbit" />
<circle cx="11.551878697323389" cy="77.7468331735407" r="46.948" fill="#f1e05a" class="planet" />
<text x="26.55187869732339" y="82.7468331735407" class="text" fill="white">DRIFT-CIRCLE13</text>
<circle cx="400" cy="225" r="461.8095" class="orbit" />
<circle cx="45.60528457191833" cy="-71.09525488750916" r="20.925" fill="#2b7489" class="planet" />
<text x="60.60528457191833" y="-66.09525488750916" class="text" fill="white">DSATM-EXAM-SYSTEM-</text>
<circle cx="400" cy="225" r="504.9375" class="orbit" />
<circle cx="637.6357083923198" cy="670.5234550538617" r="18.752" fill="#8b949e" class="planet" />
<text x="652.6357083923198" y="675.5234550538617" class="text" fill="white">NBHARATH1306</text>
<circle cx="400" cy="225" r="547.17" class="orbit" />
<circle cx="145.4873567085384" cy="709.3741563138905" r="18.155" fill="#e34c26" class="planet" />
<text x="160.4873567085384" y="714.3741563138905" class="text" fill="white">WEBSITE-EQUDATOR-TRADING-PLATFORM</text>
<circle cx="400" cy="225" r="578.0024999999999" class="orbit" />
<circle cx="330.75643059920867" cy="-348.83988890882074" r="10.555" fill="#8b949e" class="planet" />
<text x="345.75643059920867" y="-343.83988890882074" class="text" fill="white">FLASK</text>
<circle cx="400" cy="225" r="608.2755" class="orbit" />
<circle cx="519.8811163420323" cy="-371.34520359003307" r="10.182" fill="#8b949e" class="planet" />
<text x="534.8811163420323" y="-366.34520359003307" class="text" fill="white">HCF-INTERNSHIP</text>
<circle cx="400" cy="225" r="637.1445" class="orbit" />
<circle cx="571.4867678434036" cy="-388.63295408156876" r="9.246" fill="#8b949e" class="planet" />

    <text x="400" y="40" text-anchor="middle" class="title">SYSTEM SINGULARITY</text>
    </svg>