<svg width="800" height="450" xmlns="http://www.w3.org/2000/svg">
    <style>
        .orbit { fill: none; stroke: #30363d; stroke-width: 1; opacity: 0.5; }
        .planet { filter: drop-shadow(0 0 5px rgba(255,255,255,0.3)); }
        .text { font-family: 'Courier New', monospace; fill: #8b949e; font-size: 10px; }
        .title { font-family: sans-serif; fill: white; font-weight: bold; font-size: 24px; letter-spacing: 4px; }
        .hud-line { stroke: #00ffff; stroke-width: 1; opacity: 0.3; }
        
        /* ANIMATIONS */
        @keyframes pulse { 0% { r: 25; opacity: 0.8; } 50% { r: 30; opacity: 0.4; } 100% { r: 25; opacity: 0.8; } }
        .sun { animation: pulse 4s infinite; }
    </style>
    
    <rect width="100%" height="100%" fill="#0d1117" />
    
    <line x1="50" y1="50" x2="50" y2="400" class="hud-line" />
    <line x1="50" y1="400" x2="750" y2="400" class="hud-line" />
    <text x="60" y="390" class="text">SYS_TIME: 2026.03.10 :: 0108</text>
    <text x="60" y="375" class="text">SECTOR: N_BHARATH_PRIME</text>
    
    <circle cx="400" cy="225" r="25" fill="url(#grad1)" class="sun" />
    <defs>
        <radialGradient id="grad1" cx="50%" cy="50%" r="50%" fx="50%" fy="50%">
            <stop offset="0%" style="stop-color:white;stop-opacity:1" />
            <stop offset="100%" style="stop-color:#00ffff;stop-opacity:1" />
        </radialGradient>
    </defs>
    <circle cx="400" cy="225" r="150.0" class="orbit" />
<circle cx="254.13295050351533" cy="190.03138734250257" r="50" fill="#f1e05a" class="planet" />
<text x="269.1329505035153" y="195.03138734250257" class="text" fill="white">REDSHIFT</text>
<circle cx="400" cy="225" r="240.0" class="orbit" />
<circle cx="486.75754910657713" cy="1.2297435470480877" r="50" fill="#e34c26" class="planet" />
<text x="501.75754910657713" y="6.229743547048088" class="text" fill="white">CIRCLE-13</text>
<circle cx="400" cy="225" r="330.0" class="orbit" />
<circle cx="728.9319472924712" cy="198.4712599171591" r="50" fill="#e34c26" class="planet" />
<text x="743.9319472924712" y="203.4712599171591" class="text" fill="white">ALVRYN-AI</text>
<circle cx="400" cy="225" r="415.422" class="orbit" />
<circle cx="815.3600498944888" cy="217.8259470556869" r="46.948" fill="#f1e05a" class="planet" />
<text x="830.3600498944888" y="222.8259470556869" class="text" fill="white">DRIFT-CIRCLE13</text>
<circle cx="400" cy="225" r="461.8095" class="orbit" />
<circle cx="237.26175789731107" cy="657.1854681124489" r="20.925" fill="#2b7489" class="planet" />
<text x="252.26175789731107" y="662.1854681124489" class="text" fill="white">DSATM-EXAM-SYSTEM-</text>
<circle cx="400" cy="225" r="504.8505" class="orbit" />
<circle cx="497.41611175213586" cy="-270.3626232583009" r="18.694" fill="#8b949e" class="planet" />
<text x="512.4161117521359" y="-265.3626232583009" class="text" fill="white">NBHARATH1306</text>
<circle cx="400" cy="225" r="547.083" class="orbit" />
<circle cx="124.08273386398247" cy="-247.40816159019312" r="18.155" fill="#e34c26" class="planet" />
<text x="139.08273386398247" y="-242.40816159019312" class="text" fill="white">WEBSITE-EQUDATOR-TRADING-PLATFORM</text>
<circle cx="400" cy="225" r="577.9155" class="orbit" />
<circle cx="-14.67909960459798" cy="-177.52648296897166" r="10.555" fill="#8b949e" class="planet" />
<text x="0.3209003954020204" y="-172.52648296897166" class="text" fill="white">FLASK</text>
<circle cx="400" cy="225" r="608.1885" class="orbit" />
<circle cx="119.74825493803019" cy="-314.77051690692656" r="10.182" fill="#8b949e" class="planet" />
<text x="134.7482549380302" y="-309.77051690692656" class="text" fill="white">HCF-INTERNSHIP</text>
<circle cx="400" cy="225" r="637.0575" class="orbit" />
<circle cx="127.35361428081075" cy="800.76575676269" r="9.246" fill="#8b949e" class="planet" />

    <text x="400" y="40" text-anchor="middle" class="title">SYSTEM SINGULARITY</text>
    </svg>