<svg width="800" height="450" xmlns="http://www.w3.org/2000/svg">
    <style>
        .orbit { fill: none; stroke: #30363d; stroke-width: 1; opacity: 0.5; }
        .planet { filter: drop-shadow(0 0 5px rgba(255,255,255,0.3)); }
        .text { font-family: 'Courier New', monospace; fill: #8b949e; font-size: 10px; }
        .title { font-family: sans-serif; fill: white; font-weight: bold; font-size: 24px; letter-spacing: 4px; }
        .hud-line { stroke: #00ffff; stroke-width: 1; opacity: 0.3; }
        
        /* ANIMATIONS */
        @keyframes pulse { 0% { r: 25; opacity: 0.8; } 50% { r: 30; opacity: 0.4; } 100% { r: 25; opacity: 0.8; } }
        .sun { animation: pulse 4s infinite; }
    </style>
    
    <rect width="100%" height="100%" fill="#0d1117" />
    
    <line x1="50" y1="50" x2="50" y2="400" class="hud-line" />
    <line x1="50" y1="400" x2="750" y2="400" class="hud-line" />
    <text x="60" y="390" class="text">SYS_TIME: 2026.02.23 :: 0115</text>
    <text x="60" y="375" class="text">SECTOR: N_BHARATH_PRIME</text>
    
    <circle cx="400" cy="225" r="25" fill="url(#grad1)" class="sun" />
    <defs>
        <radialGradient id="grad1" cx="50%" cy="50%" r="50%" fx="50%" fy="50%">
            <stop offset="0%" style="stop-color:white;stop-opacity:1" />
            <stop offset="100%" style="stop-color:#00ffff;stop-opacity:1" />
        </radialGradient>
    </defs>
    <circle cx="400" cy="225" r="150.0" class="orbit" />
<circle cx="312.79200665212124" cy="347.0441145497657" r="50" fill="#f1e05a" class="planet" />
<text x="327.79200665212124" y="352.0441145497657" class="text" fill="white">REDSHIFT</text>
<circle cx="400" cy="225" r="240.0" class="orbit" />
<circle cx="538.4073562572461" cy="421.06989502185127" r="50" fill="#e34c26" class="planet" />
<text x="553.4073562572461" y="426.06989502185127" class="text" fill="white">CIRCLE-13</text>
<circle cx="400" cy="225" r="330.0" class="orbit" />
<circle cx="291.5469703148193" cy="536.6696012640715" r="50" fill="#e34c26" class="planet" />
<text x="306.5469703148193" y="541.6696012640715" class="text" fill="white">ALVRYN-AI</text>
<circle cx="400" cy="225" r="415.422" class="orbit" />
<circle cx="0.7335871627722099" cy="339.724756108228" r="46.948" fill="#f1e05a" class="planet" />
<text x="15.73358716277221" y="344.724756108228" class="text" fill="white">DRIFT-CIRCLE13</text>
<circle cx="400" cy="225" r="461.8095" class="orbit" />
<circle cx="345.5491818260889" cy="683.5881842028223" r="20.925" fill="#2b7489" class="planet" />
<text x="360.5491818260889" y="688.5881842028223" class="text" fill="white">DSATM-EXAM-SYSTEM-</text>
<circle cx="400" cy="225" r="504.82050000000004" class="orbit" />
<circle cx="-99.82081753438536" cy="295.8723329622262" r="18.674" fill="#8b949e" class="planet" />
<text x="-84.82081753438536" y="300.8723329622262" class="text" fill="white">NBHARATH1306</text>
<circle cx="400" cy="225" r="547.053" class="orbit" />
<circle cx="64.79409191416784" cy="-207.32393409728388" r="18.155" fill="#e34c26" class="planet" />
<text x="79.79409191416784" y="-202.32393409728388" class="text" fill="white">WEBSITE-EQUDATOR-TRADING-PLATFORM</text>
<circle cx="400" cy="225" r="577.8855" class="orbit" />
<circle cx="365.86024177050854" cy="801.876180838039" r="10.555" fill="#8b949e" class="planet" />
<text x="380.86024177050854" y="806.876180838039" class="text" fill="white">FLASK</text>
<circle cx="400" cy="225" r="608.1585" class="orbit" />
<circle cx="13.936929989503426" cy="694.9064450465863" r="10.182" fill="#8b949e" class="planet" />
<text x="28.936929989503426" y="699.9064450465863" class="text" fill="white">HCF-INTERNSHIP</text>
<circle cx="400" cy="225" r="637.0275" class="orbit" />
<circle cx="131.97062774136577" cy="-352.8964365376313" r="9.246" fill="#8b949e" class="planet" />

    <text x="400" y="40" text-anchor="middle" class="title">SYSTEM SINGULARITY</text>
    </svg>