<svg width="800" height="450" xmlns="http://www.w3.org/2000/svg">
    <style>
        .orbit { fill: none; stroke: #30363d; stroke-width: 1; opacity: 0.5; }
        .planet { filter: drop-shadow(0 0 5px rgba(255,255,255,0.3)); }
        .text { font-family: 'Courier New', monospace; fill: #8b949e; font-size: 10px; }
        .title { font-family: sans-serif; fill: white; font-weight: bold; font-size: 24px; letter-spacing: 4px; }
        .hud-line { stroke: #00ffff; stroke-width: 1; opacity: 0.3; }
        
        /* ANIMATIONS */
        @keyframes pulse { 0% { r: 25; opacity: 0.8; } 50% { r: 30; opacity: 0.4; } 100% { r: 25; opacity: 0.8; } }
        .sun { animation: pulse 4s infinite; }
    </style>
    
    <rect width="100%" height="100%" fill="#0d1117" />
    
    <line x1="50" y1="50" x2="50" y2="400" class="hud-line" />
    <line x1="50" y1="400" x2="750" y2="400" class="hud-line" />
    <text x="60" y="390" class="text">SYS_TIME: 2026.02.03 :: 0115</text>
    <text x="60" y="375" class="text">SECTOR: N_BHARATH_PRIME</text>
    
    <circle cx="400" cy="225" r="25" fill="url(#grad1)" class="sun" />
    <defs>
        <radialGradient id="grad1" cx="50%" cy="50%" r="50%" fx="50%" fy="50%">
            <stop offset="0%" style="stop-color:white;stop-opacity:1" />
            <stop offset="100%" style="stop-color:#00ffff;stop-opacity:1" />
        </radialGradient>
    </defs>
    <circle cx="400" cy="225" r="150.0" class="orbit" />
<circle cx="549.9744388509093" cy="227.76905965173594" r="50" fill="#f1e05a" class="planet" />
<text x="564.9744388509093" y="232.76905965173594" class="text" fill="white">REDSHIFT</text>
<circle cx="400" cy="225" r="240.0" class="orbit" />
<circle cx="530.9570735116528" cy="426.1224624383452" r="50" fill="#e34c26" class="planet" />
<text x="545.9570735116528" y="431.1224624383452" class="text" fill="white">CIRCLE-13</text>
<circle cx="400" cy="225" r="330.0" class="orbit" />
<circle cx="665.6074863169129" cy="29.161640089560194" r="50" fill="#e34c26" class="planet" />
<text x="680.6074863169129" y="34.161640089560194" class="text" fill="white">ALVRYN-AI</text>
<circle cx="400" cy="225" r="415.422" class="orbit" />
<circle cx="13.465151900618594" cy="377.2046296562236" r="46.948" fill="#f1e05a" class="planet" />
<text x="28.465151900618594" y="382.2046296562236" class="text" fill="white">DRIFT-CIRCLE13</text>
<circle cx="400" cy="225" r="461.8095" class="orbit" />
<circle cx="833.2560435187152" cy="384.8662411041155" r="20.925" fill="#2b7489" class="planet" />
<text x="848.2560435187152" y="389.8662411041155" class="text" fill="white">DSATM-EXAM-SYSTEM-</text>
<circle cx="400" cy="225" r="504.80850000000004" class="orbit" />
<circle cx="903.5555104426035" cy="260.5453172040859" r="18.666" fill="#8b949e" class="planet" />
<text x="918.5555104426035" y="265.5453172040859" class="text" fill="white">NBHARATH1306</text>
<circle cx="400" cy="225" r="547.041" class="orbit" />
<circle cx="-100.38485583502211" cy="446.06300398747" r="18.155" fill="#e34c26" class="planet" />
<text x="-85.38485583502211" y="451.06300398747" class="text" fill="white">WEBSITE-EQUDATOR-TRADING-PLATFORM</text>
<circle cx="400" cy="225" r="577.8735" class="orbit" />
<circle cx="917.131529381073" cy="482.90068499762157" r="10.555" fill="#8b949e" class="planet" />
<text x="932.131529381073" y="487.90068499762157" class="text" fill="white">FLASK</text>
<circle cx="400" cy="225" r="608.1465000000001" class="orbit" />
<circle cx="-190.29875364976147" cy="371.2516560651139" r="10.182" fill="#8b949e" class="planet" />
<text x="-175.29875364976147" y="376.2516560651139" class="text" fill="white">HCF-INTERNSHIP</text>
<circle cx="400" cy="225" r="637.0155000000001" class="orbit" />
<circle cx="351.50053941027625" cy="860.1665526165212" r="9.246" fill="#8b949e" class="planet" />

    <text x="400" y="40" text-anchor="middle" class="title">SYSTEM SINGULARITY</text>
    </svg>