<svg width="800" height="450" xmlns="http://www.w3.org/2000/svg">
    <style>
        .orbit { fill: none; stroke: #30363d; stroke-width: 1; opacity: 0.5; }
        .planet { filter: drop-shadow(0 0 5px rgba(255,255,255,0.3)); }
        .text { font-family: 'Courier New', monospace; fill: #8b949e; font-size: 10px; }
        .title { font-family: sans-serif; fill: white; font-weight: bold; font-size: 24px; letter-spacing: 4px; }
        .hud-line { stroke: #00ffff; stroke-width: 1; opacity: 0.3; }
        
        /* ANIMATIONS */
        @keyframes pulse { 0% { r: 25; opacity: 0.8; } 50% { r: 30; opacity: 0.4; } 100% { r: 25; opacity: 0.8; } }
        .sun { animation: pulse 4s infinite; }
    </style>
    
    <rect width="100%" height="100%" fill="#0d1117" />
    
    <line x1="50" y1="50" x2="50" y2="400" class="hud-line" />
    <line x1="50" y1="400" x2="750" y2="400" class="hud-line" />
    <text x="60" y="390" class="text">SYS_TIME: 2026.02.10 :: 0125</text>
    <text x="60" y="375" class="text">SECTOR: N_BHARATH_PRIME</text>
    
    <circle cx="400" cy="225" r="25" fill="url(#grad1)" class="sun" />
    <defs>
        <radialGradient id="grad1" cx="50%" cy="50%" r="50%" fx="50%" fy="50%">
            <stop offset="0%" style="stop-color:white;stop-opacity:1" />
            <stop offset="100%" style="stop-color:#00ffff;stop-opacity:1" />
        </radialGradient>
    </defs>
    <circle cx="400" cy="225" r="150.0" class="orbit" />
<circle cx="337.60897220874165" cy="88.59120390843404" r="50" fill="#e34c26" class="planet" />
<text x="352.60897220874165" y="93.59120390843404" class="text" fill="white">CIRCLE-13</text>
<circle cx="400" cy="225" r="240.0" class="orbit" />
<circle cx="166.7970957728062" cy="281.71336227029985" r="50" fill="#f1e05a" class="planet" />
<text x="181.7970957728062" y="286.71336227029985" class="text" fill="white">REDSHIFT</text>
<circle cx="400" cy="225" r="330.0" class="orbit" />
<circle cx="548.074340660298" cy="519.9135290861001" r="50" fill="#e34c26" class="planet" />
<text x="563.074340660298" y="524.9135290861001" class="text" fill="white">ALVRYN-AI</text>
<circle cx="400" cy="225" r="415.422" class="orbit" />
<circle cx="279.29924311364084" cy="-172.50064826495571" r="46.948" fill="#f1e05a" class="planet" />
<text x="294.29924311364084" y="-167.50064826495571" class="text" fill="white">DRIFT-CIRCLE13</text>
<circle cx="400" cy="225" r="461.8095" class="orbit" />
<circle cx="196.23574469136673" cy="-189.42507471045735" r="20.925" fill="#2b7489" class="planet" />
<text x="211.23574469136673" y="-184.42507471045735" class="text" fill="white">DSATM-EXAM-SYSTEM-</text>
<circle cx="400" cy="225" r="504.822" class="orbit" />
<circle cx="609.4814281753831" cy="684.3068505189116" r="18.675" fill="#8b949e" class="planet" />
<text x="624.4814281753831" y="689.3068505189116" class="text" fill="white">NBHARATH1306</text>
<circle cx="400" cy="225" r="547.0545" class="orbit" />
<circle cx="-50.95719821397461" cy="-84.68731221871514" r="18.155" fill="#e34c26" class="planet" />
<text x="-35.95719821397461" y="-79.68731221871514" class="text" fill="white">WEBSITE-EQUDATOR-TRADING-PLATFORM</text>
<circle cx="400" cy="225" r="577.887" class="orbit" />
<circle cx="788.0573501984184" cy="653.2112536190309" r="10.555" fill="#8b949e" class="planet" />
<text x="803.0573501984184" y="658.2112536190309" class="text" fill="white">FLASK</text>
<circle cx="400" cy="225" r="608.16" class="orbit" />
<circle cx="-88.07776845970159" cy="587.8204480668061" r="10.182" fill="#8b949e" class="planet" />
<text x="-73.07776845970159" y="592.8204480668061" class="text" fill="white">HCF-INTERNSHIP</text>
<circle cx="400" cy="225" r="637.029" class="orbit" />
<circle cx="448.6752818238287" cy="-410.16664252806197" r="9.246" fill="#8b949e" class="planet" />

    <text x="400" y="40" text-anchor="middle" class="title">SYSTEM SINGULARITY</text>
    </svg>