<svg width="800" height="450" xmlns="http://www.w3.org/2000/svg">
    <style>
        .orbit { fill: none; stroke: #30363d; stroke-width: 1; opacity: 0.5; }
        .planet { filter: drop-shadow(0 0 5px rgba(255,255,255,0.3)); }
        .text { font-family: 'Courier New', monospace; fill: #8b949e; font-size: 10px; }
        .title { font-family: sans-serif; fill: white; font-weight: bold; font-size: 24px; letter-spacing: 4px; }
        .hud-line { stroke: #00ffff; stroke-width: 1; opacity: 0.3; }
        
        /* ANIMATIONS */
        @keyframes pulse { 0% { r: 25; opacity: 0.8; } 50% { r: 30; opacity: 0.4; } 100% { r: 25; opacity: 0.8; } }
        .sun { animation: pulse 4s infinite; }
    </style>
    
    <rect width="100%" height="100%" fill="#0d1117" />
    
    <line x1="50" y1="50" x2="50" y2="400" class="hud-line" />
    <line x1="50" y1="400" x2="750" y2="400" class="hud-line" />
    <text x="60" y="390" class="text">SYS_TIME: 2026.02.21 :: 0110</text>
    <text x="60" y="375" class="text">SECTOR: N_BHARATH_PRIME</text>
    
    <circle cx="400" cy="225" r="25" fill="url(#grad1)" class="sun" />
    <defs>
        <radialGradient id="grad1" cx="50%" cy="50%" r="50%" fx="50%" fy="50%">
            <stop offset="0%" style="stop-color:white;stop-opacity:1" />
            <stop offset="100%" style="stop-color:#00ffff;stop-opacity:1" />
        </radialGradient>
    </defs>
    <circle cx="400" cy="225" r="150.0" class="orbit" />
<circle cx="516.9937410167772" cy="131.12527196897315" r="50" fill="#f1e05a" class="planet" />
<text x="531.9937410167772" y="136.12527196897315" class="text" fill="white">REDSHIFT</text>
<circle cx="400" cy="225" r="240.0" class="orbit" />
<circle cx="216.33725583577137" cy="70.5072933564011" r="50" fill="#e34c26" class="planet" />
<text x="231.33725583577137" y="75.5072933564011" class="text" fill="white">CIRCLE-13</text>
<circle cx="400" cy="225" r="330.0" class="orbit" />
<circle cx="74.78982032225593" cy="281.0208803391149" r="50" fill="#e34c26" class="planet" />
<text x="89.78982032225593" y="286.0208803391149" class="text" fill="white">ALVRYN-AI</text>
<circle cx="400" cy="225" r="415.422" class="orbit" />
<circle cx="225.3578007849067" cy="601.9290919222284" r="46.948" fill="#f1e05a" class="planet" />
<text x="240.3578007849067" y="606.9290919222284" class="text" fill="white">DRIFT-CIRCLE13</text>
<circle cx="400" cy="225" r="461.8095" class="orbit" />
<circle cx="-13.906170176464343" cy="429.816250771519" r="20.925" fill="#2b7489" class="planet" />
<text x="1.093829823535657" y="434.816250771519" class="text" fill="white">DSATM-EXAM-SYSTEM-</text>
<circle cx="400" cy="225" r="504.8175" class="orbit" />
<circle cx="353.0601004165728" cy="727.630434945346" r="18.672" fill="#8b949e" class="planet" />
<text x="368.0601004165728" y="732.630434945346" class="text" fill="white">NBHARATH1306</text>
<circle cx="400" cy="225" r="547.05" class="orbit" />
<circle cx="912.5022645361703" cy="416.3246752128364" r="18.155" fill="#e34c26" class="planet" />
<text x="927.5022645361703" y="421.3246752128364" class="text" fill="white">WEBSITE-EQUDATOR-TRADING-PLATFORM</text>
<circle cx="400" cy="225" r="577.8824999999999" class="orbit" />
<circle cx="648.6979008801699" cy="746.629694231499" r="10.555" fill="#8b949e" class="planet" />
<text x="663.6979008801699" y="751.629694231499" class="text" fill="white">FLASK</text>
<circle cx="400" cy="225" r="608.1555" class="orbit" />
<circle cx="732.8568022352033" cy="733.9788417861835" r="10.182" fill="#8b949e" class="planet" />
<text x="747.8568022352033" y="738.9788417861835" class="text" fill="white">HCF-INTERNSHIP</text>
<circle cx="400" cy="225" r="637.0245" class="orbit" />
<circle cx="969.5977787727363" cy="-60.23426164718512" r="9.246" fill="#8b949e" class="planet" />

    <text x="400" y="40" text-anchor="middle" class="title">SYSTEM SINGULARITY</text>
    </svg>