<svg width="800" height="450" xmlns="http://www.w3.org/2000/svg">
    <style>
        .orbit { fill: none; stroke: #30363d; stroke-width: 1; opacity: 0.5; }
        .planet { filter: drop-shadow(0 0 5px rgba(255,255,255,0.3)); }
        .text { font-family: 'Courier New', monospace; fill: #8b949e; font-size: 10px; }
        .title { font-family: sans-serif; fill: white; font-weight: bold; font-size: 24px; letter-spacing: 4px; }
        .hud-line { stroke: #00ffff; stroke-width: 1; opacity: 0.3; }
        
        /* ANIMATIONS */
        @keyframes pulse { 0% { r: 25; opacity: 0.8; } 50% { r: 30; opacity: 0.4; } 100% { r: 25; opacity: 0.8; } }
        .sun { animation: pulse 4s infinite; }
    </style>
    
    <rect width="100%" height="100%" fill="#0d1117" />
    
    <line x1="50" y1="50" x2="50" y2="400" class="hud-line" />
    <line x1="50" y1="400" x2="750" y2="400" class="hud-line" />
    <text x="60" y="390" class="text">SYS_TIME: 2026.04.13 :: 0148</text>
    <text x="60" y="375" class="text">SECTOR: N_BHARATH_PRIME</text>
    
    <circle cx="400" cy="225" r="25" fill="url(#grad1)" class="sun" />
    <defs>
        <radialGradient id="grad1" cx="50%" cy="50%" r="50%" fx="50%" fy="50%">
            <stop offset="0%" style="stop-color:white;stop-opacity:1" />
            <stop offset="100%" style="stop-color:#00ffff;stop-opacity:1" />
        </radialGradient>
    </defs>
    <circle cx="400" cy="225" r="150.0" class="orbit" />
<circle cx="276.03214043613383" cy="140.54900950756377" r="50" fill="#e34c26" class="planet" />
<text x="291.03214043613383" y="145.54900950756377" class="text" fill="white">CIRCLE13</text>
<circle cx="400" cy="225" r="240.0" class="orbit" />
<circle cx="550.2192840020502" cy="37.82583855160087" r="50" fill="#f1e05a" class="planet" />
<text x="565.2192840020502" y="42.82583855160087" class="text" fill="white">REDSHIFT</text>
<circle cx="400" cy="225" r="330.0" class="orbit" />
<circle cx="102.50537079473878" cy="82.1821243890522" r="50" fill="#e34c26" class="planet" />
<text x="117.50537079473878" y="87.1821243890522" class="text" fill="white">ALVRYN-AI</text>
<circle cx="400" cy="225" r="415.422" class="orbit" />
<circle cx="312.9317052062131" cy="631.1952118448742" r="46.948" fill="#f1e05a" class="planet" />
<text x="327.9317052062131" y="636.1952118448742" class="text" fill="white">DRIFT-CIRCLE13</text>
<circle cx="400" cy="225" r="461.8095" class="orbit" />
<circle cx="-52.331171151467004" cy="131.91656487326952" r="20.925" fill="#2b7489" class="planet" />
<text x="-37.331171151467004" y="136.91656487326952" class="text" fill="white">DSATM-EXAM-SYSTEM-</text>
<circle cx="400" cy="225" r="504.873" class="orbit" />
<circle cx="92.35696698892093" cy="-175.3155135249496" r="18.709" fill="#8b949e" class="planet" />
<text x="107.35696698892093" y="-170.3155135249496" class="text" fill="white">NBHARATH1306</text>
<circle cx="400" cy="225" r="547.1055" class="orbit" />
<circle cx="187.05809120111863" cy="728.9644547062212" r="18.155" fill="#e34c26" class="planet" />
<text x="202.05809120111863" y="733.9644547062212" class="text" fill="white">WEBSITE-EQUDATOR-TRADING-PLATFORM</text>
<circle cx="400" cy="225" r="577.938" class="orbit" />
<circle cx="813.4479367252094" cy="-178.82314874418392" r="10.555" fill="#8b949e" class="planet" />
<text x="828.4479367252094" y="-173.82314874418392" class="text" fill="white">FLASK</text>
<circle cx="400" cy="225" r="608.211" class="orbit" />
<circle cx="471.7804359024451" cy="828.9604205100322" r="10.182" fill="#8b949e" class="planet" />
<text x="486.7804359024451" y="833.9604205100322" class="text" fill="white">HCF-INTERNSHIP</text>
<circle cx="400" cy="225" r="637.08" class="orbit" />
<circle cx="353.45623598750143" cy="-410.37752905776335" r="9.246" fill="#8b949e" class="planet" />

    <text x="400" y="40" text-anchor="middle" class="title">SYSTEM SINGULARITY</text>
    </svg>