<svg width="800" height="450" xmlns="http://www.w3.org/2000/svg">
    <style>
        .orbit { fill: none; stroke: #30363d; stroke-width: 1; opacity: 0.5; }
        .planet { filter: drop-shadow(0 0 5px rgba(255,255,255,0.3)); }
        .text { font-family: 'Courier New', monospace; fill: #8b949e; font-size: 10px; }
        .title { font-family: sans-serif; fill: white; font-weight: bold; font-size: 24px; letter-spacing: 4px; }
        .hud-line { stroke: #00ffff; stroke-width: 1; opacity: 0.3; }
        
        /* ANIMATIONS */
        @keyframes pulse { 0% { r: 25; opacity: 0.8; } 50% { r: 30; opacity: 0.4; } 100% { r: 25; opacity: 0.8; } }
        .sun { animation: pulse 4s infinite; }
    </style>
    
    <rect width="100%" height="100%" fill="#0d1117" />
    
    <line x1="50" y1="50" x2="50" y2="400" class="hud-line" />
    <line x1="50" y1="400" x2="750" y2="400" class="hud-line" />
    <text x="60" y="390" class="text">SYS_TIME: 2026.02.02 :: 0114</text>
    <text x="60" y="375" class="text">SECTOR: N_BHARATH_PRIME</text>
    
    <circle cx="400" cy="225" r="25" fill="url(#grad1)" class="sun" />
    <defs>
        <radialGradient id="grad1" cx="50%" cy="50%" r="50%" fx="50%" fy="50%">
            <stop offset="0%" style="stop-color:white;stop-opacity:1" />
            <stop offset="100%" style="stop-color:#00ffff;stop-opacity:1" />
        </radialGradient>
    </defs>
    <circle cx="400" cy="225" r="150.0" class="orbit" />
<circle cx="282.5887516150989" cy="131.64798474216508" r="50" fill="#f1e05a" class="planet" />
<text x="297.5887516150989" y="136.64798474216508" class="text" fill="white">REDSHIFT</text>
<circle cx="400" cy="225" r="240.0" class="orbit" />
<circle cx="255.14750876835467" cy="416.3576645551103" r="50" fill="#e34c26" class="planet" />
<text x="270.14750876835467" y="421.3576645551103" class="text" fill="white">CIRCLE-13</text>
<circle cx="400" cy="225" r="330.0" class="orbit" />
<circle cx="498.7174908046955" cy="-89.88864223598932" r="50" fill="#e34c26" class="planet" />
<text x="513.7174908046954" y="-84.88864223598932" class="text" fill="white">ALVRYN-AI</text>
<circle cx="400" cy="225" r="415.422" class="orbit" />
<circle cx="382.3892406368777" cy="640.048550459647" r="46.948" fill="#f1e05a" class="planet" />
<text x="397.3892406368777" y="645.048550459647" class="text" fill="white">DRIFT-CIRCLE13</text>
<circle cx="400" cy="225" r="461.8095" class="orbit" />
<circle cx="-1.5517036543111544" cy="-3.0882363967293713" r="20.925" fill="#2b7489" class="planet" />
<text x="13.448296345688846" y="1.9117636032706287" class="text" fill="white">DSATM-EXAM-SYSTEM-</text>
<circle cx="400" cy="225" r="504.807" class="orbit" />
<circle cx="892.2886564725499" cy="336.7228085820071" r="18.665" fill="#8b949e" class="planet" />
<text x="907.2886564725499" y="341.7228085820071" class="text" fill="white">NBHARATH1306</text>
<circle cx="400" cy="225" r="547.0395" class="orbit" />
<circle cx="946.2939073523231" cy="196.44861912303827" r="18.155" fill="#e34c26" class="planet" />
<text x="961.2939073523231" y="201.44861912303827" class="text" fill="white">WEBSITE-EQUDATOR-TRADING-PLATFORM</text>
<circle cx="400" cy="225" r="577.872" class="orbit" />
<circle cx="918.4804470826728" cy="480.1745958690868" r="10.555" fill="#8b949e" class="planet" />
<text x="933.4804470826728" y="485.1745958690868" class="text" fill="white">FLASK</text>
<circle cx="400" cy="225" r="608.145" class="orbit" />
<circle cx="229.98836950105206" cy="808.897582218054" r="10.182" fill="#8b949e" class="planet" />
<text x="244.98836950105206" y="813.897582218054" class="text" fill="white">HCF-INTERNSHIP</text>
<circle cx="400" cy="225" r="637.014" class="orbit" />
<circle cx="-228.10301903398795" cy="118.82357287801699" r="9.246" fill="#8b949e" class="planet" />

    <text x="400" y="40" text-anchor="middle" class="title">SYSTEM SINGULARITY</text>
    </svg>