<svg width="800" height="450" xmlns="http://www.w3.org/2000/svg">
    <style>
        .orbit { fill: none; stroke: #30363d; stroke-width: 1; opacity: 0.5; }
        .planet { filter: drop-shadow(0 0 5px rgba(255,255,255,0.3)); }
        .text { font-family: 'Courier New', monospace; fill: #8b949e; font-size: 10px; }
        .title { font-family: sans-serif; fill: white; font-weight: bold; font-size: 24px; letter-spacing: 4px; }
        .hud-line { stroke: #00ffff; stroke-width: 1; opacity: 0.3; }
        
        /* ANIMATIONS */
        @keyframes pulse { 0% { r: 25; opacity: 0.8; } 50% { r: 30; opacity: 0.4; } 100% { r: 25; opacity: 0.8; } }
        .sun { animation: pulse 4s infinite; }
    </style>
    
    <rect width="100%" height="100%" fill="#0d1117" />
    
    <line x1="50" y1="50" x2="50" y2="400" class="hud-line" />
    <line x1="50" y1="400" x2="750" y2="400" class="hud-line" />
    <text x="60" y="390" class="text">SYS_TIME: 2026.03.03 :: 0115</text>
    <text x="60" y="375" class="text">SECTOR: N_BHARATH_PRIME</text>
    
    <circle cx="400" cy="225" r="25" fill="url(#grad1)" class="sun" />
    <defs>
        <radialGradient id="grad1" cx="50%" cy="50%" r="50%" fx="50%" fy="50%">
            <stop offset="0%" style="stop-color:white;stop-opacity:1" />
            <stop offset="100%" style="stop-color:#00ffff;stop-opacity:1" />
        </radialGradient>
    </defs>
    <circle cx="400" cy="225" r="150.0" class="orbit" />
<circle cx="299.7076227925047" cy="113.45880100129152" r="50" fill="#f1e05a" class="planet" />
<text x="314.7076227925047" y="118.45880100129152" class="text" fill="white">REDSHIFT</text>
<circle cx="400" cy="225" r="240.0" class="orbit" />
<circle cx="243.46730715713284" cy="406.92722740524744" r="50" fill="#e34c26" class="planet" />
<text x="258.46730715713284" y="411.92722740524744" class="text" fill="white">CIRCLE-13</text>
<circle cx="400" cy="225" r="330.0" class="orbit" />
<circle cx="719.5666692580835" cy="142.67658960359677" r="50" fill="#e34c26" class="planet" />
<text x="734.5666692580835" y="147.67658960359677" class="text" fill="white">ALVRYN-AI</text>
<circle cx="400" cy="225" r="415.422" class="orbit" />
<circle cx="812.6753474721338" cy="177.30832700823285" r="46.948" fill="#f1e05a" class="planet" />
<text x="827.6753474721338" y="182.30832700823285" class="text" fill="white">DRIFT-CIRCLE13</text>
<circle cx="400" cy="225" r="461.8095" class="orbit" />
<circle cx="48.514898948804614" cy="524.5433825496417" r="20.925" fill="#2b7489" class="planet" />
<text x="63.514898948804614" y="529.5433825496417" class="text" fill="white">DSATM-EXAM-SYSTEM-</text>
<circle cx="400" cy="225" r="504.837" class="orbit" />
<circle cx="305.0141670832979" cy="-270.82062090449637" r="18.685" fill="#8b949e" class="planet" />
<text x="320.0141670832979" y="-265.82062090449637" class="text" fill="white">NBHARATH1306</text>
<circle cx="400" cy="225" r="547.0695" class="orbit" />
<circle cx="581.4680209318975" cy="-291.09533538805636" r="18.155" fill="#e34c26" class="planet" />
<text x="596.4680209318975" y="-286.09533538805636" class="text" fill="white">WEBSITE-EQUDATOR-TRADING-PLATFORM</text>
<circle cx="400" cy="225" r="577.9019999999999" class="orbit" />
<circle cx="813.3597985040922" cy="-178.86185581787277" r="10.555" fill="#8b949e" class="planet" />
<text x="828.3597985040922" y="-173.86185581787277" class="text" fill="white">FLASK</text>
<circle cx="400" cy="225" r="608.175" class="orbit" />
<circle cx="810.0649206690862" cy="674.1364953570974" r="10.182" fill="#8b949e" class="planet" />
<text x="825.0649206690862" y="679.1364953570974" class="text" fill="white">HCF-INTERNSHIP</text>
<circle cx="400" cy="225" r="637.044" class="orbit" />
<circle cx="825.350075162906" cy="-249.23872837939984" r="9.246" fill="#8b949e" class="planet" />

    <text x="400" y="40" text-anchor="middle" class="title">SYSTEM SINGULARITY</text>
    </svg>