<svg width="800" height="450" xmlns="http://www.w3.org/2000/svg">
    <style>
        .orbit { fill: none; stroke: #30363d; stroke-width: 1; opacity: 0.5; }
        .planet { filter: drop-shadow(0 0 5px rgba(255,255,255,0.3)); }
        .text { font-family: 'Courier New', monospace; fill: #8b949e; font-size: 10px; }
        .title { font-family: sans-serif; fill: white; font-weight: bold; font-size: 24px; letter-spacing: 4px; }
        .hud-line { stroke: #00ffff; stroke-width: 1; opacity: 0.3; }
        
        /* ANIMATIONS */
        @keyframes pulse { 0% { r: 25; opacity: 0.8; } 50% { r: 30; opacity: 0.4; } 100% { r: 25; opacity: 0.8; } }
        .sun { animation: pulse 4s infinite; }
    </style>
    
    <rect width="100%" height="100%" fill="#0d1117" />
    
    <line x1="50" y1="50" x2="50" y2="400" class="hud-line" />
    <line x1="50" y1="400" x2="750" y2="400" class="hud-line" />
    <text x="60" y="390" class="text">SYS_TIME: 2026.02.17 :: 0115</text>
    <text x="60" y="375" class="text">SECTOR: N_BHARATH_PRIME</text>
    
    <circle cx="400" cy="225" r="25" fill="url(#grad1)" class="sun" />
    <defs>
        <radialGradient id="grad1" cx="50%" cy="50%" r="50%" fx="50%" fy="50%">
            <stop offset="0%" style="stop-color:white;stop-opacity:1" />
            <stop offset="100%" style="stop-color:#00ffff;stop-opacity:1" />
        </radialGradient>
    </defs>
    <circle cx="400" cy="225" r="150.0" class="orbit" />
<circle cx="267.40950846107523" cy="295.14101192217225" r="50" fill="#f1e05a" class="planet" />
<text x="282.40950846107523" y="300.14101192217225" class="text" fill="white">REDSHIFT</text>
<circle cx="400" cy="225" r="240.0" class="orbit" />
<circle cx="181.7077532593138" cy="125.25785738764493" r="50" fill="#e34c26" class="planet" />
<text x="196.7077532593138" y="130.25785738764495" class="text" fill="white">CIRCLE-13</text>
<circle cx="400" cy="225" r="330.0" class="orbit" />
<circle cx="91.38019408198937" cy="108.15045830158579" r="50" fill="#e34c26" class="planet" />
<text x="106.38019408198937" y="113.15045830158579" class="text" fill="white">ALVRYN-AI</text>
<circle cx="400" cy="225" r="415.422" class="orbit" />
<circle cx="734.2120347014015" cy="471.7341766856573" r="46.948" fill="#f1e05a" class="planet" />
<text x="749.2120347014015" y="476.7341766856573" class="text" fill="white">DRIFT-CIRCLE13</text>
<circle cx="400" cy="225" r="461.8095" class="orbit" />
<circle cx="844.5884243950724" cy="349.93657264451053" r="20.925" fill="#2b7489" class="planet" />
<text x="859.5884243950724" y="354.93657264451053" class="text" fill="white">DSATM-EXAM-SYSTEM-</text>
<circle cx="400" cy="225" r="504.80850000000004" class="orbit" />
<circle cx="147.52977302850854" cy="662.1388865855034" r="18.666" fill="#8b949e" class="planet" />
<text x="162.52977302850854" y="667.1388865855034" class="text" fill="white">NBHARATH1306</text>
<circle cx="400" cy="225" r="547.041" class="orbit" />
<circle cx="108.76568007815888" cy="-238.07280915711596" r="18.155" fill="#e34c26" class="planet" />
<text x="123.76568007815888" y="-233.07280915711596" class="text" fill="white">WEBSITE-EQUDATOR-TRADING-PLATFORM</text>
<circle cx="400" cy="225" r="577.8735" class="orbit" />
<circle cx="755.5103490101177" cy="680.5767484726962" r="10.555" fill="#8b949e" class="planet" />
<text x="770.5103490101177" y="685.5767484726962" class="text" fill="white">FLASK</text>
<circle cx="400" cy="225" r="608.1465000000001" class="orbit" />
<circle cx="63.802215354016255" cy="731.7674171268145" r="10.182" fill="#8b949e" class="planet" />
<text x="78.80221535401625" y="736.7674171268145" class="text" fill="white">HCF-INTERNSHIP</text>
<circle cx="400" cy="225" r="637.0155000000001" class="orbit" />
<circle cx="-21.991163556504773" cy="-252.19200026873597" r="9.246" fill="#8b949e" class="planet" />

    <text x="400" y="40" text-anchor="middle" class="title">SYSTEM SINGULARITY</text>
    </svg>