<svg width="800" height="450" xmlns="http://www.w3.org/2000/svg">
    <style>
        .orbit { fill: none; stroke: #30363d; stroke-width: 1; opacity: 0.5; }
        .planet { filter: drop-shadow(0 0 5px rgba(255,255,255,0.3)); }
        .text { font-family: 'Courier New', monospace; fill: #8b949e; font-size: 10px; }
        .title { font-family: sans-serif; fill: white; font-weight: bold; font-size: 24px; letter-spacing: 4px; }
        .hud-line { stroke: #00ffff; stroke-width: 1; opacity: 0.3; }
        
        /* ANIMATIONS */
        @keyframes pulse { 0% { r: 25; opacity: 0.8; } 50% { r: 30; opacity: 0.4; } 100% { r: 25; opacity: 0.8; } }
        .sun { animation: pulse 4s infinite; }
    </style>
    
    <rect width="100%" height="100%" fill="#0d1117" />
    
    <line x1="50" y1="50" x2="50" y2="400" class="hud-line" />
    <line x1="50" y1="400" x2="750" y2="400" class="hud-line" />
    <text x="60" y="390" class="text">SYS_TIME: 2026.03.30 :: 0126</text>
    <text x="60" y="375" class="text">SECTOR: N_BHARATH_PRIME</text>
    
    <circle cx="400" cy="225" r="25" fill="url(#grad1)" class="sun" />
    <defs>
        <radialGradient id="grad1" cx="50%" cy="50%" r="50%" fx="50%" fy="50%">
            <stop offset="0%" style="stop-color:white;stop-opacity:1" />
            <stop offset="100%" style="stop-color:#00ffff;stop-opacity:1" />
        </radialGradient>
    </defs>
    <circle cx="400" cy="225" r="150.0" class="orbit" />
<circle cx="250.96719671241416" cy="207.9934264402337" r="50" fill="#f1e05a" class="planet" />
<text x="265.9671967124142" y="212.9934264402337" class="text" fill="white">REDSHIFT</text>
<circle cx="400" cy="225" r="240.0" class="orbit" />
<circle cx="515.0369738869676" cy="14.366444651073863" r="50" fill="#e34c26" class="planet" />
<text x="530.0369738869676" y="19.366444651073863" class="text" fill="white">CIRCLE-13</text>
<circle cx="400" cy="225" r="330.0" class="orbit" />
<circle cx="723.1195456347407" cy="157.96449277585236" r="50" fill="#e34c26" class="planet" />
<text x="738.1195456347407" y="162.96449277585236" class="text" fill="white">ALVRYN-AI</text>
<circle cx="400" cy="225" r="415.422" class="orbit" />
<circle cx="417.51516345178277" cy="640.0525956228407" r="46.948" fill="#f1e05a" class="planet" />
<text x="432.51516345178277" y="645.0525956228407" class="text" fill="white">DRIFT-CIRCLE13</text>
<circle cx="400" cy="225" r="461.8095" class="orbit" />
<circle cx="644.8403594452445" cy="-166.56252716133787" r="20.925" fill="#2b7489" class="planet" />
<text x="659.8403594452445" y="-161.56252716133787" class="text" fill="white">DSATM-EXAM-SYSTEM-</text>
<circle cx="400" cy="225" r="504.8895" class="orbit" />
<circle cx="-73.01597846590619" cy="401.5482691112868" r="18.72" fill="#8b949e" class="planet" />
<text x="-58.01597846590619" y="406.5482691112868" class="text" fill="white">NBHARATH1306</text>
<circle cx="400" cy="225" r="547.122" class="orbit" />
<circle cx="944.7202300745112" cy="276.2089233588404" r="18.155" fill="#e34c26" class="planet" />
<text x="959.7202300745112" y="281.2089233588404" class="text" fill="white">WEBSITE-EQUDATOR-TRADING-PLATFORM</text>
<circle cx="400" cy="225" r="577.9544999999999" class="orbit" />
<circle cx="977.2320474142348" cy="253.8888820867237" r="10.555" fill="#8b949e" class="planet" />
<text x="992.2320474142348" y="258.8888820867237" class="text" fill="white">FLASK</text>
<circle cx="400" cy="225" r="608.2275" class="orbit" />
<circle cx="705.6207629449531" cy="750.8675127949955" r="10.182" fill="#8b949e" class="planet" />
<text x="720.6207629449531" y="755.8675127949955" class="text" fill="white">HCF-INTERNSHIP</text>
<circle cx="400" cy="225" r="637.0965" class="orbit" />
<circle cx="95.63423764444366" cy="784.6904796563642" r="9.246" fill="#8b949e" class="planet" />

    <text x="400" y="40" text-anchor="middle" class="title">SYSTEM SINGULARITY</text>
    </svg>