<svg width="800" height="450" xmlns="http://www.w3.org/2000/svg">
    <style>
        .orbit { fill: none; stroke: #30363d; stroke-width: 1; opacity: 0.5; }
        .planet { filter: drop-shadow(0 0 5px rgba(255,255,255,0.3)); }
        .text { font-family: 'Courier New', monospace; fill: #8b949e; font-size: 10px; }
        .title { font-family: sans-serif; fill: white; font-weight: bold; font-size: 24px; letter-spacing: 4px; }
        .hud-line { stroke: #00ffff; stroke-width: 1; opacity: 0.3; }
        
        /* ANIMATIONS */
        @keyframes pulse { 0% { r: 25; opacity: 0.8; } 50% { r: 30; opacity: 0.4; } 100% { r: 25; opacity: 0.8; } }
        .sun { animation: pulse 4s infinite; }
    </style>
    
    <rect width="100%" height="100%" fill="#0d1117" />
    
    <line x1="50" y1="50" x2="50" y2="400" class="hud-line" />
    <line x1="50" y1="400" x2="750" y2="400" class="hud-line" />
    <text x="60" y="390" class="text">SYS_TIME: 2026.06.24 :: 0214</text>
    <text x="60" y="375" class="text">SECTOR: N_BHARATH_PRIME</text>
    
    <circle cx="400" cy="225" r="25" fill="url(#grad1)" class="sun" />
    <defs>
        <radialGradient id="grad1" cx="50%" cy="50%" r="50%" fx="50%" fy="50%">
            <stop offset="0%" style="stop-color:white;stop-opacity:1" />
            <stop offset="100%" style="stop-color:#00ffff;stop-opacity:1" />
        </radialGradient>
    </defs>
    <circle cx="400" cy="225" r="150.0" class="orbit" />
<circle cx="521.947222456642" cy="312.3434309785818" r="50" fill="#e34c26" class="planet" />
<text x="536.947222456642" y="317.3434309785818" class="text" fill="white">CIRCLE13</text>
<circle cx="400" cy="225" r="240.0" class="orbit" />
<circle cx="200.05317950490985" cy="92.25487212743286" r="50" fill="#f1e05a" class="planet" />
<text x="215.05317950490985" y="97.25487212743286" class="text" fill="white">REDSHIFT</text>
<circle cx="400" cy="225" r="330.0" class="orbit" />
<circle cx="545.9841403487397" cy="520.9537645758869" r="50" fill="#e34c26" class="planet" />
<text x="560.9841403487397" y="525.9537645758869" class="text" fill="white">ALVRYN-AI</text>
<circle cx="400" cy="225" r="415.422" class="orbit" />
<circle cx="-14.4472305416989" cy="253.44171549530512" r="46.948" fill="#f1e05a" class="planet" />
<text x="0.5527694583010998" y="258.4417154953051" class="text" fill="white">DRIFT-CIRCLE13</text>
<circle cx="400" cy="225" r="461.8095" class="orbit" />
<circle cx="734.6544917155554" cy="543.2363672882992" r="20.925" fill="#2b7489" class="planet" />
<text x="749.6544917155554" y="548.2363672882992" class="text" fill="white">DSATM-EXAM-SYSTEM-</text>
<circle cx="400" cy="225" r="504.972" class="orbit" />
<circle cx="30.658292444974563" cy="-119.35943989433201" r="18.775" fill="#8b949e" class="planet" />
<text x="45.65829244497456" y="-114.35943989433201" class="text" fill="white">NBHARATH1306</text>
<circle cx="400" cy="225" r="547.2044999999999" class="orbit" />
<circle cx="922.0346803277733" cy="60.949528024667046" r="18.155" fill="#e34c26" class="planet" />
<text x="937.0346803277733" y="65.94952802466705" class="text" fill="white">WEBSITE-EQUDATOR-TRADING-PLATFORM</text>
<circle cx="400" cy="225" r="578.0369999999999" class="orbit" />
<circle cx="297.92827199165805" cy="-343.95354442203006" r="10.555" fill="#8b949e" class="planet" />
<text x="312.92827199165805" y="-338.95354442203006" class="text" fill="white">FLASK</text>
<circle cx="400" cy="225" r="608.31" class="orbit" />
<circle cx="745.7404932025597" cy="-275.5043131283192" r="10.182" fill="#8b949e" class="planet" />
<text x="760.7404932025597" y="-270.5043131283192" class="text" fill="white">HCF-INTERNSHIP</text>
<circle cx="400" cy="225" r="637.179" class="orbit" />
<circle cx="-61.93378079437946" cy="663.8784116381327" r="9.246" fill="#8b949e" class="planet" />

    <text x="400" y="40" text-anchor="middle" class="title">SYSTEM SINGULARITY</text>
    </svg>