<svg width="800" height="450" xmlns="http://www.w3.org/2000/svg">
    <style>
        .orbit { fill: none; stroke: #30363d; stroke-width: 1; opacity: 0.5; }
        .planet { filter: drop-shadow(0 0 5px rgba(255,255,255,0.3)); }
        .text { font-family: 'Courier New', monospace; fill: #8b949e; font-size: 10px; }
        .title { font-family: sans-serif; fill: white; font-weight: bold; font-size: 24px; letter-spacing: 4px; }
        .hud-line { stroke: #00ffff; stroke-width: 1; opacity: 0.3; }
        
        /* ANIMATIONS */
        @keyframes pulse { 0% { r: 25; opacity: 0.8; } 50% { r: 30; opacity: 0.4; } 100% { r: 25; opacity: 0.8; } }
        .sun { animation: pulse 4s infinite; }
    </style>
    
    <rect width="100%" height="100%" fill="#0d1117" />
    
    <line x1="50" y1="50" x2="50" y2="400" class="hud-line" />
    <line x1="50" y1="400" x2="750" y2="400" class="hud-line" />
    <text x="60" y="390" class="text">SYS_TIME: 2026.06.14 :: 0240</text>
    <text x="60" y="375" class="text">SECTOR: N_BHARATH_PRIME</text>
    
    <circle cx="400" cy="225" r="25" fill="url(#grad1)" class="sun" />
    <defs>
        <radialGradient id="grad1" cx="50%" cy="50%" r="50%" fx="50%" fy="50%">
            <stop offset="0%" style="stop-color:white;stop-opacity:1" />
            <stop offset="100%" style="stop-color:#00ffff;stop-opacity:1" />
        </radialGradient>
    </defs>
    <circle cx="400" cy="225" r="150.0" class="orbit" />
<circle cx="370.4776578871254" cy="77.93392193925075" r="50" fill="#e34c26" class="planet" />
<text x="385.4776578871254" y="82.93392193925075" class="text" fill="white">CIRCLE13</text>
<circle cx="400" cy="225" r="240.0" class="orbit" />
<circle cx="585.9158741489614" cy="376.7738045231375" r="50" fill="#f1e05a" class="planet" />
<text x="600.9158741489614" y="381.7738045231375" class="text" fill="white">REDSHIFT</text>
<circle cx="400" cy="225" r="330.0" class="orbit" />
<circle cx="545.4173284056711" cy="-71.23267983015847" r="50" fill="#e34c26" class="planet" />
<text x="560.4173284056711" y="-66.23267983015847" class="text" fill="white">ALVRYN-AI</text>
<circle cx="400" cy="225" r="415.422" class="orbit" />
<circle cx="476.1512868566882" cy="633.3826876767309" r="46.948" fill="#f1e05a" class="planet" />
<text x="491.1512868566882" y="638.3826876767309" class="text" fill="white">DRIFT-CIRCLE13</text>
<circle cx="400" cy="225" r="461.8095" class="orbit" />
<circle cx="-50.18426384342223" cy="327.966707619531" r="20.925" fill="#2b7489" class="planet" />
<text x="-35.18426384342223" y="332.966707619531" class="text" fill="white">DSATM-EXAM-SYSTEM-</text>
<circle cx="400" cy="225" r="504.951" class="orbit" />
<circle cx="805.5399205319194" cy="525.8535943876432" r="18.761" fill="#8b949e" class="planet" />
<text x="820.5399205319194" y="530.8535943876432" class="text" fill="white">NBHARATH1306</text>
<circle cx="400" cy="225" r="547.1835" class="orbit" />
<circle cx="-141.02919466151445" cy="306.8363806394385" r="18.155" fill="#e34c26" class="planet" />
<text x="-126.02919466151445" y="311.8363806394385" class="text" fill="white">WEBSITE-EQUDATOR-TRADING-PLATFORM</text>
<circle cx="400" cy="225" r="578.016" class="orbit" />
<circle cx="-19.3788653124829" cy="622.7736335973191" r="10.555" fill="#8b949e" class="planet" />
<text x="-4.378865312482901" y="627.7736335973191" class="text" fill="white">FLASK</text>
<circle cx="400" cy="225" r="608.289" class="orbit" />
<circle cx="114.26386095889052" cy="-312.0012722209136" r="10.182" fill="#8b949e" class="planet" />
<text x="129.26386095889052" y="-307.0012722209136" class="text" fill="white">HCF-INTERNSHIP</text>
<circle cx="400" cy="225" r="637.158" class="orbit" />
<circle cx="658.27864978196" cy="807.4624073970849" r="9.246" fill="#8b949e" class="planet" />

    <text x="400" y="40" text-anchor="middle" class="title">SYSTEM SINGULARITY</text>
    </svg>