<svg width="800" height="450" xmlns="http://www.w3.org/2000/svg">
    <style>
        .orbit { fill: none; stroke: #30363d; stroke-width: 1; opacity: 0.5; }
        .planet { filter: drop-shadow(0 0 5px rgba(255,255,255,0.3)); }
        .text { font-family: 'Courier New', monospace; fill: #8b949e; font-size: 10px; }
        .title { font-family: sans-serif; fill: white; font-weight: bold; font-size: 24px; letter-spacing: 4px; }
        .hud-line { stroke: #00ffff; stroke-width: 1; opacity: 0.3; }
        
        /* ANIMATIONS */
        @keyframes pulse { 0% { r: 25; opacity: 0.8; } 50% { r: 30; opacity: 0.4; } 100% { r: 25; opacity: 0.8; } }
        .sun { animation: pulse 4s infinite; }
    </style>
    
    <rect width="100%" height="100%" fill="#0d1117" />
    
    <line x1="50" y1="50" x2="50" y2="400" class="hud-line" />
    <line x1="50" y1="400" x2="750" y2="400" class="hud-line" />
    <text x="60" y="390" class="text">SYS_TIME: 2026.03.22 :: 0117</text>
    <text x="60" y="375" class="text">SECTOR: N_BHARATH_PRIME</text>
    
    <circle cx="400" cy="225" r="25" fill="url(#grad1)" class="sun" />
    <defs>
        <radialGradient id="grad1" cx="50%" cy="50%" r="50%" fx="50%" fy="50%">
            <stop offset="0%" style="stop-color:white;stop-opacity:1" />
            <stop offset="100%" style="stop-color:#00ffff;stop-opacity:1" />
        </radialGradient>
    </defs>
    <circle cx="400" cy="225" r="150.0" class="orbit" />
<circle cx="266.3312119876857" cy="293.0636107719755" r="50" fill="#f1e05a" class="planet" />
<text x="281.3312119876857" y="298.0636107719755" class="text" fill="white">REDSHIFT</text>
<circle cx="400" cy="225" r="240.0" class="orbit" />
<circle cx="634.4251290129722" cy="276.4281915611596" r="50" fill="#e34c26" class="planet" />
<text x="649.4251290129722" y="281.4281915611596" class="text" fill="white">CIRCLE-13</text>
<circle cx="400" cy="225" r="330.0" class="orbit" />
<circle cx="83.88081685764604" cy="319.7030202760762" r="50" fill="#e34c26" class="planet" />
<text x="98.88081685764604" y="324.7030202760762" class="text" fill="white">ALVRYN-AI</text>
<circle cx="400" cy="225" r="415.422" class="orbit" />
<circle cx="305.1640663980767" cy="629.4522020979136" r="46.948" fill="#f1e05a" class="planet" />
<text x="320.1640663980767" y="634.4522020979136" class="text" fill="white">DRIFT-CIRCLE13</text>
<circle cx="400" cy="225" r="461.8095" class="orbit" />
<circle cx="75.69122483786043" cy="553.7732237319256" r="20.925" fill="#2b7489" class="planet" />
<text x="90.69122483786043" y="558.7732237319256" class="text" fill="white">DSATM-EXAM-SYSTEM-</text>
<circle cx="400" cy="225" r="504.8745" class="orbit" />
<circle cx="552.4412859527025" cy="706.3106222465243" r="18.71" fill="#8b949e" class="planet" />
<text x="567.4412859527025" y="711.3106222465243" class="text" fill="white">NBHARATH1306</text>
<circle cx="400" cy="225" r="547.107" class="orbit" />
<circle cx="160.94963211939557" cy="-267.11887899688185" r="18.155" fill="#e34c26" class="planet" />
<text x="175.94963211939557" y="-262.11887899688185" class="text" fill="white">WEBSITE-EQUDATOR-TRADING-PLATFORM</text>
<circle cx="400" cy="225" r="577.9395" class="orbit" />
<circle cx="416.20289600303755" cy="802.7123261809156" r="10.555" fill="#8b949e" class="planet" />
<text x="431.20289600303755" y="807.7123261809156" class="text" fill="white">FLASK</text>
<circle cx="400" cy="225" r="608.2125" class="orbit" />
<circle cx="6.978943501633182" cy="689.1733451041298" r="10.182" fill="#8b949e" class="planet" />
<text x="21.978943501633182" y="694.1733451041298" class="text" fill="white">HCF-INTERNSHIP</text>
<circle cx="400" cy="225" r="637.0815" class="orbit" />
<circle cx="-38.577314772631325" cy="687.0852482054347" r="9.246" fill="#8b949e" class="planet" />

    <text x="400" y="40" text-anchor="middle" class="title">SYSTEM SINGULARITY</text>
    </svg>