<svg width="800" height="450" xmlns="http://www.w3.org/2000/svg">
    <style>
        .orbit { fill: none; stroke: #30363d; stroke-width: 1; opacity: 0.5; }
        .planet { filter: drop-shadow(0 0 5px rgba(255,255,255,0.3)); }
        .text { font-family: 'Courier New', monospace; fill: #8b949e; font-size: 10px; }
        .title { font-family: sans-serif; fill: white; font-weight: bold; font-size: 24px; letter-spacing: 4px; }
        .hud-line { stroke: #00ffff; stroke-width: 1; opacity: 0.3; }
        
        /* ANIMATIONS */
        @keyframes pulse { 0% { r: 25; opacity: 0.8; } 50% { r: 30; opacity: 0.4; } 100% { r: 25; opacity: 0.8; } }
        .sun { animation: pulse 4s infinite; }
    </style>
    
    <rect width="100%" height="100%" fill="#0d1117" />
    
    <line x1="50" y1="50" x2="50" y2="400" class="hud-line" />
    <line x1="50" y1="400" x2="750" y2="400" class="hud-line" />
    <text x="60" y="390" class="text">SYS_TIME: 2026.02.07 :: 0109</text>
    <text x="60" y="375" class="text">SECTOR: N_BHARATH_PRIME</text>
    
    <circle cx="400" cy="225" r="25" fill="url(#grad1)" class="sun" />
    <defs>
        <radialGradient id="grad1" cx="50%" cy="50%" r="50%" fx="50%" fy="50%">
            <stop offset="0%" style="stop-color:white;stop-opacity:1" />
            <stop offset="100%" style="stop-color:#00ffff;stop-opacity:1" />
        </radialGradient>
    </defs>
    <circle cx="400" cy="225" r="150.0" class="orbit" />
<circle cx="285.52645458829227" cy="128.0680269422226" r="50" fill="#e34c26" class="planet" />
<text x="300.52645458829227" y="133.0680269422226" class="text" fill="white">CIRCLE-13</text>
<circle cx="400" cy="225" r="240.0" class="orbit" />
<circle cx="593.5703697549012" cy="366.8820353425719" r="50" fill="#f1e05a" class="planet" />
<text x="608.5703697549012" y="371.8820353425719" class="text" fill="white">REDSHIFT</text>
<circle cx="400" cy="225" r="330.0" class="orbit" />
<circle cx="118.8127035932759" cy="397.7243594270277" r="50" fill="#e34c26" class="planet" />
<text x="133.8127035932759" y="402.7243594270277" class="text" fill="white">ALVRYN-AI</text>
<circle cx="400" cy="225" r="415.422" class="orbit" />
<circle cx="813.3193404308315" cy="266.7439924997882" r="46.948" fill="#f1e05a" class="planet" />
<text x="828.3193404308315" y="271.7439924997882" class="text" fill="white">DRIFT-CIRCLE13</text>
<circle cx="400" cy="225" r="461.8095" class="orbit" />
<circle cx="832.4467661412436" cy="62.95738602382863" r="20.925" fill="#2b7489" class="planet" />
<text x="847.4467661412436" y="67.95738602382863" class="text" fill="white">DSATM-EXAM-SYSTEM-</text>
<circle cx="400" cy="225" r="504.81600000000003" class="orbit" />
<circle cx="-30.231000080201852" cy="489.08422979418776" r="18.671" fill="#8b949e" class="planet" />
<text x="-15.231000080201852" y="494.08422979418776" class="text" fill="white">NBHARATH1306</text>
<circle cx="400" cy="225" r="547.0485" class="orbit" />
<circle cx="58.80121614564581" cy="652.6043162183465" r="18.155" fill="#e34c26" class="planet" />
<text x="73.80121614564581" y="657.6043162183465" class="text" fill="white">WEBSITE-EQUDATOR-TRADING-PLATFORM</text>
<circle cx="400" cy="225" r="577.881" class="orbit" />
<circle cx="199.21648019878828" cy="766.8786103337503" r="10.555" fill="#8b949e" class="planet" />
<text x="214.21648019878828" y="771.8786103337503" class="text" fill="white">FLASK</text>
<circle cx="400" cy="225" r="608.154" class="orbit" />
<circle cx="-178.6473492909654" cy="37.867606025735114" r="10.182" fill="#8b949e" class="planet" />
<text x="-163.6473492909654" y="42.867606025735114" class="text" fill="white">HCF-INTERNSHIP</text>
<circle cx="400" cy="225" r="637.023" class="orbit" />
<circle cx="-104.36129452257967" cy="-164.12464213476335" r="9.246" fill="#8b949e" class="planet" />

    <text x="400" y="40" text-anchor="middle" class="title">SYSTEM SINGULARITY</text>
    </svg>